G04 #@! TF.GenerationSoftware,KiCad,Pcbnew,(5.1.5)-3*
G04 #@! TF.CreationDate,2021-12-17T23:07:34-08:00*
G04 #@! TF.ProjectId,watch_v1,77617463-685f-4763-912e-6b696361645f,rev?*
G04 #@! TF.SameCoordinates,Original*
G04 #@! TF.FileFunction,Copper,L3,Inr*
G04 #@! TF.FilePolarity,Positive*
%FSLAX46Y46*%
G04 Gerber Fmt 4.6, Leading zero omitted, Abs format (unit mm)*
G04 Created by KiCad (PCBNEW (5.1.5)-3) date 2021-12-17 23:07:34*
%MOMM*%
%LPD*%
G04 APERTURE LIST*
%ADD10C,0.050000*%
%ADD11O,1.300000X1.300000*%
%ADD12R,1.300000X1.300000*%
%ADD13O,1.700000X1.700000*%
%ADD14R,1.700000X1.700000*%
%ADD15C,5.000000*%
%ADD16C,0.800000*%
%ADD17C,1.600200*%
%ADD18C,0.381000*%
%ADD19C,0.254000*%
%ADD20C,0.762000*%
G04 APERTURE END LIST*
D10*
X155752624Y-53294380D02*
G75*
G02X148089479Y-44241041I-27838224J-15793620D01*
G01*
X155752800Y-53294280D02*
X157038040Y-52242720D01*
X149407880Y-43159680D02*
X157038040Y-52242720D01*
X148089480Y-44241040D02*
X149407880Y-43159680D01*
D11*
X145333360Y-71823360D03*
X147833360Y-71823360D03*
X145333360Y-73298360D03*
X147833360Y-73298360D03*
X145333360Y-74773360D03*
X147833360Y-74773360D03*
X145333360Y-76248360D03*
X147833360Y-76248360D03*
X145333360Y-77723360D03*
X147833360Y-77723360D03*
X145333360Y-79198360D03*
X147833360Y-79198360D03*
X145333360Y-80673360D03*
X147833360Y-80673360D03*
X145333360Y-82148360D03*
X147833360Y-82148360D03*
X145333360Y-83623360D03*
X147833360Y-83623360D03*
X145333360Y-85098360D03*
X147833360Y-85098360D03*
X145333360Y-86573360D03*
D12*
X147833360Y-86573360D03*
D13*
X141655800Y-43205400D03*
X139115800Y-43205400D03*
X136575800Y-43205400D03*
D14*
X134035800Y-43205400D03*
D13*
X118719600Y-43637200D03*
D14*
X116179600Y-43637200D03*
D15*
X100787200Y-60568840D03*
D16*
X115786400Y-60128400D03*
X125590800Y-53981600D03*
D17*
X120617480Y-67281040D03*
X123157480Y-77451200D03*
X120617480Y-77451200D03*
X123157480Y-67281040D03*
X124857260Y-45229520D03*
X127397260Y-45229520D03*
X129937260Y-45229520D03*
X100190040Y-67628020D03*
X100190040Y-65088020D03*
X100190040Y-70168020D03*
X100134160Y-75715380D03*
X100134160Y-80795380D03*
X100134160Y-78255380D03*
X105601000Y-50705000D03*
X102425240Y-67628020D03*
X102425240Y-65088020D03*
X102425240Y-70168020D03*
X110173000Y-45701200D03*
X102369360Y-80795380D03*
X102369360Y-78255380D03*
X102369360Y-75715380D03*
X113119400Y-67281040D03*
X115659400Y-67281040D03*
X113119400Y-77451200D03*
X115659400Y-77451200D03*
X107610140Y-58713620D03*
X107610140Y-56173620D03*
X107836200Y-50705000D03*
X107836200Y-48165000D03*
D16*
X121298200Y-52991000D03*
X121298200Y-55531000D03*
X119723400Y-60560200D03*
X121272800Y-58045600D03*
X139688000Y-52496400D03*
X149533360Y-55026560D03*
X147711160Y-65923160D03*
X146771360Y-66553080D03*
X143459200Y-69946520D03*
X155366720Y-82031840D03*
X155366720Y-83185000D03*
X153857960Y-81285080D03*
X152166320Y-88463120D03*
X155635960Y-76916280D03*
X156707840Y-76880720D03*
X157784800Y-76865480D03*
D17*
X157058360Y-71104760D03*
X157104080Y-65831720D03*
X145491200Y-47081440D03*
X145491200Y-44653200D03*
D16*
X138181080Y-74777600D03*
X138165840Y-79375000D03*
X128315720Y-49443640D03*
X128325880Y-50601880D03*
X150174960Y-85542120D03*
X151480520Y-89275920D03*
X125436480Y-50295960D03*
X151246840Y-48895000D03*
X147873720Y-49687480D03*
X146161760Y-93385640D03*
X147228560Y-92471240D03*
D17*
X124907040Y-38384480D03*
X128818640Y-38384480D03*
X132730240Y-38384480D03*
D16*
X105753400Y-57461400D03*
X117056400Y-60382400D03*
X118326400Y-60865000D03*
X118047000Y-94240600D03*
X116269000Y-62744600D03*
X124021080Y-62780160D03*
X149138640Y-56896000D03*
X143316960Y-55158640D03*
X151303596Y-57987324D03*
X143322040Y-54157880D03*
X152587960Y-57058560D03*
X141086840Y-53954680D03*
X149697440Y-51226720D03*
X139562840Y-53954680D03*
X154172920Y-52054760D03*
X132339960Y-96204160D03*
X136753600Y-59395360D03*
X141674600Y-49428400D03*
X119049800Y-47777400D03*
D17*
X124170440Y-92166440D03*
D16*
X141538920Y-65435520D03*
X139009080Y-78399600D03*
X156286160Y-81193680D03*
X152608240Y-60787320D03*
X142849560Y-65445680D03*
X136580920Y-75143320D03*
X136342080Y-65435520D03*
X142680640Y-90169960D03*
X153847840Y-77922160D03*
X151292520Y-60787320D03*
X157789840Y-62113200D03*
X141123120Y-94985480D03*
X137647640Y-65430440D03*
X139034480Y-86405680D03*
X144144960Y-65425360D03*
X138998920Y-73756480D03*
X148122600Y-91227960D03*
X156499520Y-62113200D03*
X157342880Y-75524400D03*
X153096878Y-63672720D03*
X145445440Y-65445680D03*
X136555520Y-70535760D03*
X138943040Y-65440600D03*
X139034480Y-82834440D03*
X153852920Y-73197760D03*
X151775160Y-63672720D03*
X153334680Y-87116960D03*
X155204120Y-62118280D03*
X140238440Y-65440600D03*
X136545360Y-79689920D03*
X153858000Y-82484000D03*
X153908720Y-60772080D03*
X137327640Y-90830400D03*
X138292840Y-57404000D03*
D18*
X147726400Y-56896000D02*
X149138640Y-56896000D01*
X134035800Y-43205400D02*
X147726400Y-56896000D01*
D19*
X150903597Y-58387323D02*
X145448363Y-58387323D01*
X151303596Y-57987324D02*
X150903597Y-58387323D01*
X143316960Y-56255920D02*
X143316960Y-55118000D01*
X145448363Y-58387323D02*
X143316960Y-56255920D01*
X152587960Y-57058560D02*
X151156398Y-57058560D01*
X150591957Y-57623001D02*
X146897923Y-57623001D01*
X146897923Y-57623001D02*
X143665921Y-54390999D01*
X143555159Y-54390999D02*
X143322040Y-54157880D01*
X151156398Y-57058560D02*
X150591957Y-57623001D01*
X143665921Y-54390999D02*
X143555159Y-54390999D01*
D20*
X146564361Y-79548121D02*
X146914122Y-79198360D01*
X146564361Y-89772761D02*
X146564361Y-79548121D01*
X144133241Y-92203881D02*
X146564361Y-89772761D01*
X146914122Y-79198360D02*
X147833360Y-79198360D01*
X124588881Y-92203881D02*
X144133241Y-92203881D01*
X146252598Y-79198360D02*
X145333360Y-79198360D01*
X146564361Y-79510123D02*
X146252598Y-79198360D01*
X146564361Y-79548121D02*
X146564361Y-79510123D01*
D19*
X138443395Y-78399600D02*
X139009080Y-78399600D01*
X134920499Y-74876704D02*
X138443395Y-78399600D01*
X134920499Y-69810685D02*
X134920499Y-74876704D01*
X135830445Y-68900739D02*
X134920499Y-69810685D01*
X138073701Y-68900739D02*
X135830445Y-68900739D01*
X141538920Y-65435520D02*
X138073701Y-68900739D01*
X155720475Y-81193680D02*
X150594149Y-76067354D01*
X156286160Y-81193680D02*
X155720475Y-81193680D01*
X152208241Y-60387321D02*
X152608240Y-60787320D01*
X151881239Y-60060319D02*
X152208241Y-60387321D01*
X150943559Y-60060319D02*
X151881239Y-60060319D01*
X150565519Y-61136281D02*
X150565519Y-60438359D01*
X150565519Y-60438359D02*
X150943559Y-60060319D01*
X150594149Y-61164911D02*
X150565519Y-61136281D01*
X150594149Y-76067354D02*
X150594149Y-61164911D01*
X136180921Y-74743321D02*
X136580920Y-75143320D01*
X135374509Y-69998742D02*
X135374509Y-73936909D01*
X136018502Y-69354749D02*
X135374509Y-69998742D01*
X138940491Y-69354749D02*
X136018502Y-69354749D01*
X135374509Y-73936909D02*
X136180921Y-74743321D01*
X142849560Y-65445680D02*
X138940491Y-69354749D01*
X141722798Y-90169960D02*
X142680640Y-90169960D01*
X133104459Y-81551621D02*
X141722798Y-90169960D01*
X136342080Y-65435520D02*
X133104459Y-68673141D01*
X133104459Y-68673141D02*
X133104459Y-81551621D01*
X153447841Y-77522161D02*
X153847840Y-77922160D01*
X151292520Y-63079398D02*
X151048159Y-63323759D01*
X151048159Y-75122479D02*
X153447841Y-77522161D01*
X151048159Y-63323759D02*
X151048159Y-75122479D01*
X151292520Y-60787320D02*
X151292520Y-63079398D01*
X137647640Y-65430440D02*
X137647640Y-66688944D01*
X137647640Y-66688944D02*
X136850120Y-67486464D01*
X133558469Y-80929669D02*
X138634481Y-86005681D01*
X133558469Y-69246514D02*
X133558469Y-80929669D01*
X138634481Y-86005681D02*
X139034480Y-86405680D01*
X135318520Y-67486464D02*
X133558469Y-69246514D01*
X136850120Y-67486464D02*
X135318520Y-67486464D01*
X138433235Y-73756480D02*
X138998920Y-73756480D01*
X135828519Y-70186799D02*
X135828519Y-71151764D01*
X136206559Y-69808759D02*
X135828519Y-70186799D01*
X135828519Y-71151764D02*
X138433235Y-73756480D01*
X139761561Y-69808759D02*
X136206559Y-69808759D01*
X144144960Y-65425360D02*
X139761561Y-69808759D01*
X153096878Y-71278398D02*
X157342880Y-75524400D01*
X153096878Y-63672720D02*
X153096878Y-71278398D01*
X140355360Y-70535760D02*
X136555520Y-70535760D01*
X145445440Y-65445680D02*
X140355360Y-70535760D01*
X138943040Y-65440600D02*
X138943040Y-66747268D01*
X138943040Y-66747268D02*
X137749834Y-67940474D01*
X134012479Y-69434571D02*
X134012479Y-78378124D01*
X138468795Y-82834440D02*
X139034480Y-82834440D01*
X134012479Y-78378124D02*
X138468795Y-82834440D01*
X135506577Y-67940474D02*
X134012479Y-69434571D01*
X137749834Y-67940474D02*
X135506577Y-67940474D01*
X151775160Y-71120000D02*
X153852920Y-73197760D01*
X151775160Y-63672720D02*
X151775160Y-71120000D01*
X152934681Y-86716961D02*
X153334680Y-87116960D01*
X149657499Y-83439779D02*
X152934681Y-86716961D01*
X150567445Y-59152299D02*
X149657499Y-60062245D01*
X149657499Y-60062245D02*
X149657499Y-83439779D01*
X153364901Y-59152299D02*
X150567445Y-59152299D01*
X155204120Y-60991518D02*
X153364901Y-59152299D01*
X155204120Y-62118280D02*
X155204120Y-60991518D01*
X140238440Y-65440600D02*
X140238440Y-66093934D01*
X136145361Y-79289921D02*
X136545360Y-79689920D01*
X134466489Y-77611049D02*
X136145361Y-79289921D01*
X134466489Y-69622628D02*
X134466489Y-77611049D01*
X135642388Y-68446729D02*
X134466489Y-69622628D01*
X137885645Y-68446729D02*
X135642388Y-68446729D01*
X140238440Y-66093934D02*
X137885645Y-68446729D01*
X153458001Y-82084001D02*
X153858000Y-82484000D01*
X150111509Y-78737509D02*
X153458001Y-82084001D01*
X150111509Y-60250302D02*
X150111509Y-78737509D01*
X150755502Y-59606309D02*
X150111509Y-60250302D01*
X152742949Y-59606309D02*
X150755502Y-59606309D01*
X153908720Y-60772080D02*
X152742949Y-59606309D01*
G36*
X130336797Y-37835813D02*
G01*
X132510936Y-38080920D01*
X134662679Y-38477088D01*
X136781552Y-39022392D01*
X138857227Y-39714174D01*
X140879584Y-40549059D01*
X142838783Y-41522986D01*
X144725263Y-42631204D01*
X146533072Y-43870529D01*
X147652279Y-44737235D01*
X147668611Y-44753576D01*
X147722714Y-44789748D01*
X147722765Y-44789785D01*
X147722818Y-44789818D01*
X147776689Y-44825835D01*
X147896786Y-44875621D01*
X148024290Y-44901020D01*
X148154298Y-44901057D01*
X148281815Y-44875730D01*
X148401941Y-44826012D01*
X148482969Y-44771904D01*
X149322089Y-44083653D01*
X156102630Y-52155296D01*
X155309773Y-52803998D01*
X155281696Y-52831991D01*
X155281332Y-52832337D01*
X155281160Y-52832525D01*
X155240774Y-52872790D01*
X155168384Y-52980780D01*
X155118453Y-53100818D01*
X155108254Y-53151692D01*
X155108100Y-53152292D01*
X155107716Y-53154378D01*
X155092899Y-53228290D01*
X155092814Y-53285378D01*
X155092643Y-53289401D01*
X155092799Y-53295113D01*
X155092705Y-53358298D01*
X155104968Y-53420434D01*
X155106029Y-53426728D01*
X155107024Y-53430852D01*
X155117878Y-53485846D01*
X155145994Y-53554013D01*
X155147677Y-53558270D01*
X155148207Y-53559378D01*
X155167450Y-53606032D01*
X155182938Y-53629287D01*
X156190787Y-55559765D01*
X157065590Y-57565185D01*
X157798366Y-59626726D01*
X158229754Y-61175143D01*
X158091738Y-61117974D01*
X157891779Y-61078200D01*
X157687901Y-61078200D01*
X157487942Y-61117974D01*
X157299584Y-61195995D01*
X157144680Y-61299498D01*
X156989776Y-61195995D01*
X156801418Y-61117974D01*
X156601459Y-61078200D01*
X156397581Y-61078200D01*
X156197622Y-61117974D01*
X156009264Y-61195995D01*
X155966120Y-61224823D01*
X155966120Y-61028940D01*
X155969806Y-60991517D01*
X155964760Y-60940281D01*
X155955094Y-60842140D01*
X155911522Y-60698503D01*
X155840765Y-60566126D01*
X155745542Y-60450096D01*
X155716472Y-60426239D01*
X153930185Y-58639953D01*
X153906323Y-58610877D01*
X153790293Y-58515654D01*
X153657916Y-58444897D01*
X153514279Y-58401325D01*
X153402327Y-58390299D01*
X153402324Y-58390299D01*
X153364901Y-58386613D01*
X153327478Y-58390299D01*
X152256954Y-58390299D01*
X152298822Y-58289222D01*
X152338596Y-58089263D01*
X152338596Y-58064236D01*
X152486021Y-58093560D01*
X152689899Y-58093560D01*
X152889858Y-58053786D01*
X153078216Y-57975765D01*
X153247734Y-57862497D01*
X153391897Y-57718334D01*
X153505165Y-57548816D01*
X153583186Y-57360458D01*
X153622960Y-57160499D01*
X153622960Y-56956621D01*
X153583186Y-56756662D01*
X153505165Y-56568304D01*
X153391897Y-56398786D01*
X153247734Y-56254623D01*
X153078216Y-56141355D01*
X152889858Y-56063334D01*
X152689899Y-56023560D01*
X152486021Y-56023560D01*
X152286062Y-56063334D01*
X152097704Y-56141355D01*
X151928186Y-56254623D01*
X151886249Y-56296560D01*
X151193820Y-56296560D01*
X151156397Y-56292874D01*
X151118974Y-56296560D01*
X151118972Y-56296560D01*
X151007020Y-56307586D01*
X150863383Y-56351158D01*
X150731006Y-56421915D01*
X150614976Y-56517138D01*
X150591118Y-56546209D01*
X150276327Y-56861001D01*
X150173640Y-56861001D01*
X150173640Y-56794061D01*
X150133866Y-56594102D01*
X150055845Y-56405744D01*
X149942577Y-56236226D01*
X149798414Y-56092063D01*
X149628896Y-55978795D01*
X149440538Y-55900774D01*
X149240579Y-55861000D01*
X149036701Y-55861000D01*
X148836742Y-55900774D01*
X148648384Y-55978795D01*
X148511137Y-56070500D01*
X148068333Y-56070500D01*
X143122614Y-51124781D01*
X148662440Y-51124781D01*
X148662440Y-51328659D01*
X148702214Y-51528618D01*
X148780235Y-51716976D01*
X148893503Y-51886494D01*
X149037666Y-52030657D01*
X149207184Y-52143925D01*
X149395542Y-52221946D01*
X149595501Y-52261720D01*
X149799379Y-52261720D01*
X149999338Y-52221946D01*
X150187696Y-52143925D01*
X150357214Y-52030657D01*
X150501377Y-51886494D01*
X150614645Y-51716976D01*
X150692666Y-51528618D01*
X150732440Y-51328659D01*
X150732440Y-51124781D01*
X150692666Y-50924822D01*
X150614645Y-50736464D01*
X150575480Y-50677848D01*
X152429209Y-50677848D01*
X152429209Y-50891574D01*
X152470905Y-51101194D01*
X152552694Y-51298651D01*
X152671434Y-51476358D01*
X152822562Y-51627486D01*
X153000269Y-51746226D01*
X153165408Y-51814628D01*
X153137920Y-51952821D01*
X153137920Y-52156699D01*
X153177694Y-52356658D01*
X153255715Y-52545016D01*
X153368983Y-52714534D01*
X153513146Y-52858697D01*
X153682664Y-52971965D01*
X153871022Y-53049986D01*
X154070981Y-53089760D01*
X154274859Y-53089760D01*
X154474818Y-53049986D01*
X154663176Y-52971965D01*
X154832694Y-52858697D01*
X154976857Y-52714534D01*
X155090125Y-52545016D01*
X155168146Y-52356658D01*
X155207920Y-52156699D01*
X155207920Y-51952821D01*
X155168146Y-51752862D01*
X155090125Y-51564504D01*
X154976857Y-51394986D01*
X154832694Y-51250823D01*
X154663176Y-51137555D01*
X154558874Y-51094351D01*
X154599209Y-50891574D01*
X154599209Y-50677848D01*
X154557513Y-50468228D01*
X154475724Y-50270771D01*
X154356984Y-50093064D01*
X154205856Y-49941936D01*
X154028149Y-49823196D01*
X153830692Y-49741407D01*
X153621072Y-49699711D01*
X153407346Y-49699711D01*
X153197726Y-49741407D01*
X153000269Y-49823196D01*
X152822562Y-49941936D01*
X152671434Y-50093064D01*
X152552694Y-50270771D01*
X152470905Y-50468228D01*
X152429209Y-50677848D01*
X150575480Y-50677848D01*
X150501377Y-50566946D01*
X150357214Y-50422783D01*
X150187696Y-50309515D01*
X149999338Y-50231494D01*
X149799379Y-50191720D01*
X149595501Y-50191720D01*
X149395542Y-50231494D01*
X149207184Y-50309515D01*
X149037666Y-50422783D01*
X148893503Y-50566946D01*
X148780235Y-50736464D01*
X148702214Y-50924822D01*
X148662440Y-51124781D01*
X143122614Y-51124781D01*
X142271908Y-50274075D01*
X142334374Y-50232337D01*
X142478537Y-50088174D01*
X142591805Y-49918656D01*
X142669826Y-49730298D01*
X142709600Y-49530339D01*
X142709600Y-49326461D01*
X142669826Y-49126502D01*
X142591805Y-48938144D01*
X142478537Y-48768626D01*
X142334374Y-48624463D01*
X142164856Y-48511195D01*
X141976498Y-48433174D01*
X141776539Y-48393400D01*
X141572661Y-48393400D01*
X141372702Y-48433174D01*
X141184344Y-48511195D01*
X141014826Y-48624463D01*
X140870663Y-48768626D01*
X140828925Y-48831092D01*
X138845459Y-46847626D01*
X149215271Y-46847626D01*
X149215271Y-47061352D01*
X149256967Y-47270972D01*
X149338756Y-47468429D01*
X149457496Y-47646136D01*
X149608624Y-47797264D01*
X149786331Y-47916004D01*
X149983788Y-47997793D01*
X150193408Y-48039489D01*
X150407134Y-48039489D01*
X150616754Y-47997793D01*
X150814211Y-47916004D01*
X150991918Y-47797264D01*
X151143046Y-47646136D01*
X151261786Y-47468429D01*
X151343575Y-47270972D01*
X151385271Y-47061352D01*
X151385271Y-46847626D01*
X151343575Y-46638006D01*
X151261786Y-46440549D01*
X151143046Y-46262842D01*
X150991918Y-46111714D01*
X150814211Y-45992974D01*
X150616754Y-45911185D01*
X150407134Y-45869489D01*
X150193408Y-45869489D01*
X149983788Y-45911185D01*
X149786331Y-45992974D01*
X149608624Y-46111714D01*
X149457496Y-46262842D01*
X149338756Y-46440549D01*
X149256967Y-46638006D01*
X149215271Y-46847626D01*
X138845459Y-46847626D01*
X136688232Y-44690400D01*
X136722060Y-44690400D01*
X137008958Y-44633332D01*
X137279211Y-44521390D01*
X137522432Y-44358875D01*
X137729275Y-44152032D01*
X137850995Y-43969866D01*
X137920622Y-44086755D01*
X138115531Y-44302988D01*
X138348880Y-44477041D01*
X138611701Y-44602225D01*
X138758910Y-44646876D01*
X138988800Y-44525555D01*
X138988800Y-43332400D01*
X138968800Y-43332400D01*
X138968800Y-43078400D01*
X138988800Y-43078400D01*
X138988800Y-41885245D01*
X139242800Y-41885245D01*
X139242800Y-43078400D01*
X139262800Y-43078400D01*
X139262800Y-43332400D01*
X139242800Y-43332400D01*
X139242800Y-44525555D01*
X139472690Y-44646876D01*
X139619899Y-44602225D01*
X139882720Y-44477041D01*
X140116069Y-44302988D01*
X140310978Y-44086755D01*
X140380605Y-43969866D01*
X140502325Y-44152032D01*
X140709168Y-44358875D01*
X140952389Y-44521390D01*
X141222642Y-44633332D01*
X141509540Y-44690400D01*
X141802060Y-44690400D01*
X142088958Y-44633332D01*
X142359211Y-44521390D01*
X142602432Y-44358875D01*
X142809275Y-44152032D01*
X142971790Y-43908811D01*
X143083732Y-43638558D01*
X143140800Y-43351660D01*
X143140800Y-43059140D01*
X143083732Y-42772242D01*
X142971790Y-42501989D01*
X142809275Y-42258768D01*
X142602432Y-42051925D01*
X142359211Y-41889410D01*
X142088958Y-41777468D01*
X141802060Y-41720400D01*
X141509540Y-41720400D01*
X141222642Y-41777468D01*
X140952389Y-41889410D01*
X140709168Y-42051925D01*
X140502325Y-42258768D01*
X140380605Y-42440934D01*
X140310978Y-42324045D01*
X140116069Y-42107812D01*
X139882720Y-41933759D01*
X139619899Y-41808575D01*
X139472690Y-41763924D01*
X139242800Y-41885245D01*
X138988800Y-41885245D01*
X138758910Y-41763924D01*
X138611701Y-41808575D01*
X138348880Y-41933759D01*
X138115531Y-42107812D01*
X137920622Y-42324045D01*
X137850995Y-42440934D01*
X137729275Y-42258768D01*
X137522432Y-42051925D01*
X137279211Y-41889410D01*
X137008958Y-41777468D01*
X136722060Y-41720400D01*
X136429540Y-41720400D01*
X136142642Y-41777468D01*
X135872389Y-41889410D01*
X135629168Y-42051925D01*
X135497313Y-42183780D01*
X135475302Y-42111220D01*
X135416337Y-42000906D01*
X135336985Y-41904215D01*
X135240294Y-41824863D01*
X135129980Y-41765898D01*
X135010282Y-41729588D01*
X134885800Y-41717328D01*
X133185800Y-41717328D01*
X133061318Y-41729588D01*
X132941620Y-41765898D01*
X132831306Y-41824863D01*
X132734615Y-41904215D01*
X132655263Y-42000906D01*
X132596298Y-42111220D01*
X132559988Y-42230918D01*
X132547728Y-42355400D01*
X132547728Y-44055400D01*
X132559988Y-44179882D01*
X132596298Y-44299580D01*
X132655263Y-44409894D01*
X132734615Y-44506585D01*
X132831306Y-44585937D01*
X132941620Y-44644902D01*
X133061318Y-44681212D01*
X133185800Y-44693472D01*
X134356440Y-44693472D01*
X142882595Y-53219628D01*
X142831784Y-53240675D01*
X142662266Y-53353943D01*
X142518103Y-53498106D01*
X142404835Y-53667624D01*
X142326814Y-53855982D01*
X142287040Y-54055941D01*
X142287040Y-54259819D01*
X142326814Y-54459778D01*
X142404835Y-54648136D01*
X142409060Y-54654459D01*
X142399755Y-54668384D01*
X142321734Y-54856742D01*
X142281960Y-55056701D01*
X142281960Y-55260579D01*
X142321734Y-55460538D01*
X142399755Y-55648896D01*
X142513023Y-55818414D01*
X142554960Y-55860351D01*
X142554960Y-56218496D01*
X142551274Y-56255920D01*
X142554960Y-56293343D01*
X142554960Y-56293345D01*
X142565986Y-56405297D01*
X142609558Y-56548934D01*
X142620421Y-56569257D01*
X142680315Y-56681312D01*
X142705792Y-56712355D01*
X142775538Y-56797342D01*
X142804614Y-56821204D01*
X144883084Y-58899675D01*
X144906941Y-58928745D01*
X145022971Y-59023968D01*
X145155348Y-59094725D01*
X145298985Y-59138297D01*
X145410937Y-59149323D01*
X145410939Y-59149323D01*
X145448362Y-59153009D01*
X145485785Y-59149323D01*
X149492791Y-59149323D01*
X149145153Y-59496961D01*
X149116077Y-59520823D01*
X149068972Y-59578221D01*
X149020854Y-59636853D01*
X148991757Y-59691291D01*
X148950097Y-59769231D01*
X148906525Y-59912868D01*
X148896131Y-60018406D01*
X148891813Y-60062245D01*
X148895499Y-60099668D01*
X148895499Y-71100024D01*
X148831485Y-71004220D01*
X148652500Y-70825235D01*
X148442036Y-70684607D01*
X148208181Y-70587741D01*
X147959921Y-70538360D01*
X147706799Y-70538360D01*
X147458539Y-70587741D01*
X147224684Y-70684607D01*
X147014220Y-70825235D01*
X146835235Y-71004220D01*
X146694607Y-71214684D01*
X146597741Y-71448539D01*
X146583360Y-71520839D01*
X146568979Y-71448539D01*
X146472113Y-71214684D01*
X146331485Y-71004220D01*
X146152500Y-70825235D01*
X145942036Y-70684607D01*
X145708181Y-70587741D01*
X145459921Y-70538360D01*
X145206799Y-70538360D01*
X144958539Y-70587741D01*
X144724684Y-70684607D01*
X144514220Y-70825235D01*
X144335235Y-71004220D01*
X144194607Y-71214684D01*
X144097741Y-71448539D01*
X144048360Y-71696799D01*
X144048360Y-71949921D01*
X144097741Y-72198181D01*
X144194607Y-72432036D01*
X144280685Y-72560860D01*
X144194607Y-72689684D01*
X144097741Y-72923539D01*
X144048360Y-73171799D01*
X144048360Y-73424921D01*
X144097741Y-73673181D01*
X144194607Y-73907036D01*
X144280685Y-74035860D01*
X144194607Y-74164684D01*
X144097741Y-74398539D01*
X144048360Y-74646799D01*
X144048360Y-74899921D01*
X144097741Y-75148181D01*
X144194607Y-75382036D01*
X144280685Y-75510860D01*
X144194607Y-75639684D01*
X144097741Y-75873539D01*
X144048360Y-76121799D01*
X144048360Y-76374921D01*
X144097741Y-76623181D01*
X144194607Y-76857036D01*
X144280685Y-76985860D01*
X144194607Y-77114684D01*
X144097741Y-77348539D01*
X144048360Y-77596799D01*
X144048360Y-77849921D01*
X144097741Y-78098181D01*
X144194607Y-78332036D01*
X144280685Y-78460860D01*
X144194607Y-78589684D01*
X144097741Y-78823539D01*
X144048360Y-79071799D01*
X144048360Y-79324921D01*
X144097741Y-79573181D01*
X144194607Y-79807036D01*
X144280685Y-79935860D01*
X144194607Y-80064684D01*
X144097741Y-80298539D01*
X144048360Y-80546799D01*
X144048360Y-80799921D01*
X144097741Y-81048181D01*
X144194607Y-81282036D01*
X144280685Y-81410860D01*
X144194607Y-81539684D01*
X144097741Y-81773539D01*
X144048360Y-82021799D01*
X144048360Y-82274921D01*
X144097741Y-82523181D01*
X144194607Y-82757036D01*
X144280685Y-82885860D01*
X144194607Y-83014684D01*
X144097741Y-83248539D01*
X144048360Y-83496799D01*
X144048360Y-83749921D01*
X144097741Y-83998181D01*
X144194607Y-84232036D01*
X144280685Y-84360860D01*
X144194607Y-84489684D01*
X144097741Y-84723539D01*
X144048360Y-84971799D01*
X144048360Y-85224921D01*
X144097741Y-85473181D01*
X144194607Y-85707036D01*
X144280685Y-85835860D01*
X144194607Y-85964684D01*
X144097741Y-86198539D01*
X144048360Y-86446799D01*
X144048360Y-86699921D01*
X144097741Y-86948181D01*
X144194607Y-87182036D01*
X144335235Y-87392500D01*
X144514220Y-87571485D01*
X144724684Y-87712113D01*
X144958539Y-87808979D01*
X145206799Y-87858360D01*
X145459921Y-87858360D01*
X145548361Y-87840769D01*
X145548361Y-89351920D01*
X143712401Y-91187881D01*
X142868442Y-91187881D01*
X142982538Y-91165186D01*
X143170896Y-91087165D01*
X143340414Y-90973897D01*
X143484577Y-90829734D01*
X143597845Y-90660216D01*
X143675866Y-90471858D01*
X143715640Y-90271899D01*
X143715640Y-90068021D01*
X143675866Y-89868062D01*
X143597845Y-89679704D01*
X143484577Y-89510186D01*
X143340414Y-89366023D01*
X143170896Y-89252755D01*
X142982538Y-89174734D01*
X142782579Y-89134960D01*
X142578701Y-89134960D01*
X142378742Y-89174734D01*
X142190384Y-89252755D01*
X142020866Y-89366023D01*
X142008679Y-89378210D01*
X139767170Y-87136701D01*
X139838417Y-87065454D01*
X139951685Y-86895936D01*
X140029706Y-86707578D01*
X140069480Y-86507619D01*
X140069480Y-86303741D01*
X140029706Y-86103782D01*
X139951685Y-85915424D01*
X139838417Y-85745906D01*
X139694254Y-85601743D01*
X139524736Y-85488475D01*
X139336378Y-85410454D01*
X139136419Y-85370680D01*
X139077111Y-85370680D01*
X134320469Y-80614039D01*
X134320469Y-79763744D01*
X137903511Y-83346786D01*
X137927373Y-83375862D01*
X137979033Y-83418258D01*
X138043402Y-83471085D01*
X138083011Y-83492256D01*
X138175780Y-83541842D01*
X138319417Y-83585414D01*
X138321997Y-83585668D01*
X138374706Y-83638377D01*
X138544224Y-83751645D01*
X138732582Y-83829666D01*
X138932541Y-83869440D01*
X139136419Y-83869440D01*
X139336378Y-83829666D01*
X139524736Y-83751645D01*
X139694254Y-83638377D01*
X139838417Y-83494214D01*
X139951685Y-83324696D01*
X140029706Y-83136338D01*
X140069480Y-82936379D01*
X140069480Y-82732501D01*
X140029706Y-82532542D01*
X139951685Y-82344184D01*
X139838417Y-82174666D01*
X139694254Y-82030503D01*
X139524736Y-81917235D01*
X139336378Y-81839214D01*
X139136419Y-81799440D01*
X138932541Y-81799440D01*
X138732582Y-81839214D01*
X138604325Y-81892340D01*
X137205488Y-80493503D01*
X137349297Y-80349694D01*
X137462565Y-80180176D01*
X137540586Y-79991818D01*
X137580360Y-79791859D01*
X137580360Y-79587981D01*
X137540586Y-79388022D01*
X137462565Y-79199664D01*
X137349297Y-79030146D01*
X137205134Y-78885983D01*
X137035616Y-78772715D01*
X136847258Y-78694694D01*
X136647299Y-78654920D01*
X136587990Y-78654920D01*
X135228489Y-77295419D01*
X135228489Y-76262324D01*
X137878116Y-78911952D01*
X137901973Y-78941022D01*
X138018003Y-79036245D01*
X138150380Y-79107002D01*
X138294017Y-79150574D01*
X138296597Y-79150828D01*
X138349306Y-79203537D01*
X138518824Y-79316805D01*
X138707182Y-79394826D01*
X138907141Y-79434600D01*
X139111019Y-79434600D01*
X139310978Y-79394826D01*
X139499336Y-79316805D01*
X139668854Y-79203537D01*
X139813017Y-79059374D01*
X139926285Y-78889856D01*
X140004306Y-78701498D01*
X140044080Y-78501539D01*
X140044080Y-78297661D01*
X140004306Y-78097702D01*
X139926285Y-77909344D01*
X139813017Y-77739826D01*
X139668854Y-77595663D01*
X139499336Y-77482395D01*
X139310978Y-77404374D01*
X139111019Y-77364600D01*
X138907141Y-77364600D01*
X138707182Y-77404374D01*
X138578926Y-77457500D01*
X137137581Y-76016155D01*
X137240694Y-75947257D01*
X137384857Y-75803094D01*
X137498125Y-75633576D01*
X137576146Y-75445218D01*
X137615920Y-75245259D01*
X137615920Y-75041381D01*
X137576146Y-74841422D01*
X137498125Y-74653064D01*
X137384857Y-74483546D01*
X137240694Y-74339383D01*
X137071176Y-74226115D01*
X136882818Y-74148094D01*
X136682859Y-74108320D01*
X136623551Y-74108320D01*
X136136509Y-73621279D01*
X136136509Y-72537384D01*
X137867951Y-74268826D01*
X137891813Y-74297902D01*
X137942358Y-74339383D01*
X138007842Y-74393125D01*
X138044828Y-74412894D01*
X138140220Y-74463882D01*
X138283857Y-74507454D01*
X138286437Y-74507708D01*
X138339146Y-74560417D01*
X138508664Y-74673685D01*
X138697022Y-74751706D01*
X138896981Y-74791480D01*
X139100859Y-74791480D01*
X139300818Y-74751706D01*
X139489176Y-74673685D01*
X139658694Y-74560417D01*
X139802857Y-74416254D01*
X139916125Y-74246736D01*
X139994146Y-74058378D01*
X140033920Y-73858419D01*
X140033920Y-73654541D01*
X139994146Y-73454582D01*
X139916125Y-73266224D01*
X139802857Y-73096706D01*
X139658694Y-72952543D01*
X139489176Y-72839275D01*
X139300818Y-72761254D01*
X139100859Y-72721480D01*
X138896981Y-72721480D01*
X138697022Y-72761254D01*
X138568765Y-72814380D01*
X137142633Y-71388248D01*
X137215294Y-71339697D01*
X137257231Y-71297760D01*
X140317937Y-71297760D01*
X140355360Y-71301446D01*
X140392783Y-71297760D01*
X140392786Y-71297760D01*
X140504738Y-71286734D01*
X140648375Y-71243162D01*
X140780752Y-71172405D01*
X140896782Y-71077182D01*
X140920644Y-71048106D01*
X145488071Y-66480680D01*
X145547379Y-66480680D01*
X145747338Y-66440906D01*
X145935696Y-66362885D01*
X146105214Y-66249617D01*
X146249377Y-66105454D01*
X146362645Y-65935936D01*
X146440666Y-65747578D01*
X146480440Y-65547619D01*
X146480440Y-65343741D01*
X146440666Y-65143782D01*
X146362645Y-64955424D01*
X146249377Y-64785906D01*
X146105214Y-64641743D01*
X145935696Y-64528475D01*
X145747338Y-64450454D01*
X145547379Y-64410680D01*
X145343501Y-64410680D01*
X145143542Y-64450454D01*
X144955184Y-64528475D01*
X144809277Y-64625966D01*
X144804734Y-64621423D01*
X144635216Y-64508155D01*
X144446858Y-64430134D01*
X144246899Y-64390360D01*
X144043021Y-64390360D01*
X143843062Y-64430134D01*
X143654704Y-64508155D01*
X143485186Y-64621423D01*
X143482677Y-64623932D01*
X143339816Y-64528475D01*
X143151458Y-64450454D01*
X142951499Y-64410680D01*
X142747621Y-64410680D01*
X142547662Y-64450454D01*
X142359304Y-64528475D01*
X142201216Y-64634105D01*
X142198694Y-64631583D01*
X142029176Y-64518315D01*
X141840818Y-64440294D01*
X141640859Y-64400520D01*
X141436981Y-64400520D01*
X141237022Y-64440294D01*
X141048664Y-64518315D01*
X140884879Y-64627753D01*
X140728696Y-64523395D01*
X140540338Y-64445374D01*
X140340379Y-64405600D01*
X140136501Y-64405600D01*
X139936542Y-64445374D01*
X139748184Y-64523395D01*
X139590740Y-64628595D01*
X139433296Y-64523395D01*
X139244938Y-64445374D01*
X139044979Y-64405600D01*
X138841101Y-64405600D01*
X138641142Y-64445374D01*
X138452784Y-64523395D01*
X138302943Y-64623515D01*
X138137896Y-64513235D01*
X137949538Y-64435214D01*
X137749579Y-64395440D01*
X137545701Y-64395440D01*
X137345742Y-64435214D01*
X137157384Y-64513235D01*
X136991059Y-64624370D01*
X136832336Y-64518315D01*
X136643978Y-64440294D01*
X136444019Y-64400520D01*
X136240141Y-64400520D01*
X136040182Y-64440294D01*
X135851824Y-64518315D01*
X135682306Y-64631583D01*
X135538143Y-64775746D01*
X135424875Y-64945264D01*
X135346854Y-65133622D01*
X135307080Y-65333581D01*
X135307080Y-65392890D01*
X132592113Y-68107857D01*
X132563037Y-68131719D01*
X132519624Y-68184619D01*
X132467814Y-68247749D01*
X132437861Y-68303788D01*
X132397057Y-68380127D01*
X132353485Y-68523764D01*
X132345605Y-68603775D01*
X132338773Y-68673141D01*
X132342459Y-68710564D01*
X132342460Y-81514188D01*
X132338773Y-81551621D01*
X132353486Y-81700999D01*
X132397058Y-81844636D01*
X132467814Y-81977013D01*
X132534778Y-82058608D01*
X132563038Y-82093043D01*
X132592108Y-82116900D01*
X141157519Y-90682312D01*
X141181376Y-90711382D01*
X141210446Y-90735239D01*
X141297405Y-90806605D01*
X141340677Y-90829734D01*
X141429783Y-90877362D01*
X141573420Y-90920934D01*
X141685372Y-90931960D01*
X141685375Y-90931960D01*
X141722798Y-90935646D01*
X141760221Y-90931960D01*
X141978929Y-90931960D01*
X142020866Y-90973897D01*
X142190384Y-91087165D01*
X142378742Y-91165186D01*
X142492838Y-91187881D01*
X138299843Y-91187881D01*
X138322866Y-91132298D01*
X138362640Y-90932339D01*
X138362640Y-90728461D01*
X138322866Y-90528502D01*
X138244845Y-90340144D01*
X138131577Y-90170626D01*
X137987414Y-90026463D01*
X137817896Y-89913195D01*
X137629538Y-89835174D01*
X137429579Y-89795400D01*
X137225701Y-89795400D01*
X137025742Y-89835174D01*
X136837384Y-89913195D01*
X136667866Y-90026463D01*
X136523703Y-90170626D01*
X136410435Y-90340144D01*
X136332414Y-90528502D01*
X136292640Y-90728461D01*
X136292640Y-90932339D01*
X136332414Y-91132298D01*
X136355437Y-91187881D01*
X125221419Y-91187881D01*
X125085263Y-91051725D01*
X124850215Y-90894671D01*
X124589043Y-90786490D01*
X124311785Y-90731340D01*
X124029095Y-90731340D01*
X123751837Y-90786490D01*
X123490665Y-90894671D01*
X123255617Y-91051725D01*
X123055725Y-91251617D01*
X122898671Y-91486665D01*
X122790490Y-91747837D01*
X122735340Y-92025095D01*
X122735340Y-92307785D01*
X122790490Y-92585043D01*
X122898671Y-92846215D01*
X123055725Y-93081263D01*
X123255617Y-93281155D01*
X123490665Y-93438209D01*
X123751837Y-93546390D01*
X124029095Y-93601540D01*
X124311785Y-93601540D01*
X124589043Y-93546390D01*
X124850215Y-93438209D01*
X125085263Y-93281155D01*
X125146537Y-93219881D01*
X144083339Y-93219881D01*
X144133241Y-93224796D01*
X144183143Y-93219881D01*
X144332412Y-93205179D01*
X144523928Y-93147083D01*
X144700431Y-93052741D01*
X144855137Y-92925777D01*
X144886953Y-92887009D01*
X146647941Y-91126021D01*
X147087600Y-91126021D01*
X147087600Y-91329899D01*
X147127374Y-91529858D01*
X147205395Y-91718216D01*
X147318663Y-91887734D01*
X147462826Y-92031897D01*
X147632344Y-92145165D01*
X147820702Y-92223186D01*
X148020661Y-92262960D01*
X148224539Y-92262960D01*
X148424498Y-92223186D01*
X148612856Y-92145165D01*
X148782374Y-92031897D01*
X148926537Y-91887734D01*
X149039805Y-91718216D01*
X149117826Y-91529858D01*
X149157600Y-91329899D01*
X149157600Y-91126021D01*
X149117826Y-90926062D01*
X149039805Y-90737704D01*
X148926537Y-90568186D01*
X148782374Y-90424023D01*
X148612856Y-90310755D01*
X148424498Y-90232734D01*
X148224539Y-90192960D01*
X148020661Y-90192960D01*
X147820702Y-90232734D01*
X147632344Y-90310755D01*
X147462826Y-90424023D01*
X147318663Y-90568186D01*
X147205395Y-90737704D01*
X147127374Y-90926062D01*
X147087600Y-91126021D01*
X146647941Y-91126021D01*
X147247494Y-90526469D01*
X147286257Y-90494657D01*
X147413221Y-90339951D01*
X147476703Y-90221184D01*
X147507563Y-90163449D01*
X147565659Y-89971932D01*
X147575747Y-89869504D01*
X147580361Y-89822663D01*
X147580361Y-89822662D01*
X147585276Y-89772761D01*
X147580361Y-89722859D01*
X147580361Y-87861432D01*
X148483360Y-87861432D01*
X148607842Y-87849172D01*
X148727540Y-87812862D01*
X148837854Y-87753897D01*
X148934545Y-87674545D01*
X149013897Y-87577854D01*
X149072862Y-87467540D01*
X149109172Y-87347842D01*
X149121432Y-87223360D01*
X149121432Y-85923360D01*
X149109172Y-85798878D01*
X149072862Y-85679180D01*
X149022600Y-85585149D01*
X149068979Y-85473181D01*
X149118360Y-85224921D01*
X149118360Y-84971799D01*
X149068979Y-84723539D01*
X148972113Y-84489684D01*
X148886035Y-84360860D01*
X148972113Y-84232036D01*
X149068979Y-83998181D01*
X149080886Y-83938319D01*
X149116078Y-83981201D01*
X149145148Y-84005058D01*
X152299680Y-87159591D01*
X152299680Y-87218899D01*
X152339454Y-87418858D01*
X152417475Y-87607216D01*
X152530743Y-87776734D01*
X152674906Y-87920897D01*
X152844424Y-88034165D01*
X152861127Y-88041084D01*
X152469051Y-88572257D01*
X151050078Y-90237648D01*
X149518403Y-91799984D01*
X147881462Y-93251683D01*
X146147253Y-94585652D01*
X144324221Y-95795395D01*
X142421228Y-96875031D01*
X140447558Y-97819291D01*
X138412839Y-98623571D01*
X136326967Y-99283958D01*
X134200117Y-99797232D01*
X132042630Y-100160896D01*
X129865045Y-100373174D01*
X127677939Y-100433036D01*
X125492003Y-100340187D01*
X123317864Y-100095080D01*
X121166124Y-99698912D01*
X119047235Y-99153604D01*
X116971577Y-98461828D01*
X114949211Y-97626938D01*
X112990017Y-96653014D01*
X112052422Y-96102221D01*
X131304960Y-96102221D01*
X131304960Y-96306099D01*
X131344734Y-96506058D01*
X131422755Y-96694416D01*
X131536023Y-96863934D01*
X131680186Y-97008097D01*
X131849704Y-97121365D01*
X132038062Y-97199386D01*
X132238021Y-97239160D01*
X132441899Y-97239160D01*
X132641858Y-97199386D01*
X132830216Y-97121365D01*
X132999734Y-97008097D01*
X133143897Y-96863934D01*
X133257165Y-96694416D01*
X133335186Y-96506058D01*
X133374960Y-96306099D01*
X133374960Y-96102221D01*
X133335186Y-95902262D01*
X133257165Y-95713904D01*
X133143897Y-95544386D01*
X132999734Y-95400223D01*
X132830216Y-95286955D01*
X132641858Y-95208934D01*
X132441899Y-95169160D01*
X132238021Y-95169160D01*
X132038062Y-95208934D01*
X131849704Y-95286955D01*
X131680186Y-95400223D01*
X131536023Y-95544386D01*
X131422755Y-95713904D01*
X131344734Y-95902262D01*
X131304960Y-96102221D01*
X112052422Y-96102221D01*
X111103547Y-95544802D01*
X109298956Y-94307683D01*
X109085950Y-94138661D01*
X117012000Y-94138661D01*
X117012000Y-94342539D01*
X117051774Y-94542498D01*
X117129795Y-94730856D01*
X117243063Y-94900374D01*
X117387226Y-95044537D01*
X117556744Y-95157805D01*
X117745102Y-95235826D01*
X117945061Y-95275600D01*
X118148939Y-95275600D01*
X118348898Y-95235826D01*
X118537256Y-95157805D01*
X118706774Y-95044537D01*
X118850937Y-94900374D01*
X118862184Y-94883541D01*
X140088120Y-94883541D01*
X140088120Y-95087419D01*
X140127894Y-95287378D01*
X140205915Y-95475736D01*
X140319183Y-95645254D01*
X140463346Y-95789417D01*
X140632864Y-95902685D01*
X140821222Y-95980706D01*
X141021181Y-96020480D01*
X141225059Y-96020480D01*
X141425018Y-95980706D01*
X141613376Y-95902685D01*
X141782894Y-95789417D01*
X141927057Y-95645254D01*
X142040325Y-95475736D01*
X142118346Y-95287378D01*
X142158120Y-95087419D01*
X142158120Y-94883541D01*
X142118346Y-94683582D01*
X142040325Y-94495224D01*
X141927057Y-94325706D01*
X141782894Y-94181543D01*
X141613376Y-94068275D01*
X141425018Y-93990254D01*
X141225059Y-93950480D01*
X141021181Y-93950480D01*
X140821222Y-93990254D01*
X140632864Y-94068275D01*
X140463346Y-94181543D01*
X140319183Y-94325706D01*
X140205915Y-94495224D01*
X140127894Y-94683582D01*
X140088120Y-94883541D01*
X118862184Y-94883541D01*
X118964205Y-94730856D01*
X119042226Y-94542498D01*
X119082000Y-94342539D01*
X119082000Y-94138661D01*
X119042226Y-93938702D01*
X118964205Y-93750344D01*
X118850937Y-93580826D01*
X118706774Y-93436663D01*
X118537256Y-93323395D01*
X118348898Y-93245374D01*
X118148939Y-93205600D01*
X117945061Y-93205600D01*
X117745102Y-93245374D01*
X117556744Y-93323395D01*
X117387226Y-93436663D01*
X117243063Y-93580826D01*
X117129795Y-93750344D01*
X117051774Y-93938702D01*
X117012000Y-94138661D01*
X109085950Y-94138661D01*
X107585070Y-92947705D01*
X105970213Y-91471472D01*
X104462282Y-89886206D01*
X103068595Y-88199597D01*
X101795970Y-86419900D01*
X100650576Y-84555742D01*
X99638013Y-82616235D01*
X98763212Y-80610820D01*
X98030434Y-78549274D01*
X97443239Y-76441605D01*
X97004505Y-74298145D01*
X96716360Y-72129296D01*
X96580207Y-69945611D01*
X96596711Y-67757763D01*
X96765792Y-65576390D01*
X97086624Y-63412137D01*
X97256257Y-62642661D01*
X115234000Y-62642661D01*
X115234000Y-62846539D01*
X115273774Y-63046498D01*
X115351795Y-63234856D01*
X115465063Y-63404374D01*
X115609226Y-63548537D01*
X115778744Y-63661805D01*
X115967102Y-63739826D01*
X116167061Y-63779600D01*
X116370939Y-63779600D01*
X116570898Y-63739826D01*
X116759256Y-63661805D01*
X116928774Y-63548537D01*
X117072937Y-63404374D01*
X117186205Y-63234856D01*
X117264226Y-63046498D01*
X117304000Y-62846539D01*
X117304000Y-62678221D01*
X122986080Y-62678221D01*
X122986080Y-62882099D01*
X123025854Y-63082058D01*
X123103875Y-63270416D01*
X123217143Y-63439934D01*
X123361306Y-63584097D01*
X123530824Y-63697365D01*
X123719182Y-63775386D01*
X123919141Y-63815160D01*
X124123019Y-63815160D01*
X124322978Y-63775386D01*
X124511336Y-63697365D01*
X124680854Y-63584097D01*
X124825017Y-63439934D01*
X124938285Y-63270416D01*
X125016306Y-63082058D01*
X125056080Y-62882099D01*
X125056080Y-62678221D01*
X125016306Y-62478262D01*
X124938285Y-62289904D01*
X124825017Y-62120386D01*
X124680854Y-61976223D01*
X124511336Y-61862955D01*
X124322978Y-61784934D01*
X124123019Y-61745160D01*
X123919141Y-61745160D01*
X123719182Y-61784934D01*
X123530824Y-61862955D01*
X123361306Y-61976223D01*
X123217143Y-62120386D01*
X123103875Y-62289904D01*
X123025854Y-62478262D01*
X122986080Y-62678221D01*
X117304000Y-62678221D01*
X117304000Y-62642661D01*
X117264226Y-62442702D01*
X117186205Y-62254344D01*
X117072937Y-62084826D01*
X116928774Y-61940663D01*
X116759256Y-61827395D01*
X116570898Y-61749374D01*
X116370939Y-61709600D01*
X116167061Y-61709600D01*
X115967102Y-61749374D01*
X115778744Y-61827395D01*
X115609226Y-61940663D01*
X115465063Y-62084826D01*
X115351795Y-62254344D01*
X115273774Y-62442702D01*
X115234000Y-62642661D01*
X97256257Y-62642661D01*
X97557651Y-61275511D01*
X97926029Y-60026461D01*
X114751400Y-60026461D01*
X114751400Y-60230339D01*
X114791174Y-60430298D01*
X114869195Y-60618656D01*
X114982463Y-60788174D01*
X115126626Y-60932337D01*
X115296144Y-61045605D01*
X115484502Y-61123626D01*
X115684461Y-61163400D01*
X115888339Y-61163400D01*
X116088298Y-61123626D01*
X116261975Y-61051686D01*
X116396626Y-61186337D01*
X116566144Y-61299605D01*
X116754502Y-61377626D01*
X116954461Y-61417400D01*
X117158339Y-61417400D01*
X117358298Y-61377626D01*
X117409869Y-61356264D01*
X117522463Y-61524774D01*
X117666626Y-61668937D01*
X117836144Y-61782205D01*
X118024502Y-61860226D01*
X118224461Y-61900000D01*
X118428339Y-61900000D01*
X118628298Y-61860226D01*
X118816656Y-61782205D01*
X118986174Y-61668937D01*
X119130337Y-61524774D01*
X119243605Y-61355256D01*
X119321626Y-61166898D01*
X119361400Y-60966939D01*
X119361400Y-60763061D01*
X119321626Y-60563102D01*
X119243605Y-60374744D01*
X119130337Y-60205226D01*
X118986174Y-60061063D01*
X118816656Y-59947795D01*
X118628298Y-59869774D01*
X118428339Y-59830000D01*
X118224461Y-59830000D01*
X118024502Y-59869774D01*
X117972931Y-59891136D01*
X117860337Y-59722626D01*
X117716174Y-59578463D01*
X117546656Y-59465195D01*
X117358298Y-59387174D01*
X117158339Y-59347400D01*
X116954461Y-59347400D01*
X116754502Y-59387174D01*
X116580825Y-59459114D01*
X116446174Y-59324463D01*
X116399717Y-59293421D01*
X135718600Y-59293421D01*
X135718600Y-59497299D01*
X135758374Y-59697258D01*
X135836395Y-59885616D01*
X135949663Y-60055134D01*
X136093826Y-60199297D01*
X136263344Y-60312565D01*
X136451702Y-60390586D01*
X136651661Y-60430360D01*
X136855539Y-60430360D01*
X137055498Y-60390586D01*
X137243856Y-60312565D01*
X137413374Y-60199297D01*
X137557537Y-60055134D01*
X137670805Y-59885616D01*
X137748826Y-59697258D01*
X137788600Y-59497299D01*
X137788600Y-59293421D01*
X137748826Y-59093462D01*
X137670805Y-58905104D01*
X137557537Y-58735586D01*
X137413374Y-58591423D01*
X137243856Y-58478155D01*
X137055498Y-58400134D01*
X136855539Y-58360360D01*
X136651661Y-58360360D01*
X136451702Y-58400134D01*
X136263344Y-58478155D01*
X136093826Y-58591423D01*
X135949663Y-58735586D01*
X135836395Y-58905104D01*
X135758374Y-59093462D01*
X135718600Y-59293421D01*
X116399717Y-59293421D01*
X116276656Y-59211195D01*
X116088298Y-59133174D01*
X115888339Y-59093400D01*
X115684461Y-59093400D01*
X115484502Y-59133174D01*
X115296144Y-59211195D01*
X115126626Y-59324463D01*
X114982463Y-59468626D01*
X114869195Y-59638144D01*
X114791174Y-59826502D01*
X114751400Y-60026461D01*
X97926029Y-60026461D01*
X98176563Y-59176983D01*
X98853657Y-57359461D01*
X104718400Y-57359461D01*
X104718400Y-57563339D01*
X104758174Y-57763298D01*
X104836195Y-57951656D01*
X104949463Y-58121174D01*
X105093626Y-58265337D01*
X105263144Y-58378605D01*
X105451502Y-58456626D01*
X105651461Y-58496400D01*
X105855339Y-58496400D01*
X106055298Y-58456626D01*
X106243656Y-58378605D01*
X106413174Y-58265337D01*
X106557337Y-58121174D01*
X106670605Y-57951656D01*
X106748626Y-57763298D01*
X106788400Y-57563339D01*
X106788400Y-57359461D01*
X106776983Y-57302061D01*
X137257840Y-57302061D01*
X137257840Y-57505939D01*
X137297614Y-57705898D01*
X137375635Y-57894256D01*
X137488903Y-58063774D01*
X137633066Y-58207937D01*
X137802584Y-58321205D01*
X137990942Y-58399226D01*
X138190901Y-58439000D01*
X138394779Y-58439000D01*
X138594738Y-58399226D01*
X138783096Y-58321205D01*
X138952614Y-58207937D01*
X139096777Y-58063774D01*
X139210045Y-57894256D01*
X139288066Y-57705898D01*
X139327840Y-57505939D01*
X139327840Y-57302061D01*
X139288066Y-57102102D01*
X139210045Y-56913744D01*
X139096777Y-56744226D01*
X138952614Y-56600063D01*
X138783096Y-56486795D01*
X138594738Y-56408774D01*
X138394779Y-56369000D01*
X138190901Y-56369000D01*
X137990942Y-56408774D01*
X137802584Y-56486795D01*
X137633066Y-56600063D01*
X137488903Y-56744226D01*
X137375635Y-56913744D01*
X137297614Y-57102102D01*
X137257840Y-57302061D01*
X106776983Y-57302061D01*
X106748626Y-57159502D01*
X106670605Y-56971144D01*
X106557337Y-56801626D01*
X106413174Y-56657463D01*
X106243656Y-56544195D01*
X106055298Y-56466174D01*
X105855339Y-56426400D01*
X105651461Y-56426400D01*
X105451502Y-56466174D01*
X105263144Y-56544195D01*
X105093626Y-56657463D01*
X104949463Y-56801626D01*
X104836195Y-56971144D01*
X104758174Y-57159502D01*
X104718400Y-57359461D01*
X98853657Y-57359461D01*
X98940369Y-57126703D01*
X99845328Y-55134707D01*
X100524841Y-53879661D01*
X124555800Y-53879661D01*
X124555800Y-54083539D01*
X124595574Y-54283498D01*
X124673595Y-54471856D01*
X124786863Y-54641374D01*
X124931026Y-54785537D01*
X125100544Y-54898805D01*
X125288902Y-54976826D01*
X125488861Y-55016600D01*
X125692739Y-55016600D01*
X125892698Y-54976826D01*
X126081056Y-54898805D01*
X126250574Y-54785537D01*
X126394737Y-54641374D01*
X126508005Y-54471856D01*
X126586026Y-54283498D01*
X126625800Y-54083539D01*
X126625800Y-53879661D01*
X126620446Y-53852741D01*
X138527840Y-53852741D01*
X138527840Y-54056619D01*
X138567614Y-54256578D01*
X138645635Y-54444936D01*
X138758903Y-54614454D01*
X138903066Y-54758617D01*
X139072584Y-54871885D01*
X139260942Y-54949906D01*
X139460901Y-54989680D01*
X139664779Y-54989680D01*
X139864738Y-54949906D01*
X140053096Y-54871885D01*
X140222614Y-54758617D01*
X140324840Y-54656391D01*
X140427066Y-54758617D01*
X140596584Y-54871885D01*
X140784942Y-54949906D01*
X140984901Y-54989680D01*
X141188779Y-54989680D01*
X141388738Y-54949906D01*
X141577096Y-54871885D01*
X141746614Y-54758617D01*
X141890777Y-54614454D01*
X142004045Y-54444936D01*
X142082066Y-54256578D01*
X142121840Y-54056619D01*
X142121840Y-53852741D01*
X142082066Y-53652782D01*
X142004045Y-53464424D01*
X141890777Y-53294906D01*
X141746614Y-53150743D01*
X141577096Y-53037475D01*
X141388738Y-52959454D01*
X141188779Y-52919680D01*
X140984901Y-52919680D01*
X140784942Y-52959454D01*
X140596584Y-53037475D01*
X140427066Y-53150743D01*
X140324840Y-53252969D01*
X140222614Y-53150743D01*
X140053096Y-53037475D01*
X139864738Y-52959454D01*
X139664779Y-52919680D01*
X139460901Y-52919680D01*
X139260942Y-52959454D01*
X139072584Y-53037475D01*
X138903066Y-53150743D01*
X138758903Y-53294906D01*
X138645635Y-53464424D01*
X138567614Y-53652782D01*
X138527840Y-53852741D01*
X126620446Y-53852741D01*
X126586026Y-53679702D01*
X126508005Y-53491344D01*
X126394737Y-53321826D01*
X126250574Y-53177663D01*
X126081056Y-53064395D01*
X125892698Y-52986374D01*
X125692739Y-52946600D01*
X125488861Y-52946600D01*
X125288902Y-52986374D01*
X125100544Y-53064395D01*
X124931026Y-53177663D01*
X124786863Y-53321826D01*
X124673595Y-53491344D01*
X124595574Y-53679702D01*
X124555800Y-53879661D01*
X100524841Y-53879661D01*
X100887023Y-53210720D01*
X102060413Y-51364047D01*
X103359749Y-49603743D01*
X104778722Y-47938352D01*
X105036453Y-47675461D01*
X118014800Y-47675461D01*
X118014800Y-47879339D01*
X118054574Y-48079298D01*
X118132595Y-48267656D01*
X118245863Y-48437174D01*
X118390026Y-48581337D01*
X118559544Y-48694605D01*
X118747902Y-48772626D01*
X118947861Y-48812400D01*
X119151739Y-48812400D01*
X119351698Y-48772626D01*
X119540056Y-48694605D01*
X119709574Y-48581337D01*
X119853737Y-48437174D01*
X119967005Y-48267656D01*
X120045026Y-48079298D01*
X120084800Y-47879339D01*
X120084800Y-47675461D01*
X120045026Y-47475502D01*
X119967005Y-47287144D01*
X119853737Y-47117626D01*
X119709574Y-46973463D01*
X119540056Y-46860195D01*
X119351698Y-46782174D01*
X119151739Y-46742400D01*
X118947861Y-46742400D01*
X118747902Y-46782174D01*
X118559544Y-46860195D01*
X118390026Y-46973463D01*
X118245863Y-47117626D01*
X118132595Y-47287144D01*
X118054574Y-47475502D01*
X118014800Y-47675461D01*
X105036453Y-47675461D01*
X106310397Y-46376016D01*
X107947338Y-44924317D01*
X109681547Y-43590348D01*
X110891857Y-42787200D01*
X114691528Y-42787200D01*
X114691528Y-44487200D01*
X114703788Y-44611682D01*
X114740098Y-44731380D01*
X114799063Y-44841694D01*
X114878415Y-44938385D01*
X114975106Y-45017737D01*
X115085420Y-45076702D01*
X115205118Y-45113012D01*
X115329600Y-45125272D01*
X117029600Y-45125272D01*
X117154082Y-45113012D01*
X117273780Y-45076702D01*
X117384094Y-45017737D01*
X117480785Y-44938385D01*
X117560137Y-44841694D01*
X117619102Y-44731380D01*
X117655412Y-44611682D01*
X117667672Y-44487200D01*
X117667672Y-42787200D01*
X117655412Y-42662718D01*
X117619102Y-42543020D01*
X117560137Y-42432706D01*
X117480785Y-42336015D01*
X117384094Y-42256663D01*
X117273780Y-42197698D01*
X117154082Y-42161388D01*
X117029600Y-42149128D01*
X115329600Y-42149128D01*
X115205118Y-42161388D01*
X115085420Y-42197698D01*
X114975106Y-42256663D01*
X114878415Y-42336015D01*
X114799063Y-42432706D01*
X114740098Y-42543020D01*
X114703788Y-42662718D01*
X114691528Y-42787200D01*
X110891857Y-42787200D01*
X111504579Y-42380605D01*
X113407572Y-41300969D01*
X115381242Y-40356709D01*
X117415961Y-39552429D01*
X119501836Y-38892041D01*
X121628696Y-38378766D01*
X123786170Y-38015104D01*
X125963757Y-37802825D01*
X128150861Y-37742964D01*
X130336797Y-37835813D01*
G37*
X130336797Y-37835813D02*
X132510936Y-38080920D01*
X134662679Y-38477088D01*
X136781552Y-39022392D01*
X138857227Y-39714174D01*
X140879584Y-40549059D01*
X142838783Y-41522986D01*
X144725263Y-42631204D01*
X146533072Y-43870529D01*
X147652279Y-44737235D01*
X147668611Y-44753576D01*
X147722714Y-44789748D01*
X147722765Y-44789785D01*
X147722818Y-44789818D01*
X147776689Y-44825835D01*
X147896786Y-44875621D01*
X148024290Y-44901020D01*
X148154298Y-44901057D01*
X148281815Y-44875730D01*
X148401941Y-44826012D01*
X148482969Y-44771904D01*
X149322089Y-44083653D01*
X156102630Y-52155296D01*
X155309773Y-52803998D01*
X155281696Y-52831991D01*
X155281332Y-52832337D01*
X155281160Y-52832525D01*
X155240774Y-52872790D01*
X155168384Y-52980780D01*
X155118453Y-53100818D01*
X155108254Y-53151692D01*
X155108100Y-53152292D01*
X155107716Y-53154378D01*
X155092899Y-53228290D01*
X155092814Y-53285378D01*
X155092643Y-53289401D01*
X155092799Y-53295113D01*
X155092705Y-53358298D01*
X155104968Y-53420434D01*
X155106029Y-53426728D01*
X155107024Y-53430852D01*
X155117878Y-53485846D01*
X155145994Y-53554013D01*
X155147677Y-53558270D01*
X155148207Y-53559378D01*
X155167450Y-53606032D01*
X155182938Y-53629287D01*
X156190787Y-55559765D01*
X157065590Y-57565185D01*
X157798366Y-59626726D01*
X158229754Y-61175143D01*
X158091738Y-61117974D01*
X157891779Y-61078200D01*
X157687901Y-61078200D01*
X157487942Y-61117974D01*
X157299584Y-61195995D01*
X157144680Y-61299498D01*
X156989776Y-61195995D01*
X156801418Y-61117974D01*
X156601459Y-61078200D01*
X156397581Y-61078200D01*
X156197622Y-61117974D01*
X156009264Y-61195995D01*
X155966120Y-61224823D01*
X155966120Y-61028940D01*
X155969806Y-60991517D01*
X155964760Y-60940281D01*
X155955094Y-60842140D01*
X155911522Y-60698503D01*
X155840765Y-60566126D01*
X155745542Y-60450096D01*
X155716472Y-60426239D01*
X153930185Y-58639953D01*
X153906323Y-58610877D01*
X153790293Y-58515654D01*
X153657916Y-58444897D01*
X153514279Y-58401325D01*
X153402327Y-58390299D01*
X153402324Y-58390299D01*
X153364901Y-58386613D01*
X153327478Y-58390299D01*
X152256954Y-58390299D01*
X152298822Y-58289222D01*
X152338596Y-58089263D01*
X152338596Y-58064236D01*
X152486021Y-58093560D01*
X152689899Y-58093560D01*
X152889858Y-58053786D01*
X153078216Y-57975765D01*
X153247734Y-57862497D01*
X153391897Y-57718334D01*
X153505165Y-57548816D01*
X153583186Y-57360458D01*
X153622960Y-57160499D01*
X153622960Y-56956621D01*
X153583186Y-56756662D01*
X153505165Y-56568304D01*
X153391897Y-56398786D01*
X153247734Y-56254623D01*
X153078216Y-56141355D01*
X152889858Y-56063334D01*
X152689899Y-56023560D01*
X152486021Y-56023560D01*
X152286062Y-56063334D01*
X152097704Y-56141355D01*
X151928186Y-56254623D01*
X151886249Y-56296560D01*
X151193820Y-56296560D01*
X151156397Y-56292874D01*
X151118974Y-56296560D01*
X151118972Y-56296560D01*
X151007020Y-56307586D01*
X150863383Y-56351158D01*
X150731006Y-56421915D01*
X150614976Y-56517138D01*
X150591118Y-56546209D01*
X150276327Y-56861001D01*
X150173640Y-56861001D01*
X150173640Y-56794061D01*
X150133866Y-56594102D01*
X150055845Y-56405744D01*
X149942577Y-56236226D01*
X149798414Y-56092063D01*
X149628896Y-55978795D01*
X149440538Y-55900774D01*
X149240579Y-55861000D01*
X149036701Y-55861000D01*
X148836742Y-55900774D01*
X148648384Y-55978795D01*
X148511137Y-56070500D01*
X148068333Y-56070500D01*
X143122614Y-51124781D01*
X148662440Y-51124781D01*
X148662440Y-51328659D01*
X148702214Y-51528618D01*
X148780235Y-51716976D01*
X148893503Y-51886494D01*
X149037666Y-52030657D01*
X149207184Y-52143925D01*
X149395542Y-52221946D01*
X149595501Y-52261720D01*
X149799379Y-52261720D01*
X149999338Y-52221946D01*
X150187696Y-52143925D01*
X150357214Y-52030657D01*
X150501377Y-51886494D01*
X150614645Y-51716976D01*
X150692666Y-51528618D01*
X150732440Y-51328659D01*
X150732440Y-51124781D01*
X150692666Y-50924822D01*
X150614645Y-50736464D01*
X150575480Y-50677848D01*
X152429209Y-50677848D01*
X152429209Y-50891574D01*
X152470905Y-51101194D01*
X152552694Y-51298651D01*
X152671434Y-51476358D01*
X152822562Y-51627486D01*
X153000269Y-51746226D01*
X153165408Y-51814628D01*
X153137920Y-51952821D01*
X153137920Y-52156699D01*
X153177694Y-52356658D01*
X153255715Y-52545016D01*
X153368983Y-52714534D01*
X153513146Y-52858697D01*
X153682664Y-52971965D01*
X153871022Y-53049986D01*
X154070981Y-53089760D01*
X154274859Y-53089760D01*
X154474818Y-53049986D01*
X154663176Y-52971965D01*
X154832694Y-52858697D01*
X154976857Y-52714534D01*
X155090125Y-52545016D01*
X155168146Y-52356658D01*
X155207920Y-52156699D01*
X155207920Y-51952821D01*
X155168146Y-51752862D01*
X155090125Y-51564504D01*
X154976857Y-51394986D01*
X154832694Y-51250823D01*
X154663176Y-51137555D01*
X154558874Y-51094351D01*
X154599209Y-50891574D01*
X154599209Y-50677848D01*
X154557513Y-50468228D01*
X154475724Y-50270771D01*
X154356984Y-50093064D01*
X154205856Y-49941936D01*
X154028149Y-49823196D01*
X153830692Y-49741407D01*
X153621072Y-49699711D01*
X153407346Y-49699711D01*
X153197726Y-49741407D01*
X153000269Y-49823196D01*
X152822562Y-49941936D01*
X152671434Y-50093064D01*
X152552694Y-50270771D01*
X152470905Y-50468228D01*
X152429209Y-50677848D01*
X150575480Y-50677848D01*
X150501377Y-50566946D01*
X150357214Y-50422783D01*
X150187696Y-50309515D01*
X149999338Y-50231494D01*
X149799379Y-50191720D01*
X149595501Y-50191720D01*
X149395542Y-50231494D01*
X149207184Y-50309515D01*
X149037666Y-50422783D01*
X148893503Y-50566946D01*
X148780235Y-50736464D01*
X148702214Y-50924822D01*
X148662440Y-51124781D01*
X143122614Y-51124781D01*
X142271908Y-50274075D01*
X142334374Y-50232337D01*
X142478537Y-50088174D01*
X142591805Y-49918656D01*
X142669826Y-49730298D01*
X142709600Y-49530339D01*
X142709600Y-49326461D01*
X142669826Y-49126502D01*
X142591805Y-48938144D01*
X142478537Y-48768626D01*
X142334374Y-48624463D01*
X142164856Y-48511195D01*
X141976498Y-48433174D01*
X141776539Y-48393400D01*
X141572661Y-48393400D01*
X141372702Y-48433174D01*
X141184344Y-48511195D01*
X141014826Y-48624463D01*
X140870663Y-48768626D01*
X140828925Y-48831092D01*
X138845459Y-46847626D01*
X149215271Y-46847626D01*
X149215271Y-47061352D01*
X149256967Y-47270972D01*
X149338756Y-47468429D01*
X149457496Y-47646136D01*
X149608624Y-47797264D01*
X149786331Y-47916004D01*
X149983788Y-47997793D01*
X150193408Y-48039489D01*
X150407134Y-48039489D01*
X150616754Y-47997793D01*
X150814211Y-47916004D01*
X150991918Y-47797264D01*
X151143046Y-47646136D01*
X151261786Y-47468429D01*
X151343575Y-47270972D01*
X151385271Y-47061352D01*
X151385271Y-46847626D01*
X151343575Y-46638006D01*
X151261786Y-46440549D01*
X151143046Y-46262842D01*
X150991918Y-46111714D01*
X150814211Y-45992974D01*
X150616754Y-45911185D01*
X150407134Y-45869489D01*
X150193408Y-45869489D01*
X149983788Y-45911185D01*
X149786331Y-45992974D01*
X149608624Y-46111714D01*
X149457496Y-46262842D01*
X149338756Y-46440549D01*
X149256967Y-46638006D01*
X149215271Y-46847626D01*
X138845459Y-46847626D01*
X136688232Y-44690400D01*
X136722060Y-44690400D01*
X137008958Y-44633332D01*
X137279211Y-44521390D01*
X137522432Y-44358875D01*
X137729275Y-44152032D01*
X137850995Y-43969866D01*
X137920622Y-44086755D01*
X138115531Y-44302988D01*
X138348880Y-44477041D01*
X138611701Y-44602225D01*
X138758910Y-44646876D01*
X138988800Y-44525555D01*
X138988800Y-43332400D01*
X138968800Y-43332400D01*
X138968800Y-43078400D01*
X138988800Y-43078400D01*
X138988800Y-41885245D01*
X139242800Y-41885245D01*
X139242800Y-43078400D01*
X139262800Y-43078400D01*
X139262800Y-43332400D01*
X139242800Y-43332400D01*
X139242800Y-44525555D01*
X139472690Y-44646876D01*
X139619899Y-44602225D01*
X139882720Y-44477041D01*
X140116069Y-44302988D01*
X140310978Y-44086755D01*
X140380605Y-43969866D01*
X140502325Y-44152032D01*
X140709168Y-44358875D01*
X140952389Y-44521390D01*
X141222642Y-44633332D01*
X141509540Y-44690400D01*
X141802060Y-44690400D01*
X142088958Y-44633332D01*
X142359211Y-44521390D01*
X142602432Y-44358875D01*
X142809275Y-44152032D01*
X142971790Y-43908811D01*
X143083732Y-43638558D01*
X143140800Y-43351660D01*
X143140800Y-43059140D01*
X143083732Y-42772242D01*
X142971790Y-42501989D01*
X142809275Y-42258768D01*
X142602432Y-42051925D01*
X142359211Y-41889410D01*
X142088958Y-41777468D01*
X141802060Y-41720400D01*
X141509540Y-41720400D01*
X141222642Y-41777468D01*
X140952389Y-41889410D01*
X140709168Y-42051925D01*
X140502325Y-42258768D01*
X140380605Y-42440934D01*
X140310978Y-42324045D01*
X140116069Y-42107812D01*
X139882720Y-41933759D01*
X139619899Y-41808575D01*
X139472690Y-41763924D01*
X139242800Y-41885245D01*
X138988800Y-41885245D01*
X138758910Y-41763924D01*
X138611701Y-41808575D01*
X138348880Y-41933759D01*
X138115531Y-42107812D01*
X137920622Y-42324045D01*
X137850995Y-42440934D01*
X137729275Y-42258768D01*
X137522432Y-42051925D01*
X137279211Y-41889410D01*
X137008958Y-41777468D01*
X136722060Y-41720400D01*
X136429540Y-41720400D01*
X136142642Y-41777468D01*
X135872389Y-41889410D01*
X135629168Y-42051925D01*
X135497313Y-42183780D01*
X135475302Y-42111220D01*
X135416337Y-42000906D01*
X135336985Y-41904215D01*
X135240294Y-41824863D01*
X135129980Y-41765898D01*
X135010282Y-41729588D01*
X134885800Y-41717328D01*
X133185800Y-41717328D01*
X133061318Y-41729588D01*
X132941620Y-41765898D01*
X132831306Y-41824863D01*
X132734615Y-41904215D01*
X132655263Y-42000906D01*
X132596298Y-42111220D01*
X132559988Y-42230918D01*
X132547728Y-42355400D01*
X132547728Y-44055400D01*
X132559988Y-44179882D01*
X132596298Y-44299580D01*
X132655263Y-44409894D01*
X132734615Y-44506585D01*
X132831306Y-44585937D01*
X132941620Y-44644902D01*
X133061318Y-44681212D01*
X133185800Y-44693472D01*
X134356440Y-44693472D01*
X142882595Y-53219628D01*
X142831784Y-53240675D01*
X142662266Y-53353943D01*
X142518103Y-53498106D01*
X142404835Y-53667624D01*
X142326814Y-53855982D01*
X142287040Y-54055941D01*
X142287040Y-54259819D01*
X142326814Y-54459778D01*
X142404835Y-54648136D01*
X142409060Y-54654459D01*
X142399755Y-54668384D01*
X142321734Y-54856742D01*
X142281960Y-55056701D01*
X142281960Y-55260579D01*
X142321734Y-55460538D01*
X142399755Y-55648896D01*
X142513023Y-55818414D01*
X142554960Y-55860351D01*
X142554960Y-56218496D01*
X142551274Y-56255920D01*
X142554960Y-56293343D01*
X142554960Y-56293345D01*
X142565986Y-56405297D01*
X142609558Y-56548934D01*
X142620421Y-56569257D01*
X142680315Y-56681312D01*
X142705792Y-56712355D01*
X142775538Y-56797342D01*
X142804614Y-56821204D01*
X144883084Y-58899675D01*
X144906941Y-58928745D01*
X145022971Y-59023968D01*
X145155348Y-59094725D01*
X145298985Y-59138297D01*
X145410937Y-59149323D01*
X145410939Y-59149323D01*
X145448362Y-59153009D01*
X145485785Y-59149323D01*
X149492791Y-59149323D01*
X149145153Y-59496961D01*
X149116077Y-59520823D01*
X149068972Y-59578221D01*
X149020854Y-59636853D01*
X148991757Y-59691291D01*
X148950097Y-59769231D01*
X148906525Y-59912868D01*
X148896131Y-60018406D01*
X148891813Y-60062245D01*
X148895499Y-60099668D01*
X148895499Y-71100024D01*
X148831485Y-71004220D01*
X148652500Y-70825235D01*
X148442036Y-70684607D01*
X148208181Y-70587741D01*
X147959921Y-70538360D01*
X147706799Y-70538360D01*
X147458539Y-70587741D01*
X147224684Y-70684607D01*
X147014220Y-70825235D01*
X146835235Y-71004220D01*
X146694607Y-71214684D01*
X146597741Y-71448539D01*
X146583360Y-71520839D01*
X146568979Y-71448539D01*
X146472113Y-71214684D01*
X146331485Y-71004220D01*
X146152500Y-70825235D01*
X145942036Y-70684607D01*
X145708181Y-70587741D01*
X145459921Y-70538360D01*
X145206799Y-70538360D01*
X144958539Y-70587741D01*
X144724684Y-70684607D01*
X144514220Y-70825235D01*
X144335235Y-71004220D01*
X144194607Y-71214684D01*
X144097741Y-71448539D01*
X144048360Y-71696799D01*
X144048360Y-71949921D01*
X144097741Y-72198181D01*
X144194607Y-72432036D01*
X144280685Y-72560860D01*
X144194607Y-72689684D01*
X144097741Y-72923539D01*
X144048360Y-73171799D01*
X144048360Y-73424921D01*
X144097741Y-73673181D01*
X144194607Y-73907036D01*
X144280685Y-74035860D01*
X144194607Y-74164684D01*
X144097741Y-74398539D01*
X144048360Y-74646799D01*
X144048360Y-74899921D01*
X144097741Y-75148181D01*
X144194607Y-75382036D01*
X144280685Y-75510860D01*
X144194607Y-75639684D01*
X144097741Y-75873539D01*
X144048360Y-76121799D01*
X144048360Y-76374921D01*
X144097741Y-76623181D01*
X144194607Y-76857036D01*
X144280685Y-76985860D01*
X144194607Y-77114684D01*
X144097741Y-77348539D01*
X144048360Y-77596799D01*
X144048360Y-77849921D01*
X144097741Y-78098181D01*
X144194607Y-78332036D01*
X144280685Y-78460860D01*
X144194607Y-78589684D01*
X144097741Y-78823539D01*
X144048360Y-79071799D01*
X144048360Y-79324921D01*
X144097741Y-79573181D01*
X144194607Y-79807036D01*
X144280685Y-79935860D01*
X144194607Y-80064684D01*
X144097741Y-80298539D01*
X144048360Y-80546799D01*
X144048360Y-80799921D01*
X144097741Y-81048181D01*
X144194607Y-81282036D01*
X144280685Y-81410860D01*
X144194607Y-81539684D01*
X144097741Y-81773539D01*
X144048360Y-82021799D01*
X144048360Y-82274921D01*
X144097741Y-82523181D01*
X144194607Y-82757036D01*
X144280685Y-82885860D01*
X144194607Y-83014684D01*
X144097741Y-83248539D01*
X144048360Y-83496799D01*
X144048360Y-83749921D01*
X144097741Y-83998181D01*
X144194607Y-84232036D01*
X144280685Y-84360860D01*
X144194607Y-84489684D01*
X144097741Y-84723539D01*
X144048360Y-84971799D01*
X144048360Y-85224921D01*
X144097741Y-85473181D01*
X144194607Y-85707036D01*
X144280685Y-85835860D01*
X144194607Y-85964684D01*
X144097741Y-86198539D01*
X144048360Y-86446799D01*
X144048360Y-86699921D01*
X144097741Y-86948181D01*
X144194607Y-87182036D01*
X144335235Y-87392500D01*
X144514220Y-87571485D01*
X144724684Y-87712113D01*
X144958539Y-87808979D01*
X145206799Y-87858360D01*
X145459921Y-87858360D01*
X145548361Y-87840769D01*
X145548361Y-89351920D01*
X143712401Y-91187881D01*
X142868442Y-91187881D01*
X142982538Y-91165186D01*
X143170896Y-91087165D01*
X143340414Y-90973897D01*
X143484577Y-90829734D01*
X143597845Y-90660216D01*
X143675866Y-90471858D01*
X143715640Y-90271899D01*
X143715640Y-90068021D01*
X143675866Y-89868062D01*
X143597845Y-89679704D01*
X143484577Y-89510186D01*
X143340414Y-89366023D01*
X143170896Y-89252755D01*
X142982538Y-89174734D01*
X142782579Y-89134960D01*
X142578701Y-89134960D01*
X142378742Y-89174734D01*
X142190384Y-89252755D01*
X142020866Y-89366023D01*
X142008679Y-89378210D01*
X139767170Y-87136701D01*
X139838417Y-87065454D01*
X139951685Y-86895936D01*
X140029706Y-86707578D01*
X140069480Y-86507619D01*
X140069480Y-86303741D01*
X140029706Y-86103782D01*
X139951685Y-85915424D01*
X139838417Y-85745906D01*
X139694254Y-85601743D01*
X139524736Y-85488475D01*
X139336378Y-85410454D01*
X139136419Y-85370680D01*
X139077111Y-85370680D01*
X134320469Y-80614039D01*
X134320469Y-79763744D01*
X137903511Y-83346786D01*
X137927373Y-83375862D01*
X137979033Y-83418258D01*
X138043402Y-83471085D01*
X138083011Y-83492256D01*
X138175780Y-83541842D01*
X138319417Y-83585414D01*
X138321997Y-83585668D01*
X138374706Y-83638377D01*
X138544224Y-83751645D01*
X138732582Y-83829666D01*
X138932541Y-83869440D01*
X139136419Y-83869440D01*
X139336378Y-83829666D01*
X139524736Y-83751645D01*
X139694254Y-83638377D01*
X139838417Y-83494214D01*
X139951685Y-83324696D01*
X140029706Y-83136338D01*
X140069480Y-82936379D01*
X140069480Y-82732501D01*
X140029706Y-82532542D01*
X139951685Y-82344184D01*
X139838417Y-82174666D01*
X139694254Y-82030503D01*
X139524736Y-81917235D01*
X139336378Y-81839214D01*
X139136419Y-81799440D01*
X138932541Y-81799440D01*
X138732582Y-81839214D01*
X138604325Y-81892340D01*
X137205488Y-80493503D01*
X137349297Y-80349694D01*
X137462565Y-80180176D01*
X137540586Y-79991818D01*
X137580360Y-79791859D01*
X137580360Y-79587981D01*
X137540586Y-79388022D01*
X137462565Y-79199664D01*
X137349297Y-79030146D01*
X137205134Y-78885983D01*
X137035616Y-78772715D01*
X136847258Y-78694694D01*
X136647299Y-78654920D01*
X136587990Y-78654920D01*
X135228489Y-77295419D01*
X135228489Y-76262324D01*
X137878116Y-78911952D01*
X137901973Y-78941022D01*
X138018003Y-79036245D01*
X138150380Y-79107002D01*
X138294017Y-79150574D01*
X138296597Y-79150828D01*
X138349306Y-79203537D01*
X138518824Y-79316805D01*
X138707182Y-79394826D01*
X138907141Y-79434600D01*
X139111019Y-79434600D01*
X139310978Y-79394826D01*
X139499336Y-79316805D01*
X139668854Y-79203537D01*
X139813017Y-79059374D01*
X139926285Y-78889856D01*
X140004306Y-78701498D01*
X140044080Y-78501539D01*
X140044080Y-78297661D01*
X140004306Y-78097702D01*
X139926285Y-77909344D01*
X139813017Y-77739826D01*
X139668854Y-77595663D01*
X139499336Y-77482395D01*
X139310978Y-77404374D01*
X139111019Y-77364600D01*
X138907141Y-77364600D01*
X138707182Y-77404374D01*
X138578926Y-77457500D01*
X137137581Y-76016155D01*
X137240694Y-75947257D01*
X137384857Y-75803094D01*
X137498125Y-75633576D01*
X137576146Y-75445218D01*
X137615920Y-75245259D01*
X137615920Y-75041381D01*
X137576146Y-74841422D01*
X137498125Y-74653064D01*
X137384857Y-74483546D01*
X137240694Y-74339383D01*
X137071176Y-74226115D01*
X136882818Y-74148094D01*
X136682859Y-74108320D01*
X136623551Y-74108320D01*
X136136509Y-73621279D01*
X136136509Y-72537384D01*
X137867951Y-74268826D01*
X137891813Y-74297902D01*
X137942358Y-74339383D01*
X138007842Y-74393125D01*
X138044828Y-74412894D01*
X138140220Y-74463882D01*
X138283857Y-74507454D01*
X138286437Y-74507708D01*
X138339146Y-74560417D01*
X138508664Y-74673685D01*
X138697022Y-74751706D01*
X138896981Y-74791480D01*
X139100859Y-74791480D01*
X139300818Y-74751706D01*
X139489176Y-74673685D01*
X139658694Y-74560417D01*
X139802857Y-74416254D01*
X139916125Y-74246736D01*
X139994146Y-74058378D01*
X140033920Y-73858419D01*
X140033920Y-73654541D01*
X139994146Y-73454582D01*
X139916125Y-73266224D01*
X139802857Y-73096706D01*
X139658694Y-72952543D01*
X139489176Y-72839275D01*
X139300818Y-72761254D01*
X139100859Y-72721480D01*
X138896981Y-72721480D01*
X138697022Y-72761254D01*
X138568765Y-72814380D01*
X137142633Y-71388248D01*
X137215294Y-71339697D01*
X137257231Y-71297760D01*
X140317937Y-71297760D01*
X140355360Y-71301446D01*
X140392783Y-71297760D01*
X140392786Y-71297760D01*
X140504738Y-71286734D01*
X140648375Y-71243162D01*
X140780752Y-71172405D01*
X140896782Y-71077182D01*
X140920644Y-71048106D01*
X145488071Y-66480680D01*
X145547379Y-66480680D01*
X145747338Y-66440906D01*
X145935696Y-66362885D01*
X146105214Y-66249617D01*
X146249377Y-66105454D01*
X146362645Y-65935936D01*
X146440666Y-65747578D01*
X146480440Y-65547619D01*
X146480440Y-65343741D01*
X146440666Y-65143782D01*
X146362645Y-64955424D01*
X146249377Y-64785906D01*
X146105214Y-64641743D01*
X145935696Y-64528475D01*
X145747338Y-64450454D01*
X145547379Y-64410680D01*
X145343501Y-64410680D01*
X145143542Y-64450454D01*
X144955184Y-64528475D01*
X144809277Y-64625966D01*
X144804734Y-64621423D01*
X144635216Y-64508155D01*
X144446858Y-64430134D01*
X144246899Y-64390360D01*
X144043021Y-64390360D01*
X143843062Y-64430134D01*
X143654704Y-64508155D01*
X143485186Y-64621423D01*
X143482677Y-64623932D01*
X143339816Y-64528475D01*
X143151458Y-64450454D01*
X142951499Y-64410680D01*
X142747621Y-64410680D01*
X142547662Y-64450454D01*
X142359304Y-64528475D01*
X142201216Y-64634105D01*
X142198694Y-64631583D01*
X142029176Y-64518315D01*
X141840818Y-64440294D01*
X141640859Y-64400520D01*
X141436981Y-64400520D01*
X141237022Y-64440294D01*
X141048664Y-64518315D01*
X140884879Y-64627753D01*
X140728696Y-64523395D01*
X140540338Y-64445374D01*
X140340379Y-64405600D01*
X140136501Y-64405600D01*
X139936542Y-64445374D01*
X139748184Y-64523395D01*
X139590740Y-64628595D01*
X139433296Y-64523395D01*
X139244938Y-64445374D01*
X139044979Y-64405600D01*
X138841101Y-64405600D01*
X138641142Y-64445374D01*
X138452784Y-64523395D01*
X138302943Y-64623515D01*
X138137896Y-64513235D01*
X137949538Y-64435214D01*
X137749579Y-64395440D01*
X137545701Y-64395440D01*
X137345742Y-64435214D01*
X137157384Y-64513235D01*
X136991059Y-64624370D01*
X136832336Y-64518315D01*
X136643978Y-64440294D01*
X136444019Y-64400520D01*
X136240141Y-64400520D01*
X136040182Y-64440294D01*
X135851824Y-64518315D01*
X135682306Y-64631583D01*
X135538143Y-64775746D01*
X135424875Y-64945264D01*
X135346854Y-65133622D01*
X135307080Y-65333581D01*
X135307080Y-65392890D01*
X132592113Y-68107857D01*
X132563037Y-68131719D01*
X132519624Y-68184619D01*
X132467814Y-68247749D01*
X132437861Y-68303788D01*
X132397057Y-68380127D01*
X132353485Y-68523764D01*
X132345605Y-68603775D01*
X132338773Y-68673141D01*
X132342459Y-68710564D01*
X132342460Y-81514188D01*
X132338773Y-81551621D01*
X132353486Y-81700999D01*
X132397058Y-81844636D01*
X132467814Y-81977013D01*
X132534778Y-82058608D01*
X132563038Y-82093043D01*
X132592108Y-82116900D01*
X141157519Y-90682312D01*
X141181376Y-90711382D01*
X141210446Y-90735239D01*
X141297405Y-90806605D01*
X141340677Y-90829734D01*
X141429783Y-90877362D01*
X141573420Y-90920934D01*
X141685372Y-90931960D01*
X141685375Y-90931960D01*
X141722798Y-90935646D01*
X141760221Y-90931960D01*
X141978929Y-90931960D01*
X142020866Y-90973897D01*
X142190384Y-91087165D01*
X142378742Y-91165186D01*
X142492838Y-91187881D01*
X138299843Y-91187881D01*
X138322866Y-91132298D01*
X138362640Y-90932339D01*
X138362640Y-90728461D01*
X138322866Y-90528502D01*
X138244845Y-90340144D01*
X138131577Y-90170626D01*
X137987414Y-90026463D01*
X137817896Y-89913195D01*
X137629538Y-89835174D01*
X137429579Y-89795400D01*
X137225701Y-89795400D01*
X137025742Y-89835174D01*
X136837384Y-89913195D01*
X136667866Y-90026463D01*
X136523703Y-90170626D01*
X136410435Y-90340144D01*
X136332414Y-90528502D01*
X136292640Y-90728461D01*
X136292640Y-90932339D01*
X136332414Y-91132298D01*
X136355437Y-91187881D01*
X125221419Y-91187881D01*
X125085263Y-91051725D01*
X124850215Y-90894671D01*
X124589043Y-90786490D01*
X124311785Y-90731340D01*
X124029095Y-90731340D01*
X123751837Y-90786490D01*
X123490665Y-90894671D01*
X123255617Y-91051725D01*
X123055725Y-91251617D01*
X122898671Y-91486665D01*
X122790490Y-91747837D01*
X122735340Y-92025095D01*
X122735340Y-92307785D01*
X122790490Y-92585043D01*
X122898671Y-92846215D01*
X123055725Y-93081263D01*
X123255617Y-93281155D01*
X123490665Y-93438209D01*
X123751837Y-93546390D01*
X124029095Y-93601540D01*
X124311785Y-93601540D01*
X124589043Y-93546390D01*
X124850215Y-93438209D01*
X125085263Y-93281155D01*
X125146537Y-93219881D01*
X144083339Y-93219881D01*
X144133241Y-93224796D01*
X144183143Y-93219881D01*
X144332412Y-93205179D01*
X144523928Y-93147083D01*
X144700431Y-93052741D01*
X144855137Y-92925777D01*
X144886953Y-92887009D01*
X146647941Y-91126021D01*
X147087600Y-91126021D01*
X147087600Y-91329899D01*
X147127374Y-91529858D01*
X147205395Y-91718216D01*
X147318663Y-91887734D01*
X147462826Y-92031897D01*
X147632344Y-92145165D01*
X147820702Y-92223186D01*
X148020661Y-92262960D01*
X148224539Y-92262960D01*
X148424498Y-92223186D01*
X148612856Y-92145165D01*
X148782374Y-92031897D01*
X148926537Y-91887734D01*
X149039805Y-91718216D01*
X149117826Y-91529858D01*
X149157600Y-91329899D01*
X149157600Y-91126021D01*
X149117826Y-90926062D01*
X149039805Y-90737704D01*
X148926537Y-90568186D01*
X148782374Y-90424023D01*
X148612856Y-90310755D01*
X148424498Y-90232734D01*
X148224539Y-90192960D01*
X148020661Y-90192960D01*
X147820702Y-90232734D01*
X147632344Y-90310755D01*
X147462826Y-90424023D01*
X147318663Y-90568186D01*
X147205395Y-90737704D01*
X147127374Y-90926062D01*
X147087600Y-91126021D01*
X146647941Y-91126021D01*
X147247494Y-90526469D01*
X147286257Y-90494657D01*
X147413221Y-90339951D01*
X147476703Y-90221184D01*
X147507563Y-90163449D01*
X147565659Y-89971932D01*
X147575747Y-89869504D01*
X147580361Y-89822663D01*
X147580361Y-89822662D01*
X147585276Y-89772761D01*
X147580361Y-89722859D01*
X147580361Y-87861432D01*
X148483360Y-87861432D01*
X148607842Y-87849172D01*
X148727540Y-87812862D01*
X148837854Y-87753897D01*
X148934545Y-87674545D01*
X149013897Y-87577854D01*
X149072862Y-87467540D01*
X149109172Y-87347842D01*
X149121432Y-87223360D01*
X149121432Y-85923360D01*
X149109172Y-85798878D01*
X149072862Y-85679180D01*
X149022600Y-85585149D01*
X149068979Y-85473181D01*
X149118360Y-85224921D01*
X149118360Y-84971799D01*
X149068979Y-84723539D01*
X148972113Y-84489684D01*
X148886035Y-84360860D01*
X148972113Y-84232036D01*
X149068979Y-83998181D01*
X149080886Y-83938319D01*
X149116078Y-83981201D01*
X149145148Y-84005058D01*
X152299680Y-87159591D01*
X152299680Y-87218899D01*
X152339454Y-87418858D01*
X152417475Y-87607216D01*
X152530743Y-87776734D01*
X152674906Y-87920897D01*
X152844424Y-88034165D01*
X152861127Y-88041084D01*
X152469051Y-88572257D01*
X151050078Y-90237648D01*
X149518403Y-91799984D01*
X147881462Y-93251683D01*
X146147253Y-94585652D01*
X144324221Y-95795395D01*
X142421228Y-96875031D01*
X140447558Y-97819291D01*
X138412839Y-98623571D01*
X136326967Y-99283958D01*
X134200117Y-99797232D01*
X132042630Y-100160896D01*
X129865045Y-100373174D01*
X127677939Y-100433036D01*
X125492003Y-100340187D01*
X123317864Y-100095080D01*
X121166124Y-99698912D01*
X119047235Y-99153604D01*
X116971577Y-98461828D01*
X114949211Y-97626938D01*
X112990017Y-96653014D01*
X112052422Y-96102221D01*
X131304960Y-96102221D01*
X131304960Y-96306099D01*
X131344734Y-96506058D01*
X131422755Y-96694416D01*
X131536023Y-96863934D01*
X131680186Y-97008097D01*
X131849704Y-97121365D01*
X132038062Y-97199386D01*
X132238021Y-97239160D01*
X132441899Y-97239160D01*
X132641858Y-97199386D01*
X132830216Y-97121365D01*
X132999734Y-97008097D01*
X133143897Y-96863934D01*
X133257165Y-96694416D01*
X133335186Y-96506058D01*
X133374960Y-96306099D01*
X133374960Y-96102221D01*
X133335186Y-95902262D01*
X133257165Y-95713904D01*
X133143897Y-95544386D01*
X132999734Y-95400223D01*
X132830216Y-95286955D01*
X132641858Y-95208934D01*
X132441899Y-95169160D01*
X132238021Y-95169160D01*
X132038062Y-95208934D01*
X131849704Y-95286955D01*
X131680186Y-95400223D01*
X131536023Y-95544386D01*
X131422755Y-95713904D01*
X131344734Y-95902262D01*
X131304960Y-96102221D01*
X112052422Y-96102221D01*
X111103547Y-95544802D01*
X109298956Y-94307683D01*
X109085950Y-94138661D01*
X117012000Y-94138661D01*
X117012000Y-94342539D01*
X117051774Y-94542498D01*
X117129795Y-94730856D01*
X117243063Y-94900374D01*
X117387226Y-95044537D01*
X117556744Y-95157805D01*
X117745102Y-95235826D01*
X117945061Y-95275600D01*
X118148939Y-95275600D01*
X118348898Y-95235826D01*
X118537256Y-95157805D01*
X118706774Y-95044537D01*
X118850937Y-94900374D01*
X118862184Y-94883541D01*
X140088120Y-94883541D01*
X140088120Y-95087419D01*
X140127894Y-95287378D01*
X140205915Y-95475736D01*
X140319183Y-95645254D01*
X140463346Y-95789417D01*
X140632864Y-95902685D01*
X140821222Y-95980706D01*
X141021181Y-96020480D01*
X141225059Y-96020480D01*
X141425018Y-95980706D01*
X141613376Y-95902685D01*
X141782894Y-95789417D01*
X141927057Y-95645254D01*
X142040325Y-95475736D01*
X142118346Y-95287378D01*
X142158120Y-95087419D01*
X142158120Y-94883541D01*
X142118346Y-94683582D01*
X142040325Y-94495224D01*
X141927057Y-94325706D01*
X141782894Y-94181543D01*
X141613376Y-94068275D01*
X141425018Y-93990254D01*
X141225059Y-93950480D01*
X141021181Y-93950480D01*
X140821222Y-93990254D01*
X140632864Y-94068275D01*
X140463346Y-94181543D01*
X140319183Y-94325706D01*
X140205915Y-94495224D01*
X140127894Y-94683582D01*
X140088120Y-94883541D01*
X118862184Y-94883541D01*
X118964205Y-94730856D01*
X119042226Y-94542498D01*
X119082000Y-94342539D01*
X119082000Y-94138661D01*
X119042226Y-93938702D01*
X118964205Y-93750344D01*
X118850937Y-93580826D01*
X118706774Y-93436663D01*
X118537256Y-93323395D01*
X118348898Y-93245374D01*
X118148939Y-93205600D01*
X117945061Y-93205600D01*
X117745102Y-93245374D01*
X117556744Y-93323395D01*
X117387226Y-93436663D01*
X117243063Y-93580826D01*
X117129795Y-93750344D01*
X117051774Y-93938702D01*
X117012000Y-94138661D01*
X109085950Y-94138661D01*
X107585070Y-92947705D01*
X105970213Y-91471472D01*
X104462282Y-89886206D01*
X103068595Y-88199597D01*
X101795970Y-86419900D01*
X100650576Y-84555742D01*
X99638013Y-82616235D01*
X98763212Y-80610820D01*
X98030434Y-78549274D01*
X97443239Y-76441605D01*
X97004505Y-74298145D01*
X96716360Y-72129296D01*
X96580207Y-69945611D01*
X96596711Y-67757763D01*
X96765792Y-65576390D01*
X97086624Y-63412137D01*
X97256257Y-62642661D01*
X115234000Y-62642661D01*
X115234000Y-62846539D01*
X115273774Y-63046498D01*
X115351795Y-63234856D01*
X115465063Y-63404374D01*
X115609226Y-63548537D01*
X115778744Y-63661805D01*
X115967102Y-63739826D01*
X116167061Y-63779600D01*
X116370939Y-63779600D01*
X116570898Y-63739826D01*
X116759256Y-63661805D01*
X116928774Y-63548537D01*
X117072937Y-63404374D01*
X117186205Y-63234856D01*
X117264226Y-63046498D01*
X117304000Y-62846539D01*
X117304000Y-62678221D01*
X122986080Y-62678221D01*
X122986080Y-62882099D01*
X123025854Y-63082058D01*
X123103875Y-63270416D01*
X123217143Y-63439934D01*
X123361306Y-63584097D01*
X123530824Y-63697365D01*
X123719182Y-63775386D01*
X123919141Y-63815160D01*
X124123019Y-63815160D01*
X124322978Y-63775386D01*
X124511336Y-63697365D01*
X124680854Y-63584097D01*
X124825017Y-63439934D01*
X124938285Y-63270416D01*
X125016306Y-63082058D01*
X125056080Y-62882099D01*
X125056080Y-62678221D01*
X125016306Y-62478262D01*
X124938285Y-62289904D01*
X124825017Y-62120386D01*
X124680854Y-61976223D01*
X124511336Y-61862955D01*
X124322978Y-61784934D01*
X124123019Y-61745160D01*
X123919141Y-61745160D01*
X123719182Y-61784934D01*
X123530824Y-61862955D01*
X123361306Y-61976223D01*
X123217143Y-62120386D01*
X123103875Y-62289904D01*
X123025854Y-62478262D01*
X122986080Y-62678221D01*
X117304000Y-62678221D01*
X117304000Y-62642661D01*
X117264226Y-62442702D01*
X117186205Y-62254344D01*
X117072937Y-62084826D01*
X116928774Y-61940663D01*
X116759256Y-61827395D01*
X116570898Y-61749374D01*
X116370939Y-61709600D01*
X116167061Y-61709600D01*
X115967102Y-61749374D01*
X115778744Y-61827395D01*
X115609226Y-61940663D01*
X115465063Y-62084826D01*
X115351795Y-62254344D01*
X115273774Y-62442702D01*
X115234000Y-62642661D01*
X97256257Y-62642661D01*
X97557651Y-61275511D01*
X97926029Y-60026461D01*
X114751400Y-60026461D01*
X114751400Y-60230339D01*
X114791174Y-60430298D01*
X114869195Y-60618656D01*
X114982463Y-60788174D01*
X115126626Y-60932337D01*
X115296144Y-61045605D01*
X115484502Y-61123626D01*
X115684461Y-61163400D01*
X115888339Y-61163400D01*
X116088298Y-61123626D01*
X116261975Y-61051686D01*
X116396626Y-61186337D01*
X116566144Y-61299605D01*
X116754502Y-61377626D01*
X116954461Y-61417400D01*
X117158339Y-61417400D01*
X117358298Y-61377626D01*
X117409869Y-61356264D01*
X117522463Y-61524774D01*
X117666626Y-61668937D01*
X117836144Y-61782205D01*
X118024502Y-61860226D01*
X118224461Y-61900000D01*
X118428339Y-61900000D01*
X118628298Y-61860226D01*
X118816656Y-61782205D01*
X118986174Y-61668937D01*
X119130337Y-61524774D01*
X119243605Y-61355256D01*
X119321626Y-61166898D01*
X119361400Y-60966939D01*
X119361400Y-60763061D01*
X119321626Y-60563102D01*
X119243605Y-60374744D01*
X119130337Y-60205226D01*
X118986174Y-60061063D01*
X118816656Y-59947795D01*
X118628298Y-59869774D01*
X118428339Y-59830000D01*
X118224461Y-59830000D01*
X118024502Y-59869774D01*
X117972931Y-59891136D01*
X117860337Y-59722626D01*
X117716174Y-59578463D01*
X117546656Y-59465195D01*
X117358298Y-59387174D01*
X117158339Y-59347400D01*
X116954461Y-59347400D01*
X116754502Y-59387174D01*
X116580825Y-59459114D01*
X116446174Y-59324463D01*
X116399717Y-59293421D01*
X135718600Y-59293421D01*
X135718600Y-59497299D01*
X135758374Y-59697258D01*
X135836395Y-59885616D01*
X135949663Y-60055134D01*
X136093826Y-60199297D01*
X136263344Y-60312565D01*
X136451702Y-60390586D01*
X136651661Y-60430360D01*
X136855539Y-60430360D01*
X137055498Y-60390586D01*
X137243856Y-60312565D01*
X137413374Y-60199297D01*
X137557537Y-60055134D01*
X137670805Y-59885616D01*
X137748826Y-59697258D01*
X137788600Y-59497299D01*
X137788600Y-59293421D01*
X137748826Y-59093462D01*
X137670805Y-58905104D01*
X137557537Y-58735586D01*
X137413374Y-58591423D01*
X137243856Y-58478155D01*
X137055498Y-58400134D01*
X136855539Y-58360360D01*
X136651661Y-58360360D01*
X136451702Y-58400134D01*
X136263344Y-58478155D01*
X136093826Y-58591423D01*
X135949663Y-58735586D01*
X135836395Y-58905104D01*
X135758374Y-59093462D01*
X135718600Y-59293421D01*
X116399717Y-59293421D01*
X116276656Y-59211195D01*
X116088298Y-59133174D01*
X115888339Y-59093400D01*
X115684461Y-59093400D01*
X115484502Y-59133174D01*
X115296144Y-59211195D01*
X115126626Y-59324463D01*
X114982463Y-59468626D01*
X114869195Y-59638144D01*
X114791174Y-59826502D01*
X114751400Y-60026461D01*
X97926029Y-60026461D01*
X98176563Y-59176983D01*
X98853657Y-57359461D01*
X104718400Y-57359461D01*
X104718400Y-57563339D01*
X104758174Y-57763298D01*
X104836195Y-57951656D01*
X104949463Y-58121174D01*
X105093626Y-58265337D01*
X105263144Y-58378605D01*
X105451502Y-58456626D01*
X105651461Y-58496400D01*
X105855339Y-58496400D01*
X106055298Y-58456626D01*
X106243656Y-58378605D01*
X106413174Y-58265337D01*
X106557337Y-58121174D01*
X106670605Y-57951656D01*
X106748626Y-57763298D01*
X106788400Y-57563339D01*
X106788400Y-57359461D01*
X106776983Y-57302061D01*
X137257840Y-57302061D01*
X137257840Y-57505939D01*
X137297614Y-57705898D01*
X137375635Y-57894256D01*
X137488903Y-58063774D01*
X137633066Y-58207937D01*
X137802584Y-58321205D01*
X137990942Y-58399226D01*
X138190901Y-58439000D01*
X138394779Y-58439000D01*
X138594738Y-58399226D01*
X138783096Y-58321205D01*
X138952614Y-58207937D01*
X139096777Y-58063774D01*
X139210045Y-57894256D01*
X139288066Y-57705898D01*
X139327840Y-57505939D01*
X139327840Y-57302061D01*
X139288066Y-57102102D01*
X139210045Y-56913744D01*
X139096777Y-56744226D01*
X138952614Y-56600063D01*
X138783096Y-56486795D01*
X138594738Y-56408774D01*
X138394779Y-56369000D01*
X138190901Y-56369000D01*
X137990942Y-56408774D01*
X137802584Y-56486795D01*
X137633066Y-56600063D01*
X137488903Y-56744226D01*
X137375635Y-56913744D01*
X137297614Y-57102102D01*
X137257840Y-57302061D01*
X106776983Y-57302061D01*
X106748626Y-57159502D01*
X106670605Y-56971144D01*
X106557337Y-56801626D01*
X106413174Y-56657463D01*
X106243656Y-56544195D01*
X106055298Y-56466174D01*
X105855339Y-56426400D01*
X105651461Y-56426400D01*
X105451502Y-56466174D01*
X105263144Y-56544195D01*
X105093626Y-56657463D01*
X104949463Y-56801626D01*
X104836195Y-56971144D01*
X104758174Y-57159502D01*
X104718400Y-57359461D01*
X98853657Y-57359461D01*
X98940369Y-57126703D01*
X99845328Y-55134707D01*
X100524841Y-53879661D01*
X124555800Y-53879661D01*
X124555800Y-54083539D01*
X124595574Y-54283498D01*
X124673595Y-54471856D01*
X124786863Y-54641374D01*
X124931026Y-54785537D01*
X125100544Y-54898805D01*
X125288902Y-54976826D01*
X125488861Y-55016600D01*
X125692739Y-55016600D01*
X125892698Y-54976826D01*
X126081056Y-54898805D01*
X126250574Y-54785537D01*
X126394737Y-54641374D01*
X126508005Y-54471856D01*
X126586026Y-54283498D01*
X126625800Y-54083539D01*
X126625800Y-53879661D01*
X126620446Y-53852741D01*
X138527840Y-53852741D01*
X138527840Y-54056619D01*
X138567614Y-54256578D01*
X138645635Y-54444936D01*
X138758903Y-54614454D01*
X138903066Y-54758617D01*
X139072584Y-54871885D01*
X139260942Y-54949906D01*
X139460901Y-54989680D01*
X139664779Y-54989680D01*
X139864738Y-54949906D01*
X140053096Y-54871885D01*
X140222614Y-54758617D01*
X140324840Y-54656391D01*
X140427066Y-54758617D01*
X140596584Y-54871885D01*
X140784942Y-54949906D01*
X140984901Y-54989680D01*
X141188779Y-54989680D01*
X141388738Y-54949906D01*
X141577096Y-54871885D01*
X141746614Y-54758617D01*
X141890777Y-54614454D01*
X142004045Y-54444936D01*
X142082066Y-54256578D01*
X142121840Y-54056619D01*
X142121840Y-53852741D01*
X142082066Y-53652782D01*
X142004045Y-53464424D01*
X141890777Y-53294906D01*
X141746614Y-53150743D01*
X141577096Y-53037475D01*
X141388738Y-52959454D01*
X141188779Y-52919680D01*
X140984901Y-52919680D01*
X140784942Y-52959454D01*
X140596584Y-53037475D01*
X140427066Y-53150743D01*
X140324840Y-53252969D01*
X140222614Y-53150743D01*
X140053096Y-53037475D01*
X139864738Y-52959454D01*
X139664779Y-52919680D01*
X139460901Y-52919680D01*
X139260942Y-52959454D01*
X139072584Y-53037475D01*
X138903066Y-53150743D01*
X138758903Y-53294906D01*
X138645635Y-53464424D01*
X138567614Y-53652782D01*
X138527840Y-53852741D01*
X126620446Y-53852741D01*
X126586026Y-53679702D01*
X126508005Y-53491344D01*
X126394737Y-53321826D01*
X126250574Y-53177663D01*
X126081056Y-53064395D01*
X125892698Y-52986374D01*
X125692739Y-52946600D01*
X125488861Y-52946600D01*
X125288902Y-52986374D01*
X125100544Y-53064395D01*
X124931026Y-53177663D01*
X124786863Y-53321826D01*
X124673595Y-53491344D01*
X124595574Y-53679702D01*
X124555800Y-53879661D01*
X100524841Y-53879661D01*
X100887023Y-53210720D01*
X102060413Y-51364047D01*
X103359749Y-49603743D01*
X104778722Y-47938352D01*
X105036453Y-47675461D01*
X118014800Y-47675461D01*
X118014800Y-47879339D01*
X118054574Y-48079298D01*
X118132595Y-48267656D01*
X118245863Y-48437174D01*
X118390026Y-48581337D01*
X118559544Y-48694605D01*
X118747902Y-48772626D01*
X118947861Y-48812400D01*
X119151739Y-48812400D01*
X119351698Y-48772626D01*
X119540056Y-48694605D01*
X119709574Y-48581337D01*
X119853737Y-48437174D01*
X119967005Y-48267656D01*
X120045026Y-48079298D01*
X120084800Y-47879339D01*
X120084800Y-47675461D01*
X120045026Y-47475502D01*
X119967005Y-47287144D01*
X119853737Y-47117626D01*
X119709574Y-46973463D01*
X119540056Y-46860195D01*
X119351698Y-46782174D01*
X119151739Y-46742400D01*
X118947861Y-46742400D01*
X118747902Y-46782174D01*
X118559544Y-46860195D01*
X118390026Y-46973463D01*
X118245863Y-47117626D01*
X118132595Y-47287144D01*
X118054574Y-47475502D01*
X118014800Y-47675461D01*
X105036453Y-47675461D01*
X106310397Y-46376016D01*
X107947338Y-44924317D01*
X109681547Y-43590348D01*
X110891857Y-42787200D01*
X114691528Y-42787200D01*
X114691528Y-44487200D01*
X114703788Y-44611682D01*
X114740098Y-44731380D01*
X114799063Y-44841694D01*
X114878415Y-44938385D01*
X114975106Y-45017737D01*
X115085420Y-45076702D01*
X115205118Y-45113012D01*
X115329600Y-45125272D01*
X117029600Y-45125272D01*
X117154082Y-45113012D01*
X117273780Y-45076702D01*
X117384094Y-45017737D01*
X117480785Y-44938385D01*
X117560137Y-44841694D01*
X117619102Y-44731380D01*
X117655412Y-44611682D01*
X117667672Y-44487200D01*
X117667672Y-42787200D01*
X117655412Y-42662718D01*
X117619102Y-42543020D01*
X117560137Y-42432706D01*
X117480785Y-42336015D01*
X117384094Y-42256663D01*
X117273780Y-42197698D01*
X117154082Y-42161388D01*
X117029600Y-42149128D01*
X115329600Y-42149128D01*
X115205118Y-42161388D01*
X115085420Y-42197698D01*
X114975106Y-42256663D01*
X114878415Y-42336015D01*
X114799063Y-42432706D01*
X114740098Y-42543020D01*
X114703788Y-42662718D01*
X114691528Y-42787200D01*
X110891857Y-42787200D01*
X111504579Y-42380605D01*
X113407572Y-41300969D01*
X115381242Y-40356709D01*
X117415961Y-39552429D01*
X119501836Y-38892041D01*
X121628696Y-38378766D01*
X123786170Y-38015104D01*
X125963757Y-37802825D01*
X128150861Y-37742964D01*
X130336797Y-37835813D01*
G36*
X155155196Y-81706032D02*
G01*
X155179053Y-81735102D01*
X155208123Y-81758959D01*
X155295082Y-81830325D01*
X155338354Y-81853454D01*
X155427460Y-81901082D01*
X155571097Y-81944654D01*
X155573677Y-81944908D01*
X155626386Y-81997617D01*
X155795904Y-82110885D01*
X155984262Y-82188906D01*
X156184221Y-82228680D01*
X156352640Y-82228680D01*
X155983472Y-83041293D01*
X154941777Y-84965280D01*
X154050072Y-86368641D01*
X153994454Y-86313023D01*
X153824936Y-86199755D01*
X153636578Y-86121734D01*
X153436619Y-86081960D01*
X153377311Y-86081960D01*
X150419499Y-83124149D01*
X150419499Y-80123129D01*
X152823000Y-82526631D01*
X152823000Y-82585939D01*
X152862774Y-82785898D01*
X152940795Y-82974256D01*
X153054063Y-83143774D01*
X153198226Y-83287937D01*
X153367744Y-83401205D01*
X153556102Y-83479226D01*
X153756061Y-83519000D01*
X153959939Y-83519000D01*
X154159898Y-83479226D01*
X154348256Y-83401205D01*
X154517774Y-83287937D01*
X154661937Y-83143774D01*
X154775205Y-82974256D01*
X154853226Y-82785898D01*
X154893000Y-82585939D01*
X154893000Y-82382061D01*
X154853226Y-82182102D01*
X154775205Y-81993744D01*
X154661937Y-81824226D01*
X154517774Y-81680063D01*
X154348256Y-81566795D01*
X154159898Y-81488774D01*
X153959939Y-81449000D01*
X153900631Y-81449000D01*
X150873509Y-78421879D01*
X150873509Y-77424344D01*
X155155196Y-81706032D01*
G37*
X155155196Y-81706032D02*
X155179053Y-81735102D01*
X155208123Y-81758959D01*
X155295082Y-81830325D01*
X155338354Y-81853454D01*
X155427460Y-81901082D01*
X155571097Y-81944654D01*
X155573677Y-81944908D01*
X155626386Y-81997617D01*
X155795904Y-82110885D01*
X155984262Y-82188906D01*
X156184221Y-82228680D01*
X156352640Y-82228680D01*
X155983472Y-83041293D01*
X154941777Y-84965280D01*
X154050072Y-86368641D01*
X153994454Y-86313023D01*
X153824936Y-86199755D01*
X153636578Y-86121734D01*
X153436619Y-86081960D01*
X153377311Y-86081960D01*
X150419499Y-83124149D01*
X150419499Y-80123129D01*
X152823000Y-82526631D01*
X152823000Y-82585939D01*
X152862774Y-82785898D01*
X152940795Y-82974256D01*
X153054063Y-83143774D01*
X153198226Y-83287937D01*
X153367744Y-83401205D01*
X153556102Y-83479226D01*
X153756061Y-83519000D01*
X153959939Y-83519000D01*
X154159898Y-83479226D01*
X154348256Y-83401205D01*
X154517774Y-83287937D01*
X154661937Y-83143774D01*
X154775205Y-82974256D01*
X154853226Y-82785898D01*
X154893000Y-82585939D01*
X154893000Y-82382061D01*
X154853226Y-82182102D01*
X154775205Y-81993744D01*
X154661937Y-81824226D01*
X154517774Y-81680063D01*
X154348256Y-81566795D01*
X154159898Y-81488774D01*
X153959939Y-81449000D01*
X153900631Y-81449000D01*
X150873509Y-78421879D01*
X150873509Y-77424344D01*
X155155196Y-81706032D01*
G36*
X153418464Y-61689285D02*
G01*
X153606822Y-61767306D01*
X153806781Y-61807080D01*
X154010659Y-61807080D01*
X154210618Y-61767306D01*
X154233075Y-61758004D01*
X154208894Y-61816382D01*
X154169120Y-62016341D01*
X154169120Y-62220219D01*
X154208894Y-62420178D01*
X154286915Y-62608536D01*
X154400183Y-62778054D01*
X154544346Y-62922217D01*
X154713864Y-63035485D01*
X154902222Y-63113506D01*
X155102181Y-63153280D01*
X155306059Y-63153280D01*
X155506018Y-63113506D01*
X155694376Y-63035485D01*
X155855621Y-62927745D01*
X156009264Y-63030405D01*
X156197622Y-63108426D01*
X156397581Y-63148200D01*
X156601459Y-63148200D01*
X156801418Y-63108426D01*
X156989776Y-63030405D01*
X157144680Y-62926902D01*
X157299584Y-63030405D01*
X157487942Y-63108426D01*
X157687901Y-63148200D01*
X157891779Y-63148200D01*
X158091738Y-63108426D01*
X158280096Y-63030405D01*
X158449614Y-62917137D01*
X158593777Y-62772974D01*
X158597119Y-62767973D01*
X158824295Y-63877855D01*
X159112440Y-66046706D01*
X159248593Y-68230390D01*
X159232089Y-70418236D01*
X159063009Y-72599598D01*
X158742175Y-74763866D01*
X158271149Y-76900489D01*
X157652237Y-78999017D01*
X157083056Y-80526865D01*
X156945934Y-80389743D01*
X156776416Y-80276475D01*
X156588058Y-80198454D01*
X156388099Y-80158680D01*
X156184221Y-80158680D01*
X155984262Y-80198454D01*
X155856006Y-80251580D01*
X154401455Y-78797030D01*
X154507614Y-78726097D01*
X154651777Y-78581934D01*
X154765045Y-78412416D01*
X154843066Y-78224058D01*
X154882840Y-78024099D01*
X154882840Y-77820221D01*
X154843066Y-77620262D01*
X154765045Y-77431904D01*
X154651777Y-77262386D01*
X154507614Y-77118223D01*
X154338096Y-77004955D01*
X154149738Y-76926934D01*
X153949779Y-76887160D01*
X153890471Y-76887160D01*
X151810159Y-74806849D01*
X151810159Y-72232629D01*
X152817920Y-73240391D01*
X152817920Y-73299699D01*
X152857694Y-73499658D01*
X152935715Y-73688016D01*
X153048983Y-73857534D01*
X153193146Y-74001697D01*
X153362664Y-74114965D01*
X153551022Y-74192986D01*
X153750981Y-74232760D01*
X153954859Y-74232760D01*
X154154818Y-74192986D01*
X154343176Y-74114965D01*
X154512694Y-74001697D01*
X154627621Y-73886771D01*
X156307880Y-75567030D01*
X156307880Y-75626339D01*
X156347654Y-75826298D01*
X156425675Y-76014656D01*
X156538943Y-76184174D01*
X156683106Y-76328337D01*
X156852624Y-76441605D01*
X157040982Y-76519626D01*
X157240941Y-76559400D01*
X157444819Y-76559400D01*
X157644778Y-76519626D01*
X157833136Y-76441605D01*
X158002654Y-76328337D01*
X158146817Y-76184174D01*
X158260085Y-76014656D01*
X158338106Y-75826298D01*
X158377880Y-75626339D01*
X158377880Y-75422461D01*
X158338106Y-75222502D01*
X158260085Y-75034144D01*
X158146817Y-74864626D01*
X158002654Y-74720463D01*
X157833136Y-74607195D01*
X157644778Y-74529174D01*
X157444819Y-74489400D01*
X157385510Y-74489400D01*
X153858878Y-70962768D01*
X153858878Y-64374431D01*
X153900815Y-64332494D01*
X154014083Y-64162976D01*
X154092104Y-63974618D01*
X154131878Y-63774659D01*
X154131878Y-63570781D01*
X154092104Y-63370822D01*
X154014083Y-63182464D01*
X153900815Y-63012946D01*
X153756652Y-62868783D01*
X153587134Y-62755515D01*
X153398776Y-62677494D01*
X153198817Y-62637720D01*
X152994939Y-62637720D01*
X152794980Y-62677494D01*
X152606622Y-62755515D01*
X152437104Y-62868783D01*
X152436019Y-62869868D01*
X152434934Y-62868783D01*
X152265416Y-62755515D01*
X152077058Y-62677494D01*
X152054520Y-62673011D01*
X152054520Y-61662120D01*
X152117984Y-61704525D01*
X152306342Y-61782546D01*
X152506301Y-61822320D01*
X152710179Y-61822320D01*
X152910138Y-61782546D01*
X153098496Y-61704525D01*
X153268014Y-61591257D01*
X153269512Y-61589759D01*
X153418464Y-61689285D01*
G37*
X153418464Y-61689285D02*
X153606822Y-61767306D01*
X153806781Y-61807080D01*
X154010659Y-61807080D01*
X154210618Y-61767306D01*
X154233075Y-61758004D01*
X154208894Y-61816382D01*
X154169120Y-62016341D01*
X154169120Y-62220219D01*
X154208894Y-62420178D01*
X154286915Y-62608536D01*
X154400183Y-62778054D01*
X154544346Y-62922217D01*
X154713864Y-63035485D01*
X154902222Y-63113506D01*
X155102181Y-63153280D01*
X155306059Y-63153280D01*
X155506018Y-63113506D01*
X155694376Y-63035485D01*
X155855621Y-62927745D01*
X156009264Y-63030405D01*
X156197622Y-63108426D01*
X156397581Y-63148200D01*
X156601459Y-63148200D01*
X156801418Y-63108426D01*
X156989776Y-63030405D01*
X157144680Y-62926902D01*
X157299584Y-63030405D01*
X157487942Y-63108426D01*
X157687901Y-63148200D01*
X157891779Y-63148200D01*
X158091738Y-63108426D01*
X158280096Y-63030405D01*
X158449614Y-62917137D01*
X158593777Y-62772974D01*
X158597119Y-62767973D01*
X158824295Y-63877855D01*
X159112440Y-66046706D01*
X159248593Y-68230390D01*
X159232089Y-70418236D01*
X159063009Y-72599598D01*
X158742175Y-74763866D01*
X158271149Y-76900489D01*
X157652237Y-78999017D01*
X157083056Y-80526865D01*
X156945934Y-80389743D01*
X156776416Y-80276475D01*
X156588058Y-80198454D01*
X156388099Y-80158680D01*
X156184221Y-80158680D01*
X155984262Y-80198454D01*
X155856006Y-80251580D01*
X154401455Y-78797030D01*
X154507614Y-78726097D01*
X154651777Y-78581934D01*
X154765045Y-78412416D01*
X154843066Y-78224058D01*
X154882840Y-78024099D01*
X154882840Y-77820221D01*
X154843066Y-77620262D01*
X154765045Y-77431904D01*
X154651777Y-77262386D01*
X154507614Y-77118223D01*
X154338096Y-77004955D01*
X154149738Y-76926934D01*
X153949779Y-76887160D01*
X153890471Y-76887160D01*
X151810159Y-74806849D01*
X151810159Y-72232629D01*
X152817920Y-73240391D01*
X152817920Y-73299699D01*
X152857694Y-73499658D01*
X152935715Y-73688016D01*
X153048983Y-73857534D01*
X153193146Y-74001697D01*
X153362664Y-74114965D01*
X153551022Y-74192986D01*
X153750981Y-74232760D01*
X153954859Y-74232760D01*
X154154818Y-74192986D01*
X154343176Y-74114965D01*
X154512694Y-74001697D01*
X154627621Y-73886771D01*
X156307880Y-75567030D01*
X156307880Y-75626339D01*
X156347654Y-75826298D01*
X156425675Y-76014656D01*
X156538943Y-76184174D01*
X156683106Y-76328337D01*
X156852624Y-76441605D01*
X157040982Y-76519626D01*
X157240941Y-76559400D01*
X157444819Y-76559400D01*
X157644778Y-76519626D01*
X157833136Y-76441605D01*
X158002654Y-76328337D01*
X158146817Y-76184174D01*
X158260085Y-76014656D01*
X158338106Y-75826298D01*
X158377880Y-75626339D01*
X158377880Y-75422461D01*
X158338106Y-75222502D01*
X158260085Y-75034144D01*
X158146817Y-74864626D01*
X158002654Y-74720463D01*
X157833136Y-74607195D01*
X157644778Y-74529174D01*
X157444819Y-74489400D01*
X157385510Y-74489400D01*
X153858878Y-70962768D01*
X153858878Y-64374431D01*
X153900815Y-64332494D01*
X154014083Y-64162976D01*
X154092104Y-63974618D01*
X154131878Y-63774659D01*
X154131878Y-63570781D01*
X154092104Y-63370822D01*
X154014083Y-63182464D01*
X153900815Y-63012946D01*
X153756652Y-62868783D01*
X153587134Y-62755515D01*
X153398776Y-62677494D01*
X153198817Y-62637720D01*
X152994939Y-62637720D01*
X152794980Y-62677494D01*
X152606622Y-62755515D01*
X152437104Y-62868783D01*
X152436019Y-62869868D01*
X152434934Y-62868783D01*
X152265416Y-62755515D01*
X152077058Y-62677494D01*
X152054520Y-62673011D01*
X152054520Y-61662120D01*
X152117984Y-61704525D01*
X152306342Y-61782546D01*
X152506301Y-61822320D01*
X152710179Y-61822320D01*
X152910138Y-61782546D01*
X153098496Y-61704525D01*
X153268014Y-61591257D01*
X153269512Y-61589759D01*
X153418464Y-61689285D01*
M02*
