M48
; DRILL file {KiCad (5.1.5)-3} date 12/17/2021 11:07:53 PM
; FORMAT={-:-/ absolute / inch / decimal}
; #@! TF.CreationDate,2021-12-17T23:07:53-08:00
; #@! TF.GenerationSoftware,Kicad,Pcbnew,(5.1.5)-3
FMAT,2
INCH
T1C0.0157
T2C0.0314
T3C0.0354
T4C0.0394
T5C0.0984
T6C0.0354
%
G90
G05
T1
X4.1635Y-2.2623
X4.5585Y-2.3673
X4.5775Y-2.4703
X4.6085Y-2.3773
X4.6475Y-3.7103
X4.6585Y-2.3963
X4.687Y-1.881
X4.7135Y-2.3843
X4.7745Y-2.2853
X4.7755Y-2.0863
X4.7755Y-2.1863
X4.8827Y-2.4717
X4.9384Y-1.9802
X4.9445Y-2.1253
X5.0518Y-1.9466
X5.0522Y-1.9922
X5.2102Y-3.7876
X5.3678Y-2.5762
X5.3758Y-3.1374
X5.3762Y-2.777
X5.3772Y-2.9584
X5.384Y-2.3384
X5.4066Y-3.576
X5.4192Y-2.576
X5.4396Y-3.125
X5.4402Y-2.944
X5.4446Y-2.26
X5.4702Y-2.5764
X5.4724Y-2.9038
X5.4728Y-3.0866
X5.4738Y-3.2612
X5.4738Y-3.4018
X5.4946Y-2.1242
X5.4995Y-2.0668
X5.5212Y-2.5764
X5.5546Y-2.1242
X5.556Y-3.7396
X5.5724Y-2.5762
X5.5777Y-1.946
X5.6173Y-3.55
X5.624Y-2.5766
X5.6424Y-2.1716
X5.6426Y-2.1322
X5.648Y-2.7538
X5.675Y-2.5758
X5.7262Y-2.5766
X5.7544Y-3.6766
X5.7784Y-2.6202
X5.7964Y-3.6406
X5.8154Y-2.5954
X5.8218Y-1.9562
X5.8316Y-3.5917
X5.8716Y-2.24
X5.8871Y-2.1664
X5.8936Y-2.0168
X5.9124Y-3.3678
X5.9546Y-1.925
X5.9564Y-2.3932
X5.9568Y-2.283
X5.9638Y-3.5148
X5.9754Y-2.5068
X5.9908Y-3.4828
X6.0074Y-2.2464
X6.0082Y-2.3932
X6.0274Y-2.5068
X6.0368Y-3.4298
X6.057Y-3.0678
X6.0572Y-2.8818
X6.0574Y-3.2002
X6.0574Y-3.2474
X6.0594Y-2.3926
X6.0698Y-2.0494
X6.1104Y-2.4456
X6.1168Y-3.2296
X6.1168Y-3.275
X6.1274Y-3.0282
X6.153Y-3.1966
X6.1614Y-2.4454
X6.1696Y-3.0268
X6.1946Y-2.9734
X6.212Y-3.0262
X6.2122Y-2.4454
T2
X3.9423Y-2.9809
X3.9423Y-3.0809
X3.9423Y-3.1809
X3.9445Y-2.5625
X3.9445Y-2.6625
X3.9445Y-2.7625
X4.0303Y-2.9809
X4.0303Y-3.0809
X4.0303Y-3.1809
X4.0325Y-2.5625
X4.0325Y-2.6625
X4.0325Y-2.7625
X4.1575Y-1.9963
X4.2366Y-2.2116
X4.2366Y-2.3116
X4.2455Y-1.8963
X4.2455Y-1.9963
X4.3375Y-1.7993
X4.4535Y-2.6489
X4.4535Y-3.0493
X4.5535Y-2.6489
X4.5535Y-3.0493
X4.7487Y-2.6489
X4.7487Y-3.0493
X4.8487Y-2.6489
X4.8487Y-3.0493
X4.8886Y-3.6286
X4.9156Y-1.7807
X4.9176Y-1.5112
X5.0156Y-1.7807
X5.0716Y-1.5112
X5.1156Y-1.7807
X5.2256Y-1.5112
X5.728Y-1.758
X5.728Y-1.8536
X6.1834Y-2.7994
X6.1852Y-2.5918
T3
X5.7218Y-2.8277
X5.7218Y-2.8858
X5.7218Y-2.9438
X5.7218Y-3.0019
X5.7218Y-3.06
X5.7218Y-3.118
X5.7218Y-3.1761
X5.7218Y-3.2342
X5.7218Y-3.2923
X5.7218Y-3.3503
X5.7218Y-3.4084
X5.8202Y-2.8277
X5.8202Y-2.8858
X5.8202Y-2.9438
X5.8202Y-3.0019
X5.8202Y-3.06
X5.8202Y-3.118
X5.8202Y-3.1761
X5.8202Y-3.2342
X5.8202Y-3.2923
X5.8202Y-3.3503
X5.8202Y-3.4084
T4
X5.277Y-1.701
X5.377Y-1.701
X5.477Y-1.701
X5.577Y-1.701
X4.574Y-1.718
X4.674Y-1.718
T5
X3.968Y-2.3846
T6
X5.9173Y-1.8486
X6.0439Y-1.9994
T0
M30
