G04 #@! TF.GenerationSoftware,KiCad,Pcbnew,(5.1.5)-3*
G04 #@! TF.CreationDate,2021-12-20T00:35:23-08:00*
G04 #@! TF.ProjectId,tube_holder,74756265-5f68-46f6-9c64-65722e6b6963,rev?*
G04 #@! TF.SameCoordinates,Original*
G04 #@! TF.FileFunction,Copper,L1,Top*
G04 #@! TF.FilePolarity,Positive*
%FSLAX46Y46*%
G04 Gerber Fmt 4.6, Leading zero omitted, Abs format (unit mm)*
G04 Created by KiCad (PCBNEW (5.1.5)-3) date 2021-12-20 00:35:23*
%MOMM*%
%LPD*%
G04 APERTURE LIST*
%ADD10C,1.137920*%
%ADD11R,1.000000X6.000000*%
%ADD12C,0.508000*%
G04 APERTURE END LIST*
D10*
X201639680Y-48281340D03*
X194619120Y-48281340D03*
X198129400Y-53366420D03*
X195040760Y-51743360D03*
X194403220Y-50064420D03*
X201218040Y-51743360D03*
X197232780Y-45967400D03*
X199026020Y-45967400D03*
X200618600Y-46803060D03*
X201855580Y-50064420D03*
X195640200Y-46803060D03*
X199871840Y-52934620D03*
X196386960Y-52934620D03*
D11*
X197876800Y-62142120D03*
X199246800Y-62142120D03*
X200616800Y-62142120D03*
X201986800Y-62142120D03*
X203356800Y-62142120D03*
X204726800Y-62142120D03*
X206096800Y-62142120D03*
X207466800Y-62142120D03*
X208836800Y-62142120D03*
X210206800Y-62142120D03*
X211576800Y-62142120D03*
D10*
X214860380Y-48281340D03*
X207839820Y-48281340D03*
X211350100Y-53366420D03*
X208261460Y-51743360D03*
X207623920Y-50064420D03*
X214438740Y-51743360D03*
X210453480Y-45967400D03*
X212246720Y-45967400D03*
X213839300Y-46803060D03*
X215076280Y-50064420D03*
X208860900Y-46803060D03*
X213092540Y-52934620D03*
X209607660Y-52934620D03*
D12*
X198698359Y-53935379D02*
X198129400Y-53366420D01*
X199467261Y-53935379D02*
X198698359Y-53935379D01*
X204726800Y-62142120D02*
X204726800Y-59194918D01*
X204726800Y-59194918D02*
X199467261Y-53935379D01*
X195040760Y-53394327D02*
X195040760Y-52547990D01*
X196997832Y-55351399D02*
X195040760Y-53394327D01*
X195040760Y-52547990D02*
X195040760Y-51743360D01*
X198143281Y-55351399D02*
X196997832Y-55351399D01*
X201986800Y-62142120D02*
X201986800Y-59194918D01*
X201986800Y-59194918D02*
X198143281Y-55351399D01*
X193834261Y-53189105D02*
X193834261Y-50633379D01*
X196704565Y-56059409D02*
X193834261Y-53189105D01*
X193834261Y-50633379D02*
X194403220Y-50064420D01*
X197481291Y-56059409D02*
X196704565Y-56059409D01*
X200616800Y-62142120D02*
X200616800Y-59194918D01*
X200616800Y-59194918D02*
X197481291Y-56059409D01*
X207466800Y-57992120D02*
X201218040Y-51743360D01*
X207466800Y-62142120D02*
X207466800Y-57992120D01*
X194986759Y-45398441D02*
X196663821Y-45398441D01*
X196663821Y-45398441D02*
X197232780Y-45967400D01*
X192418241Y-47966959D02*
X194986759Y-45398441D01*
X192418241Y-53775639D02*
X192418241Y-47966959D01*
X197876800Y-59234198D02*
X192418241Y-53775639D01*
X197876800Y-62142120D02*
X197876800Y-59234198D01*
X199594979Y-45398441D02*
X199026020Y-45967400D01*
X211576800Y-62142120D02*
X211576800Y-57783088D01*
X211576800Y-57783088D02*
X203586551Y-49792839D01*
X203586551Y-49792839D02*
X203586551Y-47712951D01*
X203586551Y-47712951D02*
X201272041Y-45398441D01*
X201272041Y-45398441D02*
X199594979Y-45398441D01*
X201423230Y-46803060D02*
X200618600Y-46803060D01*
X201675383Y-46803060D02*
X201423230Y-46803060D01*
X210206800Y-62142120D02*
X210206800Y-57414364D01*
X202878541Y-48006218D02*
X201675383Y-46803060D01*
X202878541Y-50086105D02*
X202878541Y-48006218D01*
X210206800Y-57414364D02*
X202878541Y-50086105D01*
X208836800Y-57045640D02*
X201855580Y-50064420D01*
X208836800Y-62142120D02*
X208836800Y-57045640D01*
X194583417Y-46803060D02*
X194835570Y-46803060D01*
X193126251Y-48260226D02*
X194583417Y-46803060D01*
X193126251Y-53482372D02*
X193126251Y-48260226D01*
X194835570Y-46803060D02*
X195640200Y-46803060D01*
X198331998Y-58688119D02*
X193126251Y-53482372D01*
X199246800Y-62142120D02*
X199246800Y-59194918D01*
X199246800Y-59194918D02*
X198740001Y-58688119D01*
X198740001Y-58688119D02*
X198331998Y-58688119D01*
X206096800Y-58634120D02*
X200397300Y-52934620D01*
X200397300Y-52934620D02*
X199871840Y-52934620D01*
X206096800Y-62142120D02*
X206096800Y-58634120D01*
X197291099Y-54643389D02*
X196386960Y-53739250D01*
X196386960Y-53739250D02*
X196386960Y-52934620D01*
X198805271Y-54643389D02*
X197291099Y-54643389D01*
X203356800Y-62142120D02*
X203356800Y-59194918D01*
X203356800Y-59194918D02*
X198805271Y-54643389D01*
M02*
