G04 #@! TF.GenerationSoftware,KiCad,Pcbnew,(5.1.5)-3*
G04 #@! TF.CreationDate,2021-12-20T00:35:23-08:00*
G04 #@! TF.ProjectId,tube_holder,74756265-5f68-46f6-9c64-65722e6b6963,rev?*
G04 #@! TF.SameCoordinates,Original*
G04 #@! TF.FileFunction,Copper,L2,Bot*
G04 #@! TF.FilePolarity,Positive*
%FSLAX46Y46*%
G04 Gerber Fmt 4.6, Leading zero omitted, Abs format (unit mm)*
G04 Created by KiCad (PCBNEW (5.1.5)-3) date 2021-12-20 00:35:23*
%MOMM*%
%LPD*%
G04 APERTURE LIST*
%ADD10C,1.137920*%
%ADD11R,1.000000X6.000000*%
%ADD12C,0.508000*%
G04 APERTURE END LIST*
D10*
X201639680Y-48281340D03*
X194619120Y-48281340D03*
X198129400Y-53366420D03*
X195040760Y-51743360D03*
X194403220Y-50064420D03*
X201218040Y-51743360D03*
X197232780Y-45967400D03*
X199026020Y-45967400D03*
X200618600Y-46803060D03*
X201855580Y-50064420D03*
X195640200Y-46803060D03*
X199871840Y-52934620D03*
X196386960Y-52934620D03*
D11*
X197876820Y-62142160D03*
X199246820Y-62142160D03*
X200616820Y-62142160D03*
X201986820Y-62142160D03*
X203356820Y-62142160D03*
X204726820Y-62142160D03*
X206096820Y-62142160D03*
X207466820Y-62142160D03*
X208836820Y-62142160D03*
X210206820Y-62142160D03*
X211576820Y-62142160D03*
D10*
X214860380Y-48281340D03*
X207839820Y-48281340D03*
X211350100Y-53366420D03*
X208261460Y-51743360D03*
X207623920Y-50064420D03*
X214438740Y-51743360D03*
X210453480Y-45967400D03*
X212246720Y-45967400D03*
X213839300Y-46803060D03*
X215076280Y-50064420D03*
X208860900Y-46803060D03*
X213092540Y-52934620D03*
X209607660Y-52934620D03*
D12*
X209056360Y-52934620D02*
X209607660Y-52934620D01*
X203356820Y-58634160D02*
X209056360Y-52934620D01*
X203356820Y-62142160D02*
X203356820Y-58634160D01*
X206096820Y-59194958D02*
X206096820Y-62142160D01*
X210500418Y-54791360D02*
X206096820Y-59194958D01*
X213092540Y-53739250D02*
X212040430Y-54791360D01*
X212040430Y-54791360D02*
X210500418Y-54791360D01*
X213092540Y-52934620D02*
X213092540Y-53739250D01*
X208056270Y-46803060D02*
X208860900Y-46803060D01*
X199246820Y-62142160D02*
X199246820Y-57440244D01*
X207804117Y-46803060D02*
X208056270Y-46803060D01*
X199246820Y-57440244D02*
X206600959Y-50086105D01*
X206600959Y-50086105D02*
X206600959Y-48006218D01*
X206600959Y-48006218D02*
X207804117Y-46803060D01*
X215645239Y-50633379D02*
X215076280Y-50064420D01*
X215645239Y-53189105D02*
X215645239Y-50633379D01*
X211824398Y-56207380D02*
X212626964Y-56207380D01*
X208836820Y-59194958D02*
X211824398Y-56207380D01*
X212626964Y-56207380D02*
X215645239Y-53189105D01*
X208836820Y-62142160D02*
X208836820Y-59194958D01*
X214896083Y-46803060D02*
X214643930Y-46803060D01*
X216353249Y-48260226D02*
X214896083Y-46803060D01*
X216353249Y-53482372D02*
X216353249Y-48260226D01*
X210713619Y-58688159D02*
X211147462Y-58688159D01*
X210206820Y-59194958D02*
X210713619Y-58688159D01*
X214643930Y-46803060D02*
X213839300Y-46803060D01*
X211147462Y-58688159D02*
X216353249Y-53482372D01*
X210206820Y-62142160D02*
X210206820Y-59194958D01*
X211576820Y-59260078D02*
X217061259Y-53775639D01*
X211576820Y-62142160D02*
X211576820Y-59260078D01*
X212815679Y-45398441D02*
X212246720Y-45967400D01*
X214492741Y-45398441D02*
X212815679Y-45398441D01*
X217061259Y-53775639D02*
X217061259Y-47966959D01*
X217061259Y-47966959D02*
X214492741Y-45398441D01*
X197876820Y-62142160D02*
X197876820Y-57808968D01*
X208207459Y-45398441D02*
X209884521Y-45398441D01*
X209884521Y-45398441D02*
X210453480Y-45967400D01*
X205892949Y-47712951D02*
X208207459Y-45398441D01*
X205892949Y-49792839D02*
X205892949Y-47712951D01*
X197876820Y-57808968D02*
X205892949Y-49792839D01*
X214438740Y-53394327D02*
X214438740Y-52547990D01*
X211162408Y-55499370D02*
X212333697Y-55499370D01*
X212333697Y-55499370D02*
X214438740Y-53394327D01*
X207466820Y-59194958D02*
X211162408Y-55499370D01*
X214438740Y-52547990D02*
X214438740Y-51743360D01*
X207466820Y-62142160D02*
X207466820Y-59194958D01*
X200616820Y-57071520D02*
X207623920Y-50064420D01*
X200616820Y-62142160D02*
X200616820Y-57071520D01*
X201986820Y-58018000D02*
X208261460Y-51743360D01*
X201986820Y-62142160D02*
X201986820Y-58018000D01*
X210781141Y-53935379D02*
X211350100Y-53366420D01*
X204726820Y-59194958D02*
X209986399Y-53935379D01*
X209986399Y-53935379D02*
X210781141Y-53935379D01*
X204726820Y-62142160D02*
X204726820Y-59194958D01*
M02*
