G04 #@! TF.GenerationSoftware,KiCad,Pcbnew,(5.1.5)-3*
G04 #@! TF.CreationDate,2021-12-20T00:35:23-08:00*
G04 #@! TF.ProjectId,tube_holder,74756265-5f68-46f6-9c64-65722e6b6963,rev?*
G04 #@! TF.SameCoordinates,Original*
G04 #@! TF.FileFunction,Soldermask,Bot*
G04 #@! TF.FilePolarity,Negative*
%FSLAX46Y46*%
G04 Gerber Fmt 4.6, Leading zero omitted, Abs format (unit mm)*
G04 Created by KiCad (PCBNEW (5.1.5)-3) date 2021-12-20 00:35:23*
%MOMM*%
%LPD*%
G04 APERTURE LIST*
%ADD10C,0.150000*%
G04 APERTURE END LIST*
D10*
G36*
X199797820Y-65193160D02*
G01*
X198695820Y-65193160D01*
X198695820Y-59091160D01*
X199797820Y-59091160D01*
X199797820Y-65193160D01*
G37*
G36*
X198427820Y-65193160D02*
G01*
X197325820Y-65193160D01*
X197325820Y-59091160D01*
X198427820Y-59091160D01*
X198427820Y-65193160D01*
G37*
G36*
X201167820Y-65193160D02*
G01*
X200065820Y-65193160D01*
X200065820Y-59091160D01*
X201167820Y-59091160D01*
X201167820Y-65193160D01*
G37*
G36*
X202537820Y-65193160D02*
G01*
X201435820Y-65193160D01*
X201435820Y-59091160D01*
X202537820Y-59091160D01*
X202537820Y-65193160D01*
G37*
G36*
X212127820Y-65193160D02*
G01*
X211025820Y-65193160D01*
X211025820Y-59091160D01*
X212127820Y-59091160D01*
X212127820Y-65193160D01*
G37*
G36*
X210757820Y-65193160D02*
G01*
X209655820Y-65193160D01*
X209655820Y-59091160D01*
X210757820Y-59091160D01*
X210757820Y-65193160D01*
G37*
G36*
X209387820Y-65193160D02*
G01*
X208285820Y-65193160D01*
X208285820Y-59091160D01*
X209387820Y-59091160D01*
X209387820Y-65193160D01*
G37*
G36*
X208017820Y-65193160D02*
G01*
X206915820Y-65193160D01*
X206915820Y-59091160D01*
X208017820Y-59091160D01*
X208017820Y-65193160D01*
G37*
G36*
X206647820Y-65193160D02*
G01*
X205545820Y-65193160D01*
X205545820Y-59091160D01*
X206647820Y-59091160D01*
X206647820Y-65193160D01*
G37*
G36*
X205277820Y-65193160D02*
G01*
X204175820Y-65193160D01*
X204175820Y-59091160D01*
X205277820Y-59091160D01*
X205277820Y-65193160D01*
G37*
G36*
X203907820Y-65193160D02*
G01*
X202805820Y-65193160D01*
X202805820Y-59091160D01*
X203907820Y-59091160D01*
X203907820Y-65193160D01*
G37*
G36*
X194818433Y-59634893D02*
G01*
X194908657Y-59652839D01*
X195014267Y-59696585D01*
X195163621Y-59758449D01*
X195163622Y-59758450D01*
X195393086Y-59911772D01*
X195588228Y-60106914D01*
X195690675Y-60260237D01*
X195741551Y-60336379D01*
X195847161Y-60591344D01*
X195901000Y-60862012D01*
X195901000Y-61137988D01*
X195847161Y-61408656D01*
X195741551Y-61663621D01*
X195741550Y-61663622D01*
X195588228Y-61893086D01*
X195393086Y-62088228D01*
X195239763Y-62190675D01*
X195163621Y-62241551D01*
X195014267Y-62303415D01*
X194908657Y-62347161D01*
X194818433Y-62365107D01*
X194637988Y-62401000D01*
X194362012Y-62401000D01*
X194181567Y-62365107D01*
X194091343Y-62347161D01*
X193985733Y-62303415D01*
X193836379Y-62241551D01*
X193760237Y-62190675D01*
X193606914Y-62088228D01*
X193411772Y-61893086D01*
X193258450Y-61663622D01*
X193258449Y-61663621D01*
X193152839Y-61408656D01*
X193099000Y-61137988D01*
X193099000Y-60862012D01*
X193152839Y-60591344D01*
X193258449Y-60336379D01*
X193309325Y-60260237D01*
X193411772Y-60106914D01*
X193606914Y-59911772D01*
X193836378Y-59758450D01*
X193836379Y-59758449D01*
X193985733Y-59696585D01*
X194091343Y-59652839D01*
X194181567Y-59634893D01*
X194362012Y-59599000D01*
X194637988Y-59599000D01*
X194818433Y-59634893D01*
G37*
G36*
X198310236Y-52770284D02*
G01*
X198423060Y-52817017D01*
X198423061Y-52817018D01*
X198524602Y-52884865D01*
X198610955Y-52971218D01*
X198627301Y-52995682D01*
X198678803Y-53072760D01*
X198725536Y-53185584D01*
X198749360Y-53305358D01*
X198749360Y-53427482D01*
X198725536Y-53547256D01*
X198678803Y-53660080D01*
X198678802Y-53660081D01*
X198610955Y-53761622D01*
X198524602Y-53847975D01*
X198473487Y-53882129D01*
X198423060Y-53915823D01*
X198310236Y-53962556D01*
X198190462Y-53986380D01*
X198068338Y-53986380D01*
X197948564Y-53962556D01*
X197835740Y-53915823D01*
X197785313Y-53882129D01*
X197734198Y-53847975D01*
X197647845Y-53761622D01*
X197579998Y-53660081D01*
X197579997Y-53660080D01*
X197533264Y-53547256D01*
X197509440Y-53427482D01*
X197509440Y-53305358D01*
X197533264Y-53185584D01*
X197579997Y-53072760D01*
X197631499Y-52995682D01*
X197647845Y-52971218D01*
X197734198Y-52884865D01*
X197835739Y-52817018D01*
X197835740Y-52817017D01*
X197948564Y-52770284D01*
X198068338Y-52746460D01*
X198190462Y-52746460D01*
X198310236Y-52770284D01*
G37*
G36*
X211530936Y-52770284D02*
G01*
X211643760Y-52817017D01*
X211643761Y-52817018D01*
X211745302Y-52884865D01*
X211831655Y-52971218D01*
X211848001Y-52995682D01*
X211899503Y-53072760D01*
X211946236Y-53185584D01*
X211970060Y-53305358D01*
X211970060Y-53427482D01*
X211946236Y-53547256D01*
X211899503Y-53660080D01*
X211899502Y-53660081D01*
X211831655Y-53761622D01*
X211745302Y-53847975D01*
X211694187Y-53882129D01*
X211643760Y-53915823D01*
X211530936Y-53962556D01*
X211411162Y-53986380D01*
X211289038Y-53986380D01*
X211169264Y-53962556D01*
X211056440Y-53915823D01*
X211006013Y-53882129D01*
X210954898Y-53847975D01*
X210868545Y-53761622D01*
X210800698Y-53660081D01*
X210800697Y-53660080D01*
X210753964Y-53547256D01*
X210730140Y-53427482D01*
X210730140Y-53305358D01*
X210753964Y-53185584D01*
X210800697Y-53072760D01*
X210852199Y-52995682D01*
X210868545Y-52971218D01*
X210954898Y-52884865D01*
X211056439Y-52817018D01*
X211056440Y-52817017D01*
X211169264Y-52770284D01*
X211289038Y-52746460D01*
X211411162Y-52746460D01*
X211530936Y-52770284D01*
G37*
G36*
X213273376Y-52338484D02*
G01*
X213386200Y-52385217D01*
X213386201Y-52385218D01*
X213487742Y-52453065D01*
X213574095Y-52539418D01*
X213574096Y-52539420D01*
X213641943Y-52640960D01*
X213688676Y-52753784D01*
X213712500Y-52873558D01*
X213712500Y-52995682D01*
X213688676Y-53115456D01*
X213641943Y-53228280D01*
X213641942Y-53228281D01*
X213574095Y-53329822D01*
X213487742Y-53416175D01*
X213436627Y-53450329D01*
X213386200Y-53484023D01*
X213273376Y-53530756D01*
X213153602Y-53554580D01*
X213031478Y-53554580D01*
X212911704Y-53530756D01*
X212798880Y-53484023D01*
X212748453Y-53450329D01*
X212697338Y-53416175D01*
X212610985Y-53329822D01*
X212543138Y-53228281D01*
X212543137Y-53228280D01*
X212496404Y-53115456D01*
X212472580Y-52995682D01*
X212472580Y-52873558D01*
X212496404Y-52753784D01*
X212543137Y-52640960D01*
X212610984Y-52539420D01*
X212610985Y-52539418D01*
X212697338Y-52453065D01*
X212798879Y-52385218D01*
X212798880Y-52385217D01*
X212911704Y-52338484D01*
X213031478Y-52314660D01*
X213153602Y-52314660D01*
X213273376Y-52338484D01*
G37*
G36*
X196567796Y-52338484D02*
G01*
X196680620Y-52385217D01*
X196680621Y-52385218D01*
X196782162Y-52453065D01*
X196868515Y-52539418D01*
X196868516Y-52539420D01*
X196936363Y-52640960D01*
X196983096Y-52753784D01*
X197006920Y-52873558D01*
X197006920Y-52995682D01*
X196983096Y-53115456D01*
X196936363Y-53228280D01*
X196936362Y-53228281D01*
X196868515Y-53329822D01*
X196782162Y-53416175D01*
X196731047Y-53450329D01*
X196680620Y-53484023D01*
X196567796Y-53530756D01*
X196448022Y-53554580D01*
X196325898Y-53554580D01*
X196206124Y-53530756D01*
X196093300Y-53484023D01*
X196042873Y-53450329D01*
X195991758Y-53416175D01*
X195905405Y-53329822D01*
X195837558Y-53228281D01*
X195837557Y-53228280D01*
X195790824Y-53115456D01*
X195767000Y-52995682D01*
X195767000Y-52873558D01*
X195790824Y-52753784D01*
X195837557Y-52640960D01*
X195905404Y-52539420D01*
X195905405Y-52539418D01*
X195991758Y-52453065D01*
X196093299Y-52385218D01*
X196093300Y-52385217D01*
X196206124Y-52338484D01*
X196325898Y-52314660D01*
X196448022Y-52314660D01*
X196567796Y-52338484D01*
G37*
G36*
X200052676Y-52338484D02*
G01*
X200165500Y-52385217D01*
X200165501Y-52385218D01*
X200267042Y-52453065D01*
X200353395Y-52539418D01*
X200353396Y-52539420D01*
X200421243Y-52640960D01*
X200467976Y-52753784D01*
X200491800Y-52873558D01*
X200491800Y-52995682D01*
X200467976Y-53115456D01*
X200421243Y-53228280D01*
X200421242Y-53228281D01*
X200353395Y-53329822D01*
X200267042Y-53416175D01*
X200215927Y-53450329D01*
X200165500Y-53484023D01*
X200052676Y-53530756D01*
X199932902Y-53554580D01*
X199810778Y-53554580D01*
X199691004Y-53530756D01*
X199578180Y-53484023D01*
X199527753Y-53450329D01*
X199476638Y-53416175D01*
X199390285Y-53329822D01*
X199322438Y-53228281D01*
X199322437Y-53228280D01*
X199275704Y-53115456D01*
X199251880Y-52995682D01*
X199251880Y-52873558D01*
X199275704Y-52753784D01*
X199322437Y-52640960D01*
X199390284Y-52539420D01*
X199390285Y-52539418D01*
X199476638Y-52453065D01*
X199578179Y-52385218D01*
X199578180Y-52385217D01*
X199691004Y-52338484D01*
X199810778Y-52314660D01*
X199932902Y-52314660D01*
X200052676Y-52338484D01*
G37*
G36*
X209788496Y-52338484D02*
G01*
X209901320Y-52385217D01*
X209901321Y-52385218D01*
X210002862Y-52453065D01*
X210089215Y-52539418D01*
X210089216Y-52539420D01*
X210157063Y-52640960D01*
X210203796Y-52753784D01*
X210227620Y-52873558D01*
X210227620Y-52995682D01*
X210203796Y-53115456D01*
X210157063Y-53228280D01*
X210157062Y-53228281D01*
X210089215Y-53329822D01*
X210002862Y-53416175D01*
X209951747Y-53450329D01*
X209901320Y-53484023D01*
X209788496Y-53530756D01*
X209668722Y-53554580D01*
X209546598Y-53554580D01*
X209426824Y-53530756D01*
X209314000Y-53484023D01*
X209263573Y-53450329D01*
X209212458Y-53416175D01*
X209126105Y-53329822D01*
X209058258Y-53228281D01*
X209058257Y-53228280D01*
X209011524Y-53115456D01*
X208987700Y-52995682D01*
X208987700Y-52873558D01*
X209011524Y-52753784D01*
X209058257Y-52640960D01*
X209126104Y-52539420D01*
X209126105Y-52539418D01*
X209212458Y-52453065D01*
X209313999Y-52385218D01*
X209314000Y-52385217D01*
X209426824Y-52338484D01*
X209546598Y-52314660D01*
X209668722Y-52314660D01*
X209788496Y-52338484D01*
G37*
G36*
X201398876Y-51147224D02*
G01*
X201511700Y-51193957D01*
X201511701Y-51193958D01*
X201613242Y-51261805D01*
X201699595Y-51348158D01*
X201699596Y-51348160D01*
X201767443Y-51449700D01*
X201814176Y-51562524D01*
X201838000Y-51682298D01*
X201838000Y-51804422D01*
X201814176Y-51924196D01*
X201767443Y-52037020D01*
X201767442Y-52037021D01*
X201699595Y-52138562D01*
X201613242Y-52224915D01*
X201562127Y-52259069D01*
X201511700Y-52292763D01*
X201398876Y-52339496D01*
X201279102Y-52363320D01*
X201156978Y-52363320D01*
X201037204Y-52339496D01*
X200924380Y-52292763D01*
X200873953Y-52259069D01*
X200822838Y-52224915D01*
X200736485Y-52138562D01*
X200668638Y-52037021D01*
X200668637Y-52037020D01*
X200621904Y-51924196D01*
X200598080Y-51804422D01*
X200598080Y-51682298D01*
X200621904Y-51562524D01*
X200668637Y-51449700D01*
X200736484Y-51348160D01*
X200736485Y-51348158D01*
X200822838Y-51261805D01*
X200924379Y-51193958D01*
X200924380Y-51193957D01*
X201037204Y-51147224D01*
X201156978Y-51123400D01*
X201279102Y-51123400D01*
X201398876Y-51147224D01*
G37*
G36*
X214619576Y-51147224D02*
G01*
X214732400Y-51193957D01*
X214732401Y-51193958D01*
X214833942Y-51261805D01*
X214920295Y-51348158D01*
X214920296Y-51348160D01*
X214988143Y-51449700D01*
X215034876Y-51562524D01*
X215058700Y-51682298D01*
X215058700Y-51804422D01*
X215034876Y-51924196D01*
X214988143Y-52037020D01*
X214988142Y-52037021D01*
X214920295Y-52138562D01*
X214833942Y-52224915D01*
X214782827Y-52259069D01*
X214732400Y-52292763D01*
X214619576Y-52339496D01*
X214499802Y-52363320D01*
X214377678Y-52363320D01*
X214257904Y-52339496D01*
X214145080Y-52292763D01*
X214094653Y-52259069D01*
X214043538Y-52224915D01*
X213957185Y-52138562D01*
X213889338Y-52037021D01*
X213889337Y-52037020D01*
X213842604Y-51924196D01*
X213818780Y-51804422D01*
X213818780Y-51682298D01*
X213842604Y-51562524D01*
X213889337Y-51449700D01*
X213957184Y-51348160D01*
X213957185Y-51348158D01*
X214043538Y-51261805D01*
X214145079Y-51193958D01*
X214145080Y-51193957D01*
X214257904Y-51147224D01*
X214377678Y-51123400D01*
X214499802Y-51123400D01*
X214619576Y-51147224D01*
G37*
G36*
X195221596Y-51147224D02*
G01*
X195334420Y-51193957D01*
X195334421Y-51193958D01*
X195435962Y-51261805D01*
X195522315Y-51348158D01*
X195522316Y-51348160D01*
X195590163Y-51449700D01*
X195636896Y-51562524D01*
X195660720Y-51682298D01*
X195660720Y-51804422D01*
X195636896Y-51924196D01*
X195590163Y-52037020D01*
X195590162Y-52037021D01*
X195522315Y-52138562D01*
X195435962Y-52224915D01*
X195384847Y-52259069D01*
X195334420Y-52292763D01*
X195221596Y-52339496D01*
X195101822Y-52363320D01*
X194979698Y-52363320D01*
X194859924Y-52339496D01*
X194747100Y-52292763D01*
X194696673Y-52259069D01*
X194645558Y-52224915D01*
X194559205Y-52138562D01*
X194491358Y-52037021D01*
X194491357Y-52037020D01*
X194444624Y-51924196D01*
X194420800Y-51804422D01*
X194420800Y-51682298D01*
X194444624Y-51562524D01*
X194491357Y-51449700D01*
X194559204Y-51348160D01*
X194559205Y-51348158D01*
X194645558Y-51261805D01*
X194747099Y-51193958D01*
X194747100Y-51193957D01*
X194859924Y-51147224D01*
X194979698Y-51123400D01*
X195101822Y-51123400D01*
X195221596Y-51147224D01*
G37*
G36*
X208442296Y-51147224D02*
G01*
X208555120Y-51193957D01*
X208555121Y-51193958D01*
X208656662Y-51261805D01*
X208743015Y-51348158D01*
X208743016Y-51348160D01*
X208810863Y-51449700D01*
X208857596Y-51562524D01*
X208881420Y-51682298D01*
X208881420Y-51804422D01*
X208857596Y-51924196D01*
X208810863Y-52037020D01*
X208810862Y-52037021D01*
X208743015Y-52138562D01*
X208656662Y-52224915D01*
X208605547Y-52259069D01*
X208555120Y-52292763D01*
X208442296Y-52339496D01*
X208322522Y-52363320D01*
X208200398Y-52363320D01*
X208080624Y-52339496D01*
X207967800Y-52292763D01*
X207917373Y-52259069D01*
X207866258Y-52224915D01*
X207779905Y-52138562D01*
X207712058Y-52037021D01*
X207712057Y-52037020D01*
X207665324Y-51924196D01*
X207641500Y-51804422D01*
X207641500Y-51682298D01*
X207665324Y-51562524D01*
X207712057Y-51449700D01*
X207779904Y-51348160D01*
X207779905Y-51348158D01*
X207866258Y-51261805D01*
X207967799Y-51193958D01*
X207967800Y-51193957D01*
X208080624Y-51147224D01*
X208200398Y-51123400D01*
X208322522Y-51123400D01*
X208442296Y-51147224D01*
G37*
G36*
X194584056Y-49468284D02*
G01*
X194696880Y-49515017D01*
X194696881Y-49515018D01*
X194798422Y-49582865D01*
X194884775Y-49669218D01*
X194884776Y-49669220D01*
X194952623Y-49770760D01*
X194999356Y-49883584D01*
X195023180Y-50003358D01*
X195023180Y-50125482D01*
X194999356Y-50245256D01*
X194952623Y-50358080D01*
X194952622Y-50358081D01*
X194884775Y-50459622D01*
X194798422Y-50545975D01*
X194747307Y-50580129D01*
X194696880Y-50613823D01*
X194584056Y-50660556D01*
X194464282Y-50684380D01*
X194342158Y-50684380D01*
X194222384Y-50660556D01*
X194109560Y-50613823D01*
X194059133Y-50580129D01*
X194008018Y-50545975D01*
X193921665Y-50459622D01*
X193853818Y-50358081D01*
X193853817Y-50358080D01*
X193807084Y-50245256D01*
X193783260Y-50125482D01*
X193783260Y-50003358D01*
X193807084Y-49883584D01*
X193853817Y-49770760D01*
X193921664Y-49669220D01*
X193921665Y-49669218D01*
X194008018Y-49582865D01*
X194109559Y-49515018D01*
X194109560Y-49515017D01*
X194222384Y-49468284D01*
X194342158Y-49444460D01*
X194464282Y-49444460D01*
X194584056Y-49468284D01*
G37*
G36*
X207804756Y-49468284D02*
G01*
X207917580Y-49515017D01*
X207917581Y-49515018D01*
X208019122Y-49582865D01*
X208105475Y-49669218D01*
X208105476Y-49669220D01*
X208173323Y-49770760D01*
X208220056Y-49883584D01*
X208243880Y-50003358D01*
X208243880Y-50125482D01*
X208220056Y-50245256D01*
X208173323Y-50358080D01*
X208173322Y-50358081D01*
X208105475Y-50459622D01*
X208019122Y-50545975D01*
X207968007Y-50580129D01*
X207917580Y-50613823D01*
X207804756Y-50660556D01*
X207684982Y-50684380D01*
X207562858Y-50684380D01*
X207443084Y-50660556D01*
X207330260Y-50613823D01*
X207279833Y-50580129D01*
X207228718Y-50545975D01*
X207142365Y-50459622D01*
X207074518Y-50358081D01*
X207074517Y-50358080D01*
X207027784Y-50245256D01*
X207003960Y-50125482D01*
X207003960Y-50003358D01*
X207027784Y-49883584D01*
X207074517Y-49770760D01*
X207142364Y-49669220D01*
X207142365Y-49669218D01*
X207228718Y-49582865D01*
X207330259Y-49515018D01*
X207330260Y-49515017D01*
X207443084Y-49468284D01*
X207562858Y-49444460D01*
X207684982Y-49444460D01*
X207804756Y-49468284D01*
G37*
G36*
X215257116Y-49468284D02*
G01*
X215369940Y-49515017D01*
X215369941Y-49515018D01*
X215471482Y-49582865D01*
X215557835Y-49669218D01*
X215557836Y-49669220D01*
X215625683Y-49770760D01*
X215672416Y-49883584D01*
X215696240Y-50003358D01*
X215696240Y-50125482D01*
X215672416Y-50245256D01*
X215625683Y-50358080D01*
X215625682Y-50358081D01*
X215557835Y-50459622D01*
X215471482Y-50545975D01*
X215420367Y-50580129D01*
X215369940Y-50613823D01*
X215257116Y-50660556D01*
X215137342Y-50684380D01*
X215015218Y-50684380D01*
X214895444Y-50660556D01*
X214782620Y-50613823D01*
X214732193Y-50580129D01*
X214681078Y-50545975D01*
X214594725Y-50459622D01*
X214526878Y-50358081D01*
X214526877Y-50358080D01*
X214480144Y-50245256D01*
X214456320Y-50125482D01*
X214456320Y-50003358D01*
X214480144Y-49883584D01*
X214526877Y-49770760D01*
X214594724Y-49669220D01*
X214594725Y-49669218D01*
X214681078Y-49582865D01*
X214782619Y-49515018D01*
X214782620Y-49515017D01*
X214895444Y-49468284D01*
X215015218Y-49444460D01*
X215137342Y-49444460D01*
X215257116Y-49468284D01*
G37*
G36*
X202036416Y-49468284D02*
G01*
X202149240Y-49515017D01*
X202149241Y-49515018D01*
X202250782Y-49582865D01*
X202337135Y-49669218D01*
X202337136Y-49669220D01*
X202404983Y-49770760D01*
X202451716Y-49883584D01*
X202475540Y-50003358D01*
X202475540Y-50125482D01*
X202451716Y-50245256D01*
X202404983Y-50358080D01*
X202404982Y-50358081D01*
X202337135Y-50459622D01*
X202250782Y-50545975D01*
X202199667Y-50580129D01*
X202149240Y-50613823D01*
X202036416Y-50660556D01*
X201916642Y-50684380D01*
X201794518Y-50684380D01*
X201674744Y-50660556D01*
X201561920Y-50613823D01*
X201511493Y-50580129D01*
X201460378Y-50545975D01*
X201374025Y-50459622D01*
X201306178Y-50358081D01*
X201306177Y-50358080D01*
X201259444Y-50245256D01*
X201235620Y-50125482D01*
X201235620Y-50003358D01*
X201259444Y-49883584D01*
X201306177Y-49770760D01*
X201374024Y-49669220D01*
X201374025Y-49669218D01*
X201460378Y-49582865D01*
X201561919Y-49515018D01*
X201561920Y-49515017D01*
X201674744Y-49468284D01*
X201794518Y-49444460D01*
X201916642Y-49444460D01*
X202036416Y-49468284D01*
G37*
G36*
X215041216Y-47685204D02*
G01*
X215154040Y-47731937D01*
X215154041Y-47731938D01*
X215255582Y-47799785D01*
X215341935Y-47886138D01*
X215341936Y-47886140D01*
X215409783Y-47987680D01*
X215456516Y-48100504D01*
X215480340Y-48220278D01*
X215480340Y-48342402D01*
X215456516Y-48462176D01*
X215409783Y-48575000D01*
X215409782Y-48575001D01*
X215341935Y-48676542D01*
X215255582Y-48762895D01*
X215204467Y-48797049D01*
X215154040Y-48830743D01*
X215041216Y-48877476D01*
X214921442Y-48901300D01*
X214799318Y-48901300D01*
X214679544Y-48877476D01*
X214566720Y-48830743D01*
X214516293Y-48797049D01*
X214465178Y-48762895D01*
X214378825Y-48676542D01*
X214310978Y-48575001D01*
X214310977Y-48575000D01*
X214264244Y-48462176D01*
X214240420Y-48342402D01*
X214240420Y-48220278D01*
X214264244Y-48100504D01*
X214310977Y-47987680D01*
X214378824Y-47886140D01*
X214378825Y-47886138D01*
X214465178Y-47799785D01*
X214566719Y-47731938D01*
X214566720Y-47731937D01*
X214679544Y-47685204D01*
X214799318Y-47661380D01*
X214921442Y-47661380D01*
X215041216Y-47685204D01*
G37*
G36*
X208020656Y-47685204D02*
G01*
X208133480Y-47731937D01*
X208133481Y-47731938D01*
X208235022Y-47799785D01*
X208321375Y-47886138D01*
X208321376Y-47886140D01*
X208389223Y-47987680D01*
X208435956Y-48100504D01*
X208459780Y-48220278D01*
X208459780Y-48342402D01*
X208435956Y-48462176D01*
X208389223Y-48575000D01*
X208389222Y-48575001D01*
X208321375Y-48676542D01*
X208235022Y-48762895D01*
X208183907Y-48797049D01*
X208133480Y-48830743D01*
X208020656Y-48877476D01*
X207900882Y-48901300D01*
X207778758Y-48901300D01*
X207658984Y-48877476D01*
X207546160Y-48830743D01*
X207495733Y-48797049D01*
X207444618Y-48762895D01*
X207358265Y-48676542D01*
X207290418Y-48575001D01*
X207290417Y-48575000D01*
X207243684Y-48462176D01*
X207219860Y-48342402D01*
X207219860Y-48220278D01*
X207243684Y-48100504D01*
X207290417Y-47987680D01*
X207358264Y-47886140D01*
X207358265Y-47886138D01*
X207444618Y-47799785D01*
X207546159Y-47731938D01*
X207546160Y-47731937D01*
X207658984Y-47685204D01*
X207778758Y-47661380D01*
X207900882Y-47661380D01*
X208020656Y-47685204D01*
G37*
G36*
X194799956Y-47685204D02*
G01*
X194912780Y-47731937D01*
X194912781Y-47731938D01*
X195014322Y-47799785D01*
X195100675Y-47886138D01*
X195100676Y-47886140D01*
X195168523Y-47987680D01*
X195215256Y-48100504D01*
X195239080Y-48220278D01*
X195239080Y-48342402D01*
X195215256Y-48462176D01*
X195168523Y-48575000D01*
X195168522Y-48575001D01*
X195100675Y-48676542D01*
X195014322Y-48762895D01*
X194963207Y-48797049D01*
X194912780Y-48830743D01*
X194799956Y-48877476D01*
X194680182Y-48901300D01*
X194558058Y-48901300D01*
X194438284Y-48877476D01*
X194325460Y-48830743D01*
X194275033Y-48797049D01*
X194223918Y-48762895D01*
X194137565Y-48676542D01*
X194069718Y-48575001D01*
X194069717Y-48575000D01*
X194022984Y-48462176D01*
X193999160Y-48342402D01*
X193999160Y-48220278D01*
X194022984Y-48100504D01*
X194069717Y-47987680D01*
X194137564Y-47886140D01*
X194137565Y-47886138D01*
X194223918Y-47799785D01*
X194325459Y-47731938D01*
X194325460Y-47731937D01*
X194438284Y-47685204D01*
X194558058Y-47661380D01*
X194680182Y-47661380D01*
X194799956Y-47685204D01*
G37*
G36*
X201820516Y-47685204D02*
G01*
X201933340Y-47731937D01*
X201933341Y-47731938D01*
X202034882Y-47799785D01*
X202121235Y-47886138D01*
X202121236Y-47886140D01*
X202189083Y-47987680D01*
X202235816Y-48100504D01*
X202259640Y-48220278D01*
X202259640Y-48342402D01*
X202235816Y-48462176D01*
X202189083Y-48575000D01*
X202189082Y-48575001D01*
X202121235Y-48676542D01*
X202034882Y-48762895D01*
X201983767Y-48797049D01*
X201933340Y-48830743D01*
X201820516Y-48877476D01*
X201700742Y-48901300D01*
X201578618Y-48901300D01*
X201458844Y-48877476D01*
X201346020Y-48830743D01*
X201295593Y-48797049D01*
X201244478Y-48762895D01*
X201158125Y-48676542D01*
X201090278Y-48575001D01*
X201090277Y-48575000D01*
X201043544Y-48462176D01*
X201019720Y-48342402D01*
X201019720Y-48220278D01*
X201043544Y-48100504D01*
X201090277Y-47987680D01*
X201158124Y-47886140D01*
X201158125Y-47886138D01*
X201244478Y-47799785D01*
X201346019Y-47731938D01*
X201346020Y-47731937D01*
X201458844Y-47685204D01*
X201578618Y-47661380D01*
X201700742Y-47661380D01*
X201820516Y-47685204D01*
G37*
G36*
X195821036Y-46206924D02*
G01*
X195933860Y-46253657D01*
X195984287Y-46287351D01*
X196035402Y-46321505D01*
X196121755Y-46407858D01*
X196121756Y-46407860D01*
X196189603Y-46509400D01*
X196236336Y-46622224D01*
X196260160Y-46741998D01*
X196260160Y-46864122D01*
X196236336Y-46983896D01*
X196189603Y-47096720D01*
X196189602Y-47096721D01*
X196121755Y-47198262D01*
X196035402Y-47284615D01*
X195984287Y-47318769D01*
X195933860Y-47352463D01*
X195821036Y-47399196D01*
X195701262Y-47423020D01*
X195579138Y-47423020D01*
X195459364Y-47399196D01*
X195346540Y-47352463D01*
X195296113Y-47318769D01*
X195244998Y-47284615D01*
X195158645Y-47198262D01*
X195090798Y-47096721D01*
X195090797Y-47096720D01*
X195044064Y-46983896D01*
X195020240Y-46864122D01*
X195020240Y-46741998D01*
X195044064Y-46622224D01*
X195090797Y-46509400D01*
X195158644Y-46407860D01*
X195158645Y-46407858D01*
X195244998Y-46321505D01*
X195296113Y-46287351D01*
X195346540Y-46253657D01*
X195459364Y-46206924D01*
X195579138Y-46183100D01*
X195701262Y-46183100D01*
X195821036Y-46206924D01*
G37*
G36*
X209041736Y-46206924D02*
G01*
X209154560Y-46253657D01*
X209204987Y-46287351D01*
X209256102Y-46321505D01*
X209342455Y-46407858D01*
X209342456Y-46407860D01*
X209410303Y-46509400D01*
X209457036Y-46622224D01*
X209480860Y-46741998D01*
X209480860Y-46864122D01*
X209457036Y-46983896D01*
X209410303Y-47096720D01*
X209410302Y-47096721D01*
X209342455Y-47198262D01*
X209256102Y-47284615D01*
X209204987Y-47318769D01*
X209154560Y-47352463D01*
X209041736Y-47399196D01*
X208921962Y-47423020D01*
X208799838Y-47423020D01*
X208680064Y-47399196D01*
X208567240Y-47352463D01*
X208516813Y-47318769D01*
X208465698Y-47284615D01*
X208379345Y-47198262D01*
X208311498Y-47096721D01*
X208311497Y-47096720D01*
X208264764Y-46983896D01*
X208240940Y-46864122D01*
X208240940Y-46741998D01*
X208264764Y-46622224D01*
X208311497Y-46509400D01*
X208379344Y-46407860D01*
X208379345Y-46407858D01*
X208465698Y-46321505D01*
X208516813Y-46287351D01*
X208567240Y-46253657D01*
X208680064Y-46206924D01*
X208799838Y-46183100D01*
X208921962Y-46183100D01*
X209041736Y-46206924D01*
G37*
G36*
X214020136Y-46206924D02*
G01*
X214132960Y-46253657D01*
X214183387Y-46287351D01*
X214234502Y-46321505D01*
X214320855Y-46407858D01*
X214320856Y-46407860D01*
X214388703Y-46509400D01*
X214435436Y-46622224D01*
X214459260Y-46741998D01*
X214459260Y-46864122D01*
X214435436Y-46983896D01*
X214388703Y-47096720D01*
X214388702Y-47096721D01*
X214320855Y-47198262D01*
X214234502Y-47284615D01*
X214183387Y-47318769D01*
X214132960Y-47352463D01*
X214020136Y-47399196D01*
X213900362Y-47423020D01*
X213778238Y-47423020D01*
X213658464Y-47399196D01*
X213545640Y-47352463D01*
X213495213Y-47318769D01*
X213444098Y-47284615D01*
X213357745Y-47198262D01*
X213289898Y-47096721D01*
X213289897Y-47096720D01*
X213243164Y-46983896D01*
X213219340Y-46864122D01*
X213219340Y-46741998D01*
X213243164Y-46622224D01*
X213289897Y-46509400D01*
X213357744Y-46407860D01*
X213357745Y-46407858D01*
X213444098Y-46321505D01*
X213495213Y-46287351D01*
X213545640Y-46253657D01*
X213658464Y-46206924D01*
X213778238Y-46183100D01*
X213900362Y-46183100D01*
X214020136Y-46206924D01*
G37*
G36*
X200799436Y-46206924D02*
G01*
X200912260Y-46253657D01*
X200962687Y-46287351D01*
X201013802Y-46321505D01*
X201100155Y-46407858D01*
X201100156Y-46407860D01*
X201168003Y-46509400D01*
X201214736Y-46622224D01*
X201238560Y-46741998D01*
X201238560Y-46864122D01*
X201214736Y-46983896D01*
X201168003Y-47096720D01*
X201168002Y-47096721D01*
X201100155Y-47198262D01*
X201013802Y-47284615D01*
X200962687Y-47318769D01*
X200912260Y-47352463D01*
X200799436Y-47399196D01*
X200679662Y-47423020D01*
X200557538Y-47423020D01*
X200437764Y-47399196D01*
X200324940Y-47352463D01*
X200274513Y-47318769D01*
X200223398Y-47284615D01*
X200137045Y-47198262D01*
X200069198Y-47096721D01*
X200069197Y-47096720D01*
X200022464Y-46983896D01*
X199998640Y-46864122D01*
X199998640Y-46741998D01*
X200022464Y-46622224D01*
X200069197Y-46509400D01*
X200137044Y-46407860D01*
X200137045Y-46407858D01*
X200223398Y-46321505D01*
X200274513Y-46287351D01*
X200324940Y-46253657D01*
X200437764Y-46206924D01*
X200557538Y-46183100D01*
X200679662Y-46183100D01*
X200799436Y-46206924D01*
G37*
G36*
X197413616Y-45371264D02*
G01*
X197526440Y-45417997D01*
X197526441Y-45417998D01*
X197627982Y-45485845D01*
X197714335Y-45572198D01*
X197714336Y-45572200D01*
X197782183Y-45673740D01*
X197828916Y-45786564D01*
X197852740Y-45906338D01*
X197852740Y-46028462D01*
X197828916Y-46148236D01*
X197782183Y-46261060D01*
X197782182Y-46261061D01*
X197714335Y-46362602D01*
X197627982Y-46448955D01*
X197576867Y-46483109D01*
X197526440Y-46516803D01*
X197413616Y-46563536D01*
X197293842Y-46587360D01*
X197171718Y-46587360D01*
X197051944Y-46563536D01*
X196939120Y-46516803D01*
X196888693Y-46483109D01*
X196837578Y-46448955D01*
X196751225Y-46362602D01*
X196683378Y-46261061D01*
X196683377Y-46261060D01*
X196636644Y-46148236D01*
X196612820Y-46028462D01*
X196612820Y-45906338D01*
X196636644Y-45786564D01*
X196683377Y-45673740D01*
X196751224Y-45572200D01*
X196751225Y-45572198D01*
X196837578Y-45485845D01*
X196939119Y-45417998D01*
X196939120Y-45417997D01*
X197051944Y-45371264D01*
X197171718Y-45347440D01*
X197293842Y-45347440D01*
X197413616Y-45371264D01*
G37*
G36*
X199206856Y-45371264D02*
G01*
X199319680Y-45417997D01*
X199319681Y-45417998D01*
X199421222Y-45485845D01*
X199507575Y-45572198D01*
X199507576Y-45572200D01*
X199575423Y-45673740D01*
X199622156Y-45786564D01*
X199645980Y-45906338D01*
X199645980Y-46028462D01*
X199622156Y-46148236D01*
X199575423Y-46261060D01*
X199575422Y-46261061D01*
X199507575Y-46362602D01*
X199421222Y-46448955D01*
X199370107Y-46483109D01*
X199319680Y-46516803D01*
X199206856Y-46563536D01*
X199087082Y-46587360D01*
X198964958Y-46587360D01*
X198845184Y-46563536D01*
X198732360Y-46516803D01*
X198681933Y-46483109D01*
X198630818Y-46448955D01*
X198544465Y-46362602D01*
X198476618Y-46261061D01*
X198476617Y-46261060D01*
X198429884Y-46148236D01*
X198406060Y-46028462D01*
X198406060Y-45906338D01*
X198429884Y-45786564D01*
X198476617Y-45673740D01*
X198544464Y-45572200D01*
X198544465Y-45572198D01*
X198630818Y-45485845D01*
X198732359Y-45417998D01*
X198732360Y-45417997D01*
X198845184Y-45371264D01*
X198964958Y-45347440D01*
X199087082Y-45347440D01*
X199206856Y-45371264D01*
G37*
G36*
X210634316Y-45371264D02*
G01*
X210747140Y-45417997D01*
X210747141Y-45417998D01*
X210848682Y-45485845D01*
X210935035Y-45572198D01*
X210935036Y-45572200D01*
X211002883Y-45673740D01*
X211049616Y-45786564D01*
X211073440Y-45906338D01*
X211073440Y-46028462D01*
X211049616Y-46148236D01*
X211002883Y-46261060D01*
X211002882Y-46261061D01*
X210935035Y-46362602D01*
X210848682Y-46448955D01*
X210797567Y-46483109D01*
X210747140Y-46516803D01*
X210634316Y-46563536D01*
X210514542Y-46587360D01*
X210392418Y-46587360D01*
X210272644Y-46563536D01*
X210159820Y-46516803D01*
X210109393Y-46483109D01*
X210058278Y-46448955D01*
X209971925Y-46362602D01*
X209904078Y-46261061D01*
X209904077Y-46261060D01*
X209857344Y-46148236D01*
X209833520Y-46028462D01*
X209833520Y-45906338D01*
X209857344Y-45786564D01*
X209904077Y-45673740D01*
X209971924Y-45572200D01*
X209971925Y-45572198D01*
X210058278Y-45485845D01*
X210159819Y-45417998D01*
X210159820Y-45417997D01*
X210272644Y-45371264D01*
X210392418Y-45347440D01*
X210514542Y-45347440D01*
X210634316Y-45371264D01*
G37*
G36*
X212427556Y-45371264D02*
G01*
X212540380Y-45417997D01*
X212540381Y-45417998D01*
X212641922Y-45485845D01*
X212728275Y-45572198D01*
X212728276Y-45572200D01*
X212796123Y-45673740D01*
X212842856Y-45786564D01*
X212866680Y-45906338D01*
X212866680Y-46028462D01*
X212842856Y-46148236D01*
X212796123Y-46261060D01*
X212796122Y-46261061D01*
X212728275Y-46362602D01*
X212641922Y-46448955D01*
X212590807Y-46483109D01*
X212540380Y-46516803D01*
X212427556Y-46563536D01*
X212307782Y-46587360D01*
X212185658Y-46587360D01*
X212065884Y-46563536D01*
X211953060Y-46516803D01*
X211902633Y-46483109D01*
X211851518Y-46448955D01*
X211765165Y-46362602D01*
X211697318Y-46261061D01*
X211697317Y-46261060D01*
X211650584Y-46148236D01*
X211626760Y-46028462D01*
X211626760Y-45906338D01*
X211650584Y-45786564D01*
X211697317Y-45673740D01*
X211765164Y-45572200D01*
X211765165Y-45572198D01*
X211851518Y-45485845D01*
X211953059Y-45417998D01*
X211953060Y-45417997D01*
X212065884Y-45371264D01*
X212185658Y-45347440D01*
X212307782Y-45347440D01*
X212427556Y-45371264D01*
G37*
M02*
