G04 #@! TF.GenerationSoftware,KiCad,Pcbnew,(5.1.5)-3*
G04 #@! TF.CreationDate,2021-12-20T00:35:23-08:00*
G04 #@! TF.ProjectId,tube_holder,74756265-5f68-46f6-9c64-65722e6b6963,rev?*
G04 #@! TF.SameCoordinates,Original*
G04 #@! TF.FileFunction,Legend,Bot*
G04 #@! TF.FilePolarity,Positive*
%FSLAX46Y46*%
G04 Gerber Fmt 4.6, Leading zero omitted, Abs format (unit mm)*
G04 Created by KiCad (PCBNEW (5.1.5)-3) date 2021-12-20 00:35:23*
%MOMM*%
%LPD*%
G04 APERTURE LIST*
%ADD10C,0.120000*%
%ADD11C,0.150000*%
%ADD12C,1.239920*%
%ADD13R,1.102000X6.102000*%
%ADD14C,2.802000*%
G04 APERTURE END LIST*
D10*
X212626820Y-58892160D02*
X212626820Y-65392160D01*
X196876820Y-58892160D02*
X196876820Y-65392160D01*
X196876820Y-58892160D02*
X212626820Y-58892160D01*
X212626820Y-65392160D02*
X196876820Y-65392160D01*
D11*
X199149953Y-57111440D02*
X199149953Y-57825726D01*
X199197572Y-57968583D01*
X199292810Y-58063821D01*
X199435667Y-58111440D01*
X199530905Y-58111440D01*
X198721381Y-57206679D02*
X198673762Y-57159060D01*
X198578524Y-57111440D01*
X198340429Y-57111440D01*
X198245191Y-57159060D01*
X198197572Y-57206679D01*
X198149953Y-57301917D01*
X198149953Y-57397155D01*
X198197572Y-57540012D01*
X198769000Y-58111440D01*
X198149953Y-58111440D01*
%LPC*%
D12*
X201639680Y-48281340D03*
X194619120Y-48281340D03*
X198129400Y-53366420D03*
X195040760Y-51743360D03*
X194403220Y-50064420D03*
X201218040Y-51743360D03*
X197232780Y-45967400D03*
X199026020Y-45967400D03*
X200618600Y-46803060D03*
X201855580Y-50064420D03*
X195640200Y-46803060D03*
X199871840Y-52934620D03*
X196386960Y-52934620D03*
D13*
X197876820Y-62142160D03*
X199246820Y-62142160D03*
X200616820Y-62142160D03*
X201986820Y-62142160D03*
X203356820Y-62142160D03*
X204726820Y-62142160D03*
X206096820Y-62142160D03*
X207466820Y-62142160D03*
X208836820Y-62142160D03*
X210206820Y-62142160D03*
X211576820Y-62142160D03*
D14*
X194500000Y-61000000D03*
D12*
X214860380Y-48281340D03*
X207839820Y-48281340D03*
X211350100Y-53366420D03*
X208261460Y-51743360D03*
X207623920Y-50064420D03*
X214438740Y-51743360D03*
X210453480Y-45967400D03*
X212246720Y-45967400D03*
X213839300Y-46803060D03*
X215076280Y-50064420D03*
X208860900Y-46803060D03*
X213092540Y-52934620D03*
X209607660Y-52934620D03*
M02*
