M48
; DRILL file {KiCad (5.1.5)-3} date 12/20/2021 12:35:31 AM
; FORMAT={-:-/ absolute / inch / decimal}
; #@! TF.CreationDate,2021-12-20T00:35:31-08:00
; #@! TF.GenerationSoftware,Kicad,Pcbnew,(5.1.5)-3
FMAT,2
INCH
T1C0.0248
T2C0.1063
%
G90
G05
T1
X8.1742Y-1.971
X8.1827Y-1.9008
X8.1993Y-2.0371
X8.2229Y-1.8426
X8.2523Y-2.084
X8.2856Y-1.8097
X8.3209Y-2.101
X8.3562Y-1.8097
X8.3895Y-2.084
X8.4189Y-1.8426
X8.4425Y-2.0371
X8.4591Y-1.9008
X8.4676Y-1.971
X7.6537Y-1.971
X7.6622Y-1.9008
X7.6788Y-2.0371
X7.7024Y-1.8426
X7.7318Y-2.084
X7.7651Y-1.8097
X7.8004Y-2.101
X7.8357Y-1.8097
X7.869Y-2.084
X7.8984Y-1.8426
X7.922Y-2.0371
X7.9386Y-1.9008
X7.9471Y-1.971
T2
X7.6575Y-2.4016
T0
M30
