G04 #@! TF.GenerationSoftware,KiCad,Pcbnew,(5.1.5)-3*
G04 #@! TF.CreationDate,2021-12-20T00:15:42-08:00*
G04 #@! TF.ProjectId,watch_v1,77617463-685f-4763-912e-6b696361645f,rev?*
G04 #@! TF.SameCoordinates,Original*
G04 #@! TF.FileFunction,Legend,Top*
G04 #@! TF.FilePolarity,Positive*
%FSLAX46Y46*%
G04 Gerber Fmt 4.6, Leading zero omitted, Abs format (unit mm)*
G04 Created by KiCad (PCBNEW (5.1.5)-3) date 2021-12-20 00:15:42*
%MOMM*%
%LPD*%
G04 APERTURE LIST*
%ADD10C,0.300000*%
%ADD11C,0.050000*%
%ADD12C,0.120000*%
%ADD13C,0.250000*%
%ADD14C,0.150000*%
%ADD15C,0.200000*%
%ADD16C,0.381000*%
%ADD17C,0.010000*%
%ADD18C,0.100000*%
%ADD19C,0.160000*%
%ADD20C,0.127000*%
G04 APERTURE END LIST*
D10*
X127482885Y-46600371D02*
X127982885Y-48100371D01*
X128482885Y-46600371D01*
X129768600Y-48100371D02*
X128911457Y-48100371D01*
X129340028Y-48100371D02*
X129340028Y-46600371D01*
X129197171Y-46814657D01*
X129054314Y-46957514D01*
X128911457Y-47028942D01*
X130411457Y-47957514D02*
X130482885Y-48028942D01*
X130411457Y-48100371D01*
X130340028Y-48028942D01*
X130411457Y-47957514D01*
X130411457Y-48100371D01*
X131411457Y-46600371D02*
X131554314Y-46600371D01*
X131697171Y-46671800D01*
X131768600Y-46743228D01*
X131840028Y-46886085D01*
X131911457Y-47171800D01*
X131911457Y-47528942D01*
X131840028Y-47814657D01*
X131768600Y-47957514D01*
X131697171Y-48028942D01*
X131554314Y-48100371D01*
X131411457Y-48100371D01*
X131268600Y-48028942D01*
X131197171Y-47957514D01*
X131125742Y-47814657D01*
X131054314Y-47528942D01*
X131054314Y-47171800D01*
X131125742Y-46886085D01*
X131197171Y-46743228D01*
X131268600Y-46671800D01*
X131411457Y-46600371D01*
X115124242Y-41534471D02*
X115409957Y-41534471D01*
X115552814Y-41463042D01*
X115624242Y-41391614D01*
X115767100Y-41177328D01*
X115838528Y-40891614D01*
X115838528Y-40320185D01*
X115767100Y-40177328D01*
X115695671Y-40105900D01*
X115552814Y-40034471D01*
X115267100Y-40034471D01*
X115124242Y-40105900D01*
X115052814Y-40177328D01*
X114981385Y-40320185D01*
X114981385Y-40677328D01*
X115052814Y-40820185D01*
X115124242Y-40891614D01*
X115267100Y-40963042D01*
X115552814Y-40963042D01*
X115695671Y-40891614D01*
X115767100Y-40820185D01*
X115838528Y-40677328D01*
X116267100Y-40034471D02*
X116767100Y-41534471D01*
X117267100Y-40034471D01*
X117409957Y-41677328D02*
X118552814Y-41677328D01*
X118909957Y-41534471D02*
X118909957Y-40034471D01*
X119624242Y-41534471D02*
X119624242Y-40034471D01*
X120481385Y-41534471D01*
X120481385Y-40034471D01*
D11*
X155752624Y-53294380D02*
G75*
G02X148089479Y-44241041I-27838224J-15793620D01*
G01*
X155752800Y-53294280D02*
X157038040Y-52242720D01*
X149407880Y-43159680D02*
X157038040Y-52242720D01*
X148089480Y-44241040D02*
X149407880Y-43159680D01*
D12*
X103886000Y-48895000D02*
X103886000Y-64058800D01*
X151942800Y-64008000D02*
X103911400Y-64058800D01*
X151942800Y-48895000D02*
X103886000Y-48895000D01*
X151942800Y-64008000D02*
X151942800Y-48895000D01*
X146640800Y-73353300D02*
X101632000Y-73353300D01*
X146640800Y-85392900D02*
X101632000Y-85392900D01*
X146640800Y-91412700D02*
X146640800Y-67409700D01*
D13*
X123914400Y-95856700D02*
G75*
G03X123914400Y-95856700I-125000J0D01*
G01*
D14*
X125214400Y-95481700D02*
X125214400Y-95356700D01*
X125214400Y-99181700D02*
X125214400Y-96931700D01*
X125214400Y-100756700D02*
X125214400Y-100631700D01*
X125214400Y-100756700D02*
X130614400Y-100756700D01*
X130614400Y-95481700D02*
X130614400Y-95356700D01*
X130614400Y-99181700D02*
X130614400Y-96931700D01*
X130614400Y-100756700D02*
X130614400Y-100631700D01*
X125214400Y-95356700D02*
X130614400Y-95356700D01*
D15*
X150171250Y-44778287D02*
X151938916Y-46884909D01*
X151938916Y-46884909D02*
X153867279Y-49183043D01*
X153867279Y-49183043D02*
X155634945Y-51289665D01*
X152946837Y-53207027D02*
G75*
G03X152946837Y-53207027I-141419J0D01*
G01*
D16*
X135279396Y-94818200D02*
X128294396Y-90119200D01*
X135279396Y-85420200D02*
X135279396Y-94818200D01*
X128294396Y-90119200D02*
X135279396Y-85420200D01*
X134685036Y-90617040D02*
X133785876Y-90718640D01*
X131885956Y-89819480D02*
X134685036Y-90617040D01*
X132686056Y-91018360D02*
X131885956Y-89819480D01*
X129686316Y-90218260D02*
X132686056Y-91018360D01*
X134685036Y-90617040D02*
X133986536Y-90017600D01*
X132686056Y-91018360D02*
X129884436Y-89717880D01*
X131586236Y-89418160D02*
X131985016Y-90017600D01*
X134685036Y-90617040D02*
X131586236Y-89418160D01*
D17*
G36*
X129735778Y-81294196D02*
G01*
X130037330Y-81237348D01*
X130210272Y-80817822D01*
X130039155Y-80566176D01*
X129991510Y-80495702D01*
X129948970Y-80431997D01*
X129913475Y-80378034D01*
X129886970Y-80336787D01*
X129871396Y-80311226D01*
X129868038Y-80304265D01*
X129876674Y-80291725D01*
X129900552Y-80264929D01*
X129936619Y-80226880D01*
X129981827Y-80180581D01*
X130033124Y-80129037D01*
X130087461Y-80075251D01*
X130141788Y-80022225D01*
X130193055Y-79972965D01*
X130238211Y-79930473D01*
X130274206Y-79897753D01*
X130297990Y-79877809D01*
X130305950Y-79873041D01*
X130320625Y-79879903D01*
X130352774Y-79899140D01*
X130399252Y-79928730D01*
X130456916Y-79966650D01*
X130522620Y-80010878D01*
X130560096Y-80036506D01*
X130628528Y-80083219D01*
X130690280Y-80124728D01*
X130742279Y-80159020D01*
X130781452Y-80184080D01*
X130804725Y-80197896D01*
X130809615Y-80199972D01*
X130823515Y-80195265D01*
X130855910Y-80182437D01*
X130902245Y-80163422D01*
X130957966Y-80140157D01*
X131018518Y-80114576D01*
X131079346Y-80088615D01*
X131135896Y-80064210D01*
X131183612Y-80043297D01*
X131217941Y-80027811D01*
X131234328Y-80019688D01*
X131234972Y-80019208D01*
X131238101Y-80006453D01*
X131245081Y-79972483D01*
X131255227Y-79920820D01*
X131267852Y-79854984D01*
X131282269Y-79778496D01*
X131290583Y-79733870D01*
X131306144Y-79652139D01*
X131320952Y-79578317D01*
X131334196Y-79516139D01*
X131345065Y-79469338D01*
X131352749Y-79441651D01*
X131355187Y-79436086D01*
X131371690Y-79430634D01*
X131408960Y-79426236D01*
X131462640Y-79422888D01*
X131528372Y-79420586D01*
X131601797Y-79419328D01*
X131678556Y-79419112D01*
X131754292Y-79419933D01*
X131824646Y-79421789D01*
X131885260Y-79424678D01*
X131931776Y-79428595D01*
X131959835Y-79433538D01*
X131965676Y-79436503D01*
X131972677Y-79454226D01*
X131982687Y-79491779D01*
X131994529Y-79544196D01*
X132007027Y-79606508D01*
X132011070Y-79628260D01*
X132030280Y-79733136D01*
X132045751Y-79815980D01*
X132058097Y-79879530D01*
X132067933Y-79926523D01*
X132075874Y-79959697D01*
X132082536Y-79981789D01*
X132088533Y-79995536D01*
X132094479Y-80003676D01*
X132095654Y-80004815D01*
X132114586Y-80016183D01*
X132151429Y-80033525D01*
X132201673Y-80055110D01*
X132260806Y-80079206D01*
X132324316Y-80104081D01*
X132387692Y-80128003D01*
X132446422Y-80149241D01*
X132495995Y-80166063D01*
X132531899Y-80176738D01*
X132549622Y-80179533D01*
X132550243Y-80179300D01*
X132564730Y-80169829D01*
X132596604Y-80148342D01*
X132642549Y-80117097D01*
X132699245Y-80078353D01*
X132763377Y-80034367D01*
X132781602Y-80021841D01*
X132847674Y-79977176D01*
X132907960Y-79937872D01*
X132958995Y-79906072D01*
X132997320Y-79883915D01*
X133019471Y-79873543D01*
X133022192Y-79873041D01*
X133036496Y-79881755D01*
X133064832Y-79905835D01*
X133104156Y-79942184D01*
X133151421Y-79987707D01*
X133203583Y-80039308D01*
X133257595Y-80093893D01*
X133310413Y-80148366D01*
X133358991Y-80199631D01*
X133400283Y-80244593D01*
X133431245Y-80280156D01*
X133448830Y-80303225D01*
X133451701Y-80309606D01*
X133444938Y-80324461D01*
X133426699Y-80354874D01*
X133400057Y-80395892D01*
X133378612Y-80427451D01*
X133339263Y-80484635D01*
X133292931Y-80552354D01*
X133246673Y-80620280D01*
X133221915Y-80656799D01*
X133138307Y-80780408D01*
X133194410Y-80884169D01*
X133218988Y-80931440D01*
X133238091Y-80971637D01*
X133248987Y-80998834D01*
X133250503Y-81005758D01*
X133239309Y-81014083D01*
X133207677Y-81030506D01*
X133158525Y-81053803D01*
X133094770Y-81082746D01*
X133019331Y-81116110D01*
X132935124Y-81152669D01*
X132845068Y-81191196D01*
X132752081Y-81230466D01*
X132659080Y-81269252D01*
X132568983Y-81306330D01*
X132484708Y-81340471D01*
X132409173Y-81370452D01*
X132345294Y-81395044D01*
X132295991Y-81413024D01*
X132264181Y-81423163D01*
X132253256Y-81424794D01*
X132239321Y-81411869D01*
X132216700Y-81383571D01*
X132190093Y-81345814D01*
X132187988Y-81342645D01*
X132109874Y-81245060D01*
X132018742Y-81166374D01*
X131917505Y-81107269D01*
X131809078Y-81068428D01*
X131696374Y-81050532D01*
X131582308Y-81054263D01*
X131469794Y-81080303D01*
X131361745Y-81129335D01*
X131338105Y-81143760D01*
X131242647Y-81218791D01*
X131165992Y-81307430D01*
X131108540Y-81406611D01*
X131070689Y-81513265D01*
X131052838Y-81624324D01*
X131055385Y-81736721D01*
X131078730Y-81847387D01*
X131123270Y-81953254D01*
X131189405Y-82051255D01*
X131216247Y-82081570D01*
X131300272Y-82158722D01*
X131388726Y-82214942D01*
X131487875Y-82253507D01*
X131586063Y-82274986D01*
X131696457Y-82280288D01*
X131807400Y-82262608D01*
X131915141Y-82223741D01*
X132015929Y-82165483D01*
X132106016Y-82089629D01*
X132181652Y-81997977D01*
X132189624Y-81985932D01*
X132215734Y-81947771D01*
X132238355Y-81918761D01*
X132252799Y-81904892D01*
X132253256Y-81904691D01*
X132268881Y-81907668D01*
X132304342Y-81919471D01*
X132356722Y-81938874D01*
X132423105Y-81964648D01*
X132500574Y-81995569D01*
X132586210Y-82030409D01*
X132677097Y-82067943D01*
X132770319Y-82106943D01*
X132862957Y-82146183D01*
X132952095Y-82184436D01*
X133034815Y-82220477D01*
X133108201Y-82253077D01*
X133169335Y-82281012D01*
X133215301Y-82303055D01*
X133243181Y-82317978D01*
X133250503Y-82323988D01*
X133244801Y-82342351D01*
X133229509Y-82376712D01*
X133207359Y-82421144D01*
X133194410Y-82445577D01*
X133138307Y-82549338D01*
X133221915Y-82672947D01*
X133264747Y-82736046D01*
X133311882Y-82805130D01*
X133356263Y-82869867D01*
X133378612Y-82902294D01*
X133409237Y-82947901D01*
X133433507Y-82986520D01*
X133448347Y-83013112D01*
X133451484Y-83021750D01*
X133443021Y-83034321D01*
X133419396Y-83062144D01*
X133383062Y-83102521D01*
X133336471Y-83152755D01*
X133282077Y-83210148D01*
X133247152Y-83246446D01*
X133184756Y-83309950D01*
X133128948Y-83364833D01*
X133082114Y-83408874D01*
X133046642Y-83439855D01*
X133024921Y-83455558D01*
X133020512Y-83457065D01*
X133003745Y-83450074D01*
X132969842Y-83430754D01*
X132922236Y-83401251D01*
X132864359Y-83363705D01*
X132799644Y-83320260D01*
X132781602Y-83307905D01*
X132716027Y-83262887D01*
X132656988Y-83222500D01*
X132607802Y-83189000D01*
X132571788Y-83164646D01*
X132552262Y-83151696D01*
X132550243Y-83150445D01*
X132534682Y-83152316D01*
X132500469Y-83162247D01*
X132452115Y-83178507D01*
X132394131Y-83199365D01*
X132331030Y-83223087D01*
X132267323Y-83247944D01*
X132207521Y-83272202D01*
X132156136Y-83294131D01*
X132117679Y-83311998D01*
X132096662Y-83324073D01*
X132095654Y-83324931D01*
X132089648Y-83332314D01*
X132083708Y-83344785D01*
X132077220Y-83365080D01*
X132069569Y-83395938D01*
X132060140Y-83440094D01*
X132048319Y-83500286D01*
X132033489Y-83579253D01*
X132015037Y-83679730D01*
X132011070Y-83701485D01*
X131998613Y-83765962D01*
X131986426Y-83822171D01*
X131975686Y-83865147D01*
X131967569Y-83889920D01*
X131965676Y-83893242D01*
X131948898Y-83898716D01*
X131911405Y-83903166D01*
X131857554Y-83906588D01*
X131791704Y-83908979D01*
X131718213Y-83910337D01*
X131641440Y-83910659D01*
X131565743Y-83909941D01*
X131495480Y-83908181D01*
X131435010Y-83905376D01*
X131388690Y-83901522D01*
X131360879Y-83896617D01*
X131355187Y-83893660D01*
X131349446Y-83877197D01*
X131340105Y-83839711D01*
X131327975Y-83784935D01*
X131313867Y-83716605D01*
X131298590Y-83638454D01*
X131290583Y-83595876D01*
X131275481Y-83515089D01*
X131261800Y-83443047D01*
X131250227Y-83383271D01*
X131241447Y-83339281D01*
X131236147Y-83314599D01*
X131234972Y-83310537D01*
X131221725Y-83303671D01*
X131189817Y-83289158D01*
X131143807Y-83268931D01*
X131088252Y-83244926D01*
X131027713Y-83219078D01*
X130966746Y-83193320D01*
X130909911Y-83169587D01*
X130861766Y-83149814D01*
X130826870Y-83135936D01*
X130809781Y-83129886D01*
X130809034Y-83129774D01*
X130795553Y-83136632D01*
X130764530Y-83155858D01*
X130719049Y-83185432D01*
X130662192Y-83223333D01*
X130597043Y-83267540D01*
X130559622Y-83293239D01*
X130491007Y-83340067D01*
X130428712Y-83381659D01*
X130375889Y-83415985D01*
X130335687Y-83441017D01*
X130311260Y-83454725D01*
X130305784Y-83456704D01*
X130293038Y-83448194D01*
X130265823Y-83424667D01*
X130227188Y-83389128D01*
X130180183Y-83344583D01*
X130127855Y-83294037D01*
X130073255Y-83240496D01*
X130019430Y-83186965D01*
X129969430Y-83136449D01*
X129926303Y-83091954D01*
X129893099Y-83056485D01*
X129872866Y-83033047D01*
X129868038Y-83025206D01*
X129874827Y-83012440D01*
X129893902Y-82981904D01*
X129923321Y-82936570D01*
X129961141Y-82879404D01*
X130005421Y-82813376D01*
X130039155Y-82763570D01*
X130210272Y-82511924D01*
X130123801Y-82302161D01*
X130037330Y-82092397D01*
X129735778Y-82035549D01*
X129434226Y-81978700D01*
X129434226Y-81351045D01*
X129735778Y-81294196D01*
G37*
X129735778Y-81294196D02*
X130037330Y-81237348D01*
X130210272Y-80817822D01*
X130039155Y-80566176D01*
X129991510Y-80495702D01*
X129948970Y-80431997D01*
X129913475Y-80378034D01*
X129886970Y-80336787D01*
X129871396Y-80311226D01*
X129868038Y-80304265D01*
X129876674Y-80291725D01*
X129900552Y-80264929D01*
X129936619Y-80226880D01*
X129981827Y-80180581D01*
X130033124Y-80129037D01*
X130087461Y-80075251D01*
X130141788Y-80022225D01*
X130193055Y-79972965D01*
X130238211Y-79930473D01*
X130274206Y-79897753D01*
X130297990Y-79877809D01*
X130305950Y-79873041D01*
X130320625Y-79879903D01*
X130352774Y-79899140D01*
X130399252Y-79928730D01*
X130456916Y-79966650D01*
X130522620Y-80010878D01*
X130560096Y-80036506D01*
X130628528Y-80083219D01*
X130690280Y-80124728D01*
X130742279Y-80159020D01*
X130781452Y-80184080D01*
X130804725Y-80197896D01*
X130809615Y-80199972D01*
X130823515Y-80195265D01*
X130855910Y-80182437D01*
X130902245Y-80163422D01*
X130957966Y-80140157D01*
X131018518Y-80114576D01*
X131079346Y-80088615D01*
X131135896Y-80064210D01*
X131183612Y-80043297D01*
X131217941Y-80027811D01*
X131234328Y-80019688D01*
X131234972Y-80019208D01*
X131238101Y-80006453D01*
X131245081Y-79972483D01*
X131255227Y-79920820D01*
X131267852Y-79854984D01*
X131282269Y-79778496D01*
X131290583Y-79733870D01*
X131306144Y-79652139D01*
X131320952Y-79578317D01*
X131334196Y-79516139D01*
X131345065Y-79469338D01*
X131352749Y-79441651D01*
X131355187Y-79436086D01*
X131371690Y-79430634D01*
X131408960Y-79426236D01*
X131462640Y-79422888D01*
X131528372Y-79420586D01*
X131601797Y-79419328D01*
X131678556Y-79419112D01*
X131754292Y-79419933D01*
X131824646Y-79421789D01*
X131885260Y-79424678D01*
X131931776Y-79428595D01*
X131959835Y-79433538D01*
X131965676Y-79436503D01*
X131972677Y-79454226D01*
X131982687Y-79491779D01*
X131994529Y-79544196D01*
X132007027Y-79606508D01*
X132011070Y-79628260D01*
X132030280Y-79733136D01*
X132045751Y-79815980D01*
X132058097Y-79879530D01*
X132067933Y-79926523D01*
X132075874Y-79959697D01*
X132082536Y-79981789D01*
X132088533Y-79995536D01*
X132094479Y-80003676D01*
X132095654Y-80004815D01*
X132114586Y-80016183D01*
X132151429Y-80033525D01*
X132201673Y-80055110D01*
X132260806Y-80079206D01*
X132324316Y-80104081D01*
X132387692Y-80128003D01*
X132446422Y-80149241D01*
X132495995Y-80166063D01*
X132531899Y-80176738D01*
X132549622Y-80179533D01*
X132550243Y-80179300D01*
X132564730Y-80169829D01*
X132596604Y-80148342D01*
X132642549Y-80117097D01*
X132699245Y-80078353D01*
X132763377Y-80034367D01*
X132781602Y-80021841D01*
X132847674Y-79977176D01*
X132907960Y-79937872D01*
X132958995Y-79906072D01*
X132997320Y-79883915D01*
X133019471Y-79873543D01*
X133022192Y-79873041D01*
X133036496Y-79881755D01*
X133064832Y-79905835D01*
X133104156Y-79942184D01*
X133151421Y-79987707D01*
X133203583Y-80039308D01*
X133257595Y-80093893D01*
X133310413Y-80148366D01*
X133358991Y-80199631D01*
X133400283Y-80244593D01*
X133431245Y-80280156D01*
X133448830Y-80303225D01*
X133451701Y-80309606D01*
X133444938Y-80324461D01*
X133426699Y-80354874D01*
X133400057Y-80395892D01*
X133378612Y-80427451D01*
X133339263Y-80484635D01*
X133292931Y-80552354D01*
X133246673Y-80620280D01*
X133221915Y-80656799D01*
X133138307Y-80780408D01*
X133194410Y-80884169D01*
X133218988Y-80931440D01*
X133238091Y-80971637D01*
X133248987Y-80998834D01*
X133250503Y-81005758D01*
X133239309Y-81014083D01*
X133207677Y-81030506D01*
X133158525Y-81053803D01*
X133094770Y-81082746D01*
X133019331Y-81116110D01*
X132935124Y-81152669D01*
X132845068Y-81191196D01*
X132752081Y-81230466D01*
X132659080Y-81269252D01*
X132568983Y-81306330D01*
X132484708Y-81340471D01*
X132409173Y-81370452D01*
X132345294Y-81395044D01*
X132295991Y-81413024D01*
X132264181Y-81423163D01*
X132253256Y-81424794D01*
X132239321Y-81411869D01*
X132216700Y-81383571D01*
X132190093Y-81345814D01*
X132187988Y-81342645D01*
X132109874Y-81245060D01*
X132018742Y-81166374D01*
X131917505Y-81107269D01*
X131809078Y-81068428D01*
X131696374Y-81050532D01*
X131582308Y-81054263D01*
X131469794Y-81080303D01*
X131361745Y-81129335D01*
X131338105Y-81143760D01*
X131242647Y-81218791D01*
X131165992Y-81307430D01*
X131108540Y-81406611D01*
X131070689Y-81513265D01*
X131052838Y-81624324D01*
X131055385Y-81736721D01*
X131078730Y-81847387D01*
X131123270Y-81953254D01*
X131189405Y-82051255D01*
X131216247Y-82081570D01*
X131300272Y-82158722D01*
X131388726Y-82214942D01*
X131487875Y-82253507D01*
X131586063Y-82274986D01*
X131696457Y-82280288D01*
X131807400Y-82262608D01*
X131915141Y-82223741D01*
X132015929Y-82165483D01*
X132106016Y-82089629D01*
X132181652Y-81997977D01*
X132189624Y-81985932D01*
X132215734Y-81947771D01*
X132238355Y-81918761D01*
X132252799Y-81904892D01*
X132253256Y-81904691D01*
X132268881Y-81907668D01*
X132304342Y-81919471D01*
X132356722Y-81938874D01*
X132423105Y-81964648D01*
X132500574Y-81995569D01*
X132586210Y-82030409D01*
X132677097Y-82067943D01*
X132770319Y-82106943D01*
X132862957Y-82146183D01*
X132952095Y-82184436D01*
X133034815Y-82220477D01*
X133108201Y-82253077D01*
X133169335Y-82281012D01*
X133215301Y-82303055D01*
X133243181Y-82317978D01*
X133250503Y-82323988D01*
X133244801Y-82342351D01*
X133229509Y-82376712D01*
X133207359Y-82421144D01*
X133194410Y-82445577D01*
X133138307Y-82549338D01*
X133221915Y-82672947D01*
X133264747Y-82736046D01*
X133311882Y-82805130D01*
X133356263Y-82869867D01*
X133378612Y-82902294D01*
X133409237Y-82947901D01*
X133433507Y-82986520D01*
X133448347Y-83013112D01*
X133451484Y-83021750D01*
X133443021Y-83034321D01*
X133419396Y-83062144D01*
X133383062Y-83102521D01*
X133336471Y-83152755D01*
X133282077Y-83210148D01*
X133247152Y-83246446D01*
X133184756Y-83309950D01*
X133128948Y-83364833D01*
X133082114Y-83408874D01*
X133046642Y-83439855D01*
X133024921Y-83455558D01*
X133020512Y-83457065D01*
X133003745Y-83450074D01*
X132969842Y-83430754D01*
X132922236Y-83401251D01*
X132864359Y-83363705D01*
X132799644Y-83320260D01*
X132781602Y-83307905D01*
X132716027Y-83262887D01*
X132656988Y-83222500D01*
X132607802Y-83189000D01*
X132571788Y-83164646D01*
X132552262Y-83151696D01*
X132550243Y-83150445D01*
X132534682Y-83152316D01*
X132500469Y-83162247D01*
X132452115Y-83178507D01*
X132394131Y-83199365D01*
X132331030Y-83223087D01*
X132267323Y-83247944D01*
X132207521Y-83272202D01*
X132156136Y-83294131D01*
X132117679Y-83311998D01*
X132096662Y-83324073D01*
X132095654Y-83324931D01*
X132089648Y-83332314D01*
X132083708Y-83344785D01*
X132077220Y-83365080D01*
X132069569Y-83395938D01*
X132060140Y-83440094D01*
X132048319Y-83500286D01*
X132033489Y-83579253D01*
X132015037Y-83679730D01*
X132011070Y-83701485D01*
X131998613Y-83765962D01*
X131986426Y-83822171D01*
X131975686Y-83865147D01*
X131967569Y-83889920D01*
X131965676Y-83893242D01*
X131948898Y-83898716D01*
X131911405Y-83903166D01*
X131857554Y-83906588D01*
X131791704Y-83908979D01*
X131718213Y-83910337D01*
X131641440Y-83910659D01*
X131565743Y-83909941D01*
X131495480Y-83908181D01*
X131435010Y-83905376D01*
X131388690Y-83901522D01*
X131360879Y-83896617D01*
X131355187Y-83893660D01*
X131349446Y-83877197D01*
X131340105Y-83839711D01*
X131327975Y-83784935D01*
X131313867Y-83716605D01*
X131298590Y-83638454D01*
X131290583Y-83595876D01*
X131275481Y-83515089D01*
X131261800Y-83443047D01*
X131250227Y-83383271D01*
X131241447Y-83339281D01*
X131236147Y-83314599D01*
X131234972Y-83310537D01*
X131221725Y-83303671D01*
X131189817Y-83289158D01*
X131143807Y-83268931D01*
X131088252Y-83244926D01*
X131027713Y-83219078D01*
X130966746Y-83193320D01*
X130909911Y-83169587D01*
X130861766Y-83149814D01*
X130826870Y-83135936D01*
X130809781Y-83129886D01*
X130809034Y-83129774D01*
X130795553Y-83136632D01*
X130764530Y-83155858D01*
X130719049Y-83185432D01*
X130662192Y-83223333D01*
X130597043Y-83267540D01*
X130559622Y-83293239D01*
X130491007Y-83340067D01*
X130428712Y-83381659D01*
X130375889Y-83415985D01*
X130335687Y-83441017D01*
X130311260Y-83454725D01*
X130305784Y-83456704D01*
X130293038Y-83448194D01*
X130265823Y-83424667D01*
X130227188Y-83389128D01*
X130180183Y-83344583D01*
X130127855Y-83294037D01*
X130073255Y-83240496D01*
X130019430Y-83186965D01*
X129969430Y-83136449D01*
X129926303Y-83091954D01*
X129893099Y-83056485D01*
X129872866Y-83033047D01*
X129868038Y-83025206D01*
X129874827Y-83012440D01*
X129893902Y-82981904D01*
X129923321Y-82936570D01*
X129961141Y-82879404D01*
X130005421Y-82813376D01*
X130039155Y-82763570D01*
X130210272Y-82511924D01*
X130123801Y-82302161D01*
X130037330Y-82092397D01*
X129735778Y-82035549D01*
X129434226Y-81978700D01*
X129434226Y-81351045D01*
X129735778Y-81294196D01*
G36*
X133903790Y-79871700D02*
G01*
X133917005Y-79828449D01*
X133933701Y-79800602D01*
X133946905Y-79791531D01*
X133962557Y-79794028D01*
X133987145Y-79810229D01*
X134004560Y-79823928D01*
X134036043Y-79852168D01*
X134049289Y-79873385D01*
X134048424Y-79891472D01*
X134034770Y-79945125D01*
X134035390Y-79984530D01*
X134050864Y-80016528D01*
X134059921Y-80027270D01*
X134091787Y-80061655D01*
X134507939Y-80061655D01*
X134507939Y-80199972D01*
X133904374Y-80199972D01*
X133904374Y-80130813D01*
X133906016Y-80089291D01*
X133911847Y-80067869D01*
X133923221Y-80061658D01*
X133923558Y-80061655D01*
X133935473Y-80058721D01*
X133933919Y-80045456D01*
X133925323Y-80027076D01*
X133909328Y-79989114D01*
X133899705Y-79958288D01*
X133897238Y-79918624D01*
X133903790Y-79871700D01*
G37*
X133903790Y-79871700D02*
X133917005Y-79828449D01*
X133933701Y-79800602D01*
X133946905Y-79791531D01*
X133962557Y-79794028D01*
X133987145Y-79810229D01*
X134004560Y-79823928D01*
X134036043Y-79852168D01*
X134049289Y-79873385D01*
X134048424Y-79891472D01*
X134034770Y-79945125D01*
X134035390Y-79984530D01*
X134050864Y-80016528D01*
X134059921Y-80027270D01*
X134091787Y-80061655D01*
X134507939Y-80061655D01*
X134507939Y-80199972D01*
X133904374Y-80199972D01*
X133904374Y-80130813D01*
X133906016Y-80089291D01*
X133911847Y-80067869D01*
X133923221Y-80061658D01*
X133923558Y-80061655D01*
X133935473Y-80058721D01*
X133933919Y-80045456D01*
X133925323Y-80027076D01*
X133909328Y-79989114D01*
X133899705Y-79958288D01*
X133897238Y-79918624D01*
X133903790Y-79871700D01*
G36*
X133914762Y-82425172D02*
G01*
X133929710Y-82393877D01*
X133951301Y-82363569D01*
X133976151Y-82340478D01*
X134007847Y-82323660D01*
X134049974Y-82312166D01*
X134106118Y-82305051D01*
X134179866Y-82301367D01*
X134274804Y-82300168D01*
X134284745Y-82300149D01*
X134507939Y-82299873D01*
X134507939Y-82438190D01*
X134302178Y-82438190D01*
X134225949Y-82438288D01*
X134170699Y-82438969D01*
X134132261Y-82440811D01*
X134106466Y-82444393D01*
X134089144Y-82450292D01*
X134076128Y-82459087D01*
X134063267Y-82471340D01*
X134035633Y-82514207D01*
X134030505Y-82561003D01*
X134047977Y-82605584D01*
X134060981Y-82621088D01*
X134073207Y-82632470D01*
X134086300Y-82640641D01*
X134104375Y-82646134D01*
X134131547Y-82649480D01*
X134171930Y-82651211D01*
X134229639Y-82651857D01*
X134299892Y-82651952D01*
X134507939Y-82651952D01*
X134507939Y-82790269D01*
X133904374Y-82790269D01*
X133904374Y-82721110D01*
X133906016Y-82679588D01*
X133911847Y-82658166D01*
X133923221Y-82651955D01*
X133923558Y-82651952D01*
X133934698Y-82649070D01*
X133933434Y-82636359D01*
X133921194Y-82611086D01*
X133903184Y-82553765D01*
X133901181Y-82488197D01*
X133914762Y-82425172D01*
G37*
X133914762Y-82425172D02*
X133929710Y-82393877D01*
X133951301Y-82363569D01*
X133976151Y-82340478D01*
X134007847Y-82323660D01*
X134049974Y-82312166D01*
X134106118Y-82305051D01*
X134179866Y-82301367D01*
X134274804Y-82300168D01*
X134284745Y-82300149D01*
X134507939Y-82299873D01*
X134507939Y-82438190D01*
X134302178Y-82438190D01*
X134225949Y-82438288D01*
X134170699Y-82438969D01*
X134132261Y-82440811D01*
X134106466Y-82444393D01*
X134089144Y-82450292D01*
X134076128Y-82459087D01*
X134063267Y-82471340D01*
X134035633Y-82514207D01*
X134030505Y-82561003D01*
X134047977Y-82605584D01*
X134060981Y-82621088D01*
X134073207Y-82632470D01*
X134086300Y-82640641D01*
X134104375Y-82646134D01*
X134131547Y-82649480D01*
X134171930Y-82651211D01*
X134229639Y-82651857D01*
X134299892Y-82651952D01*
X134507939Y-82651952D01*
X134507939Y-82790269D01*
X133904374Y-82790269D01*
X133904374Y-82721110D01*
X133906016Y-82679588D01*
X133911847Y-82658166D01*
X133923221Y-82651955D01*
X133923558Y-82651952D01*
X133934698Y-82649070D01*
X133933434Y-82636359D01*
X133921194Y-82611086D01*
X133903184Y-82553765D01*
X133901181Y-82488197D01*
X133914762Y-82425172D01*
G36*
X133902217Y-78993262D02*
G01*
X133910039Y-78961064D01*
X133938681Y-78899335D01*
X133982427Y-78846550D01*
X134034877Y-78810019D01*
X134046653Y-78805000D01*
X134077500Y-78798115D01*
X134123131Y-78793296D01*
X134169252Y-78791655D01*
X134256453Y-78791655D01*
X134256453Y-78973982D01*
X134256738Y-79049181D01*
X134258464Y-79102157D01*
X134262941Y-79135835D01*
X134271480Y-79153140D01*
X134285390Y-79156997D01*
X134305982Y-79150331D01*
X134330075Y-79138390D01*
X134370285Y-79105080D01*
X134390318Y-79058792D01*
X134389665Y-79002216D01*
X134367861Y-78938129D01*
X134340953Y-78882743D01*
X134377292Y-78836785D01*
X134413632Y-78790827D01*
X134453579Y-78834064D01*
X134491323Y-78891786D01*
X134514080Y-78962774D01*
X134520448Y-79039131D01*
X134509028Y-79112961D01*
X134505153Y-79124873D01*
X134471266Y-79189761D01*
X134420746Y-79238030D01*
X134352085Y-79270695D01*
X134263774Y-79288775D01*
X134261881Y-79288985D01*
X134165638Y-79290604D01*
X134131302Y-79284060D01*
X134131302Y-79156308D01*
X134136582Y-79144576D01*
X134140627Y-79112722D01*
X134142936Y-79065763D01*
X134143285Y-79036006D01*
X134143066Y-78980512D01*
X134141676Y-78945814D01*
X134138011Y-78927559D01*
X134130970Y-78921394D01*
X134119450Y-78922965D01*
X134114993Y-78924282D01*
X134073115Y-78946778D01*
X134039364Y-78982157D01*
X134024533Y-79013380D01*
X134025428Y-79054859D01*
X134043924Y-79096891D01*
X134074546Y-79132148D01*
X134111822Y-79153306D01*
X134131302Y-79156308D01*
X134131302Y-79284060D01*
X134080989Y-79274470D01*
X134009951Y-79242462D01*
X133954539Y-79196459D01*
X133916769Y-79138339D01*
X133898656Y-79069980D01*
X133902217Y-78993262D01*
G37*
X133902217Y-78993262D02*
X133910039Y-78961064D01*
X133938681Y-78899335D01*
X133982427Y-78846550D01*
X134034877Y-78810019D01*
X134046653Y-78805000D01*
X134077500Y-78798115D01*
X134123131Y-78793296D01*
X134169252Y-78791655D01*
X134256453Y-78791655D01*
X134256453Y-78973982D01*
X134256738Y-79049181D01*
X134258464Y-79102157D01*
X134262941Y-79135835D01*
X134271480Y-79153140D01*
X134285390Y-79156997D01*
X134305982Y-79150331D01*
X134330075Y-79138390D01*
X134370285Y-79105080D01*
X134390318Y-79058792D01*
X134389665Y-79002216D01*
X134367861Y-78938129D01*
X134340953Y-78882743D01*
X134377292Y-78836785D01*
X134413632Y-78790827D01*
X134453579Y-78834064D01*
X134491323Y-78891786D01*
X134514080Y-78962774D01*
X134520448Y-79039131D01*
X134509028Y-79112961D01*
X134505153Y-79124873D01*
X134471266Y-79189761D01*
X134420746Y-79238030D01*
X134352085Y-79270695D01*
X134263774Y-79288775D01*
X134261881Y-79288985D01*
X134165638Y-79290604D01*
X134131302Y-79284060D01*
X134131302Y-79156308D01*
X134136582Y-79144576D01*
X134140627Y-79112722D01*
X134142936Y-79065763D01*
X134143285Y-79036006D01*
X134143066Y-78980512D01*
X134141676Y-78945814D01*
X134138011Y-78927559D01*
X134130970Y-78921394D01*
X134119450Y-78922965D01*
X134114993Y-78924282D01*
X134073115Y-78946778D01*
X134039364Y-78982157D01*
X134024533Y-79013380D01*
X134025428Y-79054859D01*
X134043924Y-79096891D01*
X134074546Y-79132148D01*
X134111822Y-79153306D01*
X134131302Y-79156308D01*
X134131302Y-79284060D01*
X134080989Y-79274470D01*
X134009951Y-79242462D01*
X133954539Y-79196459D01*
X133916769Y-79138339D01*
X133898656Y-79069980D01*
X133902217Y-78993262D01*
G36*
X133909640Y-79453934D02*
G01*
X133940590Y-79381080D01*
X133955655Y-79358133D01*
X133978808Y-79328806D01*
X133997013Y-79310396D01*
X134002943Y-79307199D01*
X134016100Y-79316225D01*
X134038427Y-79339323D01*
X134054010Y-79357816D01*
X134094686Y-79408432D01*
X134061055Y-79448400D01*
X134039344Y-79479286D01*
X134031850Y-79509401D01*
X134033680Y-79543868D01*
X134047288Y-79598599D01*
X134075532Y-79636274D01*
X134121193Y-79659169D01*
X134187049Y-79669563D01*
X134187091Y-79669565D01*
X134260699Y-79668666D01*
X134314706Y-79654697D01*
X134351476Y-79626832D01*
X134363928Y-79607835D01*
X134379433Y-79557384D01*
X134379443Y-79503497D01*
X134364398Y-79456614D01*
X134357047Y-79445516D01*
X134338271Y-79417684D01*
X134335194Y-79395924D01*
X134349169Y-79372456D01*
X134374270Y-79346511D01*
X134416640Y-79305444D01*
X134454224Y-79351039D01*
X134496642Y-79421486D01*
X134517545Y-79500927D01*
X134516032Y-79583945D01*
X134502171Y-79638466D01*
X134467895Y-79702190D01*
X134413972Y-79753155D01*
X134375909Y-79776309D01*
X134321296Y-79795061D01*
X134252129Y-79804445D01*
X134177167Y-79804517D01*
X134105169Y-79795336D01*
X134044897Y-79776961D01*
X134038718Y-79774067D01*
X133978111Y-79731208D01*
X133933984Y-79673181D01*
X133907253Y-79604569D01*
X133898833Y-79529959D01*
X133909640Y-79453934D01*
G37*
X133909640Y-79453934D02*
X133940590Y-79381080D01*
X133955655Y-79358133D01*
X133978808Y-79328806D01*
X133997013Y-79310396D01*
X134002943Y-79307199D01*
X134016100Y-79316225D01*
X134038427Y-79339323D01*
X134054010Y-79357816D01*
X134094686Y-79408432D01*
X134061055Y-79448400D01*
X134039344Y-79479286D01*
X134031850Y-79509401D01*
X134033680Y-79543868D01*
X134047288Y-79598599D01*
X134075532Y-79636274D01*
X134121193Y-79659169D01*
X134187049Y-79669563D01*
X134187091Y-79669565D01*
X134260699Y-79668666D01*
X134314706Y-79654697D01*
X134351476Y-79626832D01*
X134363928Y-79607835D01*
X134379433Y-79557384D01*
X134379443Y-79503497D01*
X134364398Y-79456614D01*
X134357047Y-79445516D01*
X134338271Y-79417684D01*
X134335194Y-79395924D01*
X134349169Y-79372456D01*
X134374270Y-79346511D01*
X134416640Y-79305444D01*
X134454224Y-79351039D01*
X134496642Y-79421486D01*
X134517545Y-79500927D01*
X134516032Y-79583945D01*
X134502171Y-79638466D01*
X134467895Y-79702190D01*
X134413972Y-79753155D01*
X134375909Y-79776309D01*
X134321296Y-79795061D01*
X134252129Y-79804445D01*
X134177167Y-79804517D01*
X134105169Y-79795336D01*
X134044897Y-79776961D01*
X134038718Y-79774067D01*
X133978111Y-79731208D01*
X133933984Y-79673181D01*
X133907253Y-79604569D01*
X133898833Y-79529959D01*
X133909640Y-79453934D01*
G36*
X134100102Y-80677793D02*
G01*
X134192323Y-80676605D01*
X134262370Y-80672263D01*
X134313141Y-80663602D01*
X134347532Y-80649456D01*
X134368439Y-80628660D01*
X134378760Y-80600050D01*
X134381396Y-80564625D01*
X134378442Y-80527524D01*
X134367649Y-80499342D01*
X134346120Y-80478917D01*
X134310959Y-80465081D01*
X134259270Y-80456669D01*
X134188154Y-80452517D01*
X134100102Y-80451457D01*
X133904374Y-80451457D01*
X133904374Y-80313140D01*
X134507939Y-80313140D01*
X134507939Y-80382298D01*
X134506249Y-80423990D01*
X134500316Y-80445459D01*
X134489053Y-80451457D01*
X134479021Y-80455069D01*
X134481143Y-80469446D01*
X134495340Y-80498424D01*
X134517240Y-80564841D01*
X134515688Y-80635285D01*
X134491907Y-80702783D01*
X134473122Y-80734927D01*
X134452782Y-80759445D01*
X134427333Y-80777356D01*
X134393218Y-80789681D01*
X134346881Y-80797437D01*
X134284767Y-80801644D01*
X134203321Y-80803320D01*
X134140338Y-80803536D01*
X133904374Y-80803536D01*
X133904374Y-80677793D01*
X134100102Y-80677793D01*
G37*
X134100102Y-80677793D02*
X134192323Y-80676605D01*
X134262370Y-80672263D01*
X134313141Y-80663602D01*
X134347532Y-80649456D01*
X134368439Y-80628660D01*
X134378760Y-80600050D01*
X134381396Y-80564625D01*
X134378442Y-80527524D01*
X134367649Y-80499342D01*
X134346120Y-80478917D01*
X134310959Y-80465081D01*
X134259270Y-80456669D01*
X134188154Y-80452517D01*
X134100102Y-80451457D01*
X133904374Y-80451457D01*
X133904374Y-80313140D01*
X134507939Y-80313140D01*
X134507939Y-80382298D01*
X134506249Y-80423990D01*
X134500316Y-80445459D01*
X134489053Y-80451457D01*
X134479021Y-80455069D01*
X134481143Y-80469446D01*
X134495340Y-80498424D01*
X134517240Y-80564841D01*
X134515688Y-80635285D01*
X134491907Y-80702783D01*
X134473122Y-80734927D01*
X134452782Y-80759445D01*
X134427333Y-80777356D01*
X134393218Y-80789681D01*
X134346881Y-80797437D01*
X134284767Y-80801644D01*
X134203321Y-80803320D01*
X134140338Y-80803536D01*
X133904374Y-80803536D01*
X133904374Y-80677793D01*
X134100102Y-80677793D01*
G36*
X133911815Y-81060398D02*
G01*
X133946452Y-80996797D01*
X134001132Y-80947037D01*
X134045602Y-80923592D01*
X134084881Y-80913526D01*
X134140876Y-80907004D01*
X134205381Y-80904209D01*
X134270189Y-80905324D01*
X134327094Y-80910534D01*
X134357487Y-80916619D01*
X134399066Y-80937146D01*
X134443228Y-80972697D01*
X134481847Y-81015541D01*
X134506794Y-81057949D01*
X134507190Y-81058983D01*
X134518091Y-81111607D01*
X134518361Y-81173972D01*
X134508436Y-81233236D01*
X134500482Y-81256120D01*
X134467060Y-81315058D01*
X134423271Y-81357270D01*
X134365298Y-81385004D01*
X134289325Y-81400509D01*
X134249531Y-81404017D01*
X134199526Y-81403570D01*
X134199526Y-81268784D01*
X134272492Y-81264243D01*
X134328094Y-81251174D01*
X134363621Y-81230404D01*
X134373780Y-81215608D01*
X134380864Y-81177696D01*
X134378767Y-81132633D01*
X134368572Y-81093673D01*
X134362964Y-81083456D01*
X134330298Y-81056501D01*
X134280305Y-81038709D01*
X134219465Y-81031136D01*
X134154257Y-81034835D01*
X134115013Y-81043103D01*
X134069565Y-81066840D01*
X134041156Y-81104311D01*
X134031333Y-81149440D01*
X134041647Y-81196149D01*
X134066872Y-81232028D01*
X134087685Y-81250883D01*
X134108199Y-81261888D01*
X134135963Y-81267134D01*
X134178522Y-81268711D01*
X134199526Y-81268784D01*
X134199526Y-81403570D01*
X134143340Y-81403066D01*
X134056261Y-81385772D01*
X133988290Y-81352131D01*
X133939424Y-81302142D01*
X133909659Y-81235804D01*
X133906208Y-81221559D01*
X133898105Y-81135950D01*
X133911815Y-81060398D01*
G37*
X133911815Y-81060398D02*
X133946452Y-80996797D01*
X134001132Y-80947037D01*
X134045602Y-80923592D01*
X134084881Y-80913526D01*
X134140876Y-80907004D01*
X134205381Y-80904209D01*
X134270189Y-80905324D01*
X134327094Y-80910534D01*
X134357487Y-80916619D01*
X134399066Y-80937146D01*
X134443228Y-80972697D01*
X134481847Y-81015541D01*
X134506794Y-81057949D01*
X134507190Y-81058983D01*
X134518091Y-81111607D01*
X134518361Y-81173972D01*
X134508436Y-81233236D01*
X134500482Y-81256120D01*
X134467060Y-81315058D01*
X134423271Y-81357270D01*
X134365298Y-81385004D01*
X134289325Y-81400509D01*
X134249531Y-81404017D01*
X134199526Y-81403570D01*
X134199526Y-81268784D01*
X134272492Y-81264243D01*
X134328094Y-81251174D01*
X134363621Y-81230404D01*
X134373780Y-81215608D01*
X134380864Y-81177696D01*
X134378767Y-81132633D01*
X134368572Y-81093673D01*
X134362964Y-81083456D01*
X134330298Y-81056501D01*
X134280305Y-81038709D01*
X134219465Y-81031136D01*
X134154257Y-81034835D01*
X134115013Y-81043103D01*
X134069565Y-81066840D01*
X134041156Y-81104311D01*
X134031333Y-81149440D01*
X134041647Y-81196149D01*
X134066872Y-81232028D01*
X134087685Y-81250883D01*
X134108199Y-81261888D01*
X134135963Y-81267134D01*
X134178522Y-81268711D01*
X134199526Y-81268784D01*
X134199526Y-81403570D01*
X134143340Y-81403066D01*
X134056261Y-81385772D01*
X133988290Y-81352131D01*
X133939424Y-81302142D01*
X133909659Y-81235804D01*
X133906208Y-81221559D01*
X133898105Y-81135950D01*
X133911815Y-81060398D01*
G36*
X133902212Y-81657143D02*
G01*
X133911242Y-81609526D01*
X133930130Y-81560126D01*
X133932537Y-81554848D01*
X133952236Y-81517386D01*
X133970541Y-81491443D01*
X133982268Y-81483057D01*
X134001392Y-81491043D01*
X134029610Y-81510440D01*
X134040144Y-81519050D01*
X134081607Y-81554532D01*
X134054618Y-81600275D01*
X134036638Y-81643810D01*
X134027027Y-81694110D01*
X134026420Y-81742348D01*
X134035451Y-81779693D01*
X134041087Y-81788655D01*
X134066931Y-81805723D01*
X134096701Y-81807797D01*
X134119957Y-81795026D01*
X134124468Y-81787472D01*
X134130069Y-81764835D01*
X134136652Y-81725045D01*
X134142943Y-81675994D01*
X134143930Y-81666945D01*
X134157558Y-81588164D01*
X134180706Y-81531024D01*
X134215512Y-81493130D01*
X134264114Y-81472081D01*
X134323478Y-81465525D01*
X134390958Y-81474583D01*
X134443948Y-81503996D01*
X134482543Y-81553882D01*
X134506841Y-81624360D01*
X134516427Y-81702595D01*
X134516312Y-81766394D01*
X134507605Y-81818144D01*
X134495585Y-81853487D01*
X134474640Y-81898143D01*
X134450334Y-81939413D01*
X134439636Y-81954081D01*
X134408844Y-81991803D01*
X134362809Y-81946308D01*
X134316773Y-81900813D01*
X134351003Y-81849088D01*
X134376712Y-81797208D01*
X134390159Y-81741809D01*
X134391578Y-81688555D01*
X134381203Y-81643111D01*
X134359267Y-81611144D01*
X134340758Y-81600822D01*
X134311074Y-81602371D01*
X134288375Y-81628020D01*
X134272700Y-81677700D01*
X134265455Y-81732129D01*
X134251633Y-81815896D01*
X134225556Y-81878127D01*
X134186459Y-81919653D01*
X134133580Y-81941307D01*
X134070886Y-81944307D01*
X134005402Y-81929489D01*
X133955904Y-81895706D01*
X133922168Y-81842655D01*
X133903967Y-81770034D01*
X133900399Y-81716232D01*
X133902212Y-81657143D01*
G37*
X133902212Y-81657143D02*
X133911242Y-81609526D01*
X133930130Y-81560126D01*
X133932537Y-81554848D01*
X133952236Y-81517386D01*
X133970541Y-81491443D01*
X133982268Y-81483057D01*
X134001392Y-81491043D01*
X134029610Y-81510440D01*
X134040144Y-81519050D01*
X134081607Y-81554532D01*
X134054618Y-81600275D01*
X134036638Y-81643810D01*
X134027027Y-81694110D01*
X134026420Y-81742348D01*
X134035451Y-81779693D01*
X134041087Y-81788655D01*
X134066931Y-81805723D01*
X134096701Y-81807797D01*
X134119957Y-81795026D01*
X134124468Y-81787472D01*
X134130069Y-81764835D01*
X134136652Y-81725045D01*
X134142943Y-81675994D01*
X134143930Y-81666945D01*
X134157558Y-81588164D01*
X134180706Y-81531024D01*
X134215512Y-81493130D01*
X134264114Y-81472081D01*
X134323478Y-81465525D01*
X134390958Y-81474583D01*
X134443948Y-81503996D01*
X134482543Y-81553882D01*
X134506841Y-81624360D01*
X134516427Y-81702595D01*
X134516312Y-81766394D01*
X134507605Y-81818144D01*
X134495585Y-81853487D01*
X134474640Y-81898143D01*
X134450334Y-81939413D01*
X134439636Y-81954081D01*
X134408844Y-81991803D01*
X134362809Y-81946308D01*
X134316773Y-81900813D01*
X134351003Y-81849088D01*
X134376712Y-81797208D01*
X134390159Y-81741809D01*
X134391578Y-81688555D01*
X134381203Y-81643111D01*
X134359267Y-81611144D01*
X134340758Y-81600822D01*
X134311074Y-81602371D01*
X134288375Y-81628020D01*
X134272700Y-81677700D01*
X134265455Y-81732129D01*
X134251633Y-81815896D01*
X134225556Y-81878127D01*
X134186459Y-81919653D01*
X134133580Y-81941307D01*
X134070886Y-81944307D01*
X134005402Y-81929489D01*
X133955904Y-81895706D01*
X133922168Y-81842655D01*
X133903967Y-81770034D01*
X133900399Y-81716232D01*
X133902212Y-81657143D01*
G36*
X133918374Y-83027859D02*
G01*
X133924274Y-83015328D01*
X133956043Y-82971959D01*
X134002406Y-82930950D01*
X134053456Y-82900328D01*
X134076926Y-82891619D01*
X134118851Y-82883672D01*
X134169517Y-82878934D01*
X134190439Y-82878359D01*
X134256453Y-82878289D01*
X134256453Y-83258243D01*
X134291033Y-83250143D01*
X134331930Y-83230264D01*
X134367274Y-83195507D01*
X134390042Y-83154158D01*
X134394770Y-83127809D01*
X134389033Y-83092076D01*
X134374642Y-83049442D01*
X134368022Y-83034959D01*
X134341273Y-82981400D01*
X134376136Y-82935693D01*
X134399715Y-82909318D01*
X134419177Y-82895284D01*
X134424889Y-82894574D01*
X134438733Y-82907111D01*
X134459772Y-82934588D01*
X134476185Y-82959526D01*
X134505690Y-83026824D01*
X134519044Y-83102270D01*
X134515572Y-83177048D01*
X134497423Y-83236655D01*
X134458544Y-83298101D01*
X134407355Y-83341768D01*
X134341127Y-83369086D01*
X134257131Y-83381482D01*
X134218696Y-83382581D01*
X134130621Y-83378182D01*
X134128059Y-83377642D01*
X134128059Y-83251742D01*
X134136318Y-83248275D01*
X134140873Y-83234023D01*
X134142825Y-83204630D01*
X134143277Y-83155735D01*
X134143285Y-83136908D01*
X134142603Y-83079627D01*
X134140124Y-83043301D01*
X134135203Y-83023764D01*
X134127194Y-83016850D01*
X134124622Y-83016605D01*
X134104183Y-83024496D01*
X134075549Y-83044245D01*
X134065523Y-83052735D01*
X134037168Y-83084254D01*
X134026019Y-83117109D01*
X134025087Y-83134811D01*
X134036741Y-83182699D01*
X134068045Y-83222859D01*
X134113512Y-83248333D01*
X134114993Y-83248785D01*
X134128059Y-83251742D01*
X134128059Y-83377642D01*
X134061270Y-83363552D01*
X134005785Y-83337198D01*
X133966399Y-83304967D01*
X133923691Y-83245377D01*
X133900869Y-83175328D01*
X133898806Y-83100821D01*
X133918374Y-83027859D01*
G37*
X133918374Y-83027859D02*
X133924274Y-83015328D01*
X133956043Y-82971959D01*
X134002406Y-82930950D01*
X134053456Y-82900328D01*
X134076926Y-82891619D01*
X134118851Y-82883672D01*
X134169517Y-82878934D01*
X134190439Y-82878359D01*
X134256453Y-82878289D01*
X134256453Y-83258243D01*
X134291033Y-83250143D01*
X134331930Y-83230264D01*
X134367274Y-83195507D01*
X134390042Y-83154158D01*
X134394770Y-83127809D01*
X134389033Y-83092076D01*
X134374642Y-83049442D01*
X134368022Y-83034959D01*
X134341273Y-82981400D01*
X134376136Y-82935693D01*
X134399715Y-82909318D01*
X134419177Y-82895284D01*
X134424889Y-82894574D01*
X134438733Y-82907111D01*
X134459772Y-82934588D01*
X134476185Y-82959526D01*
X134505690Y-83026824D01*
X134519044Y-83102270D01*
X134515572Y-83177048D01*
X134497423Y-83236655D01*
X134458544Y-83298101D01*
X134407355Y-83341768D01*
X134341127Y-83369086D01*
X134257131Y-83381482D01*
X134218696Y-83382581D01*
X134130621Y-83378182D01*
X134128059Y-83377642D01*
X134128059Y-83251742D01*
X134136318Y-83248275D01*
X134140873Y-83234023D01*
X134142825Y-83204630D01*
X134143277Y-83155735D01*
X134143285Y-83136908D01*
X134142603Y-83079627D01*
X134140124Y-83043301D01*
X134135203Y-83023764D01*
X134127194Y-83016850D01*
X134124622Y-83016605D01*
X134104183Y-83024496D01*
X134075549Y-83044245D01*
X134065523Y-83052735D01*
X134037168Y-83084254D01*
X134026019Y-83117109D01*
X134025087Y-83134811D01*
X134036741Y-83182699D01*
X134068045Y-83222859D01*
X134113512Y-83248333D01*
X134114993Y-83248785D01*
X134128059Y-83251742D01*
X134128059Y-83377642D01*
X134061270Y-83363552D01*
X134005785Y-83337198D01*
X133966399Y-83304967D01*
X133923691Y-83245377D01*
X133900869Y-83175328D01*
X133898806Y-83100821D01*
X133918374Y-83027859D01*
G36*
X133910908Y-84209421D02*
G01*
X133939991Y-84143639D01*
X133988553Y-84093700D01*
X134056668Y-84059534D01*
X134144411Y-84041067D01*
X134158111Y-84039743D01*
X134254699Y-84038706D01*
X134339362Y-84052153D01*
X134407981Y-84079268D01*
X134430054Y-84093787D01*
X134476771Y-84144361D01*
X134507028Y-84208769D01*
X134519584Y-84280826D01*
X134513199Y-84354345D01*
X134493532Y-84410232D01*
X134460389Y-84458292D01*
X134416935Y-84497572D01*
X134415918Y-84498252D01*
X134389098Y-84514204D01*
X134362128Y-84524570D01*
X134328092Y-84530848D01*
X134280070Y-84534533D01*
X134240691Y-84536157D01*
X134204979Y-84536832D01*
X134204979Y-84411115D01*
X134240530Y-84409886D01*
X134287854Y-84405426D01*
X134318225Y-84397557D01*
X134339832Y-84383367D01*
X134352454Y-84370077D01*
X134378882Y-84322962D01*
X134382413Y-84273665D01*
X134363399Y-84227753D01*
X134342091Y-84204798D01*
X134320619Y-84188256D01*
X134300073Y-84178581D01*
X134273334Y-84174334D01*
X134233283Y-84174080D01*
X134196398Y-84175388D01*
X134143707Y-84178203D01*
X134109532Y-84182665D01*
X134087240Y-84190708D01*
X134070202Y-84204263D01*
X134060463Y-84215005D01*
X134034883Y-84259937D01*
X134033607Y-84308409D01*
X134048759Y-84349054D01*
X134080402Y-84383727D01*
X134132380Y-84404384D01*
X134204979Y-84411115D01*
X134204979Y-84536832D01*
X134162381Y-84537639D01*
X134103816Y-84535108D01*
X134059767Y-84527522D01*
X134025008Y-84513841D01*
X133994311Y-84493025D01*
X133985196Y-84485307D01*
X133939781Y-84437049D01*
X133913253Y-84385288D01*
X133902139Y-84321988D01*
X133901231Y-84291121D01*
X133910908Y-84209421D01*
G37*
X133910908Y-84209421D02*
X133939991Y-84143639D01*
X133988553Y-84093700D01*
X134056668Y-84059534D01*
X134144411Y-84041067D01*
X134158111Y-84039743D01*
X134254699Y-84038706D01*
X134339362Y-84052153D01*
X134407981Y-84079268D01*
X134430054Y-84093787D01*
X134476771Y-84144361D01*
X134507028Y-84208769D01*
X134519584Y-84280826D01*
X134513199Y-84354345D01*
X134493532Y-84410232D01*
X134460389Y-84458292D01*
X134416935Y-84497572D01*
X134415918Y-84498252D01*
X134389098Y-84514204D01*
X134362128Y-84524570D01*
X134328092Y-84530848D01*
X134280070Y-84534533D01*
X134240691Y-84536157D01*
X134204979Y-84536832D01*
X134204979Y-84411115D01*
X134240530Y-84409886D01*
X134287854Y-84405426D01*
X134318225Y-84397557D01*
X134339832Y-84383367D01*
X134352454Y-84370077D01*
X134378882Y-84322962D01*
X134382413Y-84273665D01*
X134363399Y-84227753D01*
X134342091Y-84204798D01*
X134320619Y-84188256D01*
X134300073Y-84178581D01*
X134273334Y-84174334D01*
X134233283Y-84174080D01*
X134196398Y-84175388D01*
X134143707Y-84178203D01*
X134109532Y-84182665D01*
X134087240Y-84190708D01*
X134070202Y-84204263D01*
X134060463Y-84215005D01*
X134034883Y-84259937D01*
X134033607Y-84308409D01*
X134048759Y-84349054D01*
X134080402Y-84383727D01*
X134132380Y-84404384D01*
X134204979Y-84411115D01*
X134204979Y-84536832D01*
X134162381Y-84537639D01*
X134103816Y-84535108D01*
X134059767Y-84527522D01*
X134025008Y-84513841D01*
X133994311Y-84493025D01*
X133985196Y-84485307D01*
X133939781Y-84437049D01*
X133913253Y-84385288D01*
X133902139Y-84321988D01*
X133901231Y-84291121D01*
X133910908Y-84209421D01*
G36*
X134850730Y-79638579D02*
G01*
X134866357Y-79578475D01*
X134898608Y-79528139D01*
X134922700Y-79503767D01*
X134979655Y-79463815D01*
X135045725Y-79440918D01*
X135126942Y-79433052D01*
X135133508Y-79433012D01*
X135199523Y-79432942D01*
X135199523Y-79812896D01*
X135234102Y-79804797D01*
X135265419Y-79790173D01*
X135298051Y-79764579D01*
X135303260Y-79759225D01*
X135331454Y-79713217D01*
X135336235Y-79660750D01*
X135317686Y-79600357D01*
X135312691Y-79590120D01*
X135297505Y-79558721D01*
X135288854Y-79537690D01*
X135288053Y-79534021D01*
X135295823Y-79521212D01*
X135314832Y-79496782D01*
X135325220Y-79484381D01*
X135349081Y-79458684D01*
X135364837Y-79450245D01*
X135379331Y-79456102D01*
X135383294Y-79459232D01*
X135400639Y-79480435D01*
X135421719Y-79515422D01*
X135434025Y-79539823D01*
X135455706Y-79609088D01*
X135462731Y-79685772D01*
X135454407Y-79758395D01*
X135448446Y-79778734D01*
X135414712Y-79841684D01*
X135362805Y-79888345D01*
X135292219Y-79918987D01*
X135202452Y-79933878D01*
X135155513Y-79935513D01*
X135087173Y-79930739D01*
X135087173Y-79810170D01*
X135092225Y-79798508D01*
X135096189Y-79767162D01*
X135098528Y-79721589D01*
X135098929Y-79690714D01*
X135098543Y-79635179D01*
X135096735Y-79600127D01*
X135092533Y-79580898D01*
X135084963Y-79572830D01*
X135073978Y-79571259D01*
X135040141Y-79582039D01*
X135006700Y-79609180D01*
X134981032Y-79644883D01*
X134970532Y-79680600D01*
X134979846Y-79729112D01*
X135006773Y-79771107D01*
X135045587Y-79800224D01*
X135087173Y-79810170D01*
X135087173Y-79930739D01*
X135055996Y-79928561D01*
X134976709Y-79907105D01*
X134917023Y-79870690D01*
X134876309Y-79818863D01*
X134853939Y-79751170D01*
X134849631Y-79714498D01*
X134850730Y-79638579D01*
G37*
X134850730Y-79638579D02*
X134866357Y-79578475D01*
X134898608Y-79528139D01*
X134922700Y-79503767D01*
X134979655Y-79463815D01*
X135045725Y-79440918D01*
X135126942Y-79433052D01*
X135133508Y-79433012D01*
X135199523Y-79432942D01*
X135199523Y-79812896D01*
X135234102Y-79804797D01*
X135265419Y-79790173D01*
X135298051Y-79764579D01*
X135303260Y-79759225D01*
X135331454Y-79713217D01*
X135336235Y-79660750D01*
X135317686Y-79600357D01*
X135312691Y-79590120D01*
X135297505Y-79558721D01*
X135288854Y-79537690D01*
X135288053Y-79534021D01*
X135295823Y-79521212D01*
X135314832Y-79496782D01*
X135325220Y-79484381D01*
X135349081Y-79458684D01*
X135364837Y-79450245D01*
X135379331Y-79456102D01*
X135383294Y-79459232D01*
X135400639Y-79480435D01*
X135421719Y-79515422D01*
X135434025Y-79539823D01*
X135455706Y-79609088D01*
X135462731Y-79685772D01*
X135454407Y-79758395D01*
X135448446Y-79778734D01*
X135414712Y-79841684D01*
X135362805Y-79888345D01*
X135292219Y-79918987D01*
X135202452Y-79933878D01*
X135155513Y-79935513D01*
X135087173Y-79930739D01*
X135087173Y-79810170D01*
X135092225Y-79798508D01*
X135096189Y-79767162D01*
X135098528Y-79721589D01*
X135098929Y-79690714D01*
X135098543Y-79635179D01*
X135096735Y-79600127D01*
X135092533Y-79580898D01*
X135084963Y-79572830D01*
X135073978Y-79571259D01*
X135040141Y-79582039D01*
X135006700Y-79609180D01*
X134981032Y-79644883D01*
X134970532Y-79680600D01*
X134979846Y-79729112D01*
X135006773Y-79771107D01*
X135045587Y-79800224D01*
X135087173Y-79810170D01*
X135087173Y-79930739D01*
X135055996Y-79928561D01*
X134976709Y-79907105D01*
X134917023Y-79870690D01*
X134876309Y-79818863D01*
X134853939Y-79751170D01*
X134849631Y-79714498D01*
X134850730Y-79638579D01*
G36*
X134847246Y-80035905D02*
G01*
X134856775Y-79987565D01*
X134870885Y-79960046D01*
X134894328Y-79931096D01*
X134946331Y-79972284D01*
X134977824Y-79997678D01*
X134993188Y-80014922D01*
X134995536Y-80032058D01*
X134987977Y-80057133D01*
X134983701Y-80068903D01*
X134977391Y-80116890D01*
X134990916Y-80160836D01*
X135021470Y-80193100D01*
X135031212Y-80198341D01*
X135057018Y-80204048D01*
X135104577Y-80208454D01*
X135170518Y-80211349D01*
X135251470Y-80212529D01*
X135262986Y-80212546D01*
X135463582Y-80212546D01*
X135463582Y-80350863D01*
X134847443Y-80350863D01*
X134847443Y-80281704D01*
X134848485Y-80241827D01*
X134853118Y-80221053D01*
X134863609Y-80213371D01*
X134873505Y-80212546D01*
X134899566Y-80212546D01*
X134873505Y-80179415D01*
X134855725Y-80141425D01*
X134846934Y-80090390D01*
X134847246Y-80035905D01*
G37*
X134847246Y-80035905D02*
X134856775Y-79987565D01*
X134870885Y-79960046D01*
X134894328Y-79931096D01*
X134946331Y-79972284D01*
X134977824Y-79997678D01*
X134993188Y-80014922D01*
X134995536Y-80032058D01*
X134987977Y-80057133D01*
X134983701Y-80068903D01*
X134977391Y-80116890D01*
X134990916Y-80160836D01*
X135021470Y-80193100D01*
X135031212Y-80198341D01*
X135057018Y-80204048D01*
X135104577Y-80208454D01*
X135170518Y-80211349D01*
X135251470Y-80212529D01*
X135262986Y-80212546D01*
X135463582Y-80212546D01*
X135463582Y-80350863D01*
X134847443Y-80350863D01*
X134847443Y-80281704D01*
X134848485Y-80241827D01*
X134853118Y-80221053D01*
X134863609Y-80213371D01*
X134873505Y-80212546D01*
X134899566Y-80212546D01*
X134873505Y-80179415D01*
X134855725Y-80141425D01*
X134846934Y-80090390D01*
X134847246Y-80035905D01*
G36*
X134851177Y-80632749D02*
G01*
X134864050Y-80579749D01*
X134870870Y-80564429D01*
X134888734Y-80534732D01*
X134908853Y-80511940D01*
X134934722Y-80495077D01*
X134969833Y-80483162D01*
X135017680Y-80475218D01*
X135081756Y-80470266D01*
X135165554Y-80467329D01*
X135221528Y-80466213D01*
X135463582Y-80462108D01*
X135463582Y-80532228D01*
X135461798Y-80574767D01*
X135455702Y-80596684D01*
X135445466Y-80602348D01*
X135434397Y-80605339D01*
X135436514Y-80618709D01*
X135445389Y-80636927D01*
X135458993Y-80682536D01*
X135462659Y-80741153D01*
X135456663Y-80802806D01*
X135441281Y-80857522D01*
X135439146Y-80862430D01*
X135404015Y-80912437D01*
X135355179Y-80945404D01*
X135298093Y-80960573D01*
X135277584Y-80959414D01*
X135277584Y-80835652D01*
X135305185Y-80824747D01*
X135324964Y-80792415D01*
X135335579Y-80740250D01*
X135336988Y-80712373D01*
X135333380Y-80665913D01*
X135319357Y-80635031D01*
X135312691Y-80627496D01*
X135276426Y-80607084D01*
X135243533Y-80602348D01*
X135199523Y-80602348D01*
X135199523Y-80663647D01*
X135203155Y-80734904D01*
X135214578Y-80784884D01*
X135234584Y-80816464D01*
X135243503Y-80823534D01*
X135277584Y-80835652D01*
X135277584Y-80959414D01*
X135238216Y-80957189D01*
X135181004Y-80934497D01*
X135142340Y-80903536D01*
X135125624Y-80884784D01*
X135114638Y-80866427D01*
X135107940Y-80842541D01*
X135104086Y-80807203D01*
X135101633Y-80754491D01*
X135100928Y-80733583D01*
X135096639Y-80602348D01*
X135056918Y-80602540D01*
X135015165Y-80607623D01*
X134989918Y-80625998D01*
X134973790Y-80663121D01*
X134973502Y-80664117D01*
X134967160Y-80716750D01*
X134975444Y-80768254D01*
X134995587Y-80806530D01*
X135005533Y-80821888D01*
X135004157Y-80838430D01*
X134989747Y-80863885D01*
X134979577Y-80878832D01*
X134957848Y-80908069D01*
X134941560Y-80926180D01*
X134936897Y-80929086D01*
X134912765Y-80917120D01*
X134883945Y-80881764D01*
X134874221Y-80866407D01*
X134857474Y-80822259D01*
X134847987Y-80762762D01*
X134845855Y-80696673D01*
X134851177Y-80632749D01*
G37*
X134851177Y-80632749D02*
X134864050Y-80579749D01*
X134870870Y-80564429D01*
X134888734Y-80534732D01*
X134908853Y-80511940D01*
X134934722Y-80495077D01*
X134969833Y-80483162D01*
X135017680Y-80475218D01*
X135081756Y-80470266D01*
X135165554Y-80467329D01*
X135221528Y-80466213D01*
X135463582Y-80462108D01*
X135463582Y-80532228D01*
X135461798Y-80574767D01*
X135455702Y-80596684D01*
X135445466Y-80602348D01*
X135434397Y-80605339D01*
X135436514Y-80618709D01*
X135445389Y-80636927D01*
X135458993Y-80682536D01*
X135462659Y-80741153D01*
X135456663Y-80802806D01*
X135441281Y-80857522D01*
X135439146Y-80862430D01*
X135404015Y-80912437D01*
X135355179Y-80945404D01*
X135298093Y-80960573D01*
X135277584Y-80959414D01*
X135277584Y-80835652D01*
X135305185Y-80824747D01*
X135324964Y-80792415D01*
X135335579Y-80740250D01*
X135336988Y-80712373D01*
X135333380Y-80665913D01*
X135319357Y-80635031D01*
X135312691Y-80627496D01*
X135276426Y-80607084D01*
X135243533Y-80602348D01*
X135199523Y-80602348D01*
X135199523Y-80663647D01*
X135203155Y-80734904D01*
X135214578Y-80784884D01*
X135234584Y-80816464D01*
X135243503Y-80823534D01*
X135277584Y-80835652D01*
X135277584Y-80959414D01*
X135238216Y-80957189D01*
X135181004Y-80934497D01*
X135142340Y-80903536D01*
X135125624Y-80884784D01*
X135114638Y-80866427D01*
X135107940Y-80842541D01*
X135104086Y-80807203D01*
X135101633Y-80754491D01*
X135100928Y-80733583D01*
X135096639Y-80602348D01*
X135056918Y-80602540D01*
X135015165Y-80607623D01*
X134989918Y-80625998D01*
X134973790Y-80663121D01*
X134973502Y-80664117D01*
X134967160Y-80716750D01*
X134975444Y-80768254D01*
X134995587Y-80806530D01*
X135005533Y-80821888D01*
X135004157Y-80838430D01*
X134989747Y-80863885D01*
X134979577Y-80878832D01*
X134957848Y-80908069D01*
X134941560Y-80926180D01*
X134936897Y-80929086D01*
X134912765Y-80917120D01*
X134883945Y-80881764D01*
X134874221Y-80866407D01*
X134857474Y-80822259D01*
X134847987Y-80762762D01*
X134845855Y-80696673D01*
X134851177Y-80632749D01*
G36*
X134849997Y-81389636D02*
G01*
X134853731Y-81339905D01*
X135243533Y-81209869D01*
X135174374Y-81189482D01*
X135131634Y-81177214D01*
X135073875Y-81161075D01*
X135010385Y-81143648D01*
X134976330Y-81134434D01*
X134847443Y-81099772D01*
X134847443Y-80956769D01*
X134982617Y-80999514D01*
X135049102Y-81020564D01*
X135129299Y-81045993D01*
X135212953Y-81072550D01*
X135287542Y-81096258D01*
X135457295Y-81150258D01*
X135461088Y-81208562D01*
X135464882Y-81266865D01*
X135360494Y-81298481D01*
X135295649Y-81317978D01*
X135224160Y-81339256D01*
X135161023Y-81357852D01*
X135158510Y-81358586D01*
X135115729Y-81372476D01*
X135086539Y-81384731D01*
X135075501Y-81393314D01*
X135076778Y-81395078D01*
X135093890Y-81401269D01*
X135130547Y-81413032D01*
X135182138Y-81428935D01*
X135244054Y-81447546D01*
X135278112Y-81457617D01*
X135463582Y-81512153D01*
X135463582Y-81627896D01*
X135171231Y-81720423D01*
X135089222Y-81746416D01*
X135014747Y-81770094D01*
X134951304Y-81790340D01*
X134902392Y-81806034D01*
X134871509Y-81816058D01*
X134862486Y-81819105D01*
X134853247Y-81816693D01*
X134849201Y-81797752D01*
X134849606Y-81758337D01*
X134849912Y-81752167D01*
X134853731Y-81679074D01*
X135029770Y-81631203D01*
X135093971Y-81613607D01*
X135150409Y-81597883D01*
X135194182Y-81585414D01*
X135220390Y-81577586D01*
X135224663Y-81576140D01*
X135219750Y-81570146D01*
X135194292Y-81558059D01*
X135151757Y-81541267D01*
X135095610Y-81521157D01*
X135044890Y-81504157D01*
X134846264Y-81439366D01*
X134849997Y-81389636D01*
G37*
X134849997Y-81389636D02*
X134853731Y-81339905D01*
X135243533Y-81209869D01*
X135174374Y-81189482D01*
X135131634Y-81177214D01*
X135073875Y-81161075D01*
X135010385Y-81143648D01*
X134976330Y-81134434D01*
X134847443Y-81099772D01*
X134847443Y-80956769D01*
X134982617Y-80999514D01*
X135049102Y-81020564D01*
X135129299Y-81045993D01*
X135212953Y-81072550D01*
X135287542Y-81096258D01*
X135457295Y-81150258D01*
X135461088Y-81208562D01*
X135464882Y-81266865D01*
X135360494Y-81298481D01*
X135295649Y-81317978D01*
X135224160Y-81339256D01*
X135161023Y-81357852D01*
X135158510Y-81358586D01*
X135115729Y-81372476D01*
X135086539Y-81384731D01*
X135075501Y-81393314D01*
X135076778Y-81395078D01*
X135093890Y-81401269D01*
X135130547Y-81413032D01*
X135182138Y-81428935D01*
X135244054Y-81447546D01*
X135278112Y-81457617D01*
X135463582Y-81512153D01*
X135463582Y-81627896D01*
X135171231Y-81720423D01*
X135089222Y-81746416D01*
X135014747Y-81770094D01*
X134951304Y-81790340D01*
X134902392Y-81806034D01*
X134871509Y-81816058D01*
X134862486Y-81819105D01*
X134853247Y-81816693D01*
X134849201Y-81797752D01*
X134849606Y-81758337D01*
X134849912Y-81752167D01*
X134853731Y-81679074D01*
X135029770Y-81631203D01*
X135093971Y-81613607D01*
X135150409Y-81597883D01*
X135194182Y-81585414D01*
X135220390Y-81577586D01*
X135224663Y-81576140D01*
X135219750Y-81570146D01*
X135194292Y-81558059D01*
X135151757Y-81541267D01*
X135095610Y-81521157D01*
X135044890Y-81504157D01*
X134846264Y-81439366D01*
X134849997Y-81389636D01*
G36*
X135463582Y-81872348D02*
G01*
X135463582Y-81941506D01*
X135462405Y-81981648D01*
X135457532Y-82002554D01*
X135446946Y-82010082D01*
X135439789Y-82010665D01*
X135425436Y-82011934D01*
X135422683Y-82019939D01*
X135431531Y-82040975D01*
X135439789Y-82057333D01*
X135459357Y-82120137D01*
X135460489Y-82188408D01*
X135445895Y-82243912D01*
X135410637Y-82295598D01*
X135358595Y-82334998D01*
X135297210Y-82356573D01*
X135293778Y-82357122D01*
X135256331Y-82360327D01*
X135202573Y-82361921D01*
X135161915Y-82361793D01*
X135161915Y-82224439D01*
X135215954Y-82221257D01*
X135260495Y-82214019D01*
X135285648Y-82204220D01*
X135320020Y-82167149D01*
X135332342Y-82123134D01*
X135322378Y-82077744D01*
X135292655Y-82038957D01*
X135272665Y-82024268D01*
X135248810Y-82015679D01*
X135213990Y-82011656D01*
X135161690Y-82010665D01*
X135109899Y-82012438D01*
X135064394Y-82017123D01*
X135033941Y-82023763D01*
X135031212Y-82024870D01*
X134998760Y-82051651D01*
X134980943Y-82090739D01*
X134978066Y-82134475D01*
X134990434Y-82175198D01*
X135018353Y-82205247D01*
X135023908Y-82208364D01*
X135057782Y-82218121D01*
X135106488Y-82223437D01*
X135161915Y-82224439D01*
X135161915Y-82361793D01*
X135141300Y-82361728D01*
X135108323Y-82360824D01*
X135026741Y-82354674D01*
X134965490Y-82341893D01*
X134920209Y-82320631D01*
X134886539Y-82289038D01*
X134866774Y-82258367D01*
X134852880Y-82215514D01*
X134848114Y-82162216D01*
X134851996Y-82107640D01*
X134864042Y-82060952D01*
X134878453Y-82036284D01*
X134901638Y-82010665D01*
X134608533Y-82010665D01*
X134608533Y-81872348D01*
X135463582Y-81872348D01*
G37*
X135463582Y-81872348D02*
X135463582Y-81941506D01*
X135462405Y-81981648D01*
X135457532Y-82002554D01*
X135446946Y-82010082D01*
X135439789Y-82010665D01*
X135425436Y-82011934D01*
X135422683Y-82019939D01*
X135431531Y-82040975D01*
X135439789Y-82057333D01*
X135459357Y-82120137D01*
X135460489Y-82188408D01*
X135445895Y-82243912D01*
X135410637Y-82295598D01*
X135358595Y-82334998D01*
X135297210Y-82356573D01*
X135293778Y-82357122D01*
X135256331Y-82360327D01*
X135202573Y-82361921D01*
X135161915Y-82361793D01*
X135161915Y-82224439D01*
X135215954Y-82221257D01*
X135260495Y-82214019D01*
X135285648Y-82204220D01*
X135320020Y-82167149D01*
X135332342Y-82123134D01*
X135322378Y-82077744D01*
X135292655Y-82038957D01*
X135272665Y-82024268D01*
X135248810Y-82015679D01*
X135213990Y-82011656D01*
X135161690Y-82010665D01*
X135109899Y-82012438D01*
X135064394Y-82017123D01*
X135033941Y-82023763D01*
X135031212Y-82024870D01*
X134998760Y-82051651D01*
X134980943Y-82090739D01*
X134978066Y-82134475D01*
X134990434Y-82175198D01*
X135018353Y-82205247D01*
X135023908Y-82208364D01*
X135057782Y-82218121D01*
X135106488Y-82223437D01*
X135161915Y-82224439D01*
X135161915Y-82361793D01*
X135141300Y-82361728D01*
X135108323Y-82360824D01*
X135026741Y-82354674D01*
X134965490Y-82341893D01*
X134920209Y-82320631D01*
X134886539Y-82289038D01*
X134866774Y-82258367D01*
X134852880Y-82215514D01*
X134848114Y-82162216D01*
X134851996Y-82107640D01*
X134864042Y-82060952D01*
X134878453Y-82036284D01*
X134901638Y-82010665D01*
X134608533Y-82010665D01*
X134608533Y-81872348D01*
X135463582Y-81872348D01*
G36*
X134848780Y-82664516D02*
G01*
X134854420Y-82645699D01*
X134866813Y-82639633D01*
X134872407Y-82639378D01*
X134887990Y-82638289D01*
X134890436Y-82630792D01*
X134879753Y-82610541D01*
X134872454Y-82598511D01*
X134856823Y-82560560D01*
X134849094Y-82515232D01*
X134848500Y-82467704D01*
X134854273Y-82423155D01*
X134865644Y-82386762D01*
X134881848Y-82363703D01*
X134902115Y-82359156D01*
X134907603Y-82361451D01*
X134930386Y-82378180D01*
X134958407Y-82404123D01*
X134962937Y-82408815D01*
X134983765Y-82433543D01*
X134990495Y-82454878D01*
X134985798Y-82484715D01*
X134982677Y-82496668D01*
X134975181Y-82533865D01*
X134978552Y-82560019D01*
X134990441Y-82582106D01*
X135006395Y-82602338D01*
X135026460Y-82617239D01*
X135054462Y-82627594D01*
X135094227Y-82634189D01*
X135149583Y-82637809D01*
X135224354Y-82639238D01*
X135269500Y-82639378D01*
X135463582Y-82639378D01*
X135463582Y-82765120D01*
X134847443Y-82765120D01*
X134847443Y-82702249D01*
X134848780Y-82664516D01*
G37*
X134848780Y-82664516D02*
X134854420Y-82645699D01*
X134866813Y-82639633D01*
X134872407Y-82639378D01*
X134887990Y-82638289D01*
X134890436Y-82630792D01*
X134879753Y-82610541D01*
X134872454Y-82598511D01*
X134856823Y-82560560D01*
X134849094Y-82515232D01*
X134848500Y-82467704D01*
X134854273Y-82423155D01*
X134865644Y-82386762D01*
X134881848Y-82363703D01*
X134902115Y-82359156D01*
X134907603Y-82361451D01*
X134930386Y-82378180D01*
X134958407Y-82404123D01*
X134962937Y-82408815D01*
X134983765Y-82433543D01*
X134990495Y-82454878D01*
X134985798Y-82484715D01*
X134982677Y-82496668D01*
X134975181Y-82533865D01*
X134978552Y-82560019D01*
X134990441Y-82582106D01*
X135006395Y-82602338D01*
X135026460Y-82617239D01*
X135054462Y-82627594D01*
X135094227Y-82634189D01*
X135149583Y-82637809D01*
X135224354Y-82639238D01*
X135269500Y-82639378D01*
X135463582Y-82639378D01*
X135463582Y-82765120D01*
X134847443Y-82765120D01*
X134847443Y-82702249D01*
X134848780Y-82664516D01*
G36*
X134852315Y-83055370D02*
G01*
X134868099Y-82996215D01*
X134896708Y-82951183D01*
X134934179Y-82919406D01*
X134950171Y-82909526D01*
X134966923Y-82902233D01*
X134988352Y-82897134D01*
X135018376Y-82893839D01*
X135060914Y-82891957D01*
X135119882Y-82891097D01*
X135199200Y-82890867D01*
X135220244Y-82890863D01*
X135463582Y-82890863D01*
X135463582Y-82951219D01*
X135460886Y-82989717D01*
X135454055Y-83018183D01*
X135449843Y-83025315D01*
X135442573Y-83044812D01*
X135449843Y-83064726D01*
X135458920Y-83097513D01*
X135462573Y-83145138D01*
X135460988Y-83197924D01*
X135454349Y-83246196D01*
X135445832Y-83274378D01*
X135410823Y-83328913D01*
X135362239Y-83362995D01*
X135297642Y-83378317D01*
X135295983Y-83378459D01*
X135267326Y-83377115D01*
X135267326Y-83255516D01*
X135299921Y-83244886D01*
X135318265Y-83227570D01*
X135332139Y-83192812D01*
X135337677Y-83146933D01*
X135334951Y-83100148D01*
X135324034Y-83062674D01*
X135317029Y-83052175D01*
X135284664Y-83033828D01*
X135247871Y-83029180D01*
X135199523Y-83029180D01*
X135199523Y-83098742D01*
X135204610Y-83164827D01*
X135219023Y-83214924D01*
X135241489Y-83246089D01*
X135267326Y-83255516D01*
X135267326Y-83377115D01*
X135225407Y-83375147D01*
X135169605Y-83351870D01*
X135127407Y-83308108D01*
X135123568Y-83302059D01*
X135111069Y-83276067D01*
X135103500Y-83243895D01*
X135099821Y-83198920D01*
X135098976Y-83145491D01*
X135098929Y-83029180D01*
X135050171Y-83029180D01*
X135012341Y-83034113D01*
X134986996Y-83046703D01*
X134985647Y-83048177D01*
X134974560Y-83076194D01*
X134970263Y-83118486D01*
X134972375Y-83165224D01*
X134980516Y-83206578D01*
X134992725Y-83231117D01*
X135002506Y-83244413D01*
X135004373Y-83258454D01*
X134996360Y-83277831D01*
X134976499Y-83307136D01*
X134942823Y-83350963D01*
X134939669Y-83354985D01*
X134927996Y-83352924D01*
X134908582Y-83335728D01*
X134887008Y-83309593D01*
X134868856Y-83280712D01*
X134864569Y-83271638D01*
X134856016Y-83238540D01*
X134849915Y-83190040D01*
X134847468Y-83135855D01*
X134847463Y-83133321D01*
X134852315Y-83055370D01*
G37*
X134852315Y-83055370D02*
X134868099Y-82996215D01*
X134896708Y-82951183D01*
X134934179Y-82919406D01*
X134950171Y-82909526D01*
X134966923Y-82902233D01*
X134988352Y-82897134D01*
X135018376Y-82893839D01*
X135060914Y-82891957D01*
X135119882Y-82891097D01*
X135199200Y-82890867D01*
X135220244Y-82890863D01*
X135463582Y-82890863D01*
X135463582Y-82951219D01*
X135460886Y-82989717D01*
X135454055Y-83018183D01*
X135449843Y-83025315D01*
X135442573Y-83044812D01*
X135449843Y-83064726D01*
X135458920Y-83097513D01*
X135462573Y-83145138D01*
X135460988Y-83197924D01*
X135454349Y-83246196D01*
X135445832Y-83274378D01*
X135410823Y-83328913D01*
X135362239Y-83362995D01*
X135297642Y-83378317D01*
X135295983Y-83378459D01*
X135267326Y-83377115D01*
X135267326Y-83255516D01*
X135299921Y-83244886D01*
X135318265Y-83227570D01*
X135332139Y-83192812D01*
X135337677Y-83146933D01*
X135334951Y-83100148D01*
X135324034Y-83062674D01*
X135317029Y-83052175D01*
X135284664Y-83033828D01*
X135247871Y-83029180D01*
X135199523Y-83029180D01*
X135199523Y-83098742D01*
X135204610Y-83164827D01*
X135219023Y-83214924D01*
X135241489Y-83246089D01*
X135267326Y-83255516D01*
X135267326Y-83377115D01*
X135225407Y-83375147D01*
X135169605Y-83351870D01*
X135127407Y-83308108D01*
X135123568Y-83302059D01*
X135111069Y-83276067D01*
X135103500Y-83243895D01*
X135099821Y-83198920D01*
X135098976Y-83145491D01*
X135098929Y-83029180D01*
X135050171Y-83029180D01*
X135012341Y-83034113D01*
X134986996Y-83046703D01*
X134985647Y-83048177D01*
X134974560Y-83076194D01*
X134970263Y-83118486D01*
X134972375Y-83165224D01*
X134980516Y-83206578D01*
X134992725Y-83231117D01*
X135002506Y-83244413D01*
X135004373Y-83258454D01*
X134996360Y-83277831D01*
X134976499Y-83307136D01*
X134942823Y-83350963D01*
X134939669Y-83354985D01*
X134927996Y-83352924D01*
X134908582Y-83335728D01*
X134887008Y-83309593D01*
X134868856Y-83280712D01*
X134864569Y-83271638D01*
X134856016Y-83238540D01*
X134849915Y-83190040D01*
X134847468Y-83135855D01*
X134847463Y-83133321D01*
X134852315Y-83055370D01*
G36*
X133914944Y-83579919D02*
G01*
X133928042Y-83553407D01*
X133950866Y-83520713D01*
X133975756Y-83496885D01*
X134007009Y-83480566D01*
X134048926Y-83470400D01*
X134105804Y-83465032D01*
X134181944Y-83463104D01*
X134214677Y-83462991D01*
X134286416Y-83463321D01*
X134337687Y-83464687D01*
X134373164Y-83467660D01*
X134397523Y-83472809D01*
X134415440Y-83480703D01*
X134427662Y-83488917D01*
X134479665Y-83541347D01*
X134510944Y-83603090D01*
X134520352Y-83669696D01*
X134506740Y-83736718D01*
X134497114Y-83757952D01*
X134470619Y-83808784D01*
X134885812Y-83808784D01*
X134866628Y-83771685D01*
X134851785Y-83722803D01*
X134847982Y-83662721D01*
X134855003Y-83602724D01*
X134870773Y-83557416D01*
X134900807Y-83519835D01*
X134943784Y-83487724D01*
X134948196Y-83485310D01*
X134968981Y-83475127D01*
X134989930Y-83467690D01*
X135015308Y-83462571D01*
X135049378Y-83459341D01*
X135096401Y-83457573D01*
X135160642Y-83456837D01*
X135232936Y-83456704D01*
X135463582Y-83456704D01*
X135463582Y-83595021D01*
X135038293Y-83595021D01*
X135005739Y-83633709D01*
X134979700Y-83673898D01*
X134974965Y-83711957D01*
X134987149Y-83750226D01*
X134999080Y-83770622D01*
X135016073Y-83785802D01*
X135041755Y-83796598D01*
X135079751Y-83803843D01*
X135133686Y-83808368D01*
X135207185Y-83811004D01*
X135256107Y-83811932D01*
X135457295Y-83815071D01*
X135461096Y-83881086D01*
X135464896Y-83947100D01*
X134216410Y-83947100D01*
X134216410Y-83808784D01*
X134286014Y-83805257D01*
X134334329Y-83793375D01*
X134364391Y-83771180D01*
X134379231Y-83736719D01*
X134382196Y-83701902D01*
X134378788Y-83662489D01*
X134365377Y-83636331D01*
X134347656Y-83619974D01*
X134328595Y-83607097D01*
X134307361Y-83599432D01*
X134277609Y-83596021D01*
X134232996Y-83595909D01*
X134195640Y-83597057D01*
X134139364Y-83599692D01*
X134102418Y-83603616D01*
X134078983Y-83610223D01*
X134063240Y-83620909D01*
X134054140Y-83630993D01*
X134034297Y-83673130D01*
X134031092Y-83723000D01*
X134037928Y-83751636D01*
X134062224Y-83779988D01*
X134109488Y-83798769D01*
X134179384Y-83807872D01*
X134216410Y-83808784D01*
X134216410Y-83947100D01*
X133904374Y-83947100D01*
X133904374Y-83877942D01*
X133906016Y-83836420D01*
X133911847Y-83814998D01*
X133923221Y-83808786D01*
X133923558Y-83808784D01*
X133934698Y-83805902D01*
X133933433Y-83793190D01*
X133921193Y-83767917D01*
X133902467Y-83709029D01*
X133900499Y-83642775D01*
X133914944Y-83579919D01*
G37*
X133914944Y-83579919D02*
X133928042Y-83553407D01*
X133950866Y-83520713D01*
X133975756Y-83496885D01*
X134007009Y-83480566D01*
X134048926Y-83470400D01*
X134105804Y-83465032D01*
X134181944Y-83463104D01*
X134214677Y-83462991D01*
X134286416Y-83463321D01*
X134337687Y-83464687D01*
X134373164Y-83467660D01*
X134397523Y-83472809D01*
X134415440Y-83480703D01*
X134427662Y-83488917D01*
X134479665Y-83541347D01*
X134510944Y-83603090D01*
X134520352Y-83669696D01*
X134506740Y-83736718D01*
X134497114Y-83757952D01*
X134470619Y-83808784D01*
X134885812Y-83808784D01*
X134866628Y-83771685D01*
X134851785Y-83722803D01*
X134847982Y-83662721D01*
X134855003Y-83602724D01*
X134870773Y-83557416D01*
X134900807Y-83519835D01*
X134943784Y-83487724D01*
X134948196Y-83485310D01*
X134968981Y-83475127D01*
X134989930Y-83467690D01*
X135015308Y-83462571D01*
X135049378Y-83459341D01*
X135096401Y-83457573D01*
X135160642Y-83456837D01*
X135232936Y-83456704D01*
X135463582Y-83456704D01*
X135463582Y-83595021D01*
X135038293Y-83595021D01*
X135005739Y-83633709D01*
X134979700Y-83673898D01*
X134974965Y-83711957D01*
X134987149Y-83750226D01*
X134999080Y-83770622D01*
X135016073Y-83785802D01*
X135041755Y-83796598D01*
X135079751Y-83803843D01*
X135133686Y-83808368D01*
X135207185Y-83811004D01*
X135256107Y-83811932D01*
X135457295Y-83815071D01*
X135461096Y-83881086D01*
X135464896Y-83947100D01*
X134216410Y-83947100D01*
X134216410Y-83808784D01*
X134286014Y-83805257D01*
X134334329Y-83793375D01*
X134364391Y-83771180D01*
X134379231Y-83736719D01*
X134382196Y-83701902D01*
X134378788Y-83662489D01*
X134365377Y-83636331D01*
X134347656Y-83619974D01*
X134328595Y-83607097D01*
X134307361Y-83599432D01*
X134277609Y-83596021D01*
X134232996Y-83595909D01*
X134195640Y-83597057D01*
X134139364Y-83599692D01*
X134102418Y-83603616D01*
X134078983Y-83610223D01*
X134063240Y-83620909D01*
X134054140Y-83630993D01*
X134034297Y-83673130D01*
X134031092Y-83723000D01*
X134037928Y-83751636D01*
X134062224Y-83779988D01*
X134109488Y-83798769D01*
X134179384Y-83807872D01*
X134216410Y-83808784D01*
X134216410Y-83947100D01*
X133904374Y-83947100D01*
X133904374Y-83877942D01*
X133906016Y-83836420D01*
X133911847Y-83814998D01*
X133923221Y-83808786D01*
X133923558Y-83808784D01*
X133934698Y-83805902D01*
X133933433Y-83793190D01*
X133921193Y-83767917D01*
X133902467Y-83709029D01*
X133900499Y-83642775D01*
X133914944Y-83579919D01*
D12*
X138028000Y-91625336D02*
X138028000Y-92829464D01*
X139848000Y-91625336D02*
X139848000Y-92829464D01*
D18*
X137410320Y-96758760D02*
G75*
G03X137410320Y-96758760I-50000J0D01*
G01*
D12*
X148963360Y-87333360D02*
X147833360Y-87333360D01*
X148963360Y-86573360D02*
X148963360Y-87333360D01*
X145025830Y-87268360D02*
X144203360Y-87268360D01*
X147073360Y-87268360D02*
X146870890Y-87268360D01*
X147073360Y-87136831D02*
X147073360Y-87268360D01*
X147073360Y-85866831D02*
X147073360Y-86009889D01*
X147269889Y-85813360D02*
X147126831Y-85813360D01*
X148963360Y-85813360D02*
X148396831Y-85813360D01*
X144203360Y-87268360D02*
X144203360Y-71028360D01*
X148963360Y-86573360D02*
X148963360Y-71028360D01*
X146910830Y-71028360D02*
X146255890Y-71028360D01*
X145025830Y-71028360D02*
X144203360Y-71028360D01*
X148963360Y-71028360D02*
X148140890Y-71028360D01*
X144098000Y-51533400D02*
X144098000Y-50243400D01*
X144548000Y-51533400D02*
X144098000Y-51533400D01*
X144548000Y-51983400D02*
X144548000Y-51533400D01*
X144548000Y-58753400D02*
X144098000Y-58753400D01*
X144548000Y-58303400D02*
X144548000Y-58753400D01*
X137328000Y-51533400D02*
X137778000Y-51533400D01*
X137328000Y-51983400D02*
X137328000Y-51533400D01*
X137328000Y-58753400D02*
X137778000Y-58753400D01*
X137328000Y-58303400D02*
X137328000Y-58753400D01*
X132705800Y-44535400D02*
X132705800Y-43205400D01*
X134035800Y-44535400D02*
X132705800Y-44535400D01*
X135305800Y-44535400D02*
X135305800Y-41875400D01*
X135305800Y-41875400D02*
X142985800Y-41875400D01*
X135305800Y-44535400D02*
X142985800Y-44535400D01*
X142985800Y-44535400D02*
X142985800Y-41875400D01*
X127696800Y-40503200D02*
X125246800Y-40503200D01*
X125896800Y-43723200D02*
X127696800Y-43723200D01*
X151020240Y-79974320D02*
X151020240Y-80904320D01*
X151020240Y-83134320D02*
X151020240Y-82204320D01*
X151020240Y-83134320D02*
X153180240Y-83134320D01*
X151020240Y-79974320D02*
X152480240Y-79974320D01*
X151467280Y-67030480D02*
X152927280Y-67030480D01*
X151467280Y-70190480D02*
X153627280Y-70190480D01*
X151467280Y-70190480D02*
X151467280Y-69260480D01*
X151467280Y-67030480D02*
X151467280Y-67960480D01*
X138331480Y-83230840D02*
X136871480Y-83230840D01*
X138331480Y-80070840D02*
X136171480Y-80070840D01*
X138331480Y-80070840D02*
X138331480Y-81000840D01*
X138331480Y-83230840D02*
X138331480Y-82300840D01*
X141831600Y-71821160D02*
X140371600Y-71821160D01*
X141831600Y-68661160D02*
X139671600Y-68661160D01*
X141831600Y-68661160D02*
X141831600Y-69591160D01*
X141831600Y-71821160D02*
X141831600Y-70891160D01*
X151899080Y-83591280D02*
X153359080Y-83591280D01*
X151899080Y-86751280D02*
X154059080Y-86751280D01*
X151899080Y-86751280D02*
X151899080Y-85821280D01*
X151899080Y-83591280D02*
X151899080Y-84521280D01*
X151040560Y-70688080D02*
X152500560Y-70688080D01*
X151040560Y-73848080D02*
X153200560Y-73848080D01*
X151040560Y-73848080D02*
X151040560Y-72918080D01*
X151040560Y-70688080D02*
X151040560Y-71618080D01*
X141857000Y-85374600D02*
X140397000Y-85374600D01*
X141857000Y-82214600D02*
X139697000Y-82214600D01*
X141857000Y-82214600D02*
X141857000Y-83144600D01*
X141857000Y-85374600D02*
X141857000Y-84444600D01*
X138336560Y-74056360D02*
X136876560Y-74056360D01*
X138336560Y-70896360D02*
X136176560Y-70896360D01*
X138336560Y-70896360D02*
X138336560Y-71826360D01*
X138336560Y-74056360D02*
X138336560Y-73126360D01*
X154510200Y-73019800D02*
X155970200Y-73019800D01*
X154510200Y-76179800D02*
X156670200Y-76179800D01*
X154510200Y-76179800D02*
X154510200Y-75249800D01*
X154510200Y-73019800D02*
X154510200Y-73949800D01*
X150662760Y-88420680D02*
X149732760Y-88420680D01*
X147502760Y-88420680D02*
X148432760Y-88420680D01*
X147502760Y-88420680D02*
X147502760Y-90580680D01*
X150662760Y-88420680D02*
X150662760Y-89880680D01*
X141841760Y-76327120D02*
X140381760Y-76327120D01*
X141841760Y-73167120D02*
X139681760Y-73167120D01*
X141841760Y-73167120D02*
X141841760Y-74097120D01*
X141841760Y-76327120D02*
X141841760Y-75397120D01*
X141857000Y-88945840D02*
X140397000Y-88945840D01*
X141857000Y-85785840D02*
X139697000Y-85785840D01*
X141857000Y-85785840D02*
X141857000Y-86715840D01*
X141857000Y-88945840D02*
X141857000Y-88015840D01*
X144658960Y-93214600D02*
X144658960Y-94674600D01*
X141498960Y-93214600D02*
X141498960Y-95374600D01*
X141498960Y-93214600D02*
X142428960Y-93214600D01*
X144658960Y-93214600D02*
X143728960Y-93214600D01*
X151005000Y-75397240D02*
X151005000Y-76327240D01*
X151005000Y-78557240D02*
X151005000Y-77627240D01*
X151005000Y-78557240D02*
X153165000Y-78557240D01*
X151005000Y-75397240D02*
X152465000Y-75397240D01*
X146222840Y-88410520D02*
X146222840Y-89870520D01*
X143062840Y-88410520D02*
X143062840Y-90570520D01*
X143062840Y-88410520D02*
X143992840Y-88410520D01*
X146222840Y-88410520D02*
X145292840Y-88410520D01*
X138341640Y-78674080D02*
X136881640Y-78674080D01*
X138341640Y-75514080D02*
X136181640Y-75514080D01*
X138341640Y-75514080D02*
X138341640Y-76444080D01*
X138341640Y-78674080D02*
X138341640Y-77744080D01*
X147086200Y-69370480D02*
X147086200Y-67910480D01*
X150246200Y-69370480D02*
X150246200Y-67210480D01*
X150246200Y-69370480D02*
X149316200Y-69370480D01*
X147086200Y-69370480D02*
X148016200Y-69370480D01*
X154515280Y-77662920D02*
X155975280Y-77662920D01*
X154515280Y-80822920D02*
X156675280Y-80822920D01*
X154515280Y-80822920D02*
X154515280Y-79892920D01*
X154515280Y-77662920D02*
X154515280Y-78592920D01*
X143108560Y-69385720D02*
X143108560Y-67925720D01*
X146268560Y-69385720D02*
X146268560Y-67225720D01*
X146268560Y-69385720D02*
X145338560Y-69385720D01*
X143108560Y-69385720D02*
X144038560Y-69385720D01*
X141831600Y-80934680D02*
X140371600Y-80934680D01*
X141831600Y-77774680D02*
X139671600Y-77774680D01*
X141831600Y-77774680D02*
X141831600Y-78704680D01*
X141831600Y-80934680D02*
X141831600Y-80004680D01*
X114849600Y-43637200D02*
X114849600Y-42307200D01*
X114849600Y-42307200D02*
X116179600Y-42307200D01*
X117449600Y-42307200D02*
X120049600Y-42307200D01*
X120049600Y-44967200D02*
X120049600Y-42307200D01*
X117449600Y-44967200D02*
X120049600Y-44967200D01*
X117449600Y-44967200D02*
X117449600Y-42307200D01*
X146918360Y-55702702D02*
X146918360Y-56219858D01*
X148338360Y-55702702D02*
X148338360Y-56219858D01*
X136065778Y-45441800D02*
X135548622Y-45441800D01*
X136065778Y-46861800D02*
X135548622Y-46861800D01*
X136065778Y-47600800D02*
X135548622Y-47600800D01*
X136065778Y-49020800D02*
X135548622Y-49020800D01*
X139841400Y-48074664D02*
X139841400Y-46870536D01*
X138021400Y-48074664D02*
X138021400Y-46870536D01*
X129744400Y-41880022D02*
X129744400Y-42397178D01*
X131164400Y-41880022D02*
X131164400Y-42397178D01*
X121360520Y-41958176D02*
X121360520Y-43162304D01*
X123180520Y-41958176D02*
X123180520Y-43162304D01*
X117964800Y-91615400D02*
X117964800Y-87315400D01*
X117964800Y-87315400D02*
X112264800Y-87315400D01*
X117964800Y-91615400D02*
X112264800Y-91615400D01*
X127442400Y-61105600D02*
X127742400Y-61105600D01*
X122672400Y-61105600D02*
X122372400Y-61105600D01*
X122722400Y-54985600D02*
X122372400Y-54985600D01*
X127742400Y-61105600D02*
X127742400Y-54985600D01*
X122372400Y-61105600D02*
X122372400Y-54985600D01*
D18*
X115091400Y-57239000D02*
X115091400Y-57639000D01*
X115091400Y-57639000D02*
X115391400Y-57939000D01*
X115391400Y-57939000D02*
X115391400Y-58739000D01*
X119991400Y-58139000D02*
X120291400Y-58139000D01*
X120291400Y-58139000D02*
X120291400Y-57839000D01*
X115391400Y-53939000D02*
X115091400Y-53939000D01*
X115091400Y-53939000D02*
X115091400Y-54239000D01*
X119991400Y-53939000D02*
X120291400Y-53939000D01*
X120291400Y-53939000D02*
X120291400Y-54239000D01*
D19*
X123955300Y-79848400D02*
G75*
G03X123955300Y-79848400I-746300J0D01*
G01*
D20*
X125039000Y-64228400D02*
X125039000Y-81428400D01*
X110039000Y-64228400D02*
X125039000Y-64228400D01*
X110039000Y-81428400D02*
X110039000Y-64228400D01*
X125039000Y-81428400D02*
X110039000Y-81428400D01*
D12*
X111295178Y-48519400D02*
X110778022Y-48519400D01*
X111295178Y-47099400D02*
X110778022Y-47099400D01*
X111269778Y-50020400D02*
X110752622Y-50020400D01*
X111269778Y-51440400D02*
X110752622Y-51440400D01*
X111269778Y-54259800D02*
X110752622Y-54259800D01*
X111269778Y-52839800D02*
X110752622Y-52839800D01*
X111269778Y-55583000D02*
X110752622Y-55583000D01*
X111269778Y-57003000D02*
X110752622Y-57003000D01*
X111295178Y-59517600D02*
X110778022Y-59517600D01*
X111295178Y-58097600D02*
X110778022Y-58097600D01*
X125986821Y-63280000D02*
X126312379Y-63280000D01*
X125986821Y-62260000D02*
X126312379Y-62260000D01*
X126388900Y-51246239D02*
X126388900Y-50920681D01*
X127408900Y-51246239D02*
X127408900Y-50920681D01*
X112597600Y-84708064D02*
X112597600Y-83503936D01*
X115317600Y-84708064D02*
X115317600Y-83503936D01*
X116661600Y-84682664D02*
X116661600Y-83478536D01*
X119381600Y-84682664D02*
X119381600Y-83478536D01*
X123293200Y-84708064D02*
X123293200Y-83503936D01*
X120573200Y-84708064D02*
X120573200Y-83503936D01*
X106460022Y-52865200D02*
X106977178Y-52865200D01*
X106460022Y-54285200D02*
X106977178Y-54285200D01*
X116597200Y-50588379D02*
X116597200Y-50262821D01*
X117617200Y-50588379D02*
X117617200Y-50262821D01*
X116533379Y-47248600D02*
X116207821Y-47248600D01*
X116533379Y-48268600D02*
X116207821Y-48268600D01*
X113800622Y-62034600D02*
X114317778Y-62034600D01*
X113800622Y-63454600D02*
X114317778Y-63454600D01*
X118734000Y-93042222D02*
X118734000Y-93559378D01*
X120154000Y-93042222D02*
X120154000Y-93559378D01*
X122481621Y-93679800D02*
X122807179Y-93679800D01*
X122481621Y-94699800D02*
X122807179Y-94699800D01*
X123322664Y-89943600D02*
X122118536Y-89943600D01*
X123322664Y-88123600D02*
X122118536Y-88123600D01*
D14*
X128735776Y-95083261D02*
X128878633Y-95130880D01*
X129116728Y-95130880D01*
X129211966Y-95083261D01*
X129259585Y-95035642D01*
X129307204Y-94940404D01*
X129307204Y-94845166D01*
X129259585Y-94749928D01*
X129211966Y-94702309D01*
X129116728Y-94654690D01*
X128926252Y-94607071D01*
X128831014Y-94559452D01*
X128783395Y-94511833D01*
X128735776Y-94416595D01*
X128735776Y-94321357D01*
X128783395Y-94226119D01*
X128831014Y-94178500D01*
X128926252Y-94130880D01*
X129164347Y-94130880D01*
X129307204Y-94178500D01*
X129640538Y-94130880D02*
X129878633Y-95130880D01*
X130069109Y-94416595D01*
X130259585Y-95130880D01*
X130497680Y-94130880D01*
X131402442Y-95130880D02*
X130831014Y-95130880D01*
X131116728Y-95130880D02*
X131116728Y-94130880D01*
X131021490Y-94273738D01*
X130926252Y-94368976D01*
X130831014Y-94416595D01*
X151296773Y-47492301D02*
X151352223Y-47632603D01*
X151505550Y-47815331D01*
X151603426Y-47857756D01*
X151670637Y-47863636D01*
X151774394Y-47838851D01*
X151847485Y-47777521D01*
X151889910Y-47679644D01*
X151895791Y-47612434D01*
X151871005Y-47508677D01*
X151784889Y-47331830D01*
X151760104Y-47228073D01*
X151765985Y-47160862D01*
X151808410Y-47062986D01*
X151881501Y-47001655D01*
X151985258Y-46976870D01*
X152052469Y-46982750D01*
X152150345Y-47025176D01*
X152303672Y-47207904D01*
X152359122Y-47348206D01*
X152610325Y-47573359D02*
X151996196Y-48400059D01*
X152667040Y-48086261D01*
X152241518Y-48692423D01*
X153162301Y-48231179D01*
X153303868Y-48548328D02*
X153371079Y-48554208D01*
X153468955Y-48596634D01*
X153622281Y-48779362D01*
X153647067Y-48883118D01*
X153641186Y-48950329D01*
X153598761Y-49048205D01*
X153525670Y-49109536D01*
X153385368Y-49164987D01*
X152578837Y-49094424D01*
X152977487Y-49569516D01*
X137627620Y-93876097D02*
X137151430Y-94209430D01*
X137627620Y-94447525D02*
X136627620Y-94447525D01*
X136627620Y-94066573D01*
X136675240Y-93971335D01*
X136722859Y-93923716D01*
X136818097Y-93876097D01*
X136960954Y-93876097D01*
X137056192Y-93923716D01*
X137103811Y-93971335D01*
X137151430Y-94066573D01*
X137151430Y-94447525D01*
X136722859Y-93495144D02*
X136675240Y-93447525D01*
X136627620Y-93352287D01*
X136627620Y-93114192D01*
X136675240Y-93018954D01*
X136722859Y-92971335D01*
X136818097Y-92923716D01*
X136913335Y-92923716D01*
X137056192Y-92971335D01*
X137627620Y-93542763D01*
X137627620Y-92923716D01*
X137627620Y-92447525D02*
X137627620Y-92257049D01*
X137580001Y-92161811D01*
X137532382Y-92114192D01*
X137389525Y-92018954D01*
X137199049Y-91971335D01*
X136818097Y-91971335D01*
X136722859Y-92018954D01*
X136675240Y-92066573D01*
X136627620Y-92161811D01*
X136627620Y-92352287D01*
X136675240Y-92447525D01*
X136722859Y-92495144D01*
X136818097Y-92542763D01*
X137056192Y-92542763D01*
X137151430Y-92495144D01*
X137199049Y-92447525D01*
X137246668Y-92352287D01*
X137246668Y-92161811D01*
X137199049Y-92066573D01*
X137151430Y-92018954D01*
X137056192Y-91971335D01*
X137595384Y-98430340D02*
X137595384Y-97430340D01*
X137833480Y-97430340D01*
X137976337Y-97477960D01*
X138071575Y-97573198D01*
X138119194Y-97668436D01*
X138166813Y-97858912D01*
X138166813Y-98001769D01*
X138119194Y-98192245D01*
X138071575Y-98287483D01*
X137976337Y-98382721D01*
X137833480Y-98430340D01*
X137595384Y-98430340D01*
X138547765Y-97525579D02*
X138595384Y-97477960D01*
X138690622Y-97430340D01*
X138928718Y-97430340D01*
X139023956Y-97477960D01*
X139071575Y-97525579D01*
X139119194Y-97620817D01*
X139119194Y-97716055D01*
X139071575Y-97858912D01*
X138500146Y-98430340D01*
X139119194Y-98430340D01*
X135610860Y-56211030D02*
X134610860Y-56211030D01*
X135515622Y-55163411D02*
X135563241Y-55211030D01*
X135610860Y-55353887D01*
X135610860Y-55449125D01*
X135563241Y-55591982D01*
X135468003Y-55687220D01*
X135372765Y-55734840D01*
X135182289Y-55782459D01*
X135039432Y-55782459D01*
X134848956Y-55734840D01*
X134753718Y-55687220D01*
X134658480Y-55591982D01*
X134610860Y-55449125D01*
X134610860Y-55353887D01*
X134658480Y-55211030D01*
X134706099Y-55163411D01*
X135610860Y-54211030D02*
X135610860Y-54782459D01*
X135610860Y-54496744D02*
X134610860Y-54496744D01*
X134753718Y-54591982D01*
X134848956Y-54687220D01*
X134896575Y-54782459D01*
X143286740Y-62375017D02*
X142810550Y-62708350D01*
X143286740Y-62946445D02*
X142286740Y-62946445D01*
X142286740Y-62565493D01*
X142334360Y-62470255D01*
X142381979Y-62422636D01*
X142477217Y-62375017D01*
X142620074Y-62375017D01*
X142715312Y-62422636D01*
X142762931Y-62470255D01*
X142810550Y-62565493D01*
X142810550Y-62946445D01*
X143286740Y-61422636D02*
X143286740Y-61994064D01*
X143286740Y-61708350D02*
X142286740Y-61708350D01*
X142429598Y-61803588D01*
X142524836Y-61898826D01*
X142572455Y-61994064D01*
X142286740Y-61089302D02*
X142286740Y-60470255D01*
X142667693Y-60803588D01*
X142667693Y-60660731D01*
X142715312Y-60565493D01*
X142762931Y-60517874D01*
X142858169Y-60470255D01*
X143096264Y-60470255D01*
X143191502Y-60517874D01*
X143239121Y-60565493D01*
X143286740Y-60660731D01*
X143286740Y-60946445D01*
X143239121Y-61041683D01*
X143191502Y-61089302D01*
X139976266Y-40239700D02*
X139976266Y-40953986D01*
X139928647Y-41096843D01*
X139833409Y-41192081D01*
X139690552Y-41239700D01*
X139595314Y-41239700D01*
X140881028Y-40573034D02*
X140881028Y-41239700D01*
X140642933Y-40192081D02*
X140404838Y-40906367D01*
X141023885Y-40906367D01*
X127040735Y-39167820D02*
X127040735Y-39977344D01*
X127088354Y-40072582D01*
X127135973Y-40120201D01*
X127231211Y-40167820D01*
X127421687Y-40167820D01*
X127516925Y-40120201D01*
X127564544Y-40072582D01*
X127612163Y-39977344D01*
X127612163Y-39167820D01*
X128612163Y-40167820D02*
X128040735Y-40167820D01*
X128326449Y-40167820D02*
X128326449Y-39167820D01*
X128231211Y-39310678D01*
X128135973Y-39405916D01*
X128040735Y-39453535D01*
X154371300Y-57706497D02*
X153895110Y-58039830D01*
X154371300Y-58277925D02*
X153371300Y-58277925D01*
X153371300Y-57896973D01*
X153418920Y-57801735D01*
X153466539Y-57754116D01*
X153561777Y-57706497D01*
X153704634Y-57706497D01*
X153799872Y-57754116D01*
X153847491Y-57801735D01*
X153895110Y-57896973D01*
X153895110Y-58277925D01*
X153466539Y-57325544D02*
X153418920Y-57277925D01*
X153371300Y-57182687D01*
X153371300Y-56944592D01*
X153418920Y-56849354D01*
X153466539Y-56801735D01*
X153561777Y-56754116D01*
X153657015Y-56754116D01*
X153799872Y-56801735D01*
X154371300Y-57373163D01*
X154371300Y-56754116D01*
X153799872Y-56182687D02*
X153752253Y-56277925D01*
X153704634Y-56325544D01*
X153609396Y-56373163D01*
X153561777Y-56373163D01*
X153466539Y-56325544D01*
X153418920Y-56277925D01*
X153371300Y-56182687D01*
X153371300Y-55992211D01*
X153418920Y-55896973D01*
X153466539Y-55849354D01*
X153561777Y-55801735D01*
X153609396Y-55801735D01*
X153704634Y-55849354D01*
X153752253Y-55896973D01*
X153799872Y-55992211D01*
X153799872Y-56182687D01*
X153847491Y-56277925D01*
X153895110Y-56325544D01*
X153990348Y-56373163D01*
X154180824Y-56373163D01*
X154276062Y-56325544D01*
X154323681Y-56277925D01*
X154371300Y-56182687D01*
X154371300Y-55992211D01*
X154323681Y-55896973D01*
X154276062Y-55849354D01*
X154180824Y-55801735D01*
X153990348Y-55801735D01*
X153895110Y-55849354D01*
X153847491Y-55896973D01*
X153799872Y-55992211D01*
X150807182Y-62916060D02*
X150473849Y-62439870D01*
X150235754Y-62916060D02*
X150235754Y-61916060D01*
X150616706Y-61916060D01*
X150711944Y-61963680D01*
X150759563Y-62011299D01*
X150807182Y-62106537D01*
X150807182Y-62249394D01*
X150759563Y-62344632D01*
X150711944Y-62392251D01*
X150616706Y-62439870D01*
X150235754Y-62439870D01*
X151188135Y-62011299D02*
X151235754Y-61963680D01*
X151330992Y-61916060D01*
X151569087Y-61916060D01*
X151664325Y-61963680D01*
X151711944Y-62011299D01*
X151759563Y-62106537D01*
X151759563Y-62201775D01*
X151711944Y-62344632D01*
X151140516Y-62916060D01*
X151759563Y-62916060D01*
X152092897Y-61916060D02*
X152759563Y-61916060D01*
X152330992Y-62916060D01*
X140685780Y-62344537D02*
X140209590Y-62677870D01*
X140685780Y-62915965D02*
X139685780Y-62915965D01*
X139685780Y-62535013D01*
X139733400Y-62439775D01*
X139781019Y-62392156D01*
X139876257Y-62344537D01*
X140019114Y-62344537D01*
X140114352Y-62392156D01*
X140161971Y-62439775D01*
X140209590Y-62535013D01*
X140209590Y-62915965D01*
X139781019Y-61963584D02*
X139733400Y-61915965D01*
X139685780Y-61820727D01*
X139685780Y-61582632D01*
X139733400Y-61487394D01*
X139781019Y-61439775D01*
X139876257Y-61392156D01*
X139971495Y-61392156D01*
X140114352Y-61439775D01*
X140685780Y-62011203D01*
X140685780Y-61392156D01*
X139685780Y-60535013D02*
X139685780Y-60725489D01*
X139733400Y-60820727D01*
X139781019Y-60868346D01*
X139923876Y-60963584D01*
X140114352Y-61011203D01*
X140495304Y-61011203D01*
X140590542Y-60963584D01*
X140638161Y-60915965D01*
X140685780Y-60820727D01*
X140685780Y-60630251D01*
X140638161Y-60535013D01*
X140590542Y-60487394D01*
X140495304Y-60439775D01*
X140257209Y-60439775D01*
X140161971Y-60487394D01*
X140114352Y-60535013D01*
X140066733Y-60630251D01*
X140066733Y-60820727D01*
X140114352Y-60915965D01*
X140161971Y-60963584D01*
X140257209Y-61011203D01*
X147198340Y-62390257D02*
X146722150Y-62723590D01*
X147198340Y-62961685D02*
X146198340Y-62961685D01*
X146198340Y-62580733D01*
X146245960Y-62485495D01*
X146293579Y-62437876D01*
X146388817Y-62390257D01*
X146531674Y-62390257D01*
X146626912Y-62437876D01*
X146674531Y-62485495D01*
X146722150Y-62580733D01*
X146722150Y-62961685D01*
X146293579Y-62009304D02*
X146245960Y-61961685D01*
X146198340Y-61866447D01*
X146198340Y-61628352D01*
X146245960Y-61533114D01*
X146293579Y-61485495D01*
X146388817Y-61437876D01*
X146484055Y-61437876D01*
X146626912Y-61485495D01*
X147198340Y-62056923D01*
X147198340Y-61437876D01*
X146198340Y-60533114D02*
X146198340Y-61009304D01*
X146674531Y-61056923D01*
X146626912Y-61009304D01*
X146579293Y-60914066D01*
X146579293Y-60675971D01*
X146626912Y-60580733D01*
X146674531Y-60533114D01*
X146769769Y-60485495D01*
X147007864Y-60485495D01*
X147103102Y-60533114D01*
X147150721Y-60580733D01*
X147198340Y-60675971D01*
X147198340Y-60914066D01*
X147150721Y-61009304D01*
X147103102Y-61056923D01*
X155676860Y-58996817D02*
X155200670Y-59330150D01*
X155676860Y-59568245D02*
X154676860Y-59568245D01*
X154676860Y-59187293D01*
X154724480Y-59092055D01*
X154772099Y-59044436D01*
X154867337Y-58996817D01*
X155010194Y-58996817D01*
X155105432Y-59044436D01*
X155153051Y-59092055D01*
X155200670Y-59187293D01*
X155200670Y-59568245D01*
X154772099Y-58615864D02*
X154724480Y-58568245D01*
X154676860Y-58473007D01*
X154676860Y-58234912D01*
X154724480Y-58139674D01*
X154772099Y-58092055D01*
X154867337Y-58044436D01*
X154962575Y-58044436D01*
X155105432Y-58092055D01*
X155676860Y-58663483D01*
X155676860Y-58044436D01*
X155010194Y-57187293D02*
X155676860Y-57187293D01*
X154629241Y-57425388D02*
X155343527Y-57663483D01*
X155343527Y-57044436D01*
X148082260Y-59657217D02*
X147606070Y-59990550D01*
X148082260Y-60228645D02*
X147082260Y-60228645D01*
X147082260Y-59847693D01*
X147129880Y-59752455D01*
X147177499Y-59704836D01*
X147272737Y-59657217D01*
X147415594Y-59657217D01*
X147510832Y-59704836D01*
X147558451Y-59752455D01*
X147606070Y-59847693D01*
X147606070Y-60228645D01*
X147177499Y-59276264D02*
X147129880Y-59228645D01*
X147082260Y-59133407D01*
X147082260Y-58895312D01*
X147129880Y-58800074D01*
X147177499Y-58752455D01*
X147272737Y-58704836D01*
X147367975Y-58704836D01*
X147510832Y-58752455D01*
X148082260Y-59323883D01*
X148082260Y-58704836D01*
X147082260Y-58371502D02*
X147082260Y-57752455D01*
X147463213Y-58085788D01*
X147463213Y-57942931D01*
X147510832Y-57847693D01*
X147558451Y-57800074D01*
X147653689Y-57752455D01*
X147891784Y-57752455D01*
X147987022Y-57800074D01*
X148034641Y-57847693D01*
X148082260Y-57942931D01*
X148082260Y-58228645D01*
X148034641Y-58323883D01*
X147987022Y-58371502D01*
X139441180Y-62354697D02*
X138964990Y-62688030D01*
X139441180Y-62926125D02*
X138441180Y-62926125D01*
X138441180Y-62545173D01*
X138488800Y-62449935D01*
X138536419Y-62402316D01*
X138631657Y-62354697D01*
X138774514Y-62354697D01*
X138869752Y-62402316D01*
X138917371Y-62449935D01*
X138964990Y-62545173D01*
X138964990Y-62926125D01*
X138536419Y-61973744D02*
X138488800Y-61926125D01*
X138441180Y-61830887D01*
X138441180Y-61592792D01*
X138488800Y-61497554D01*
X138536419Y-61449935D01*
X138631657Y-61402316D01*
X138726895Y-61402316D01*
X138869752Y-61449935D01*
X139441180Y-62021363D01*
X139441180Y-61402316D01*
X138536419Y-61021363D02*
X138488800Y-60973744D01*
X138441180Y-60878506D01*
X138441180Y-60640411D01*
X138488800Y-60545173D01*
X138536419Y-60497554D01*
X138631657Y-60449935D01*
X138726895Y-60449935D01*
X138869752Y-60497554D01*
X139441180Y-61068982D01*
X139441180Y-60449935D01*
X145892780Y-62380097D02*
X145416590Y-62713430D01*
X145892780Y-62951525D02*
X144892780Y-62951525D01*
X144892780Y-62570573D01*
X144940400Y-62475335D01*
X144988019Y-62427716D01*
X145083257Y-62380097D01*
X145226114Y-62380097D01*
X145321352Y-62427716D01*
X145368971Y-62475335D01*
X145416590Y-62570573D01*
X145416590Y-62951525D01*
X144988019Y-61999144D02*
X144940400Y-61951525D01*
X144892780Y-61856287D01*
X144892780Y-61618192D01*
X144940400Y-61522954D01*
X144988019Y-61475335D01*
X145083257Y-61427716D01*
X145178495Y-61427716D01*
X145321352Y-61475335D01*
X145892780Y-62046763D01*
X145892780Y-61427716D01*
X145892780Y-60475335D02*
X145892780Y-61046763D01*
X145892780Y-60761049D02*
X144892780Y-60761049D01*
X145035638Y-60856287D01*
X145130876Y-60951525D01*
X145178495Y-61046763D01*
X150693380Y-57681097D02*
X150217190Y-58014430D01*
X150693380Y-58252525D02*
X149693380Y-58252525D01*
X149693380Y-57871573D01*
X149741000Y-57776335D01*
X149788619Y-57728716D01*
X149883857Y-57681097D01*
X150026714Y-57681097D01*
X150121952Y-57728716D01*
X150169571Y-57776335D01*
X150217190Y-57871573D01*
X150217190Y-58252525D01*
X149788619Y-57300144D02*
X149741000Y-57252525D01*
X149693380Y-57157287D01*
X149693380Y-56919192D01*
X149741000Y-56823954D01*
X149788619Y-56776335D01*
X149883857Y-56728716D01*
X149979095Y-56728716D01*
X150121952Y-56776335D01*
X150693380Y-57347763D01*
X150693380Y-56728716D01*
X149693380Y-56109668D02*
X149693380Y-56014430D01*
X149741000Y-55919192D01*
X149788619Y-55871573D01*
X149883857Y-55823954D01*
X150074333Y-55776335D01*
X150312428Y-55776335D01*
X150502904Y-55823954D01*
X150598142Y-55871573D01*
X150645761Y-55919192D01*
X150693380Y-56014430D01*
X150693380Y-56109668D01*
X150645761Y-56204906D01*
X150598142Y-56252525D01*
X150502904Y-56300144D01*
X150312428Y-56347763D01*
X150074333Y-56347763D01*
X149883857Y-56300144D01*
X149788619Y-56252525D01*
X149741000Y-56204906D01*
X149693380Y-56109668D01*
X156997660Y-58976497D02*
X156521470Y-59309830D01*
X156997660Y-59547925D02*
X155997660Y-59547925D01*
X155997660Y-59166973D01*
X156045280Y-59071735D01*
X156092899Y-59024116D01*
X156188137Y-58976497D01*
X156330994Y-58976497D01*
X156426232Y-59024116D01*
X156473851Y-59071735D01*
X156521470Y-59166973D01*
X156521470Y-59547925D01*
X156997660Y-58024116D02*
X156997660Y-58595544D01*
X156997660Y-58309830D02*
X155997660Y-58309830D01*
X156140518Y-58405068D01*
X156235756Y-58500306D01*
X156283375Y-58595544D01*
X156997660Y-57547925D02*
X156997660Y-57357449D01*
X156950041Y-57262211D01*
X156902422Y-57214592D01*
X156759565Y-57119354D01*
X156569089Y-57071735D01*
X156188137Y-57071735D01*
X156092899Y-57119354D01*
X156045280Y-57166973D01*
X155997660Y-57262211D01*
X155997660Y-57452687D01*
X156045280Y-57547925D01*
X156092899Y-57595544D01*
X156188137Y-57643163D01*
X156426232Y-57643163D01*
X156521470Y-57595544D01*
X156569089Y-57547925D01*
X156616708Y-57452687D01*
X156616708Y-57262211D01*
X156569089Y-57166973D01*
X156521470Y-57119354D01*
X156426232Y-57071735D01*
X144622780Y-62364857D02*
X144146590Y-62698190D01*
X144622780Y-62936285D02*
X143622780Y-62936285D01*
X143622780Y-62555333D01*
X143670400Y-62460095D01*
X143718019Y-62412476D01*
X143813257Y-62364857D01*
X143956114Y-62364857D01*
X144051352Y-62412476D01*
X144098971Y-62460095D01*
X144146590Y-62555333D01*
X144146590Y-62936285D01*
X144622780Y-61412476D02*
X144622780Y-61983904D01*
X144622780Y-61698190D02*
X143622780Y-61698190D01*
X143765638Y-61793428D01*
X143860876Y-61888666D01*
X143908495Y-61983904D01*
X144051352Y-60841047D02*
X144003733Y-60936285D01*
X143956114Y-60983904D01*
X143860876Y-61031523D01*
X143813257Y-61031523D01*
X143718019Y-60983904D01*
X143670400Y-60936285D01*
X143622780Y-60841047D01*
X143622780Y-60650571D01*
X143670400Y-60555333D01*
X143718019Y-60507714D01*
X143813257Y-60460095D01*
X143860876Y-60460095D01*
X143956114Y-60507714D01*
X144003733Y-60555333D01*
X144051352Y-60650571D01*
X144051352Y-60841047D01*
X144098971Y-60936285D01*
X144146590Y-60983904D01*
X144241828Y-61031523D01*
X144432304Y-61031523D01*
X144527542Y-60983904D01*
X144575161Y-60936285D01*
X144622780Y-60841047D01*
X144622780Y-60650571D01*
X144575161Y-60555333D01*
X144527542Y-60507714D01*
X144432304Y-60460095D01*
X144241828Y-60460095D01*
X144146590Y-60507714D01*
X144098971Y-60555333D01*
X144051352Y-60650571D01*
X138171180Y-62334377D02*
X137694990Y-62667710D01*
X138171180Y-62905805D02*
X137171180Y-62905805D01*
X137171180Y-62524853D01*
X137218800Y-62429615D01*
X137266419Y-62381996D01*
X137361657Y-62334377D01*
X137504514Y-62334377D01*
X137599752Y-62381996D01*
X137647371Y-62429615D01*
X137694990Y-62524853D01*
X137694990Y-62905805D01*
X138171180Y-61381996D02*
X138171180Y-61953424D01*
X138171180Y-61667710D02*
X137171180Y-61667710D01*
X137314038Y-61762948D01*
X137409276Y-61858186D01*
X137456895Y-61953424D01*
X137171180Y-61048662D02*
X137171180Y-60381996D01*
X138171180Y-60810567D01*
X157167342Y-63723780D02*
X156834009Y-63247590D01*
X156595914Y-63723780D02*
X156595914Y-62723780D01*
X156976866Y-62723780D01*
X157072104Y-62771400D01*
X157119723Y-62819019D01*
X157167342Y-62914257D01*
X157167342Y-63057114D01*
X157119723Y-63152352D01*
X157072104Y-63199971D01*
X156976866Y-63247590D01*
X156595914Y-63247590D01*
X158119723Y-63723780D02*
X157548295Y-63723780D01*
X157834009Y-63723780D02*
X157834009Y-62723780D01*
X157738771Y-62866638D01*
X157643533Y-62961876D01*
X157548295Y-63009495D01*
X158976866Y-62723780D02*
X158786390Y-62723780D01*
X158691152Y-62771400D01*
X158643533Y-62819019D01*
X158548295Y-62961876D01*
X158500676Y-63152352D01*
X158500676Y-63533304D01*
X158548295Y-63628542D01*
X158595914Y-63676161D01*
X158691152Y-63723780D01*
X158881628Y-63723780D01*
X158976866Y-63676161D01*
X159024485Y-63628542D01*
X159072104Y-63533304D01*
X159072104Y-63295209D01*
X159024485Y-63199971D01*
X158976866Y-63152352D01*
X158881628Y-63104733D01*
X158691152Y-63104733D01*
X158595914Y-63152352D01*
X158548295Y-63199971D01*
X158500676Y-63295209D01*
X151912580Y-56888617D02*
X151436390Y-57221950D01*
X151912580Y-57460045D02*
X150912580Y-57460045D01*
X150912580Y-57079093D01*
X150960200Y-56983855D01*
X151007819Y-56936236D01*
X151103057Y-56888617D01*
X151245914Y-56888617D01*
X151341152Y-56936236D01*
X151388771Y-56983855D01*
X151436390Y-57079093D01*
X151436390Y-57460045D01*
X151912580Y-55936236D02*
X151912580Y-56507664D01*
X151912580Y-56221950D02*
X150912580Y-56221950D01*
X151055438Y-56317188D01*
X151150676Y-56412426D01*
X151198295Y-56507664D01*
X150912580Y-55031474D02*
X150912580Y-55507664D01*
X151388771Y-55555283D01*
X151341152Y-55507664D01*
X151293533Y-55412426D01*
X151293533Y-55174331D01*
X151341152Y-55079093D01*
X151388771Y-55031474D01*
X151484009Y-54983855D01*
X151722104Y-54983855D01*
X151817342Y-55031474D01*
X151864961Y-55079093D01*
X151912580Y-55174331D01*
X151912580Y-55412426D01*
X151864961Y-55507664D01*
X151817342Y-55555283D01*
X135621020Y-65036937D02*
X135144830Y-65370270D01*
X135621020Y-65608365D02*
X134621020Y-65608365D01*
X134621020Y-65227413D01*
X134668640Y-65132175D01*
X134716259Y-65084556D01*
X134811497Y-65036937D01*
X134954354Y-65036937D01*
X135049592Y-65084556D01*
X135097211Y-65132175D01*
X135144830Y-65227413D01*
X135144830Y-65608365D01*
X135621020Y-64084556D02*
X135621020Y-64655984D01*
X135621020Y-64370270D02*
X134621020Y-64370270D01*
X134763878Y-64465508D01*
X134859116Y-64560746D01*
X134906735Y-64655984D01*
X134954354Y-63227413D02*
X135621020Y-63227413D01*
X134573401Y-63465508D02*
X135287687Y-63703603D01*
X135287687Y-63084556D01*
X149778980Y-62385177D02*
X149302790Y-62718510D01*
X149778980Y-62956605D02*
X148778980Y-62956605D01*
X148778980Y-62575653D01*
X148826600Y-62480415D01*
X148874219Y-62432796D01*
X148969457Y-62385177D01*
X149112314Y-62385177D01*
X149207552Y-62432796D01*
X149255171Y-62480415D01*
X149302790Y-62575653D01*
X149302790Y-62956605D01*
X149778980Y-61432796D02*
X149778980Y-62004224D01*
X149778980Y-61718510D02*
X148778980Y-61718510D01*
X148921838Y-61813748D01*
X149017076Y-61908986D01*
X149064695Y-62004224D01*
X148874219Y-61051843D02*
X148826600Y-61004224D01*
X148778980Y-60908986D01*
X148778980Y-60670891D01*
X148826600Y-60575653D01*
X148874219Y-60528034D01*
X148969457Y-60480415D01*
X149064695Y-60480415D01*
X149207552Y-60528034D01*
X149778980Y-61099462D01*
X149778980Y-60480415D01*
X153121620Y-55933577D02*
X152645430Y-56266910D01*
X153121620Y-56505005D02*
X152121620Y-56505005D01*
X152121620Y-56124053D01*
X152169240Y-56028815D01*
X152216859Y-55981196D01*
X152312097Y-55933577D01*
X152454954Y-55933577D01*
X152550192Y-55981196D01*
X152597811Y-56028815D01*
X152645430Y-56124053D01*
X152645430Y-56505005D01*
X153121620Y-54981196D02*
X153121620Y-55552624D01*
X153121620Y-55266910D02*
X152121620Y-55266910D01*
X152264478Y-55362148D01*
X152359716Y-55457386D01*
X152407335Y-55552624D01*
X153121620Y-54028815D02*
X153121620Y-54600243D01*
X153121620Y-54314529D02*
X152121620Y-54314529D01*
X152264478Y-54409767D01*
X152359716Y-54505005D01*
X152407335Y-54600243D01*
X148493740Y-62369937D02*
X148017550Y-62703270D01*
X148493740Y-62941365D02*
X147493740Y-62941365D01*
X147493740Y-62560413D01*
X147541360Y-62465175D01*
X147588979Y-62417556D01*
X147684217Y-62369937D01*
X147827074Y-62369937D01*
X147922312Y-62417556D01*
X147969931Y-62465175D01*
X148017550Y-62560413D01*
X148017550Y-62941365D01*
X148493740Y-61417556D02*
X148493740Y-61988984D01*
X148493740Y-61703270D02*
X147493740Y-61703270D01*
X147636598Y-61798508D01*
X147731836Y-61893746D01*
X147779455Y-61988984D01*
X147493740Y-60798508D02*
X147493740Y-60703270D01*
X147541360Y-60608032D01*
X147588979Y-60560413D01*
X147684217Y-60512794D01*
X147874693Y-60465175D01*
X148112788Y-60465175D01*
X148303264Y-60512794D01*
X148398502Y-60560413D01*
X148446121Y-60608032D01*
X148493740Y-60703270D01*
X148493740Y-60798508D01*
X148446121Y-60893746D01*
X148398502Y-60941365D01*
X148303264Y-60988984D01*
X148112788Y-61036603D01*
X147874693Y-61036603D01*
X147684217Y-60988984D01*
X147588979Y-60941365D01*
X147541360Y-60893746D01*
X147493740Y-60798508D01*
X142062460Y-62325546D02*
X141586270Y-62658880D01*
X142062460Y-62896975D02*
X141062460Y-62896975D01*
X141062460Y-62516022D01*
X141110080Y-62420784D01*
X141157699Y-62373165D01*
X141252937Y-62325546D01*
X141395794Y-62325546D01*
X141491032Y-62373165D01*
X141538651Y-62420784D01*
X141586270Y-62516022D01*
X141586270Y-62896975D01*
X142062460Y-61849356D02*
X142062460Y-61658880D01*
X142014841Y-61563641D01*
X141967222Y-61516022D01*
X141824365Y-61420784D01*
X141633889Y-61373165D01*
X141252937Y-61373165D01*
X141157699Y-61420784D01*
X141110080Y-61468403D01*
X141062460Y-61563641D01*
X141062460Y-61754118D01*
X141110080Y-61849356D01*
X141157699Y-61896975D01*
X141252937Y-61944594D01*
X141491032Y-61944594D01*
X141586270Y-61896975D01*
X141633889Y-61849356D01*
X141681508Y-61754118D01*
X141681508Y-61563641D01*
X141633889Y-61468403D01*
X141586270Y-61420784D01*
X141491032Y-61373165D01*
X154327931Y-82990939D02*
X154232693Y-82943320D01*
X154137455Y-82848081D01*
X153994598Y-82705224D01*
X153899360Y-82657605D01*
X153804121Y-82657605D01*
X153851740Y-82895700D02*
X153756502Y-82848081D01*
X153661264Y-82752843D01*
X153613645Y-82562367D01*
X153613645Y-82229034D01*
X153661264Y-82038558D01*
X153756502Y-81943320D01*
X153851740Y-81895700D01*
X154042217Y-81895700D01*
X154137455Y-81943320D01*
X154232693Y-82038558D01*
X154280312Y-82229034D01*
X154280312Y-82562367D01*
X154232693Y-82752843D01*
X154137455Y-82848081D01*
X154042217Y-82895700D01*
X153851740Y-82895700D01*
X154661264Y-81990939D02*
X154708883Y-81943320D01*
X154804121Y-81895700D01*
X155042217Y-81895700D01*
X155137455Y-81943320D01*
X155185074Y-81990939D01*
X155232693Y-82086177D01*
X155232693Y-82181415D01*
X155185074Y-82324272D01*
X154613645Y-82895700D01*
X155232693Y-82895700D01*
X156185074Y-82895700D02*
X155613645Y-82895700D01*
X155899360Y-82895700D02*
X155899360Y-81895700D01*
X155804121Y-82038558D01*
X155708883Y-82133796D01*
X155613645Y-82181415D01*
X155228539Y-69313988D02*
X155180920Y-69409226D01*
X155085681Y-69504464D01*
X154942824Y-69647321D01*
X154895205Y-69742560D01*
X154895205Y-69837798D01*
X155133300Y-69790179D02*
X155085681Y-69885417D01*
X154990443Y-69980655D01*
X154799967Y-70028274D01*
X154466634Y-70028274D01*
X154276158Y-69980655D01*
X154180920Y-69885417D01*
X154133300Y-69790179D01*
X154133300Y-69599702D01*
X154180920Y-69504464D01*
X154276158Y-69409226D01*
X154466634Y-69361607D01*
X154799967Y-69361607D01*
X154990443Y-69409226D01*
X155085681Y-69504464D01*
X155133300Y-69599702D01*
X155133300Y-69790179D01*
X154228539Y-68980655D02*
X154180920Y-68933036D01*
X154133300Y-68837798D01*
X154133300Y-68599702D01*
X154180920Y-68504464D01*
X154228539Y-68456845D01*
X154323777Y-68409226D01*
X154419015Y-68409226D01*
X154561872Y-68456845D01*
X155133300Y-69028274D01*
X155133300Y-68409226D01*
X154133300Y-67790179D02*
X154133300Y-67694940D01*
X154180920Y-67599702D01*
X154228539Y-67552083D01*
X154323777Y-67504464D01*
X154514253Y-67456845D01*
X154752348Y-67456845D01*
X154942824Y-67504464D01*
X155038062Y-67552083D01*
X155085681Y-67599702D01*
X155133300Y-67694940D01*
X155133300Y-67790179D01*
X155085681Y-67885417D01*
X155038062Y-67933036D01*
X154942824Y-67980655D01*
X154752348Y-68028274D01*
X154514253Y-68028274D01*
X154323777Y-67980655D01*
X154228539Y-67933036D01*
X154180920Y-67885417D01*
X154133300Y-67790179D01*
X137350571Y-84616539D02*
X137255333Y-84568920D01*
X137160095Y-84473681D01*
X137017238Y-84330824D01*
X136922000Y-84283205D01*
X136826761Y-84283205D01*
X136874380Y-84521300D02*
X136779142Y-84473681D01*
X136683904Y-84378443D01*
X136636285Y-84187967D01*
X136636285Y-83854634D01*
X136683904Y-83664158D01*
X136779142Y-83568920D01*
X136874380Y-83521300D01*
X137064857Y-83521300D01*
X137160095Y-83568920D01*
X137255333Y-83664158D01*
X137302952Y-83854634D01*
X137302952Y-84187967D01*
X137255333Y-84378443D01*
X137160095Y-84473681D01*
X137064857Y-84521300D01*
X136874380Y-84521300D01*
X138255333Y-84521300D02*
X137683904Y-84521300D01*
X137969619Y-84521300D02*
X137969619Y-83521300D01*
X137874380Y-83664158D01*
X137779142Y-83759396D01*
X137683904Y-83807015D01*
X138731523Y-84521300D02*
X138922000Y-84521300D01*
X139017238Y-84473681D01*
X139064857Y-84426062D01*
X139160095Y-84283205D01*
X139207714Y-84092729D01*
X139207714Y-83711777D01*
X139160095Y-83616539D01*
X139112476Y-83568920D01*
X139017238Y-83521300D01*
X138826761Y-83521300D01*
X138731523Y-83568920D01*
X138683904Y-83616539D01*
X138636285Y-83711777D01*
X138636285Y-83949872D01*
X138683904Y-84045110D01*
X138731523Y-84092729D01*
X138826761Y-84140348D01*
X139017238Y-84140348D01*
X139112476Y-84092729D01*
X139160095Y-84045110D01*
X139207714Y-83949872D01*
X140881171Y-68380859D02*
X140785933Y-68333240D01*
X140690695Y-68238001D01*
X140547838Y-68095144D01*
X140452600Y-68047525D01*
X140357361Y-68047525D01*
X140404980Y-68285620D02*
X140309742Y-68238001D01*
X140214504Y-68142763D01*
X140166885Y-67952287D01*
X140166885Y-67618954D01*
X140214504Y-67428478D01*
X140309742Y-67333240D01*
X140404980Y-67285620D01*
X140595457Y-67285620D01*
X140690695Y-67333240D01*
X140785933Y-67428478D01*
X140833552Y-67618954D01*
X140833552Y-67952287D01*
X140785933Y-68142763D01*
X140690695Y-68238001D01*
X140595457Y-68285620D01*
X140404980Y-68285620D01*
X141785933Y-68285620D02*
X141214504Y-68285620D01*
X141500219Y-68285620D02*
X141500219Y-67285620D01*
X141404980Y-67428478D01*
X141309742Y-67523716D01*
X141214504Y-67571335D01*
X142357361Y-67714192D02*
X142262123Y-67666573D01*
X142214504Y-67618954D01*
X142166885Y-67523716D01*
X142166885Y-67476097D01*
X142214504Y-67380859D01*
X142262123Y-67333240D01*
X142357361Y-67285620D01*
X142547838Y-67285620D01*
X142643076Y-67333240D01*
X142690695Y-67380859D01*
X142738314Y-67476097D01*
X142738314Y-67523716D01*
X142690695Y-67618954D01*
X142643076Y-67666573D01*
X142547838Y-67714192D01*
X142357361Y-67714192D01*
X142262123Y-67761811D01*
X142214504Y-67809430D01*
X142166885Y-67904668D01*
X142166885Y-68095144D01*
X142214504Y-68190382D01*
X142262123Y-68238001D01*
X142357361Y-68285620D01*
X142547838Y-68285620D01*
X142643076Y-68238001D01*
X142690695Y-68190382D01*
X142738314Y-68095144D01*
X142738314Y-67904668D01*
X142690695Y-67809430D01*
X142643076Y-67761811D01*
X142547838Y-67714192D01*
X150727659Y-84188228D02*
X150680040Y-84283466D01*
X150584801Y-84378704D01*
X150441944Y-84521561D01*
X150394325Y-84616800D01*
X150394325Y-84712038D01*
X150632420Y-84664419D02*
X150584801Y-84759657D01*
X150489563Y-84854895D01*
X150299087Y-84902514D01*
X149965754Y-84902514D01*
X149775278Y-84854895D01*
X149680040Y-84759657D01*
X149632420Y-84664419D01*
X149632420Y-84473942D01*
X149680040Y-84378704D01*
X149775278Y-84283466D01*
X149965754Y-84235847D01*
X150299087Y-84235847D01*
X150489563Y-84283466D01*
X150584801Y-84378704D01*
X150632420Y-84473942D01*
X150632420Y-84664419D01*
X150632420Y-83283466D02*
X150632420Y-83854895D01*
X150632420Y-83569180D02*
X149632420Y-83569180D01*
X149775278Y-83664419D01*
X149870516Y-83759657D01*
X149918135Y-83854895D01*
X149632420Y-82950133D02*
X149632420Y-82283466D01*
X150632420Y-82712038D01*
X154114571Y-72602339D02*
X154019333Y-72554720D01*
X153924095Y-72459481D01*
X153781238Y-72316624D01*
X153686000Y-72269005D01*
X153590761Y-72269005D01*
X153638380Y-72507100D02*
X153543142Y-72459481D01*
X153447904Y-72364243D01*
X153400285Y-72173767D01*
X153400285Y-71840434D01*
X153447904Y-71649958D01*
X153543142Y-71554720D01*
X153638380Y-71507100D01*
X153828857Y-71507100D01*
X153924095Y-71554720D01*
X154019333Y-71649958D01*
X154066952Y-71840434D01*
X154066952Y-72173767D01*
X154019333Y-72364243D01*
X153924095Y-72459481D01*
X153828857Y-72507100D01*
X153638380Y-72507100D01*
X155019333Y-72507100D02*
X154447904Y-72507100D01*
X154733619Y-72507100D02*
X154733619Y-71507100D01*
X154638380Y-71649958D01*
X154543142Y-71745196D01*
X154447904Y-71792815D01*
X155876476Y-71507100D02*
X155686000Y-71507100D01*
X155590761Y-71554720D01*
X155543142Y-71602339D01*
X155447904Y-71745196D01*
X155400285Y-71935672D01*
X155400285Y-72316624D01*
X155447904Y-72411862D01*
X155495523Y-72459481D01*
X155590761Y-72507100D01*
X155781238Y-72507100D01*
X155876476Y-72459481D01*
X155924095Y-72411862D01*
X155971714Y-72316624D01*
X155971714Y-72078529D01*
X155924095Y-71983291D01*
X155876476Y-71935672D01*
X155781238Y-71888053D01*
X155590761Y-71888053D01*
X155495523Y-71935672D01*
X155447904Y-71983291D01*
X155400285Y-72078529D01*
X144052539Y-84289828D02*
X144004920Y-84385066D01*
X143909681Y-84480304D01*
X143766824Y-84623161D01*
X143719205Y-84718400D01*
X143719205Y-84813638D01*
X143957300Y-84766019D02*
X143909681Y-84861257D01*
X143814443Y-84956495D01*
X143623967Y-85004114D01*
X143290634Y-85004114D01*
X143100158Y-84956495D01*
X143004920Y-84861257D01*
X142957300Y-84766019D01*
X142957300Y-84575542D01*
X143004920Y-84480304D01*
X143100158Y-84385066D01*
X143290634Y-84337447D01*
X143623967Y-84337447D01*
X143814443Y-84385066D01*
X143909681Y-84480304D01*
X143957300Y-84575542D01*
X143957300Y-84766019D01*
X143957300Y-83385066D02*
X143957300Y-83956495D01*
X143957300Y-83670780D02*
X142957300Y-83670780D01*
X143100158Y-83766019D01*
X143195396Y-83861257D01*
X143243015Y-83956495D01*
X142957300Y-82480304D02*
X142957300Y-82956495D01*
X143433491Y-83004114D01*
X143385872Y-82956495D01*
X143338253Y-82861257D01*
X143338253Y-82623161D01*
X143385872Y-82527923D01*
X143433491Y-82480304D01*
X143528729Y-82432685D01*
X143766824Y-82432685D01*
X143862062Y-82480304D01*
X143909681Y-82527923D01*
X143957300Y-82623161D01*
X143957300Y-82861257D01*
X143909681Y-82956495D01*
X143862062Y-83004114D01*
X135787379Y-72880148D02*
X135739760Y-72975386D01*
X135644521Y-73070624D01*
X135501664Y-73213481D01*
X135454045Y-73308720D01*
X135454045Y-73403958D01*
X135692140Y-73356339D02*
X135644521Y-73451577D01*
X135549283Y-73546815D01*
X135358807Y-73594434D01*
X135025474Y-73594434D01*
X134834998Y-73546815D01*
X134739760Y-73451577D01*
X134692140Y-73356339D01*
X134692140Y-73165862D01*
X134739760Y-73070624D01*
X134834998Y-72975386D01*
X135025474Y-72927767D01*
X135358807Y-72927767D01*
X135549283Y-72975386D01*
X135644521Y-73070624D01*
X135692140Y-73165862D01*
X135692140Y-73356339D01*
X135692140Y-71975386D02*
X135692140Y-72546815D01*
X135692140Y-72261100D02*
X134692140Y-72261100D01*
X134834998Y-72356339D01*
X134930236Y-72451577D01*
X134977855Y-72546815D01*
X135025474Y-71118243D02*
X135692140Y-71118243D01*
X134644521Y-71356339D02*
X135358807Y-71594434D01*
X135358807Y-70975386D01*
X158378139Y-74231428D02*
X158330520Y-74326666D01*
X158235281Y-74421904D01*
X158092424Y-74564761D01*
X158044805Y-74660000D01*
X158044805Y-74755238D01*
X158282900Y-74707619D02*
X158235281Y-74802857D01*
X158140043Y-74898095D01*
X157949567Y-74945714D01*
X157616234Y-74945714D01*
X157425758Y-74898095D01*
X157330520Y-74802857D01*
X157282900Y-74707619D01*
X157282900Y-74517142D01*
X157330520Y-74421904D01*
X157425758Y-74326666D01*
X157616234Y-74279047D01*
X157949567Y-74279047D01*
X158140043Y-74326666D01*
X158235281Y-74421904D01*
X158282900Y-74517142D01*
X158282900Y-74707619D01*
X158282900Y-73326666D02*
X158282900Y-73898095D01*
X158282900Y-73612380D02*
X157282900Y-73612380D01*
X157425758Y-73707619D01*
X157520996Y-73802857D01*
X157568615Y-73898095D01*
X157282900Y-72993333D02*
X157282900Y-72374285D01*
X157663853Y-72707619D01*
X157663853Y-72564761D01*
X157711472Y-72469523D01*
X157759091Y-72421904D01*
X157854329Y-72374285D01*
X158092424Y-72374285D01*
X158187662Y-72421904D01*
X158235281Y-72469523D01*
X158282900Y-72564761D01*
X158282900Y-72850476D01*
X158235281Y-72945714D01*
X158187662Y-72993333D01*
X150834339Y-87967748D02*
X150786720Y-88062986D01*
X150691481Y-88158224D01*
X150548624Y-88301081D01*
X150501005Y-88396320D01*
X150501005Y-88491558D01*
X150739100Y-88443939D02*
X150691481Y-88539177D01*
X150596243Y-88634415D01*
X150405767Y-88682034D01*
X150072434Y-88682034D01*
X149881958Y-88634415D01*
X149786720Y-88539177D01*
X149739100Y-88443939D01*
X149739100Y-88253462D01*
X149786720Y-88158224D01*
X149881958Y-88062986D01*
X150072434Y-88015367D01*
X150405767Y-88015367D01*
X150596243Y-88062986D01*
X150691481Y-88158224D01*
X150739100Y-88253462D01*
X150739100Y-88443939D01*
X150739100Y-87062986D02*
X150739100Y-87634415D01*
X150739100Y-87348700D02*
X149739100Y-87348700D01*
X149881958Y-87443939D01*
X149977196Y-87539177D01*
X150024815Y-87634415D01*
X149834339Y-86682034D02*
X149786720Y-86634415D01*
X149739100Y-86539177D01*
X149739100Y-86301081D01*
X149786720Y-86205843D01*
X149834339Y-86158224D01*
X149929577Y-86110605D01*
X150024815Y-86110605D01*
X150167672Y-86158224D01*
X150739100Y-86729653D01*
X150739100Y-86110605D01*
X143991579Y-75765588D02*
X143943960Y-75860826D01*
X143848721Y-75956064D01*
X143705864Y-76098921D01*
X143658245Y-76194160D01*
X143658245Y-76289398D01*
X143896340Y-76241779D02*
X143848721Y-76337017D01*
X143753483Y-76432255D01*
X143563007Y-76479874D01*
X143229674Y-76479874D01*
X143039198Y-76432255D01*
X142943960Y-76337017D01*
X142896340Y-76241779D01*
X142896340Y-76051302D01*
X142943960Y-75956064D01*
X143039198Y-75860826D01*
X143229674Y-75813207D01*
X143563007Y-75813207D01*
X143753483Y-75860826D01*
X143848721Y-75956064D01*
X143896340Y-76051302D01*
X143896340Y-76241779D01*
X143896340Y-74860826D02*
X143896340Y-75432255D01*
X143896340Y-75146540D02*
X142896340Y-75146540D01*
X143039198Y-75241779D01*
X143134436Y-75337017D01*
X143182055Y-75432255D01*
X143896340Y-73908445D02*
X143896340Y-74479874D01*
X143896340Y-74194160D02*
X142896340Y-74194160D01*
X143039198Y-74289398D01*
X143134436Y-74384636D01*
X143182055Y-74479874D01*
X137355651Y-89041219D02*
X137260413Y-88993600D01*
X137165175Y-88898361D01*
X137022318Y-88755504D01*
X136927080Y-88707885D01*
X136831841Y-88707885D01*
X136879460Y-88945980D02*
X136784222Y-88898361D01*
X136688984Y-88803123D01*
X136641365Y-88612647D01*
X136641365Y-88279314D01*
X136688984Y-88088838D01*
X136784222Y-87993600D01*
X136879460Y-87945980D01*
X137069937Y-87945980D01*
X137165175Y-87993600D01*
X137260413Y-88088838D01*
X137308032Y-88279314D01*
X137308032Y-88612647D01*
X137260413Y-88803123D01*
X137165175Y-88898361D01*
X137069937Y-88945980D01*
X136879460Y-88945980D01*
X138260413Y-88945980D02*
X137688984Y-88945980D01*
X137974699Y-88945980D02*
X137974699Y-87945980D01*
X137879460Y-88088838D01*
X137784222Y-88184076D01*
X137688984Y-88231695D01*
X138879460Y-87945980D02*
X138974699Y-87945980D01*
X139069937Y-87993600D01*
X139117556Y-88041219D01*
X139165175Y-88136457D01*
X139212794Y-88326933D01*
X139212794Y-88565028D01*
X139165175Y-88755504D01*
X139117556Y-88850742D01*
X139069937Y-88898361D01*
X138974699Y-88945980D01*
X138879460Y-88945980D01*
X138784222Y-88898361D01*
X138736603Y-88850742D01*
X138688984Y-88755504D01*
X138641365Y-88565028D01*
X138641365Y-88326933D01*
X138688984Y-88136457D01*
X138736603Y-88041219D01*
X138784222Y-87993600D01*
X138879460Y-87945980D01*
X141966961Y-96925379D02*
X141871723Y-96877760D01*
X141776485Y-96782521D01*
X141633628Y-96639664D01*
X141538390Y-96592045D01*
X141443152Y-96592045D01*
X141490771Y-96830140D02*
X141395533Y-96782521D01*
X141300295Y-96687283D01*
X141252676Y-96496807D01*
X141252676Y-96163474D01*
X141300295Y-95972998D01*
X141395533Y-95877760D01*
X141490771Y-95830140D01*
X141681247Y-95830140D01*
X141776485Y-95877760D01*
X141871723Y-95972998D01*
X141919342Y-96163474D01*
X141919342Y-96496807D01*
X141871723Y-96687283D01*
X141776485Y-96782521D01*
X141681247Y-96830140D01*
X141490771Y-96830140D01*
X142395533Y-96830140D02*
X142586009Y-96830140D01*
X142681247Y-96782521D01*
X142728866Y-96734902D01*
X142824104Y-96592045D01*
X142871723Y-96401569D01*
X142871723Y-96020617D01*
X142824104Y-95925379D01*
X142776485Y-95877760D01*
X142681247Y-95830140D01*
X142490771Y-95830140D01*
X142395533Y-95877760D01*
X142347914Y-95925379D01*
X142300295Y-96020617D01*
X142300295Y-96258712D01*
X142347914Y-96353950D01*
X142395533Y-96401569D01*
X142490771Y-96449188D01*
X142681247Y-96449188D01*
X142776485Y-96401569D01*
X142824104Y-96353950D01*
X142871723Y-96258712D01*
X154392641Y-77504539D02*
X154297403Y-77456920D01*
X154202165Y-77361681D01*
X154059308Y-77218824D01*
X153964070Y-77171205D01*
X153868832Y-77171205D01*
X153916451Y-77409300D02*
X153821213Y-77361681D01*
X153725975Y-77266443D01*
X153678356Y-77075967D01*
X153678356Y-76742634D01*
X153725975Y-76552158D01*
X153821213Y-76456920D01*
X153916451Y-76409300D01*
X154106927Y-76409300D01*
X154202165Y-76456920D01*
X154297403Y-76552158D01*
X154345022Y-76742634D01*
X154345022Y-77075967D01*
X154297403Y-77266443D01*
X154202165Y-77361681D01*
X154106927Y-77409300D01*
X153916451Y-77409300D01*
X154916451Y-76837872D02*
X154821213Y-76790253D01*
X154773594Y-76742634D01*
X154725975Y-76647396D01*
X154725975Y-76599777D01*
X154773594Y-76504539D01*
X154821213Y-76456920D01*
X154916451Y-76409300D01*
X155106927Y-76409300D01*
X155202165Y-76456920D01*
X155249784Y-76504539D01*
X155297403Y-76599777D01*
X155297403Y-76647396D01*
X155249784Y-76742634D01*
X155202165Y-76790253D01*
X155106927Y-76837872D01*
X154916451Y-76837872D01*
X154821213Y-76885491D01*
X154773594Y-76933110D01*
X154725975Y-77028348D01*
X154725975Y-77218824D01*
X154773594Y-77314062D01*
X154821213Y-77361681D01*
X154916451Y-77409300D01*
X155106927Y-77409300D01*
X155202165Y-77361681D01*
X155249784Y-77314062D01*
X155297403Y-77218824D01*
X155297403Y-77028348D01*
X155249784Y-76933110D01*
X155202165Y-76885491D01*
X155106927Y-76837872D01*
X145406121Y-92114619D02*
X145310883Y-92067000D01*
X145215645Y-91971761D01*
X145072788Y-91828904D01*
X144977550Y-91781285D01*
X144882312Y-91781285D01*
X144929931Y-92019380D02*
X144834693Y-91971761D01*
X144739455Y-91876523D01*
X144691836Y-91686047D01*
X144691836Y-91352714D01*
X144739455Y-91162238D01*
X144834693Y-91067000D01*
X144929931Y-91019380D01*
X145120407Y-91019380D01*
X145215645Y-91067000D01*
X145310883Y-91162238D01*
X145358502Y-91352714D01*
X145358502Y-91686047D01*
X145310883Y-91876523D01*
X145215645Y-91971761D01*
X145120407Y-92019380D01*
X144929931Y-92019380D01*
X145691836Y-91019380D02*
X146358502Y-91019380D01*
X145929931Y-92019380D01*
X135817859Y-76269838D02*
X135770240Y-76365076D01*
X135675001Y-76460314D01*
X135532144Y-76603171D01*
X135484525Y-76698409D01*
X135484525Y-76793647D01*
X135722620Y-76746028D02*
X135675001Y-76841266D01*
X135579763Y-76936504D01*
X135389287Y-76984123D01*
X135055954Y-76984123D01*
X134865478Y-76936504D01*
X134770240Y-76841266D01*
X134722620Y-76746028D01*
X134722620Y-76555552D01*
X134770240Y-76460314D01*
X134865478Y-76365076D01*
X135055954Y-76317457D01*
X135389287Y-76317457D01*
X135579763Y-76365076D01*
X135675001Y-76460314D01*
X135722620Y-76555552D01*
X135722620Y-76746028D01*
X134722620Y-75460314D02*
X134722620Y-75650790D01*
X134770240Y-75746028D01*
X134817859Y-75793647D01*
X134960716Y-75888885D01*
X135151192Y-75936504D01*
X135532144Y-75936504D01*
X135627382Y-75888885D01*
X135675001Y-75841266D01*
X135722620Y-75746028D01*
X135722620Y-75555552D01*
X135675001Y-75460314D01*
X135627382Y-75412695D01*
X135532144Y-75365076D01*
X135294049Y-75365076D01*
X135198811Y-75412695D01*
X135151192Y-75460314D01*
X135103573Y-75555552D01*
X135103573Y-75746028D01*
X135151192Y-75841266D01*
X135198811Y-75888885D01*
X135294049Y-75936504D01*
X149592041Y-66780659D02*
X149496803Y-66733040D01*
X149401565Y-66637801D01*
X149258708Y-66494944D01*
X149163470Y-66447325D01*
X149068232Y-66447325D01*
X149115851Y-66685420D02*
X149020613Y-66637801D01*
X148925375Y-66542563D01*
X148877756Y-66352087D01*
X148877756Y-66018754D01*
X148925375Y-65828278D01*
X149020613Y-65733040D01*
X149115851Y-65685420D01*
X149306327Y-65685420D01*
X149401565Y-65733040D01*
X149496803Y-65828278D01*
X149544422Y-66018754D01*
X149544422Y-66352087D01*
X149496803Y-66542563D01*
X149401565Y-66637801D01*
X149306327Y-66685420D01*
X149115851Y-66685420D01*
X150449184Y-65685420D02*
X149972994Y-65685420D01*
X149925375Y-66161611D01*
X149972994Y-66113992D01*
X150068232Y-66066373D01*
X150306327Y-66066373D01*
X150401565Y-66113992D01*
X150449184Y-66161611D01*
X150496803Y-66256849D01*
X150496803Y-66494944D01*
X150449184Y-66590182D01*
X150401565Y-66637801D01*
X150306327Y-66685420D01*
X150068232Y-66685420D01*
X149972994Y-66637801D01*
X149925375Y-66590182D01*
X152416521Y-79887059D02*
X152321283Y-79839440D01*
X152226045Y-79744201D01*
X152083188Y-79601344D01*
X151987950Y-79553725D01*
X151892712Y-79553725D01*
X151940331Y-79791820D02*
X151845093Y-79744201D01*
X151749855Y-79648963D01*
X151702236Y-79458487D01*
X151702236Y-79125154D01*
X151749855Y-78934678D01*
X151845093Y-78839440D01*
X151940331Y-78791820D01*
X152130807Y-78791820D01*
X152226045Y-78839440D01*
X152321283Y-78934678D01*
X152368902Y-79125154D01*
X152368902Y-79458487D01*
X152321283Y-79648963D01*
X152226045Y-79744201D01*
X152130807Y-79791820D01*
X151940331Y-79791820D01*
X153226045Y-79125154D02*
X153226045Y-79791820D01*
X152987950Y-78744201D02*
X152749855Y-79458487D01*
X153368902Y-79458487D01*
X146437361Y-70804019D02*
X146342123Y-70756400D01*
X146246885Y-70661161D01*
X146104028Y-70518304D01*
X146008790Y-70470685D01*
X145913552Y-70470685D01*
X145961171Y-70708780D02*
X145865933Y-70661161D01*
X145770695Y-70565923D01*
X145723076Y-70375447D01*
X145723076Y-70042114D01*
X145770695Y-69851638D01*
X145865933Y-69756400D01*
X145961171Y-69708780D01*
X146151647Y-69708780D01*
X146246885Y-69756400D01*
X146342123Y-69851638D01*
X146389742Y-70042114D01*
X146389742Y-70375447D01*
X146342123Y-70565923D01*
X146246885Y-70661161D01*
X146151647Y-70708780D01*
X145961171Y-70708780D01*
X146723076Y-69708780D02*
X147342123Y-69708780D01*
X147008790Y-70089733D01*
X147151647Y-70089733D01*
X147246885Y-70137352D01*
X147294504Y-70184971D01*
X147342123Y-70280209D01*
X147342123Y-70518304D01*
X147294504Y-70613542D01*
X147246885Y-70661161D01*
X147151647Y-70708780D01*
X146865933Y-70708780D01*
X146770695Y-70661161D01*
X146723076Y-70613542D01*
X144027139Y-78647278D02*
X143979520Y-78742516D01*
X143884281Y-78837754D01*
X143741424Y-78980611D01*
X143693805Y-79075849D01*
X143693805Y-79171087D01*
X143931900Y-79123468D02*
X143884281Y-79218706D01*
X143789043Y-79313944D01*
X143598567Y-79361563D01*
X143265234Y-79361563D01*
X143074758Y-79313944D01*
X142979520Y-79218706D01*
X142931900Y-79123468D01*
X142931900Y-78932992D01*
X142979520Y-78837754D01*
X143074758Y-78742516D01*
X143265234Y-78694897D01*
X143598567Y-78694897D01*
X143789043Y-78742516D01*
X143884281Y-78837754D01*
X143931900Y-78932992D01*
X143931900Y-79123468D01*
X143027139Y-78313944D02*
X142979520Y-78266325D01*
X142931900Y-78171087D01*
X142931900Y-77932992D01*
X142979520Y-77837754D01*
X143027139Y-77790135D01*
X143122377Y-77742516D01*
X143217615Y-77742516D01*
X143360472Y-77790135D01*
X143931900Y-78361563D01*
X143931900Y-77742516D01*
X112861980Y-43970533D02*
X113576266Y-43970533D01*
X113719123Y-44018152D01*
X113814361Y-44113390D01*
X113861980Y-44256247D01*
X113861980Y-44351485D01*
X113861980Y-42970533D02*
X113861980Y-43541961D01*
X113861980Y-43256247D02*
X112861980Y-43256247D01*
X113004838Y-43351485D01*
X113100076Y-43446723D01*
X113147695Y-43541961D01*
X147159742Y-54001942D02*
X147112123Y-54049561D01*
X146969266Y-54097180D01*
X146874028Y-54097180D01*
X146731171Y-54049561D01*
X146635933Y-53954323D01*
X146588314Y-53859085D01*
X146540695Y-53668609D01*
X146540695Y-53525752D01*
X146588314Y-53335276D01*
X146635933Y-53240038D01*
X146731171Y-53144800D01*
X146874028Y-53097180D01*
X146969266Y-53097180D01*
X147112123Y-53144800D01*
X147159742Y-53192419D01*
X148112123Y-54097180D02*
X147540695Y-54097180D01*
X147826409Y-54097180D02*
X147826409Y-53097180D01*
X147731171Y-53240038D01*
X147635933Y-53335276D01*
X147540695Y-53382895D01*
X148445457Y-53097180D02*
X149112123Y-53097180D01*
X148683552Y-54097180D01*
X133813822Y-47226457D02*
X133861441Y-47274076D01*
X133909060Y-47416933D01*
X133909060Y-47512171D01*
X133861441Y-47655028D01*
X133766203Y-47750266D01*
X133670965Y-47797885D01*
X133480489Y-47845504D01*
X133337632Y-47845504D01*
X133147156Y-47797885D01*
X133051918Y-47750266D01*
X132956680Y-47655028D01*
X132909060Y-47512171D01*
X132909060Y-47416933D01*
X132956680Y-47274076D01*
X133004299Y-47226457D01*
X133909060Y-46274076D02*
X133909060Y-46845504D01*
X133909060Y-46559790D02*
X132909060Y-46559790D01*
X133051918Y-46655028D01*
X133147156Y-46750266D01*
X133194775Y-46845504D01*
X132909060Y-45416933D02*
X132909060Y-45607409D01*
X132956680Y-45702647D01*
X133004299Y-45750266D01*
X133147156Y-45845504D01*
X133337632Y-45893123D01*
X133718584Y-45893123D01*
X133813822Y-45845504D01*
X133861441Y-45797885D01*
X133909060Y-45702647D01*
X133909060Y-45512171D01*
X133861441Y-45416933D01*
X133813822Y-45369314D01*
X133718584Y-45321695D01*
X133480489Y-45321695D01*
X133385251Y-45369314D01*
X133337632Y-45416933D01*
X133290013Y-45512171D01*
X133290013Y-45702647D01*
X133337632Y-45797885D01*
X133385251Y-45845504D01*
X133480489Y-45893123D01*
X134617222Y-50334182D02*
X134569603Y-50381801D01*
X134426746Y-50429420D01*
X134331508Y-50429420D01*
X134188651Y-50381801D01*
X134093413Y-50286563D01*
X134045794Y-50191325D01*
X133998175Y-50000849D01*
X133998175Y-49857992D01*
X134045794Y-49667516D01*
X134093413Y-49572278D01*
X134188651Y-49477040D01*
X134331508Y-49429420D01*
X134426746Y-49429420D01*
X134569603Y-49477040D01*
X134617222Y-49524659D01*
X135569603Y-50429420D02*
X134998175Y-50429420D01*
X135283889Y-50429420D02*
X135283889Y-49429420D01*
X135188651Y-49572278D01*
X135093413Y-49667516D01*
X134998175Y-49715135D01*
X136474365Y-49429420D02*
X135998175Y-49429420D01*
X135950556Y-49905611D01*
X135998175Y-49857992D01*
X136093413Y-49810373D01*
X136331508Y-49810373D01*
X136426746Y-49857992D01*
X136474365Y-49905611D01*
X136521984Y-50000849D01*
X136521984Y-50238944D01*
X136474365Y-50334182D01*
X136426746Y-50381801D01*
X136331508Y-50429420D01*
X136093413Y-50429420D01*
X135998175Y-50381801D01*
X135950556Y-50334182D01*
X141164582Y-47155337D02*
X141212201Y-47202956D01*
X141259820Y-47345813D01*
X141259820Y-47441051D01*
X141212201Y-47583908D01*
X141116963Y-47679146D01*
X141021725Y-47726765D01*
X140831249Y-47774384D01*
X140688392Y-47774384D01*
X140497916Y-47726765D01*
X140402678Y-47679146D01*
X140307440Y-47583908D01*
X140259820Y-47441051D01*
X140259820Y-47345813D01*
X140307440Y-47202956D01*
X140355059Y-47155337D01*
X141259820Y-46202956D02*
X141259820Y-46774384D01*
X141259820Y-46488670D02*
X140259820Y-46488670D01*
X140402678Y-46583908D01*
X140497916Y-46679146D01*
X140545535Y-46774384D01*
X140593154Y-45345813D02*
X141259820Y-45345813D01*
X140212201Y-45583908D02*
X140926487Y-45822003D01*
X140926487Y-45202956D01*
X130257253Y-40153862D02*
X130209634Y-40201481D01*
X130066777Y-40249100D01*
X129971539Y-40249100D01*
X129828681Y-40201481D01*
X129733443Y-40106243D01*
X129685824Y-40011005D01*
X129638205Y-39820529D01*
X129638205Y-39677672D01*
X129685824Y-39487196D01*
X129733443Y-39391958D01*
X129828681Y-39296720D01*
X129971539Y-39249100D01*
X130066777Y-39249100D01*
X130209634Y-39296720D01*
X130257253Y-39344339D01*
X130638205Y-39344339D02*
X130685824Y-39296720D01*
X130781062Y-39249100D01*
X131019158Y-39249100D01*
X131114396Y-39296720D01*
X131162015Y-39344339D01*
X131209634Y-39439577D01*
X131209634Y-39534815D01*
X131162015Y-39677672D01*
X130590586Y-40249100D01*
X131209634Y-40249100D01*
X122373093Y-40021782D02*
X122325474Y-40069401D01*
X122182617Y-40117020D01*
X122087379Y-40117020D01*
X121944521Y-40069401D01*
X121849283Y-39974163D01*
X121801664Y-39878925D01*
X121754045Y-39688449D01*
X121754045Y-39545592D01*
X121801664Y-39355116D01*
X121849283Y-39259878D01*
X121944521Y-39164640D01*
X122087379Y-39117020D01*
X122182617Y-39117020D01*
X122325474Y-39164640D01*
X122373093Y-39212259D01*
X123325474Y-40117020D02*
X122754045Y-40117020D01*
X123039760Y-40117020D02*
X123039760Y-39117020D01*
X122944521Y-39259878D01*
X122849283Y-39355116D01*
X122754045Y-39402735D01*
X113676704Y-92917780D02*
X113676704Y-91917780D01*
X113914800Y-91917780D01*
X114057657Y-91965400D01*
X114152895Y-92060638D01*
X114200514Y-92155876D01*
X114248133Y-92346352D01*
X114248133Y-92489209D01*
X114200514Y-92679685D01*
X114152895Y-92774923D01*
X114057657Y-92870161D01*
X113914800Y-92917780D01*
X113676704Y-92917780D01*
X115200514Y-92917780D02*
X114629085Y-92917780D01*
X114914800Y-92917780D02*
X114914800Y-91917780D01*
X114819561Y-92060638D01*
X114724323Y-92155876D01*
X114629085Y-92203495D01*
X128708661Y-61567559D02*
X128613423Y-61519940D01*
X128518185Y-61424701D01*
X128375328Y-61281844D01*
X128280090Y-61234225D01*
X128184852Y-61234225D01*
X128232471Y-61472320D02*
X128137233Y-61424701D01*
X128041995Y-61329463D01*
X127994376Y-61138987D01*
X127994376Y-60805654D01*
X128041995Y-60615178D01*
X128137233Y-60519940D01*
X128232471Y-60472320D01*
X128422947Y-60472320D01*
X128518185Y-60519940D01*
X128613423Y-60615178D01*
X128661042Y-60805654D01*
X128661042Y-61138987D01*
X128613423Y-61329463D01*
X128518185Y-61424701D01*
X128422947Y-61472320D01*
X128232471Y-61472320D01*
X129613423Y-61472320D02*
X129041995Y-61472320D01*
X129327709Y-61472320D02*
X129327709Y-60472320D01*
X129232471Y-60615178D01*
X129137233Y-60710416D01*
X129041995Y-60758035D01*
X118831955Y-51160680D02*
X118831955Y-51970204D01*
X118879574Y-52065442D01*
X118927193Y-52113061D01*
X119022431Y-52160680D01*
X119212907Y-52160680D01*
X119308145Y-52113061D01*
X119355764Y-52065442D01*
X119403383Y-51970204D01*
X119403383Y-51160680D01*
X119831955Y-51255919D02*
X119879574Y-51208300D01*
X119974812Y-51160680D01*
X120212907Y-51160680D01*
X120308145Y-51208300D01*
X120355764Y-51255919D01*
X120403383Y-51351157D01*
X120403383Y-51446395D01*
X120355764Y-51589252D01*
X119784336Y-52160680D01*
X120403383Y-52160680D01*
D20*
X125254727Y-80489422D02*
X125254727Y-81299889D01*
X125302402Y-81395238D01*
X125350076Y-81442913D01*
X125445425Y-81490587D01*
X125636123Y-81490587D01*
X125731472Y-81442913D01*
X125779147Y-81395238D01*
X125826821Y-81299889D01*
X125826821Y-80489422D01*
X126208218Y-80489422D02*
X126827986Y-80489422D01*
X126494265Y-80870819D01*
X126637288Y-80870819D01*
X126732637Y-80918493D01*
X126780312Y-80966168D01*
X126827986Y-81061517D01*
X126827986Y-81299889D01*
X126780312Y-81395238D01*
X126732637Y-81442913D01*
X126637288Y-81490587D01*
X126351241Y-81490587D01*
X126255892Y-81442913D01*
X126208218Y-81395238D01*
D14*
X111802113Y-46563802D02*
X111754494Y-46611421D01*
X111611637Y-46659040D01*
X111516399Y-46659040D01*
X111373541Y-46611421D01*
X111278303Y-46516183D01*
X111230684Y-46420945D01*
X111183065Y-46230469D01*
X111183065Y-46087612D01*
X111230684Y-45897136D01*
X111278303Y-45801898D01*
X111373541Y-45706660D01*
X111516399Y-45659040D01*
X111611637Y-45659040D01*
X111754494Y-45706660D01*
X111802113Y-45754279D01*
X112135446Y-45659040D02*
X112754494Y-45659040D01*
X112421160Y-46039993D01*
X112564018Y-46039993D01*
X112659256Y-46087612D01*
X112706875Y-46135231D01*
X112754494Y-46230469D01*
X112754494Y-46468564D01*
X112706875Y-46563802D01*
X112659256Y-46611421D01*
X112564018Y-46659040D01*
X112278303Y-46659040D01*
X112183065Y-46611421D01*
X112135446Y-46563802D01*
X113773722Y-50815786D02*
X113821341Y-50863405D01*
X113868960Y-51006262D01*
X113868960Y-51101500D01*
X113821341Y-51244358D01*
X113726103Y-51339596D01*
X113630865Y-51387215D01*
X113440389Y-51434834D01*
X113297532Y-51434834D01*
X113107056Y-51387215D01*
X113011818Y-51339596D01*
X112916580Y-51244358D01*
X112868960Y-51101500D01*
X112868960Y-51006262D01*
X112916580Y-50863405D01*
X112964199Y-50815786D01*
X113202294Y-49958643D02*
X113868960Y-49958643D01*
X112821341Y-50196739D02*
X113535627Y-50434834D01*
X113535627Y-49815786D01*
X113717842Y-53698686D02*
X113765461Y-53746305D01*
X113813080Y-53889162D01*
X113813080Y-53984400D01*
X113765461Y-54127258D01*
X113670223Y-54222496D01*
X113574985Y-54270115D01*
X113384509Y-54317734D01*
X113241652Y-54317734D01*
X113051176Y-54270115D01*
X112955938Y-54222496D01*
X112860700Y-54127258D01*
X112813080Y-53984400D01*
X112813080Y-53889162D01*
X112860700Y-53746305D01*
X112908319Y-53698686D01*
X112813080Y-52793924D02*
X112813080Y-53270115D01*
X113289271Y-53317734D01*
X113241652Y-53270115D01*
X113194033Y-53174877D01*
X113194033Y-52936781D01*
X113241652Y-52841543D01*
X113289271Y-52793924D01*
X113384509Y-52746305D01*
X113622604Y-52746305D01*
X113717842Y-52793924D01*
X113765461Y-52841543D01*
X113813080Y-52936781D01*
X113813080Y-53174877D01*
X113765461Y-53270115D01*
X113717842Y-53317734D01*
X113694982Y-56457126D02*
X113742601Y-56504745D01*
X113790220Y-56647602D01*
X113790220Y-56742840D01*
X113742601Y-56885698D01*
X113647363Y-56980936D01*
X113552125Y-57028555D01*
X113361649Y-57076174D01*
X113218792Y-57076174D01*
X113028316Y-57028555D01*
X112933078Y-56980936D01*
X112837840Y-56885698D01*
X112790220Y-56742840D01*
X112790220Y-56647602D01*
X112837840Y-56504745D01*
X112885459Y-56457126D01*
X112790220Y-55599983D02*
X112790220Y-55790460D01*
X112837840Y-55885698D01*
X112885459Y-55933317D01*
X113028316Y-56028555D01*
X113218792Y-56076174D01*
X113599744Y-56076174D01*
X113694982Y-56028555D01*
X113742601Y-55980936D01*
X113790220Y-55885698D01*
X113790220Y-55695221D01*
X113742601Y-55599983D01*
X113694982Y-55552364D01*
X113599744Y-55504745D01*
X113361649Y-55504745D01*
X113266411Y-55552364D01*
X113218792Y-55599983D01*
X113171173Y-55695221D01*
X113171173Y-55885698D01*
X113218792Y-55980936D01*
X113266411Y-56028555D01*
X113361649Y-56076174D01*
X104088133Y-56472342D02*
X104040514Y-56519961D01*
X103897657Y-56567580D01*
X103802419Y-56567580D01*
X103659561Y-56519961D01*
X103564323Y-56424723D01*
X103516704Y-56329485D01*
X103469085Y-56139009D01*
X103469085Y-55996152D01*
X103516704Y-55805676D01*
X103564323Y-55710438D01*
X103659561Y-55615200D01*
X103802419Y-55567580D01*
X103897657Y-55567580D01*
X104040514Y-55615200D01*
X104088133Y-55662819D01*
X104421466Y-55567580D02*
X105088133Y-55567580D01*
X104659561Y-56567580D01*
X113743242Y-58997126D02*
X113790861Y-59044745D01*
X113838480Y-59187602D01*
X113838480Y-59282840D01*
X113790861Y-59425698D01*
X113695623Y-59520936D01*
X113600385Y-59568555D01*
X113409909Y-59616174D01*
X113267052Y-59616174D01*
X113076576Y-59568555D01*
X112981338Y-59520936D01*
X112886100Y-59425698D01*
X112838480Y-59282840D01*
X112838480Y-59187602D01*
X112886100Y-59044745D01*
X112933719Y-58997126D01*
X113267052Y-58425698D02*
X113219433Y-58520936D01*
X113171814Y-58568555D01*
X113076576Y-58616174D01*
X113028957Y-58616174D01*
X112933719Y-58568555D01*
X112886100Y-58520936D01*
X112838480Y-58425698D01*
X112838480Y-58235221D01*
X112886100Y-58139983D01*
X112933719Y-58092364D01*
X113028957Y-58044745D01*
X113076576Y-58044745D01*
X113171814Y-58092364D01*
X113219433Y-58139983D01*
X113267052Y-58235221D01*
X113267052Y-58425698D01*
X113314671Y-58520936D01*
X113362290Y-58568555D01*
X113457528Y-58616174D01*
X113648004Y-58616174D01*
X113743242Y-58568555D01*
X113790861Y-58520936D01*
X113838480Y-58425698D01*
X113838480Y-58235221D01*
X113790861Y-58139983D01*
X113743242Y-58092364D01*
X113648004Y-58044745D01*
X113457528Y-58044745D01*
X113362290Y-58092364D01*
X113314671Y-58139983D01*
X113267052Y-58235221D01*
X126516333Y-64651142D02*
X126468714Y-64698761D01*
X126325857Y-64746380D01*
X126230619Y-64746380D01*
X126087761Y-64698761D01*
X125992523Y-64603523D01*
X125944904Y-64508285D01*
X125897285Y-64317809D01*
X125897285Y-64174952D01*
X125944904Y-63984476D01*
X125992523Y-63889238D01*
X126087761Y-63794000D01*
X126230619Y-63746380D01*
X126325857Y-63746380D01*
X126468714Y-63794000D01*
X126516333Y-63841619D01*
X126992523Y-64746380D02*
X127183000Y-64746380D01*
X127278238Y-64698761D01*
X127325857Y-64651142D01*
X127421095Y-64508285D01*
X127468714Y-64317809D01*
X127468714Y-63936857D01*
X127421095Y-63841619D01*
X127373476Y-63794000D01*
X127278238Y-63746380D01*
X127087761Y-63746380D01*
X126992523Y-63794000D01*
X126944904Y-63841619D01*
X126897285Y-63936857D01*
X126897285Y-64174952D01*
X126944904Y-64270190D01*
X126992523Y-64317809D01*
X127087761Y-64365428D01*
X127278238Y-64365428D01*
X127373476Y-64317809D01*
X127421095Y-64270190D01*
X127468714Y-64174952D01*
X127114562Y-53843442D02*
X127066943Y-53891061D01*
X126924086Y-53938680D01*
X126828848Y-53938680D01*
X126685991Y-53891061D01*
X126590753Y-53795823D01*
X126543134Y-53700585D01*
X126495515Y-53510109D01*
X126495515Y-53367252D01*
X126543134Y-53176776D01*
X126590753Y-53081538D01*
X126685991Y-52986300D01*
X126828848Y-52938680D01*
X126924086Y-52938680D01*
X127066943Y-52986300D01*
X127114562Y-53033919D01*
X128066943Y-53938680D02*
X127495515Y-53938680D01*
X127781229Y-53938680D02*
X127781229Y-52938680D01*
X127685991Y-53081538D01*
X127590753Y-53176776D01*
X127495515Y-53224395D01*
X128685991Y-52938680D02*
X128781229Y-52938680D01*
X128876467Y-52986300D01*
X128924086Y-53033919D01*
X128971705Y-53129157D01*
X129019324Y-53319633D01*
X129019324Y-53557728D01*
X128971705Y-53748204D01*
X128924086Y-53843442D01*
X128876467Y-53891061D01*
X128781229Y-53938680D01*
X128685991Y-53938680D01*
X128590753Y-53891061D01*
X128543134Y-53843442D01*
X128495515Y-53748204D01*
X128447896Y-53557728D01*
X128447896Y-53319633D01*
X128495515Y-53129157D01*
X128543134Y-53033919D01*
X128590753Y-52986300D01*
X128685991Y-52938680D01*
X112033822Y-84974917D02*
X112081441Y-85022536D01*
X112129060Y-85165393D01*
X112129060Y-85260631D01*
X112081441Y-85403488D01*
X111986203Y-85498726D01*
X111890965Y-85546345D01*
X111700489Y-85593964D01*
X111557632Y-85593964D01*
X111367156Y-85546345D01*
X111271918Y-85498726D01*
X111176680Y-85403488D01*
X111129060Y-85260631D01*
X111129060Y-85165393D01*
X111176680Y-85022536D01*
X111224299Y-84974917D01*
X112129060Y-84022536D02*
X112129060Y-84593964D01*
X112129060Y-84308250D02*
X111129060Y-84308250D01*
X111271918Y-84403488D01*
X111367156Y-84498726D01*
X111414775Y-84593964D01*
X112129060Y-83070155D02*
X112129060Y-83641583D01*
X112129060Y-83355869D02*
X111129060Y-83355869D01*
X111271918Y-83451107D01*
X111367156Y-83546345D01*
X111414775Y-83641583D01*
X118897662Y-87434942D02*
X118850043Y-87482561D01*
X118707186Y-87530180D01*
X118611948Y-87530180D01*
X118469091Y-87482561D01*
X118373853Y-87387323D01*
X118326234Y-87292085D01*
X118278615Y-87101609D01*
X118278615Y-86958752D01*
X118326234Y-86768276D01*
X118373853Y-86673038D01*
X118469091Y-86577800D01*
X118611948Y-86530180D01*
X118707186Y-86530180D01*
X118850043Y-86577800D01*
X118897662Y-86625419D01*
X119850043Y-87530180D02*
X119278615Y-87530180D01*
X119564329Y-87530180D02*
X119564329Y-86530180D01*
X119469091Y-86673038D01*
X119373853Y-86768276D01*
X119278615Y-86815895D01*
X120230996Y-86625419D02*
X120278615Y-86577800D01*
X120373853Y-86530180D01*
X120611948Y-86530180D01*
X120707186Y-86577800D01*
X120754805Y-86625419D01*
X120802424Y-86720657D01*
X120802424Y-86815895D01*
X120754805Y-86958752D01*
X120183377Y-87530180D01*
X120802424Y-87530180D01*
X122499382Y-87475582D02*
X122451763Y-87523201D01*
X122308906Y-87570820D01*
X122213668Y-87570820D01*
X122070811Y-87523201D01*
X121975573Y-87427963D01*
X121927954Y-87332725D01*
X121880335Y-87142249D01*
X121880335Y-86999392D01*
X121927954Y-86808916D01*
X121975573Y-86713678D01*
X122070811Y-86618440D01*
X122213668Y-86570820D01*
X122308906Y-86570820D01*
X122451763Y-86618440D01*
X122499382Y-86666059D01*
X123451763Y-87570820D02*
X122880335Y-87570820D01*
X123166049Y-87570820D02*
X123166049Y-86570820D01*
X123070811Y-86713678D01*
X122975573Y-86808916D01*
X122880335Y-86856535D01*
X123785097Y-86570820D02*
X124404144Y-86570820D01*
X124070811Y-86951773D01*
X124213668Y-86951773D01*
X124308906Y-86999392D01*
X124356525Y-87047011D01*
X124404144Y-87142249D01*
X124404144Y-87380344D01*
X124356525Y-87475582D01*
X124308906Y-87523201D01*
X124213668Y-87570820D01*
X123927954Y-87570820D01*
X123832716Y-87523201D01*
X123785097Y-87475582D01*
X105713733Y-52427380D02*
X105380400Y-51951190D01*
X105142304Y-52427380D02*
X105142304Y-51427380D01*
X105523257Y-51427380D01*
X105618495Y-51475000D01*
X105666114Y-51522619D01*
X105713733Y-51617857D01*
X105713733Y-51760714D01*
X105666114Y-51855952D01*
X105618495Y-51903571D01*
X105523257Y-51951190D01*
X105142304Y-51951190D01*
X106666114Y-52427380D02*
X106094685Y-52427380D01*
X106380400Y-52427380D02*
X106380400Y-51427380D01*
X106285161Y-51570238D01*
X106189923Y-51665476D01*
X106094685Y-51713095D01*
X118604233Y-49945800D02*
X118270900Y-49469610D01*
X118032804Y-49945800D02*
X118032804Y-48945800D01*
X118413757Y-48945800D01*
X118508995Y-48993420D01*
X118556614Y-49041039D01*
X118604233Y-49136277D01*
X118604233Y-49279134D01*
X118556614Y-49374372D01*
X118508995Y-49421991D01*
X118413757Y-49469610D01*
X118032804Y-49469610D01*
X118985185Y-49041039D02*
X119032804Y-48993420D01*
X119128042Y-48945800D01*
X119366138Y-48945800D01*
X119461376Y-48993420D01*
X119508995Y-49041039D01*
X119556614Y-49136277D01*
X119556614Y-49231515D01*
X119508995Y-49374372D01*
X118937566Y-49945800D01*
X119556614Y-49945800D01*
X118616933Y-48343060D02*
X118283600Y-47866870D01*
X118045504Y-48343060D02*
X118045504Y-47343060D01*
X118426457Y-47343060D01*
X118521695Y-47390680D01*
X118569314Y-47438299D01*
X118616933Y-47533537D01*
X118616933Y-47676394D01*
X118569314Y-47771632D01*
X118521695Y-47819251D01*
X118426457Y-47866870D01*
X118045504Y-47866870D01*
X118950266Y-47343060D02*
X119569314Y-47343060D01*
X119235980Y-47724013D01*
X119378838Y-47724013D01*
X119474076Y-47771632D01*
X119521695Y-47819251D01*
X119569314Y-47914489D01*
X119569314Y-48152584D01*
X119521695Y-48247822D01*
X119474076Y-48295441D01*
X119378838Y-48343060D01*
X119093123Y-48343060D01*
X118997885Y-48295441D01*
X118950266Y-48247822D01*
X113892533Y-61546980D02*
X113559200Y-61070790D01*
X113321104Y-61546980D02*
X113321104Y-60546980D01*
X113702057Y-60546980D01*
X113797295Y-60594600D01*
X113844914Y-60642219D01*
X113892533Y-60737457D01*
X113892533Y-60880314D01*
X113844914Y-60975552D01*
X113797295Y-61023171D01*
X113702057Y-61070790D01*
X113321104Y-61070790D01*
X114749676Y-60880314D02*
X114749676Y-61546980D01*
X114511580Y-60499361D02*
X114273485Y-61213647D01*
X114892533Y-61213647D01*
X124032213Y-53453540D02*
X123698880Y-52977350D01*
X123460784Y-53453540D02*
X123460784Y-52453540D01*
X123841737Y-52453540D01*
X123936975Y-52501160D01*
X123984594Y-52548779D01*
X124032213Y-52644017D01*
X124032213Y-52786874D01*
X123984594Y-52882112D01*
X123936975Y-52929731D01*
X123841737Y-52977350D01*
X123460784Y-52977350D01*
X124936975Y-52453540D02*
X124460784Y-52453540D01*
X124413165Y-52929731D01*
X124460784Y-52882112D01*
X124556022Y-52834493D01*
X124794118Y-52834493D01*
X124889356Y-52882112D01*
X124936975Y-52929731D01*
X124984594Y-53024969D01*
X124984594Y-53263064D01*
X124936975Y-53358302D01*
X124889356Y-53405921D01*
X124794118Y-53453540D01*
X124556022Y-53453540D01*
X124460784Y-53405921D01*
X124413165Y-53358302D01*
X119424653Y-96168720D02*
X119091320Y-95692530D01*
X118853224Y-96168720D02*
X118853224Y-95168720D01*
X119234177Y-95168720D01*
X119329415Y-95216340D01*
X119377034Y-95263959D01*
X119424653Y-95359197D01*
X119424653Y-95502054D01*
X119377034Y-95597292D01*
X119329415Y-95644911D01*
X119234177Y-95692530D01*
X118853224Y-95692530D01*
X120281796Y-95168720D02*
X120091320Y-95168720D01*
X119996081Y-95216340D01*
X119948462Y-95263959D01*
X119853224Y-95406816D01*
X119805605Y-95597292D01*
X119805605Y-95978244D01*
X119853224Y-96073482D01*
X119900843Y-96121101D01*
X119996081Y-96168720D01*
X120186558Y-96168720D01*
X120281796Y-96121101D01*
X120329415Y-96073482D01*
X120377034Y-95978244D01*
X120377034Y-95740149D01*
X120329415Y-95644911D01*
X120281796Y-95597292D01*
X120186558Y-95549673D01*
X119996081Y-95549673D01*
X119900843Y-95597292D01*
X119853224Y-95644911D01*
X119805605Y-95740149D01*
X122195293Y-96215460D02*
X121861960Y-95739270D01*
X121623864Y-96215460D02*
X121623864Y-95215460D01*
X122004817Y-95215460D01*
X122100055Y-95263080D01*
X122147674Y-95310699D01*
X122195293Y-95405937D01*
X122195293Y-95548794D01*
X122147674Y-95644032D01*
X122100055Y-95691651D01*
X122004817Y-95739270D01*
X121623864Y-95739270D01*
X122528626Y-95215460D02*
X123195293Y-95215460D01*
X122766721Y-96215460D01*
X120236740Y-89482206D02*
X119760550Y-89815540D01*
X120236740Y-90053635D02*
X119236740Y-90053635D01*
X119236740Y-89672682D01*
X119284360Y-89577444D01*
X119331979Y-89529825D01*
X119427217Y-89482206D01*
X119570074Y-89482206D01*
X119665312Y-89529825D01*
X119712931Y-89577444D01*
X119760550Y-89672682D01*
X119760550Y-90053635D01*
X119665312Y-88910778D02*
X119617693Y-89006016D01*
X119570074Y-89053635D01*
X119474836Y-89101254D01*
X119427217Y-89101254D01*
X119331979Y-89053635D01*
X119284360Y-89006016D01*
X119236740Y-88910778D01*
X119236740Y-88720301D01*
X119284360Y-88625063D01*
X119331979Y-88577444D01*
X119427217Y-88529825D01*
X119474836Y-88529825D01*
X119570074Y-88577444D01*
X119617693Y-88625063D01*
X119665312Y-88720301D01*
X119665312Y-88910778D01*
X119712931Y-89006016D01*
X119760550Y-89053635D01*
X119855788Y-89101254D01*
X120046264Y-89101254D01*
X120141502Y-89053635D01*
X120189121Y-89006016D01*
X120236740Y-88910778D01*
X120236740Y-88720301D01*
X120189121Y-88625063D01*
X120141502Y-88577444D01*
X120046264Y-88529825D01*
X119855788Y-88529825D01*
X119760550Y-88577444D01*
X119712931Y-88625063D01*
X119665312Y-88720301D01*
M02*
