G04 #@! TF.GenerationSoftware,KiCad,Pcbnew,(5.1.5)-3*
G04 #@! TF.CreationDate,2021-12-20T00:15:42-08:00*
G04 #@! TF.ProjectId,watch_v1,77617463-685f-4763-912e-6b696361645f,rev?*
G04 #@! TF.SameCoordinates,Original*
G04 #@! TF.FileFunction,Soldermask,Top*
G04 #@! TF.FilePolarity,Negative*
%FSLAX46Y46*%
G04 Gerber Fmt 4.6, Leading zero omitted, Abs format (unit mm)*
G04 Created by KiCad (PCBNEW (5.1.5)-3) date 2021-12-20 00:15:42*
%MOMM*%
%LPD*%
G04 APERTURE LIST*
%ADD10C,0.050000*%
%ADD11C,0.150000*%
G04 APERTURE END LIST*
D10*
X155752624Y-53294380D02*
G75*
G02X148089479Y-44241041I-27838224J-15793620D01*
G01*
X155752800Y-53294280D02*
X157038040Y-52242720D01*
X149407880Y-43159680D02*
X157038040Y-52242720D01*
X148089480Y-44241040D02*
X149407880Y-43159680D01*
D11*
G36*
X131465400Y-100307700D02*
G01*
X130363400Y-100307700D01*
X130363400Y-99505700D01*
X131465400Y-99505700D01*
X131465400Y-100307700D01*
G37*
G36*
X125465400Y-100307700D02*
G01*
X124363400Y-100307700D01*
X124363400Y-99505700D01*
X125465400Y-99505700D01*
X125465400Y-100307700D01*
G37*
G36*
X138222258Y-96390476D02*
G01*
X138242877Y-96396731D01*
X138261873Y-96406884D01*
X138278528Y-96420552D01*
X138292196Y-96437207D01*
X138302349Y-96456203D01*
X138308604Y-96476822D01*
X138311320Y-96504400D01*
X138311320Y-97013120D01*
X138308604Y-97040698D01*
X138302349Y-97061317D01*
X138292196Y-97080313D01*
X138278528Y-97096968D01*
X138261873Y-97110636D01*
X138242877Y-97120789D01*
X138222258Y-97127044D01*
X138194680Y-97129760D01*
X137735960Y-97129760D01*
X137708382Y-97127044D01*
X137687763Y-97120789D01*
X137668767Y-97110636D01*
X137652112Y-97096968D01*
X137638444Y-97080313D01*
X137628291Y-97061317D01*
X137622036Y-97040698D01*
X137619320Y-97013120D01*
X137619320Y-96504400D01*
X137622036Y-96476822D01*
X137628291Y-96456203D01*
X137638444Y-96437207D01*
X137652112Y-96420552D01*
X137668767Y-96406884D01*
X137687763Y-96396731D01*
X137708382Y-96390476D01*
X137735960Y-96387760D01*
X138194680Y-96387760D01*
X138222258Y-96390476D01*
G37*
G36*
X139192258Y-96390476D02*
G01*
X139212877Y-96396731D01*
X139231873Y-96406884D01*
X139248528Y-96420552D01*
X139262196Y-96437207D01*
X139272349Y-96456203D01*
X139278604Y-96476822D01*
X139281320Y-96504400D01*
X139281320Y-97013120D01*
X139278604Y-97040698D01*
X139272349Y-97061317D01*
X139262196Y-97080313D01*
X139248528Y-97096968D01*
X139231873Y-97110636D01*
X139212877Y-97120789D01*
X139192258Y-97127044D01*
X139164680Y-97129760D01*
X138705960Y-97129760D01*
X138678382Y-97127044D01*
X138657763Y-97120789D01*
X138638767Y-97110636D01*
X138622112Y-97096968D01*
X138608444Y-97080313D01*
X138598291Y-97061317D01*
X138592036Y-97040698D01*
X138589320Y-97013120D01*
X138589320Y-96504400D01*
X138592036Y-96476822D01*
X138598291Y-96456203D01*
X138608444Y-96437207D01*
X138622112Y-96420552D01*
X138638767Y-96406884D01*
X138657763Y-96396731D01*
X138678382Y-96390476D01*
X138705960Y-96387760D01*
X139164680Y-96387760D01*
X139192258Y-96390476D01*
G37*
G36*
X131465400Y-96607700D02*
G01*
X130363400Y-96607700D01*
X130363400Y-95805700D01*
X131465400Y-95805700D01*
X131465400Y-96607700D01*
G37*
G36*
X125465400Y-96607700D02*
G01*
X124363400Y-96607700D01*
X124363400Y-95805700D01*
X125465400Y-95805700D01*
X125465400Y-96607700D01*
G37*
G36*
X142579960Y-95475600D02*
G01*
X141677960Y-95475600D01*
X141677960Y-94473600D01*
X142579960Y-94473600D01*
X142579960Y-95475600D01*
G37*
G36*
X144479960Y-95475600D02*
G01*
X143577960Y-95475600D01*
X143577960Y-94473600D01*
X144479960Y-94473600D01*
X144479960Y-95475600D01*
G37*
G36*
X120028468Y-93704365D02*
G01*
X120067138Y-93716096D01*
X120102777Y-93735146D01*
X120134017Y-93760783D01*
X120159654Y-93792023D01*
X120178704Y-93827662D01*
X120190435Y-93866332D01*
X120195000Y-93912688D01*
X120195000Y-94563912D01*
X120190435Y-94610268D01*
X120178704Y-94648938D01*
X120159654Y-94684577D01*
X120134017Y-94715817D01*
X120102777Y-94741454D01*
X120067138Y-94760504D01*
X120028468Y-94772235D01*
X119982112Y-94776800D01*
X118905888Y-94776800D01*
X118859532Y-94772235D01*
X118820862Y-94760504D01*
X118785223Y-94741454D01*
X118753983Y-94715817D01*
X118728346Y-94684577D01*
X118709296Y-94648938D01*
X118697565Y-94610268D01*
X118693000Y-94563912D01*
X118693000Y-93912688D01*
X118697565Y-93866332D01*
X118709296Y-93827662D01*
X118728346Y-93792023D01*
X118753983Y-93760783D01*
X118785223Y-93735146D01*
X118820862Y-93716096D01*
X118859532Y-93704365D01*
X118905888Y-93699800D01*
X119982112Y-93699800D01*
X120028468Y-93704365D01*
G37*
G36*
X122198991Y-93667885D02*
G01*
X122232969Y-93678193D01*
X122264290Y-93694934D01*
X122291739Y-93717461D01*
X122314266Y-93744910D01*
X122331007Y-93776231D01*
X122341315Y-93810209D01*
X122345400Y-93851690D01*
X122345400Y-94527910D01*
X122341315Y-94569391D01*
X122331007Y-94603369D01*
X122314266Y-94634690D01*
X122291739Y-94662139D01*
X122264290Y-94684666D01*
X122232969Y-94701407D01*
X122198991Y-94711715D01*
X122157510Y-94715800D01*
X121556290Y-94715800D01*
X121514809Y-94711715D01*
X121480831Y-94701407D01*
X121449510Y-94684666D01*
X121422061Y-94662139D01*
X121399534Y-94634690D01*
X121382793Y-94603369D01*
X121372485Y-94569391D01*
X121368400Y-94527910D01*
X121368400Y-93851690D01*
X121372485Y-93810209D01*
X121382793Y-93776231D01*
X121399534Y-93744910D01*
X121422061Y-93717461D01*
X121449510Y-93694934D01*
X121480831Y-93678193D01*
X121514809Y-93667885D01*
X121556290Y-93663800D01*
X122157510Y-93663800D01*
X122198991Y-93667885D01*
G37*
G36*
X123773991Y-93667885D02*
G01*
X123807969Y-93678193D01*
X123839290Y-93694934D01*
X123866739Y-93717461D01*
X123889266Y-93744910D01*
X123906007Y-93776231D01*
X123916315Y-93810209D01*
X123920400Y-93851690D01*
X123920400Y-94527910D01*
X123916315Y-94569391D01*
X123906007Y-94603369D01*
X123889266Y-94634690D01*
X123866739Y-94662139D01*
X123839290Y-94684666D01*
X123807969Y-94701407D01*
X123773991Y-94711715D01*
X123732510Y-94715800D01*
X123131290Y-94715800D01*
X123089809Y-94711715D01*
X123055831Y-94701407D01*
X123024510Y-94684666D01*
X122997061Y-94662139D01*
X122974534Y-94634690D01*
X122957793Y-94603369D01*
X122947485Y-94569391D01*
X122943400Y-94527910D01*
X122943400Y-93851690D01*
X122947485Y-93810209D01*
X122957793Y-93776231D01*
X122974534Y-93744910D01*
X122997061Y-93717461D01*
X123024510Y-93694934D01*
X123055831Y-93678193D01*
X123089809Y-93667885D01*
X123131290Y-93663800D01*
X123732510Y-93663800D01*
X123773991Y-93667885D01*
G37*
G36*
X139706604Y-92955747D02*
G01*
X139743144Y-92966832D01*
X139776821Y-92984833D01*
X139806341Y-93009059D01*
X139830567Y-93038579D01*
X139848568Y-93072256D01*
X139859653Y-93108796D01*
X139864000Y-93152938D01*
X139864000Y-94101862D01*
X139859653Y-94146004D01*
X139848568Y-94182544D01*
X139830567Y-94216221D01*
X139806341Y-94245741D01*
X139776821Y-94269967D01*
X139743144Y-94287968D01*
X139706604Y-94299053D01*
X139662462Y-94303400D01*
X138213538Y-94303400D01*
X138169396Y-94299053D01*
X138132856Y-94287968D01*
X138099179Y-94269967D01*
X138069659Y-94245741D01*
X138045433Y-94216221D01*
X138027432Y-94182544D01*
X138016347Y-94146004D01*
X138012000Y-94101862D01*
X138012000Y-93152938D01*
X138016347Y-93108796D01*
X138027432Y-93072256D01*
X138045433Y-93038579D01*
X138069659Y-93009059D01*
X138099179Y-92984833D01*
X138132856Y-92966832D01*
X138169396Y-92955747D01*
X138213538Y-92951400D01*
X139662462Y-92951400D01*
X139706604Y-92955747D01*
G37*
G36*
X143529960Y-93475600D02*
G01*
X142627960Y-93475600D01*
X142627960Y-92473600D01*
X143529960Y-92473600D01*
X143529960Y-93475600D01*
G37*
G36*
X120028468Y-91829365D02*
G01*
X120067138Y-91841096D01*
X120102777Y-91860146D01*
X120134017Y-91885783D01*
X120159654Y-91917023D01*
X120178704Y-91952662D01*
X120190435Y-91991332D01*
X120195000Y-92037688D01*
X120195000Y-92688912D01*
X120190435Y-92735268D01*
X120178704Y-92773938D01*
X120159654Y-92809577D01*
X120134017Y-92840817D01*
X120102777Y-92866454D01*
X120067138Y-92885504D01*
X120028468Y-92897235D01*
X119982112Y-92901800D01*
X118905888Y-92901800D01*
X118859532Y-92897235D01*
X118820862Y-92885504D01*
X118785223Y-92866454D01*
X118753983Y-92840817D01*
X118728346Y-92809577D01*
X118709296Y-92773938D01*
X118697565Y-92735268D01*
X118693000Y-92688912D01*
X118693000Y-92037688D01*
X118697565Y-91991332D01*
X118709296Y-91952662D01*
X118728346Y-91917023D01*
X118753983Y-91885783D01*
X118785223Y-91860146D01*
X118820862Y-91841096D01*
X118859532Y-91829365D01*
X118905888Y-91824800D01*
X119982112Y-91824800D01*
X120028468Y-91829365D01*
G37*
G36*
X139706604Y-90155747D02*
G01*
X139743144Y-90166832D01*
X139776821Y-90184833D01*
X139806341Y-90209059D01*
X139830567Y-90238579D01*
X139848568Y-90272256D01*
X139859653Y-90308796D01*
X139864000Y-90352938D01*
X139864000Y-91301862D01*
X139859653Y-91346004D01*
X139848568Y-91382544D01*
X139830567Y-91416221D01*
X139806341Y-91445741D01*
X139776821Y-91469967D01*
X139743144Y-91487968D01*
X139706604Y-91499053D01*
X139662462Y-91503400D01*
X138213538Y-91503400D01*
X138169396Y-91499053D01*
X138132856Y-91487968D01*
X138099179Y-91469967D01*
X138069659Y-91445741D01*
X138045433Y-91416221D01*
X138027432Y-91382544D01*
X138016347Y-91346004D01*
X138012000Y-91301862D01*
X138012000Y-90352938D01*
X138016347Y-90308796D01*
X138027432Y-90272256D01*
X138045433Y-90238579D01*
X138069659Y-90209059D01*
X138099179Y-90184833D01*
X138132856Y-90166832D01*
X138169396Y-90155747D01*
X138213538Y-90151400D01*
X139662462Y-90151400D01*
X139706604Y-90155747D01*
G37*
G36*
X150483760Y-90681680D02*
G01*
X149581760Y-90681680D01*
X149581760Y-89679680D01*
X150483760Y-89679680D01*
X150483760Y-90681680D01*
G37*
G36*
X148583760Y-90681680D02*
G01*
X147681760Y-90681680D01*
X147681760Y-89679680D01*
X148583760Y-89679680D01*
X148583760Y-90681680D01*
G37*
G36*
X146043840Y-90671520D02*
G01*
X145141840Y-90671520D01*
X145141840Y-89669520D01*
X146043840Y-89669520D01*
X146043840Y-90671520D01*
G37*
G36*
X144143840Y-90671520D02*
G01*
X143241840Y-90671520D01*
X143241840Y-89669520D01*
X144143840Y-89669520D01*
X144143840Y-90671520D01*
G37*
G36*
X117865800Y-90666400D02*
G01*
X115263800Y-90666400D01*
X115263800Y-88264400D01*
X117865800Y-88264400D01*
X117865800Y-90666400D01*
G37*
G36*
X113565800Y-90666400D02*
G01*
X110963800Y-90666400D01*
X110963800Y-88264400D01*
X113565800Y-88264400D01*
X113565800Y-90666400D01*
G37*
G36*
X124639204Y-88111947D02*
G01*
X124675744Y-88123032D01*
X124709421Y-88141033D01*
X124738941Y-88165259D01*
X124763167Y-88194779D01*
X124781168Y-88228456D01*
X124792253Y-88264996D01*
X124796600Y-88309138D01*
X124796600Y-89758062D01*
X124792253Y-89802204D01*
X124781168Y-89838744D01*
X124763167Y-89872421D01*
X124738941Y-89901941D01*
X124709421Y-89926167D01*
X124675744Y-89944168D01*
X124639204Y-89955253D01*
X124595062Y-89959600D01*
X123646138Y-89959600D01*
X123601996Y-89955253D01*
X123565456Y-89944168D01*
X123531779Y-89926167D01*
X123502259Y-89901941D01*
X123478033Y-89872421D01*
X123460032Y-89838744D01*
X123448947Y-89802204D01*
X123444600Y-89758062D01*
X123444600Y-88309138D01*
X123448947Y-88264996D01*
X123460032Y-88228456D01*
X123478033Y-88194779D01*
X123502259Y-88165259D01*
X123531779Y-88141033D01*
X123565456Y-88123032D01*
X123601996Y-88111947D01*
X123646138Y-88107600D01*
X124595062Y-88107600D01*
X124639204Y-88111947D01*
G37*
G36*
X121839204Y-88111947D02*
G01*
X121875744Y-88123032D01*
X121909421Y-88141033D01*
X121938941Y-88165259D01*
X121963167Y-88194779D01*
X121981168Y-88228456D01*
X121992253Y-88264996D01*
X121996600Y-88309138D01*
X121996600Y-89758062D01*
X121992253Y-89802204D01*
X121981168Y-89838744D01*
X121963167Y-89872421D01*
X121938941Y-89901941D01*
X121909421Y-89926167D01*
X121875744Y-89944168D01*
X121839204Y-89955253D01*
X121795062Y-89959600D01*
X120846138Y-89959600D01*
X120801996Y-89955253D01*
X120765456Y-89944168D01*
X120731779Y-89926167D01*
X120702259Y-89901941D01*
X120678033Y-89872421D01*
X120660032Y-89838744D01*
X120648947Y-89802204D01*
X120644600Y-89758062D01*
X120644600Y-88309138D01*
X120648947Y-88264996D01*
X120660032Y-88228456D01*
X120678033Y-88194779D01*
X120702259Y-88165259D01*
X120731779Y-88141033D01*
X120765456Y-88123032D01*
X120801996Y-88111947D01*
X120846138Y-88107600D01*
X121795062Y-88107600D01*
X121839204Y-88111947D01*
G37*
G36*
X140598000Y-88766840D02*
G01*
X139596000Y-88766840D01*
X139596000Y-87864840D01*
X140598000Y-87864840D01*
X140598000Y-88766840D01*
G37*
G36*
X149533760Y-88681680D02*
G01*
X148631760Y-88681680D01*
X148631760Y-87679680D01*
X149533760Y-87679680D01*
X149533760Y-88681680D01*
G37*
G36*
X145093840Y-88671520D02*
G01*
X144191840Y-88671520D01*
X144191840Y-87669520D01*
X145093840Y-87669520D01*
X145093840Y-88671520D01*
G37*
G36*
X142598000Y-87816840D02*
G01*
X141596000Y-87816840D01*
X141596000Y-86914840D01*
X142598000Y-86914840D01*
X142598000Y-87816840D01*
G37*
G36*
X145537833Y-71149298D02*
G01*
X145665409Y-71202142D01*
X145780219Y-71278855D01*
X145877865Y-71376501D01*
X145954578Y-71491311D01*
X146007422Y-71618887D01*
X146034360Y-71754316D01*
X146034360Y-71892404D01*
X146007422Y-72027833D01*
X145954578Y-72155409D01*
X145877865Y-72270219D01*
X145780219Y-72367865D01*
X145665409Y-72444578D01*
X145663482Y-72445376D01*
X145641872Y-72456927D01*
X145622930Y-72472472D01*
X145607384Y-72491414D01*
X145595833Y-72513025D01*
X145588720Y-72536474D01*
X145586318Y-72560860D01*
X145588720Y-72585246D01*
X145595833Y-72608695D01*
X145607384Y-72630305D01*
X145622929Y-72649247D01*
X145641871Y-72664793D01*
X145663482Y-72676344D01*
X145665409Y-72677142D01*
X145780219Y-72753855D01*
X145877865Y-72851501D01*
X145954578Y-72966311D01*
X146007422Y-73093887D01*
X146034360Y-73229316D01*
X146034360Y-73367404D01*
X146007422Y-73502833D01*
X145954578Y-73630409D01*
X145877865Y-73745219D01*
X145780219Y-73842865D01*
X145665409Y-73919578D01*
X145663482Y-73920376D01*
X145641872Y-73931927D01*
X145622930Y-73947472D01*
X145607384Y-73966414D01*
X145595833Y-73988025D01*
X145588720Y-74011474D01*
X145586318Y-74035860D01*
X145588720Y-74060246D01*
X145595833Y-74083695D01*
X145607384Y-74105305D01*
X145622929Y-74124247D01*
X145641871Y-74139793D01*
X145663482Y-74151344D01*
X145665409Y-74152142D01*
X145780219Y-74228855D01*
X145877865Y-74326501D01*
X145954578Y-74441311D01*
X146007422Y-74568887D01*
X146034360Y-74704316D01*
X146034360Y-74842404D01*
X146007422Y-74977833D01*
X145954578Y-75105409D01*
X145877865Y-75220219D01*
X145780219Y-75317865D01*
X145665409Y-75394578D01*
X145663482Y-75395376D01*
X145641872Y-75406927D01*
X145622930Y-75422472D01*
X145607384Y-75441414D01*
X145595833Y-75463025D01*
X145588720Y-75486474D01*
X145586318Y-75510860D01*
X145588720Y-75535246D01*
X145595833Y-75558695D01*
X145607384Y-75580305D01*
X145622929Y-75599247D01*
X145641871Y-75614793D01*
X145663482Y-75626344D01*
X145665409Y-75627142D01*
X145780219Y-75703855D01*
X145877865Y-75801501D01*
X145954578Y-75916311D01*
X146007422Y-76043887D01*
X146034360Y-76179316D01*
X146034360Y-76317404D01*
X146007422Y-76452833D01*
X145954578Y-76580409D01*
X145877865Y-76695219D01*
X145780219Y-76792865D01*
X145665409Y-76869578D01*
X145663482Y-76870376D01*
X145641872Y-76881927D01*
X145622930Y-76897472D01*
X145607384Y-76916414D01*
X145595833Y-76938025D01*
X145588720Y-76961474D01*
X145586318Y-76985860D01*
X145588720Y-77010246D01*
X145595833Y-77033695D01*
X145607384Y-77055305D01*
X145622929Y-77074247D01*
X145641871Y-77089793D01*
X145663482Y-77101344D01*
X145665409Y-77102142D01*
X145780219Y-77178855D01*
X145877865Y-77276501D01*
X145954578Y-77391311D01*
X146007422Y-77518887D01*
X146034360Y-77654316D01*
X146034360Y-77792404D01*
X146007422Y-77927833D01*
X145954578Y-78055409D01*
X145877865Y-78170219D01*
X145780219Y-78267865D01*
X145665409Y-78344578D01*
X145663482Y-78345376D01*
X145641872Y-78356927D01*
X145622930Y-78372472D01*
X145607384Y-78391414D01*
X145595833Y-78413025D01*
X145588720Y-78436474D01*
X145586318Y-78460860D01*
X145588720Y-78485246D01*
X145595833Y-78508695D01*
X145607384Y-78530305D01*
X145622929Y-78549247D01*
X145641871Y-78564793D01*
X145663482Y-78576344D01*
X145665409Y-78577142D01*
X145780219Y-78653855D01*
X145877865Y-78751501D01*
X145954578Y-78866311D01*
X146007422Y-78993887D01*
X146034360Y-79129316D01*
X146034360Y-79267404D01*
X146007422Y-79402833D01*
X145954578Y-79530409D01*
X145877865Y-79645219D01*
X145780219Y-79742865D01*
X145665409Y-79819578D01*
X145663482Y-79820376D01*
X145641872Y-79831927D01*
X145622930Y-79847472D01*
X145607384Y-79866414D01*
X145595833Y-79888025D01*
X145588720Y-79911474D01*
X145586318Y-79935860D01*
X145588720Y-79960246D01*
X145595833Y-79983695D01*
X145607384Y-80005305D01*
X145622929Y-80024247D01*
X145641871Y-80039793D01*
X145663482Y-80051344D01*
X145665409Y-80052142D01*
X145780219Y-80128855D01*
X145877865Y-80226501D01*
X145954578Y-80341311D01*
X146007422Y-80468887D01*
X146034360Y-80604316D01*
X146034360Y-80742404D01*
X146007422Y-80877833D01*
X145954578Y-81005409D01*
X145877865Y-81120219D01*
X145780219Y-81217865D01*
X145665409Y-81294578D01*
X145663482Y-81295376D01*
X145641872Y-81306927D01*
X145622930Y-81322472D01*
X145607384Y-81341414D01*
X145595833Y-81363025D01*
X145588720Y-81386474D01*
X145586318Y-81410860D01*
X145588720Y-81435246D01*
X145595833Y-81458695D01*
X145607384Y-81480305D01*
X145622929Y-81499247D01*
X145641871Y-81514793D01*
X145663482Y-81526344D01*
X145665409Y-81527142D01*
X145780219Y-81603855D01*
X145877865Y-81701501D01*
X145954578Y-81816311D01*
X146007422Y-81943887D01*
X146034360Y-82079316D01*
X146034360Y-82217404D01*
X146007422Y-82352833D01*
X145954578Y-82480409D01*
X145877865Y-82595219D01*
X145780219Y-82692865D01*
X145665409Y-82769578D01*
X145663482Y-82770376D01*
X145641872Y-82781927D01*
X145622930Y-82797472D01*
X145607384Y-82816414D01*
X145595833Y-82838025D01*
X145588720Y-82861474D01*
X145586318Y-82885860D01*
X145588720Y-82910246D01*
X145595833Y-82933695D01*
X145607384Y-82955305D01*
X145622929Y-82974247D01*
X145641871Y-82989793D01*
X145663482Y-83001344D01*
X145665409Y-83002142D01*
X145780219Y-83078855D01*
X145877865Y-83176501D01*
X145954578Y-83291311D01*
X146007422Y-83418887D01*
X146034360Y-83554316D01*
X146034360Y-83692404D01*
X146007422Y-83827833D01*
X145954578Y-83955409D01*
X145877865Y-84070219D01*
X145780219Y-84167865D01*
X145665409Y-84244578D01*
X145663482Y-84245376D01*
X145641872Y-84256927D01*
X145622930Y-84272472D01*
X145607384Y-84291414D01*
X145595833Y-84313025D01*
X145588720Y-84336474D01*
X145586318Y-84360860D01*
X145588720Y-84385246D01*
X145595833Y-84408695D01*
X145607384Y-84430305D01*
X145622929Y-84449247D01*
X145641871Y-84464793D01*
X145663482Y-84476344D01*
X145665409Y-84477142D01*
X145780219Y-84553855D01*
X145877865Y-84651501D01*
X145954578Y-84766311D01*
X146007422Y-84893887D01*
X146034360Y-85029316D01*
X146034360Y-85167404D01*
X146007422Y-85302833D01*
X145954578Y-85430409D01*
X145877865Y-85545219D01*
X145780219Y-85642865D01*
X145665409Y-85719578D01*
X145663482Y-85720376D01*
X145641872Y-85731927D01*
X145622930Y-85747472D01*
X145607384Y-85766414D01*
X145595833Y-85788025D01*
X145588720Y-85811474D01*
X145586318Y-85835860D01*
X145588720Y-85860246D01*
X145595833Y-85883695D01*
X145607384Y-85905305D01*
X145622929Y-85924247D01*
X145641871Y-85939793D01*
X145663482Y-85951344D01*
X145665409Y-85952142D01*
X145780219Y-86028855D01*
X145877865Y-86126501D01*
X145954578Y-86241311D01*
X146007422Y-86368887D01*
X146034360Y-86504316D01*
X146034360Y-86642404D01*
X146007422Y-86777833D01*
X145954578Y-86905409D01*
X145877865Y-87020219D01*
X145780219Y-87117865D01*
X145665409Y-87194578D01*
X145537833Y-87247422D01*
X145402404Y-87274360D01*
X145264316Y-87274360D01*
X145128887Y-87247422D01*
X145001311Y-87194578D01*
X144886501Y-87117865D01*
X144788855Y-87020219D01*
X144712142Y-86905409D01*
X144659298Y-86777833D01*
X144632360Y-86642404D01*
X144632360Y-86504316D01*
X144659298Y-86368887D01*
X144712142Y-86241311D01*
X144788855Y-86126501D01*
X144886501Y-86028855D01*
X145001311Y-85952142D01*
X145003238Y-85951344D01*
X145024848Y-85939793D01*
X145043790Y-85924248D01*
X145059336Y-85905306D01*
X145070887Y-85883695D01*
X145078000Y-85860246D01*
X145080402Y-85835860D01*
X145078000Y-85811474D01*
X145070887Y-85788025D01*
X145059336Y-85766415D01*
X145043791Y-85747473D01*
X145024849Y-85731927D01*
X145003238Y-85720376D01*
X145001311Y-85719578D01*
X144886501Y-85642865D01*
X144788855Y-85545219D01*
X144712142Y-85430409D01*
X144659298Y-85302833D01*
X144632360Y-85167404D01*
X144632360Y-85029316D01*
X144659298Y-84893887D01*
X144712142Y-84766311D01*
X144788855Y-84651501D01*
X144886501Y-84553855D01*
X145001311Y-84477142D01*
X145003238Y-84476344D01*
X145024848Y-84464793D01*
X145043790Y-84449248D01*
X145059336Y-84430306D01*
X145070887Y-84408695D01*
X145078000Y-84385246D01*
X145080402Y-84360860D01*
X145078000Y-84336474D01*
X145070887Y-84313025D01*
X145059336Y-84291415D01*
X145043791Y-84272473D01*
X145024849Y-84256927D01*
X145003238Y-84245376D01*
X145001311Y-84244578D01*
X144886501Y-84167865D01*
X144788855Y-84070219D01*
X144712142Y-83955409D01*
X144659298Y-83827833D01*
X144632360Y-83692404D01*
X144632360Y-83554316D01*
X144659298Y-83418887D01*
X144712142Y-83291311D01*
X144788855Y-83176501D01*
X144886501Y-83078855D01*
X145001311Y-83002142D01*
X145003238Y-83001344D01*
X145024848Y-82989793D01*
X145043790Y-82974248D01*
X145059336Y-82955306D01*
X145070887Y-82933695D01*
X145078000Y-82910246D01*
X145080402Y-82885860D01*
X145078000Y-82861474D01*
X145070887Y-82838025D01*
X145059336Y-82816415D01*
X145043791Y-82797473D01*
X145024849Y-82781927D01*
X145003238Y-82770376D01*
X145001311Y-82769578D01*
X144886501Y-82692865D01*
X144788855Y-82595219D01*
X144712142Y-82480409D01*
X144659298Y-82352833D01*
X144632360Y-82217404D01*
X144632360Y-82079316D01*
X144659298Y-81943887D01*
X144712142Y-81816311D01*
X144788855Y-81701501D01*
X144886501Y-81603855D01*
X145001311Y-81527142D01*
X145003238Y-81526344D01*
X145024848Y-81514793D01*
X145043790Y-81499248D01*
X145059336Y-81480306D01*
X145070887Y-81458695D01*
X145078000Y-81435246D01*
X145080402Y-81410860D01*
X145078000Y-81386474D01*
X145070887Y-81363025D01*
X145059336Y-81341415D01*
X145043791Y-81322473D01*
X145024849Y-81306927D01*
X145003238Y-81295376D01*
X145001311Y-81294578D01*
X144886501Y-81217865D01*
X144788855Y-81120219D01*
X144712142Y-81005409D01*
X144659298Y-80877833D01*
X144632360Y-80742404D01*
X144632360Y-80604316D01*
X144659298Y-80468887D01*
X144712142Y-80341311D01*
X144788855Y-80226501D01*
X144886501Y-80128855D01*
X145001311Y-80052142D01*
X145003238Y-80051344D01*
X145024848Y-80039793D01*
X145043790Y-80024248D01*
X145059336Y-80005306D01*
X145070887Y-79983695D01*
X145078000Y-79960246D01*
X145080402Y-79935860D01*
X145078000Y-79911474D01*
X145070887Y-79888025D01*
X145059336Y-79866415D01*
X145043791Y-79847473D01*
X145024849Y-79831927D01*
X145003238Y-79820376D01*
X145001311Y-79819578D01*
X144886501Y-79742865D01*
X144788855Y-79645219D01*
X144712142Y-79530409D01*
X144659298Y-79402833D01*
X144632360Y-79267404D01*
X144632360Y-79129316D01*
X144659298Y-78993887D01*
X144712142Y-78866311D01*
X144788855Y-78751501D01*
X144886501Y-78653855D01*
X145001311Y-78577142D01*
X145003238Y-78576344D01*
X145024848Y-78564793D01*
X145043790Y-78549248D01*
X145059336Y-78530306D01*
X145070887Y-78508695D01*
X145078000Y-78485246D01*
X145080402Y-78460860D01*
X145078000Y-78436474D01*
X145070887Y-78413025D01*
X145059336Y-78391415D01*
X145043791Y-78372473D01*
X145024849Y-78356927D01*
X145003238Y-78345376D01*
X145001311Y-78344578D01*
X144886501Y-78267865D01*
X144788855Y-78170219D01*
X144712142Y-78055409D01*
X144659298Y-77927833D01*
X144632360Y-77792404D01*
X144632360Y-77654316D01*
X144659298Y-77518887D01*
X144712142Y-77391311D01*
X144788855Y-77276501D01*
X144886501Y-77178855D01*
X145001311Y-77102142D01*
X145003238Y-77101344D01*
X145024848Y-77089793D01*
X145043790Y-77074248D01*
X145059336Y-77055306D01*
X145070887Y-77033695D01*
X145078000Y-77010246D01*
X145080402Y-76985860D01*
X145078000Y-76961474D01*
X145070887Y-76938025D01*
X145059336Y-76916415D01*
X145043791Y-76897473D01*
X145024849Y-76881927D01*
X145003238Y-76870376D01*
X145001311Y-76869578D01*
X144886501Y-76792865D01*
X144788855Y-76695219D01*
X144712142Y-76580409D01*
X144659298Y-76452833D01*
X144632360Y-76317404D01*
X144632360Y-76179316D01*
X144659298Y-76043887D01*
X144712142Y-75916311D01*
X144788855Y-75801501D01*
X144886501Y-75703855D01*
X145001311Y-75627142D01*
X145003238Y-75626344D01*
X145024848Y-75614793D01*
X145043790Y-75599248D01*
X145059336Y-75580306D01*
X145070887Y-75558695D01*
X145078000Y-75535246D01*
X145080402Y-75510860D01*
X145078000Y-75486474D01*
X145070887Y-75463025D01*
X145059336Y-75441415D01*
X145043791Y-75422473D01*
X145024849Y-75406927D01*
X145003238Y-75395376D01*
X145001311Y-75394578D01*
X144886501Y-75317865D01*
X144788855Y-75220219D01*
X144712142Y-75105409D01*
X144659298Y-74977833D01*
X144632360Y-74842404D01*
X144632360Y-74704316D01*
X144659298Y-74568887D01*
X144712142Y-74441311D01*
X144788855Y-74326501D01*
X144886501Y-74228855D01*
X145001311Y-74152142D01*
X145003238Y-74151344D01*
X145024848Y-74139793D01*
X145043790Y-74124248D01*
X145059336Y-74105306D01*
X145070887Y-74083695D01*
X145078000Y-74060246D01*
X145080402Y-74035860D01*
X145078000Y-74011474D01*
X145070887Y-73988025D01*
X145059336Y-73966415D01*
X145043791Y-73947473D01*
X145024849Y-73931927D01*
X145003238Y-73920376D01*
X145001311Y-73919578D01*
X144886501Y-73842865D01*
X144788855Y-73745219D01*
X144712142Y-73630409D01*
X144659298Y-73502833D01*
X144632360Y-73367404D01*
X144632360Y-73229316D01*
X144659298Y-73093887D01*
X144712142Y-72966311D01*
X144788855Y-72851501D01*
X144886501Y-72753855D01*
X145001311Y-72677142D01*
X145003238Y-72676344D01*
X145024848Y-72664793D01*
X145043790Y-72649248D01*
X145059336Y-72630306D01*
X145070887Y-72608695D01*
X145078000Y-72585246D01*
X145080402Y-72560860D01*
X145078000Y-72536474D01*
X145070887Y-72513025D01*
X145059336Y-72491415D01*
X145043791Y-72472473D01*
X145024849Y-72456927D01*
X145003238Y-72445376D01*
X145001311Y-72444578D01*
X144886501Y-72367865D01*
X144788855Y-72270219D01*
X144712142Y-72155409D01*
X144659298Y-72027833D01*
X144632360Y-71892404D01*
X144632360Y-71754316D01*
X144659298Y-71618887D01*
X144712142Y-71491311D01*
X144788855Y-71376501D01*
X144886501Y-71278855D01*
X145001311Y-71202142D01*
X145128887Y-71149298D01*
X145264316Y-71122360D01*
X145402404Y-71122360D01*
X145537833Y-71149298D01*
G37*
G36*
X148037833Y-71149298D02*
G01*
X148165409Y-71202142D01*
X148280219Y-71278855D01*
X148377865Y-71376501D01*
X148454578Y-71491311D01*
X148507422Y-71618887D01*
X148534360Y-71754316D01*
X148534360Y-71892404D01*
X148507422Y-72027833D01*
X148454578Y-72155409D01*
X148377865Y-72270219D01*
X148280219Y-72367865D01*
X148165409Y-72444578D01*
X148163482Y-72445376D01*
X148141872Y-72456927D01*
X148122930Y-72472472D01*
X148107384Y-72491414D01*
X148095833Y-72513025D01*
X148088720Y-72536474D01*
X148086318Y-72560860D01*
X148088720Y-72585246D01*
X148095833Y-72608695D01*
X148107384Y-72630305D01*
X148122929Y-72649247D01*
X148141871Y-72664793D01*
X148163482Y-72676344D01*
X148165409Y-72677142D01*
X148280219Y-72753855D01*
X148377865Y-72851501D01*
X148454578Y-72966311D01*
X148507422Y-73093887D01*
X148534360Y-73229316D01*
X148534360Y-73367404D01*
X148507422Y-73502833D01*
X148454578Y-73630409D01*
X148377865Y-73745219D01*
X148280219Y-73842865D01*
X148165409Y-73919578D01*
X148163482Y-73920376D01*
X148141872Y-73931927D01*
X148122930Y-73947472D01*
X148107384Y-73966414D01*
X148095833Y-73988025D01*
X148088720Y-74011474D01*
X148086318Y-74035860D01*
X148088720Y-74060246D01*
X148095833Y-74083695D01*
X148107384Y-74105305D01*
X148122929Y-74124247D01*
X148141871Y-74139793D01*
X148163482Y-74151344D01*
X148165409Y-74152142D01*
X148280219Y-74228855D01*
X148377865Y-74326501D01*
X148454578Y-74441311D01*
X148507422Y-74568887D01*
X148534360Y-74704316D01*
X148534360Y-74842404D01*
X148507422Y-74977833D01*
X148454578Y-75105409D01*
X148377865Y-75220219D01*
X148280219Y-75317865D01*
X148165409Y-75394578D01*
X148163482Y-75395376D01*
X148141872Y-75406927D01*
X148122930Y-75422472D01*
X148107384Y-75441414D01*
X148095833Y-75463025D01*
X148088720Y-75486474D01*
X148086318Y-75510860D01*
X148088720Y-75535246D01*
X148095833Y-75558695D01*
X148107384Y-75580305D01*
X148122929Y-75599247D01*
X148141871Y-75614793D01*
X148163482Y-75626344D01*
X148165409Y-75627142D01*
X148280219Y-75703855D01*
X148377865Y-75801501D01*
X148454578Y-75916311D01*
X148507422Y-76043887D01*
X148534360Y-76179316D01*
X148534360Y-76317404D01*
X148507422Y-76452833D01*
X148454578Y-76580409D01*
X148377865Y-76695219D01*
X148280219Y-76792865D01*
X148165409Y-76869578D01*
X148163482Y-76870376D01*
X148141872Y-76881927D01*
X148122930Y-76897472D01*
X148107384Y-76916414D01*
X148095833Y-76938025D01*
X148088720Y-76961474D01*
X148086318Y-76985860D01*
X148088720Y-77010246D01*
X148095833Y-77033695D01*
X148107384Y-77055305D01*
X148122929Y-77074247D01*
X148141871Y-77089793D01*
X148163482Y-77101344D01*
X148165409Y-77102142D01*
X148280219Y-77178855D01*
X148377865Y-77276501D01*
X148454578Y-77391311D01*
X148507422Y-77518887D01*
X148534360Y-77654316D01*
X148534360Y-77792404D01*
X148507422Y-77927833D01*
X148454578Y-78055409D01*
X148377865Y-78170219D01*
X148280219Y-78267865D01*
X148165409Y-78344578D01*
X148163482Y-78345376D01*
X148141872Y-78356927D01*
X148122930Y-78372472D01*
X148107384Y-78391414D01*
X148095833Y-78413025D01*
X148088720Y-78436474D01*
X148086318Y-78460860D01*
X148088720Y-78485246D01*
X148095833Y-78508695D01*
X148107384Y-78530305D01*
X148122929Y-78549247D01*
X148141871Y-78564793D01*
X148163482Y-78576344D01*
X148165409Y-78577142D01*
X148280219Y-78653855D01*
X148377865Y-78751501D01*
X148454578Y-78866311D01*
X148507422Y-78993887D01*
X148534360Y-79129316D01*
X148534360Y-79267404D01*
X148507422Y-79402833D01*
X148454578Y-79530409D01*
X148377865Y-79645219D01*
X148280219Y-79742865D01*
X148165409Y-79819578D01*
X148163482Y-79820376D01*
X148141872Y-79831927D01*
X148122930Y-79847472D01*
X148107384Y-79866414D01*
X148095833Y-79888025D01*
X148088720Y-79911474D01*
X148086318Y-79935860D01*
X148088720Y-79960246D01*
X148095833Y-79983695D01*
X148107384Y-80005305D01*
X148122929Y-80024247D01*
X148141871Y-80039793D01*
X148163482Y-80051344D01*
X148165409Y-80052142D01*
X148280219Y-80128855D01*
X148377865Y-80226501D01*
X148454578Y-80341311D01*
X148507422Y-80468887D01*
X148534360Y-80604316D01*
X148534360Y-80742404D01*
X148507422Y-80877833D01*
X148454578Y-81005409D01*
X148377865Y-81120219D01*
X148280219Y-81217865D01*
X148165409Y-81294578D01*
X148163482Y-81295376D01*
X148141872Y-81306927D01*
X148122930Y-81322472D01*
X148107384Y-81341414D01*
X148095833Y-81363025D01*
X148088720Y-81386474D01*
X148086318Y-81410860D01*
X148088720Y-81435246D01*
X148095833Y-81458695D01*
X148107384Y-81480305D01*
X148122929Y-81499247D01*
X148141871Y-81514793D01*
X148163482Y-81526344D01*
X148165409Y-81527142D01*
X148280219Y-81603855D01*
X148377865Y-81701501D01*
X148454578Y-81816311D01*
X148507422Y-81943887D01*
X148534360Y-82079316D01*
X148534360Y-82217404D01*
X148507422Y-82352833D01*
X148454578Y-82480409D01*
X148377865Y-82595219D01*
X148280219Y-82692865D01*
X148165409Y-82769578D01*
X148163482Y-82770376D01*
X148141872Y-82781927D01*
X148122930Y-82797472D01*
X148107384Y-82816414D01*
X148095833Y-82838025D01*
X148088720Y-82861474D01*
X148086318Y-82885860D01*
X148088720Y-82910246D01*
X148095833Y-82933695D01*
X148107384Y-82955305D01*
X148122929Y-82974247D01*
X148141871Y-82989793D01*
X148163482Y-83001344D01*
X148165409Y-83002142D01*
X148280219Y-83078855D01*
X148377865Y-83176501D01*
X148454578Y-83291311D01*
X148507422Y-83418887D01*
X148534360Y-83554316D01*
X148534360Y-83692404D01*
X148507422Y-83827833D01*
X148454578Y-83955409D01*
X148377865Y-84070219D01*
X148280219Y-84167865D01*
X148165409Y-84244578D01*
X148163482Y-84245376D01*
X148141872Y-84256927D01*
X148122930Y-84272472D01*
X148107384Y-84291414D01*
X148095833Y-84313025D01*
X148088720Y-84336474D01*
X148086318Y-84360860D01*
X148088720Y-84385246D01*
X148095833Y-84408695D01*
X148107384Y-84430305D01*
X148122929Y-84449247D01*
X148141871Y-84464793D01*
X148163482Y-84476344D01*
X148165409Y-84477142D01*
X148280219Y-84553855D01*
X148377865Y-84651501D01*
X148454578Y-84766311D01*
X148507422Y-84893887D01*
X148534360Y-85029316D01*
X148534360Y-85167404D01*
X148507422Y-85302833D01*
X148454578Y-85430409D01*
X148377865Y-85545219D01*
X148280219Y-85642865D01*
X148279375Y-85643429D01*
X148260433Y-85658975D01*
X148244888Y-85677917D01*
X148233337Y-85699528D01*
X148226224Y-85722977D01*
X148223823Y-85747363D01*
X148226225Y-85771749D01*
X148233339Y-85795198D01*
X148244890Y-85816808D01*
X148260436Y-85835750D01*
X148279378Y-85851295D01*
X148300989Y-85862846D01*
X148324438Y-85869959D01*
X148348822Y-85872360D01*
X148534360Y-85872360D01*
X148534360Y-87274360D01*
X147132360Y-87274360D01*
X147132360Y-85872360D01*
X147317898Y-85872360D01*
X147342284Y-85869958D01*
X147365733Y-85862845D01*
X147387344Y-85851294D01*
X147406286Y-85835749D01*
X147421831Y-85816807D01*
X147433382Y-85795196D01*
X147440495Y-85771747D01*
X147442897Y-85747361D01*
X147440495Y-85722975D01*
X147433382Y-85699526D01*
X147421831Y-85677915D01*
X147406286Y-85658973D01*
X147387345Y-85643429D01*
X147386501Y-85642865D01*
X147288855Y-85545219D01*
X147212142Y-85430409D01*
X147159298Y-85302833D01*
X147132360Y-85167404D01*
X147132360Y-85029316D01*
X147159298Y-84893887D01*
X147212142Y-84766311D01*
X147288855Y-84651501D01*
X147386501Y-84553855D01*
X147501311Y-84477142D01*
X147503238Y-84476344D01*
X147524848Y-84464793D01*
X147543790Y-84449248D01*
X147559336Y-84430306D01*
X147570887Y-84408695D01*
X147578000Y-84385246D01*
X147580402Y-84360860D01*
X147578000Y-84336474D01*
X147570887Y-84313025D01*
X147559336Y-84291415D01*
X147543791Y-84272473D01*
X147524849Y-84256927D01*
X147503238Y-84245376D01*
X147501311Y-84244578D01*
X147386501Y-84167865D01*
X147288855Y-84070219D01*
X147212142Y-83955409D01*
X147159298Y-83827833D01*
X147132360Y-83692404D01*
X147132360Y-83554316D01*
X147159298Y-83418887D01*
X147212142Y-83291311D01*
X147288855Y-83176501D01*
X147386501Y-83078855D01*
X147501311Y-83002142D01*
X147503238Y-83001344D01*
X147524848Y-82989793D01*
X147543790Y-82974248D01*
X147559336Y-82955306D01*
X147570887Y-82933695D01*
X147578000Y-82910246D01*
X147580402Y-82885860D01*
X147578000Y-82861474D01*
X147570887Y-82838025D01*
X147559336Y-82816415D01*
X147543791Y-82797473D01*
X147524849Y-82781927D01*
X147503238Y-82770376D01*
X147501311Y-82769578D01*
X147386501Y-82692865D01*
X147288855Y-82595219D01*
X147212142Y-82480409D01*
X147159298Y-82352833D01*
X147132360Y-82217404D01*
X147132360Y-82079316D01*
X147159298Y-81943887D01*
X147212142Y-81816311D01*
X147288855Y-81701501D01*
X147386501Y-81603855D01*
X147501311Y-81527142D01*
X147503238Y-81526344D01*
X147524848Y-81514793D01*
X147543790Y-81499248D01*
X147559336Y-81480306D01*
X147570887Y-81458695D01*
X147578000Y-81435246D01*
X147580402Y-81410860D01*
X147578000Y-81386474D01*
X147570887Y-81363025D01*
X147559336Y-81341415D01*
X147543791Y-81322473D01*
X147524849Y-81306927D01*
X147503238Y-81295376D01*
X147501311Y-81294578D01*
X147386501Y-81217865D01*
X147288855Y-81120219D01*
X147212142Y-81005409D01*
X147159298Y-80877833D01*
X147132360Y-80742404D01*
X147132360Y-80604316D01*
X147159298Y-80468887D01*
X147212142Y-80341311D01*
X147288855Y-80226501D01*
X147386501Y-80128855D01*
X147501311Y-80052142D01*
X147503238Y-80051344D01*
X147524848Y-80039793D01*
X147543790Y-80024248D01*
X147559336Y-80005306D01*
X147570887Y-79983695D01*
X147578000Y-79960246D01*
X147580402Y-79935860D01*
X147578000Y-79911474D01*
X147570887Y-79888025D01*
X147559336Y-79866415D01*
X147543791Y-79847473D01*
X147524849Y-79831927D01*
X147503238Y-79820376D01*
X147501311Y-79819578D01*
X147386501Y-79742865D01*
X147288855Y-79645219D01*
X147212142Y-79530409D01*
X147159298Y-79402833D01*
X147132360Y-79267404D01*
X147132360Y-79129316D01*
X147159298Y-78993887D01*
X147212142Y-78866311D01*
X147288855Y-78751501D01*
X147386501Y-78653855D01*
X147501311Y-78577142D01*
X147503238Y-78576344D01*
X147524848Y-78564793D01*
X147543790Y-78549248D01*
X147559336Y-78530306D01*
X147570887Y-78508695D01*
X147578000Y-78485246D01*
X147580402Y-78460860D01*
X147578000Y-78436474D01*
X147570887Y-78413025D01*
X147559336Y-78391415D01*
X147543791Y-78372473D01*
X147524849Y-78356927D01*
X147503238Y-78345376D01*
X147501311Y-78344578D01*
X147386501Y-78267865D01*
X147288855Y-78170219D01*
X147212142Y-78055409D01*
X147159298Y-77927833D01*
X147132360Y-77792404D01*
X147132360Y-77654316D01*
X147159298Y-77518887D01*
X147212142Y-77391311D01*
X147288855Y-77276501D01*
X147386501Y-77178855D01*
X147501311Y-77102142D01*
X147503238Y-77101344D01*
X147524848Y-77089793D01*
X147543790Y-77074248D01*
X147559336Y-77055306D01*
X147570887Y-77033695D01*
X147578000Y-77010246D01*
X147580402Y-76985860D01*
X147578000Y-76961474D01*
X147570887Y-76938025D01*
X147559336Y-76916415D01*
X147543791Y-76897473D01*
X147524849Y-76881927D01*
X147503238Y-76870376D01*
X147501311Y-76869578D01*
X147386501Y-76792865D01*
X147288855Y-76695219D01*
X147212142Y-76580409D01*
X147159298Y-76452833D01*
X147132360Y-76317404D01*
X147132360Y-76179316D01*
X147159298Y-76043887D01*
X147212142Y-75916311D01*
X147288855Y-75801501D01*
X147386501Y-75703855D01*
X147501311Y-75627142D01*
X147503238Y-75626344D01*
X147524848Y-75614793D01*
X147543790Y-75599248D01*
X147559336Y-75580306D01*
X147570887Y-75558695D01*
X147578000Y-75535246D01*
X147580402Y-75510860D01*
X147578000Y-75486474D01*
X147570887Y-75463025D01*
X147559336Y-75441415D01*
X147543791Y-75422473D01*
X147524849Y-75406927D01*
X147503238Y-75395376D01*
X147501311Y-75394578D01*
X147386501Y-75317865D01*
X147288855Y-75220219D01*
X147212142Y-75105409D01*
X147159298Y-74977833D01*
X147132360Y-74842404D01*
X147132360Y-74704316D01*
X147159298Y-74568887D01*
X147212142Y-74441311D01*
X147288855Y-74326501D01*
X147386501Y-74228855D01*
X147501311Y-74152142D01*
X147503238Y-74151344D01*
X147524848Y-74139793D01*
X147543790Y-74124248D01*
X147559336Y-74105306D01*
X147570887Y-74083695D01*
X147578000Y-74060246D01*
X147580402Y-74035860D01*
X147578000Y-74011474D01*
X147570887Y-73988025D01*
X147559336Y-73966415D01*
X147543791Y-73947473D01*
X147524849Y-73931927D01*
X147503238Y-73920376D01*
X147501311Y-73919578D01*
X147386501Y-73842865D01*
X147288855Y-73745219D01*
X147212142Y-73630409D01*
X147159298Y-73502833D01*
X147132360Y-73367404D01*
X147132360Y-73229316D01*
X147159298Y-73093887D01*
X147212142Y-72966311D01*
X147288855Y-72851501D01*
X147386501Y-72753855D01*
X147501311Y-72677142D01*
X147503238Y-72676344D01*
X147524848Y-72664793D01*
X147543790Y-72649248D01*
X147559336Y-72630306D01*
X147570887Y-72608695D01*
X147578000Y-72585246D01*
X147580402Y-72560860D01*
X147578000Y-72536474D01*
X147570887Y-72513025D01*
X147559336Y-72491415D01*
X147543791Y-72472473D01*
X147524849Y-72456927D01*
X147503238Y-72445376D01*
X147501311Y-72444578D01*
X147386501Y-72367865D01*
X147288855Y-72270219D01*
X147212142Y-72155409D01*
X147159298Y-72027833D01*
X147132360Y-71892404D01*
X147132360Y-71754316D01*
X147159298Y-71618887D01*
X147212142Y-71491311D01*
X147288855Y-71376501D01*
X147386501Y-71278855D01*
X147501311Y-71202142D01*
X147628887Y-71149298D01*
X147764316Y-71122360D01*
X147902404Y-71122360D01*
X148037833Y-71149298D01*
G37*
G36*
X140598000Y-86866840D02*
G01*
X139596000Y-86866840D01*
X139596000Y-85964840D01*
X140598000Y-85964840D01*
X140598000Y-86866840D01*
G37*
G36*
X154160080Y-86572280D02*
G01*
X153158080Y-86572280D01*
X153158080Y-85670280D01*
X154160080Y-85670280D01*
X154160080Y-86572280D01*
G37*
G36*
X115176204Y-84834347D02*
G01*
X115212744Y-84845432D01*
X115246421Y-84863433D01*
X115275941Y-84887659D01*
X115300167Y-84917179D01*
X115318168Y-84950856D01*
X115329253Y-84987396D01*
X115333600Y-85031538D01*
X115333600Y-85980462D01*
X115329253Y-86024604D01*
X115318168Y-86061144D01*
X115300167Y-86094821D01*
X115275941Y-86124341D01*
X115246421Y-86148567D01*
X115212744Y-86166568D01*
X115176204Y-86177653D01*
X115132062Y-86182000D01*
X112783138Y-86182000D01*
X112738996Y-86177653D01*
X112702456Y-86166568D01*
X112668779Y-86148567D01*
X112639259Y-86124341D01*
X112615033Y-86094821D01*
X112597032Y-86061144D01*
X112585947Y-86024604D01*
X112581600Y-85980462D01*
X112581600Y-85031538D01*
X112585947Y-84987396D01*
X112597032Y-84950856D01*
X112615033Y-84917179D01*
X112639259Y-84887659D01*
X112668779Y-84863433D01*
X112702456Y-84845432D01*
X112738996Y-84834347D01*
X112783138Y-84830000D01*
X115132062Y-84830000D01*
X115176204Y-84834347D01*
G37*
G36*
X123151804Y-84834347D02*
G01*
X123188344Y-84845432D01*
X123222021Y-84863433D01*
X123251541Y-84887659D01*
X123275767Y-84917179D01*
X123293768Y-84950856D01*
X123304853Y-84987396D01*
X123309200Y-85031538D01*
X123309200Y-85980462D01*
X123304853Y-86024604D01*
X123293768Y-86061144D01*
X123275767Y-86094821D01*
X123251541Y-86124341D01*
X123222021Y-86148567D01*
X123188344Y-86166568D01*
X123151804Y-86177653D01*
X123107662Y-86182000D01*
X120758738Y-86182000D01*
X120714596Y-86177653D01*
X120678056Y-86166568D01*
X120644379Y-86148567D01*
X120614859Y-86124341D01*
X120590633Y-86094821D01*
X120572632Y-86061144D01*
X120561547Y-86024604D01*
X120557200Y-85980462D01*
X120557200Y-85031538D01*
X120561547Y-84987396D01*
X120572632Y-84950856D01*
X120590633Y-84917179D01*
X120614859Y-84887659D01*
X120644379Y-84863433D01*
X120678056Y-84845432D01*
X120714596Y-84834347D01*
X120758738Y-84830000D01*
X123107662Y-84830000D01*
X123151804Y-84834347D01*
G37*
G36*
X119240204Y-84808947D02*
G01*
X119276744Y-84820032D01*
X119310421Y-84838033D01*
X119339941Y-84862259D01*
X119364167Y-84891779D01*
X119382168Y-84925456D01*
X119393253Y-84961996D01*
X119397600Y-85006138D01*
X119397600Y-85955062D01*
X119393253Y-85999204D01*
X119382168Y-86035744D01*
X119364167Y-86069421D01*
X119339941Y-86098941D01*
X119310421Y-86123167D01*
X119276744Y-86141168D01*
X119240204Y-86152253D01*
X119196062Y-86156600D01*
X116847138Y-86156600D01*
X116802996Y-86152253D01*
X116766456Y-86141168D01*
X116732779Y-86123167D01*
X116703259Y-86098941D01*
X116679033Y-86069421D01*
X116661032Y-86035744D01*
X116649947Y-85999204D01*
X116645600Y-85955062D01*
X116645600Y-85006138D01*
X116649947Y-84961996D01*
X116661032Y-84925456D01*
X116679033Y-84891779D01*
X116703259Y-84862259D01*
X116732779Y-84838033D01*
X116766456Y-84820032D01*
X116802996Y-84808947D01*
X116847138Y-84804600D01*
X119196062Y-84804600D01*
X119240204Y-84808947D01*
G37*
G36*
X152160080Y-85622280D02*
G01*
X151158080Y-85622280D01*
X151158080Y-84720280D01*
X152160080Y-84720280D01*
X152160080Y-85622280D01*
G37*
G36*
X140598000Y-85195600D02*
G01*
X139596000Y-85195600D01*
X139596000Y-84293600D01*
X140598000Y-84293600D01*
X140598000Y-85195600D01*
G37*
G36*
X154160080Y-84672280D02*
G01*
X153158080Y-84672280D01*
X153158080Y-83770280D01*
X154160080Y-83770280D01*
X154160080Y-84672280D01*
G37*
G36*
X142598000Y-84245600D02*
G01*
X141596000Y-84245600D01*
X141596000Y-83343600D01*
X142598000Y-83343600D01*
X142598000Y-84245600D01*
G37*
G36*
X115176204Y-82034347D02*
G01*
X115212744Y-82045432D01*
X115246421Y-82063433D01*
X115275941Y-82087659D01*
X115300167Y-82117179D01*
X115318168Y-82150856D01*
X115329253Y-82187396D01*
X115333600Y-82231538D01*
X115333600Y-83180462D01*
X115329253Y-83224604D01*
X115318168Y-83261144D01*
X115300167Y-83294821D01*
X115275941Y-83324341D01*
X115246421Y-83348567D01*
X115212744Y-83366568D01*
X115176204Y-83377653D01*
X115132062Y-83382000D01*
X112783138Y-83382000D01*
X112738996Y-83377653D01*
X112702456Y-83366568D01*
X112668779Y-83348567D01*
X112639259Y-83324341D01*
X112615033Y-83294821D01*
X112597032Y-83261144D01*
X112585947Y-83224604D01*
X112581600Y-83180462D01*
X112581600Y-82231538D01*
X112585947Y-82187396D01*
X112597032Y-82150856D01*
X112615033Y-82117179D01*
X112639259Y-82087659D01*
X112668779Y-82063433D01*
X112702456Y-82045432D01*
X112738996Y-82034347D01*
X112783138Y-82030000D01*
X115132062Y-82030000D01*
X115176204Y-82034347D01*
G37*
G36*
X123151804Y-82034347D02*
G01*
X123188344Y-82045432D01*
X123222021Y-82063433D01*
X123251541Y-82087659D01*
X123275767Y-82117179D01*
X123293768Y-82150856D01*
X123304853Y-82187396D01*
X123309200Y-82231538D01*
X123309200Y-83180462D01*
X123304853Y-83224604D01*
X123293768Y-83261144D01*
X123275767Y-83294821D01*
X123251541Y-83324341D01*
X123222021Y-83348567D01*
X123188344Y-83366568D01*
X123151804Y-83377653D01*
X123107662Y-83382000D01*
X120758738Y-83382000D01*
X120714596Y-83377653D01*
X120678056Y-83366568D01*
X120644379Y-83348567D01*
X120614859Y-83324341D01*
X120590633Y-83294821D01*
X120572632Y-83261144D01*
X120561547Y-83224604D01*
X120557200Y-83180462D01*
X120557200Y-82231538D01*
X120561547Y-82187396D01*
X120572632Y-82150856D01*
X120590633Y-82117179D01*
X120614859Y-82087659D01*
X120644379Y-82063433D01*
X120678056Y-82045432D01*
X120714596Y-82034347D01*
X120758738Y-82030000D01*
X123107662Y-82030000D01*
X123151804Y-82034347D01*
G37*
G36*
X119240204Y-82008947D02*
G01*
X119276744Y-82020032D01*
X119310421Y-82038033D01*
X119339941Y-82062259D01*
X119364167Y-82091779D01*
X119382168Y-82125456D01*
X119393253Y-82161996D01*
X119397600Y-82206138D01*
X119397600Y-83155062D01*
X119393253Y-83199204D01*
X119382168Y-83235744D01*
X119364167Y-83269421D01*
X119339941Y-83298941D01*
X119310421Y-83323167D01*
X119276744Y-83341168D01*
X119240204Y-83352253D01*
X119196062Y-83356600D01*
X116847138Y-83356600D01*
X116802996Y-83352253D01*
X116766456Y-83341168D01*
X116732779Y-83323167D01*
X116703259Y-83298941D01*
X116679033Y-83269421D01*
X116661032Y-83235744D01*
X116649947Y-83199204D01*
X116645600Y-83155062D01*
X116645600Y-82206138D01*
X116649947Y-82161996D01*
X116661032Y-82125456D01*
X116679033Y-82091779D01*
X116703259Y-82062259D01*
X116732779Y-82038033D01*
X116766456Y-82020032D01*
X116802996Y-82008947D01*
X116847138Y-82004600D01*
X119196062Y-82004600D01*
X119240204Y-82008947D01*
G37*
G36*
X140598000Y-83295600D02*
G01*
X139596000Y-83295600D01*
X139596000Y-82393600D01*
X140598000Y-82393600D01*
X140598000Y-83295600D01*
G37*
G36*
X137072480Y-83051840D02*
G01*
X136070480Y-83051840D01*
X136070480Y-82149840D01*
X137072480Y-82149840D01*
X137072480Y-83051840D01*
G37*
G36*
X153281240Y-82955320D02*
G01*
X152279240Y-82955320D01*
X152279240Y-82053320D01*
X153281240Y-82053320D01*
X153281240Y-82955320D01*
G37*
G36*
X139072480Y-82101840D02*
G01*
X138070480Y-82101840D01*
X138070480Y-81199840D01*
X139072480Y-81199840D01*
X139072480Y-82101840D01*
G37*
G36*
X151281240Y-82005320D02*
G01*
X150279240Y-82005320D01*
X150279240Y-81103320D01*
X151281240Y-81103320D01*
X151281240Y-82005320D01*
G37*
G36*
X137072480Y-81151840D02*
G01*
X136070480Y-81151840D01*
X136070480Y-80249840D01*
X137072480Y-80249840D01*
X137072480Y-81151840D01*
G37*
G36*
X153281240Y-81055320D02*
G01*
X152279240Y-81055320D01*
X152279240Y-80153320D01*
X153281240Y-80153320D01*
X153281240Y-81055320D01*
G37*
G36*
X140572600Y-80755680D02*
G01*
X139570600Y-80755680D01*
X139570600Y-79853680D01*
X140572600Y-79853680D01*
X140572600Y-80755680D01*
G37*
G36*
X156776280Y-80643920D02*
G01*
X155774280Y-80643920D01*
X155774280Y-79741920D01*
X156776280Y-79741920D01*
X156776280Y-80643920D01*
G37*
G36*
X109145000Y-80024400D02*
G01*
X105613000Y-80024400D01*
X105613000Y-78132400D01*
X109145000Y-78132400D01*
X109145000Y-80024400D01*
G37*
G36*
X129465000Y-80024400D02*
G01*
X125933000Y-80024400D01*
X125933000Y-78132400D01*
X129465000Y-78132400D01*
X129465000Y-80024400D01*
G37*
G36*
X142572600Y-79805680D02*
G01*
X141570600Y-79805680D01*
X141570600Y-78903680D01*
X142572600Y-78903680D01*
X142572600Y-79805680D01*
G37*
G36*
X154776280Y-79693920D02*
G01*
X153774280Y-79693920D01*
X153774280Y-78791920D01*
X154776280Y-78791920D01*
X154776280Y-79693920D01*
G37*
G36*
X140572600Y-78855680D02*
G01*
X139570600Y-78855680D01*
X139570600Y-77953680D01*
X140572600Y-77953680D01*
X140572600Y-78855680D01*
G37*
G36*
X156776280Y-78743920D02*
G01*
X155774280Y-78743920D01*
X155774280Y-77841920D01*
X156776280Y-77841920D01*
X156776280Y-78743920D01*
G37*
G36*
X137082640Y-78495080D02*
G01*
X136080640Y-78495080D01*
X136080640Y-77593080D01*
X137082640Y-77593080D01*
X137082640Y-78495080D01*
G37*
G36*
X153266000Y-78378240D02*
G01*
X152264000Y-78378240D01*
X152264000Y-77476240D01*
X153266000Y-77476240D01*
X153266000Y-78378240D01*
G37*
G36*
X139082640Y-77545080D02*
G01*
X138080640Y-77545080D01*
X138080640Y-76643080D01*
X139082640Y-76643080D01*
X139082640Y-77545080D01*
G37*
G36*
X129465000Y-77524400D02*
G01*
X125933000Y-77524400D01*
X125933000Y-75632400D01*
X129465000Y-75632400D01*
X129465000Y-77524400D01*
G37*
G36*
X109145000Y-77524400D02*
G01*
X105613000Y-77524400D01*
X105613000Y-75632400D01*
X109145000Y-75632400D01*
X109145000Y-77524400D01*
G37*
G36*
X151266000Y-77428240D02*
G01*
X150264000Y-77428240D01*
X150264000Y-76526240D01*
X151266000Y-76526240D01*
X151266000Y-77428240D01*
G37*
G36*
X137082640Y-76595080D02*
G01*
X136080640Y-76595080D01*
X136080640Y-75693080D01*
X137082640Y-75693080D01*
X137082640Y-76595080D01*
G37*
G36*
X153266000Y-76478240D02*
G01*
X152264000Y-76478240D01*
X152264000Y-75576240D01*
X153266000Y-75576240D01*
X153266000Y-76478240D01*
G37*
G36*
X140582760Y-76148120D02*
G01*
X139580760Y-76148120D01*
X139580760Y-75246120D01*
X140582760Y-75246120D01*
X140582760Y-76148120D01*
G37*
G36*
X156771200Y-76000800D02*
G01*
X155769200Y-76000800D01*
X155769200Y-75098800D01*
X156771200Y-75098800D01*
X156771200Y-76000800D01*
G37*
G36*
X142582760Y-75198120D02*
G01*
X141580760Y-75198120D01*
X141580760Y-74296120D01*
X142582760Y-74296120D01*
X142582760Y-75198120D01*
G37*
G36*
X154771200Y-75050800D02*
G01*
X153769200Y-75050800D01*
X153769200Y-74148800D01*
X154771200Y-74148800D01*
X154771200Y-75050800D01*
G37*
G36*
X109145000Y-75024400D02*
G01*
X105613000Y-75024400D01*
X105613000Y-73132400D01*
X109145000Y-73132400D01*
X109145000Y-75024400D01*
G37*
G36*
X129465000Y-75024400D02*
G01*
X125933000Y-75024400D01*
X125933000Y-73132400D01*
X129465000Y-73132400D01*
X129465000Y-75024400D01*
G37*
G36*
X140582760Y-74248120D02*
G01*
X139580760Y-74248120D01*
X139580760Y-73346120D01*
X140582760Y-73346120D01*
X140582760Y-74248120D01*
G37*
G36*
X156771200Y-74100800D02*
G01*
X155769200Y-74100800D01*
X155769200Y-73198800D01*
X156771200Y-73198800D01*
X156771200Y-74100800D01*
G37*
G36*
X137077560Y-73877360D02*
G01*
X136075560Y-73877360D01*
X136075560Y-72975360D01*
X137077560Y-72975360D01*
X137077560Y-73877360D01*
G37*
G36*
X153301560Y-73669080D02*
G01*
X152299560Y-73669080D01*
X152299560Y-72767080D01*
X153301560Y-72767080D01*
X153301560Y-73669080D01*
G37*
G36*
X139077560Y-72927360D02*
G01*
X138075560Y-72927360D01*
X138075560Y-72025360D01*
X139077560Y-72025360D01*
X139077560Y-72927360D01*
G37*
G36*
X151301560Y-72719080D02*
G01*
X150299560Y-72719080D01*
X150299560Y-71817080D01*
X151301560Y-71817080D01*
X151301560Y-72719080D01*
G37*
G36*
X129465000Y-72524400D02*
G01*
X125933000Y-72524400D01*
X125933000Y-70632400D01*
X129465000Y-70632400D01*
X129465000Y-72524400D01*
G37*
G36*
X109145000Y-72524400D02*
G01*
X105613000Y-72524400D01*
X105613000Y-70632400D01*
X109145000Y-70632400D01*
X109145000Y-72524400D01*
G37*
G36*
X137077560Y-71977360D02*
G01*
X136075560Y-71977360D01*
X136075560Y-71075360D01*
X137077560Y-71075360D01*
X137077560Y-71977360D01*
G37*
G36*
X153301560Y-71769080D02*
G01*
X152299560Y-71769080D01*
X152299560Y-70867080D01*
X153301560Y-70867080D01*
X153301560Y-71769080D01*
G37*
G36*
X140572600Y-71642160D02*
G01*
X139570600Y-71642160D01*
X139570600Y-70740160D01*
X140572600Y-70740160D01*
X140572600Y-71642160D01*
G37*
G36*
X142572600Y-70692160D02*
G01*
X141570600Y-70692160D01*
X141570600Y-69790160D01*
X142572600Y-69790160D01*
X142572600Y-70692160D01*
G37*
G36*
X145139560Y-70126720D02*
G01*
X144237560Y-70126720D01*
X144237560Y-69124720D01*
X145139560Y-69124720D01*
X145139560Y-70126720D01*
G37*
G36*
X149117200Y-70111480D02*
G01*
X148215200Y-70111480D01*
X148215200Y-69109480D01*
X149117200Y-69109480D01*
X149117200Y-70111480D01*
G37*
G36*
X129465000Y-70024400D02*
G01*
X125933000Y-70024400D01*
X125933000Y-68132400D01*
X129465000Y-68132400D01*
X129465000Y-70024400D01*
G37*
G36*
X109145000Y-70024400D02*
G01*
X105613000Y-70024400D01*
X105613000Y-68132400D01*
X109145000Y-68132400D01*
X109145000Y-70024400D01*
G37*
G36*
X153728280Y-70011480D02*
G01*
X152726280Y-70011480D01*
X152726280Y-69109480D01*
X153728280Y-69109480D01*
X153728280Y-70011480D01*
G37*
G36*
X140572600Y-69742160D02*
G01*
X139570600Y-69742160D01*
X139570600Y-68840160D01*
X140572600Y-68840160D01*
X140572600Y-69742160D01*
G37*
G36*
X151728280Y-69061480D02*
G01*
X150726280Y-69061480D01*
X150726280Y-68159480D01*
X151728280Y-68159480D01*
X151728280Y-69061480D01*
G37*
G36*
X146089560Y-68126720D02*
G01*
X145187560Y-68126720D01*
X145187560Y-67124720D01*
X146089560Y-67124720D01*
X146089560Y-68126720D01*
G37*
G36*
X144189560Y-68126720D02*
G01*
X143287560Y-68126720D01*
X143287560Y-67124720D01*
X144189560Y-67124720D01*
X144189560Y-68126720D01*
G37*
G36*
X153728280Y-68111480D02*
G01*
X152726280Y-68111480D01*
X152726280Y-67209480D01*
X153728280Y-67209480D01*
X153728280Y-68111480D01*
G37*
G36*
X150067200Y-68111480D02*
G01*
X149165200Y-68111480D01*
X149165200Y-67109480D01*
X150067200Y-67109480D01*
X150067200Y-68111480D01*
G37*
G36*
X148167200Y-68111480D02*
G01*
X147265200Y-68111480D01*
X147265200Y-67109480D01*
X148167200Y-67109480D01*
X148167200Y-68111480D01*
G37*
G36*
X129465000Y-67524400D02*
G01*
X125933000Y-67524400D01*
X125933000Y-65632400D01*
X129465000Y-65632400D01*
X129465000Y-67524400D01*
G37*
G36*
X109145000Y-67524400D02*
G01*
X105613000Y-67524400D01*
X105613000Y-65632400D01*
X109145000Y-65632400D01*
X109145000Y-67524400D01*
G37*
G36*
X148311344Y-64175116D02*
G01*
X148331963Y-64181371D01*
X148350959Y-64191524D01*
X148367614Y-64205192D01*
X148381282Y-64221847D01*
X148391435Y-64240843D01*
X148397690Y-64261462D01*
X148400406Y-64289040D01*
X148400406Y-64747760D01*
X148397690Y-64775338D01*
X148391435Y-64795957D01*
X148381282Y-64814953D01*
X148367614Y-64831608D01*
X148350959Y-64845276D01*
X148331963Y-64855429D01*
X148311344Y-64861684D01*
X148283766Y-64864400D01*
X147775046Y-64864400D01*
X147747468Y-64861684D01*
X147726849Y-64855429D01*
X147707853Y-64845276D01*
X147691198Y-64831608D01*
X147677530Y-64814953D01*
X147667377Y-64795957D01*
X147661122Y-64775338D01*
X147658406Y-64747760D01*
X147658406Y-64289040D01*
X147661122Y-64261462D01*
X147667377Y-64240843D01*
X147677530Y-64221847D01*
X147691198Y-64205192D01*
X147707853Y-64191524D01*
X147726849Y-64181371D01*
X147747468Y-64175116D01*
X147775046Y-64172400D01*
X148283766Y-64172400D01*
X148311344Y-64175116D01*
G37*
G36*
X143127608Y-64175116D02*
G01*
X143148227Y-64181371D01*
X143167223Y-64191524D01*
X143183878Y-64205192D01*
X143197546Y-64221847D01*
X143207699Y-64240843D01*
X143213954Y-64261462D01*
X143216670Y-64289040D01*
X143216670Y-64747760D01*
X143213954Y-64775338D01*
X143207699Y-64795957D01*
X143197546Y-64814953D01*
X143183878Y-64831608D01*
X143167223Y-64845276D01*
X143148227Y-64855429D01*
X143127608Y-64861684D01*
X143100030Y-64864400D01*
X142591310Y-64864400D01*
X142563732Y-64861684D01*
X142543113Y-64855429D01*
X142524117Y-64845276D01*
X142507462Y-64831608D01*
X142493794Y-64814953D01*
X142483641Y-64795957D01*
X142477386Y-64775338D01*
X142474670Y-64747760D01*
X142474670Y-64289040D01*
X142477386Y-64261462D01*
X142483641Y-64240843D01*
X142493794Y-64221847D01*
X142507462Y-64205192D01*
X142524117Y-64191524D01*
X142543113Y-64181371D01*
X142563732Y-64175116D01*
X142591310Y-64172400D01*
X143100030Y-64172400D01*
X143127608Y-64175116D01*
G37*
G36*
X150903212Y-64175116D02*
G01*
X150923831Y-64181371D01*
X150942827Y-64191524D01*
X150959482Y-64205192D01*
X150973150Y-64221847D01*
X150983303Y-64240843D01*
X150989558Y-64261462D01*
X150992274Y-64289040D01*
X150992274Y-64747760D01*
X150989558Y-64775338D01*
X150983303Y-64795957D01*
X150973150Y-64814953D01*
X150959482Y-64831608D01*
X150942827Y-64845276D01*
X150923831Y-64855429D01*
X150903212Y-64861684D01*
X150875634Y-64864400D01*
X150366914Y-64864400D01*
X150339336Y-64861684D01*
X150318717Y-64855429D01*
X150299721Y-64845276D01*
X150283066Y-64831608D01*
X150269398Y-64814953D01*
X150259245Y-64795957D01*
X150252990Y-64775338D01*
X150250274Y-64747760D01*
X150250274Y-64289040D01*
X150252990Y-64261462D01*
X150259245Y-64240843D01*
X150269398Y-64221847D01*
X150283066Y-64205192D01*
X150299721Y-64191524D01*
X150318717Y-64181371D01*
X150339336Y-64175116D01*
X150366914Y-64172400D01*
X150875634Y-64172400D01*
X150903212Y-64175116D01*
G37*
G36*
X149607278Y-64175116D02*
G01*
X149627897Y-64181371D01*
X149646893Y-64191524D01*
X149663548Y-64205192D01*
X149677216Y-64221847D01*
X149687369Y-64240843D01*
X149693624Y-64261462D01*
X149696340Y-64289040D01*
X149696340Y-64747760D01*
X149693624Y-64775338D01*
X149687369Y-64795957D01*
X149677216Y-64814953D01*
X149663548Y-64831608D01*
X149646893Y-64845276D01*
X149627897Y-64855429D01*
X149607278Y-64861684D01*
X149579700Y-64864400D01*
X149070980Y-64864400D01*
X149043402Y-64861684D01*
X149022783Y-64855429D01*
X149003787Y-64845276D01*
X148987132Y-64831608D01*
X148973464Y-64814953D01*
X148963311Y-64795957D01*
X148957056Y-64775338D01*
X148954340Y-64747760D01*
X148954340Y-64289040D01*
X148957056Y-64261462D01*
X148963311Y-64240843D01*
X148973464Y-64221847D01*
X148987132Y-64205192D01*
X149003787Y-64191524D01*
X149022783Y-64181371D01*
X149043402Y-64175116D01*
X149070980Y-64172400D01*
X149579700Y-64172400D01*
X149607278Y-64175116D01*
G37*
G36*
X145719476Y-64175116D02*
G01*
X145740095Y-64181371D01*
X145759091Y-64191524D01*
X145775746Y-64205192D01*
X145789414Y-64221847D01*
X145799567Y-64240843D01*
X145805822Y-64261462D01*
X145808538Y-64289040D01*
X145808538Y-64747760D01*
X145805822Y-64775338D01*
X145799567Y-64795957D01*
X145789414Y-64814953D01*
X145775746Y-64831608D01*
X145759091Y-64845276D01*
X145740095Y-64855429D01*
X145719476Y-64861684D01*
X145691898Y-64864400D01*
X145183178Y-64864400D01*
X145155600Y-64861684D01*
X145134981Y-64855429D01*
X145115985Y-64845276D01*
X145099330Y-64831608D01*
X145085662Y-64814953D01*
X145075509Y-64795957D01*
X145069254Y-64775338D01*
X145066538Y-64747760D01*
X145066538Y-64289040D01*
X145069254Y-64261462D01*
X145075509Y-64240843D01*
X145085662Y-64221847D01*
X145099330Y-64205192D01*
X145115985Y-64191524D01*
X145134981Y-64181371D01*
X145155600Y-64175116D01*
X145183178Y-64172400D01*
X145691898Y-64172400D01*
X145719476Y-64175116D01*
G37*
G36*
X147015410Y-64175116D02*
G01*
X147036029Y-64181371D01*
X147055025Y-64191524D01*
X147071680Y-64205192D01*
X147085348Y-64221847D01*
X147095501Y-64240843D01*
X147101756Y-64261462D01*
X147104472Y-64289040D01*
X147104472Y-64747760D01*
X147101756Y-64775338D01*
X147095501Y-64795957D01*
X147085348Y-64814953D01*
X147071680Y-64831608D01*
X147055025Y-64845276D01*
X147036029Y-64855429D01*
X147015410Y-64861684D01*
X146987832Y-64864400D01*
X146479112Y-64864400D01*
X146451534Y-64861684D01*
X146430915Y-64855429D01*
X146411919Y-64845276D01*
X146395264Y-64831608D01*
X146381596Y-64814953D01*
X146371443Y-64795957D01*
X146365188Y-64775338D01*
X146362472Y-64747760D01*
X146362472Y-64289040D01*
X146365188Y-64261462D01*
X146371443Y-64240843D01*
X146381596Y-64221847D01*
X146395264Y-64205192D01*
X146411919Y-64191524D01*
X146430915Y-64181371D01*
X146451534Y-64175116D01*
X146479112Y-64172400D01*
X146987832Y-64172400D01*
X147015410Y-64175116D01*
G37*
G36*
X144423542Y-64175116D02*
G01*
X144444161Y-64181371D01*
X144463157Y-64191524D01*
X144479812Y-64205192D01*
X144493480Y-64221847D01*
X144503633Y-64240843D01*
X144509888Y-64261462D01*
X144512604Y-64289040D01*
X144512604Y-64747760D01*
X144509888Y-64775338D01*
X144503633Y-64795957D01*
X144493480Y-64814953D01*
X144479812Y-64831608D01*
X144463157Y-64845276D01*
X144444161Y-64855429D01*
X144423542Y-64861684D01*
X144395964Y-64864400D01*
X143887244Y-64864400D01*
X143859666Y-64861684D01*
X143839047Y-64855429D01*
X143820051Y-64845276D01*
X143803396Y-64831608D01*
X143789728Y-64814953D01*
X143779575Y-64795957D01*
X143773320Y-64775338D01*
X143770604Y-64747760D01*
X143770604Y-64289040D01*
X143773320Y-64261462D01*
X143779575Y-64240843D01*
X143789728Y-64221847D01*
X143803396Y-64205192D01*
X143820051Y-64191524D01*
X143839047Y-64181371D01*
X143859666Y-64175116D01*
X143887244Y-64172400D01*
X144395964Y-64172400D01*
X144423542Y-64175116D01*
G37*
G36*
X136629138Y-64170036D02*
G01*
X136649757Y-64176291D01*
X136668753Y-64186444D01*
X136685408Y-64200112D01*
X136699076Y-64216767D01*
X136709229Y-64235763D01*
X136715484Y-64256382D01*
X136718200Y-64283960D01*
X136718200Y-64742680D01*
X136715484Y-64770258D01*
X136709229Y-64790877D01*
X136699076Y-64809873D01*
X136685408Y-64826528D01*
X136668753Y-64840196D01*
X136649757Y-64850349D01*
X136629138Y-64856604D01*
X136601560Y-64859320D01*
X136092840Y-64859320D01*
X136065262Y-64856604D01*
X136044643Y-64850349D01*
X136025647Y-64840196D01*
X136008992Y-64826528D01*
X135995324Y-64809873D01*
X135985171Y-64790877D01*
X135978916Y-64770258D01*
X135976200Y-64742680D01*
X135976200Y-64283960D01*
X135978916Y-64256382D01*
X135985171Y-64235763D01*
X135995324Y-64216767D01*
X136008992Y-64200112D01*
X136025647Y-64186444D01*
X136044643Y-64176291D01*
X136065262Y-64170036D01*
X136092840Y-64167320D01*
X136601560Y-64167320D01*
X136629138Y-64170036D01*
G37*
G36*
X137925072Y-64170036D02*
G01*
X137945691Y-64176291D01*
X137964687Y-64186444D01*
X137981342Y-64200112D01*
X137995010Y-64216767D01*
X138005163Y-64235763D01*
X138011418Y-64256382D01*
X138014134Y-64283960D01*
X138014134Y-64742680D01*
X138011418Y-64770258D01*
X138005163Y-64790877D01*
X137995010Y-64809873D01*
X137981342Y-64826528D01*
X137964687Y-64840196D01*
X137945691Y-64850349D01*
X137925072Y-64856604D01*
X137897494Y-64859320D01*
X137388774Y-64859320D01*
X137361196Y-64856604D01*
X137340577Y-64850349D01*
X137321581Y-64840196D01*
X137304926Y-64826528D01*
X137291258Y-64809873D01*
X137281105Y-64790877D01*
X137274850Y-64770258D01*
X137272134Y-64742680D01*
X137272134Y-64283960D01*
X137274850Y-64256382D01*
X137281105Y-64235763D01*
X137291258Y-64216767D01*
X137304926Y-64200112D01*
X137321581Y-64186444D01*
X137340577Y-64176291D01*
X137361196Y-64170036D01*
X137388774Y-64167320D01*
X137897494Y-64167320D01*
X137925072Y-64170036D01*
G37*
G36*
X139221006Y-64170036D02*
G01*
X139241625Y-64176291D01*
X139260621Y-64186444D01*
X139277276Y-64200112D01*
X139290944Y-64216767D01*
X139301097Y-64235763D01*
X139307352Y-64256382D01*
X139310068Y-64283960D01*
X139310068Y-64742680D01*
X139307352Y-64770258D01*
X139301097Y-64790877D01*
X139290944Y-64809873D01*
X139277276Y-64826528D01*
X139260621Y-64840196D01*
X139241625Y-64850349D01*
X139221006Y-64856604D01*
X139193428Y-64859320D01*
X138684708Y-64859320D01*
X138657130Y-64856604D01*
X138636511Y-64850349D01*
X138617515Y-64840196D01*
X138600860Y-64826528D01*
X138587192Y-64809873D01*
X138577039Y-64790877D01*
X138570784Y-64770258D01*
X138568068Y-64742680D01*
X138568068Y-64283960D01*
X138570784Y-64256382D01*
X138577039Y-64235763D01*
X138587192Y-64216767D01*
X138600860Y-64200112D01*
X138617515Y-64186444D01*
X138636511Y-64176291D01*
X138657130Y-64170036D01*
X138684708Y-64167320D01*
X139193428Y-64167320D01*
X139221006Y-64170036D01*
G37*
G36*
X141812874Y-64170036D02*
G01*
X141833493Y-64176291D01*
X141852489Y-64186444D01*
X141869144Y-64200112D01*
X141882812Y-64216767D01*
X141892965Y-64235763D01*
X141899220Y-64256382D01*
X141901936Y-64283960D01*
X141901936Y-64742680D01*
X141899220Y-64770258D01*
X141892965Y-64790877D01*
X141882812Y-64809873D01*
X141869144Y-64826528D01*
X141852489Y-64840196D01*
X141833493Y-64850349D01*
X141812874Y-64856604D01*
X141785296Y-64859320D01*
X141276576Y-64859320D01*
X141248998Y-64856604D01*
X141228379Y-64850349D01*
X141209383Y-64840196D01*
X141192728Y-64826528D01*
X141179060Y-64809873D01*
X141168907Y-64790877D01*
X141162652Y-64770258D01*
X141159936Y-64742680D01*
X141159936Y-64283960D01*
X141162652Y-64256382D01*
X141168907Y-64235763D01*
X141179060Y-64216767D01*
X141192728Y-64200112D01*
X141209383Y-64186444D01*
X141228379Y-64176291D01*
X141248998Y-64170036D01*
X141276576Y-64167320D01*
X141785296Y-64167320D01*
X141812874Y-64170036D01*
G37*
G36*
X140516940Y-64170036D02*
G01*
X140537559Y-64176291D01*
X140556555Y-64186444D01*
X140573210Y-64200112D01*
X140586878Y-64216767D01*
X140597031Y-64235763D01*
X140603286Y-64256382D01*
X140606002Y-64283960D01*
X140606002Y-64742680D01*
X140603286Y-64770258D01*
X140597031Y-64790877D01*
X140586878Y-64809873D01*
X140573210Y-64826528D01*
X140556555Y-64840196D01*
X140537559Y-64850349D01*
X140516940Y-64856604D01*
X140489362Y-64859320D01*
X139980642Y-64859320D01*
X139953064Y-64856604D01*
X139932445Y-64850349D01*
X139913449Y-64840196D01*
X139896794Y-64826528D01*
X139883126Y-64809873D01*
X139872973Y-64790877D01*
X139866718Y-64770258D01*
X139864002Y-64742680D01*
X139864002Y-64283960D01*
X139866718Y-64256382D01*
X139872973Y-64235763D01*
X139883126Y-64216767D01*
X139896794Y-64200112D01*
X139913449Y-64186444D01*
X139932445Y-64176291D01*
X139953064Y-64170036D01*
X139980642Y-64167320D01*
X140489362Y-64167320D01*
X140516940Y-64170036D01*
G37*
G36*
X145719476Y-63205116D02*
G01*
X145740095Y-63211371D01*
X145759091Y-63221524D01*
X145775746Y-63235192D01*
X145789414Y-63251847D01*
X145799567Y-63270843D01*
X145805822Y-63291462D01*
X145808538Y-63319040D01*
X145808538Y-63777760D01*
X145805822Y-63805338D01*
X145799567Y-63825957D01*
X145789414Y-63844953D01*
X145775746Y-63861608D01*
X145759091Y-63875276D01*
X145740095Y-63885429D01*
X145719476Y-63891684D01*
X145691898Y-63894400D01*
X145183178Y-63894400D01*
X145155600Y-63891684D01*
X145134981Y-63885429D01*
X145115985Y-63875276D01*
X145099330Y-63861608D01*
X145085662Y-63844953D01*
X145075509Y-63825957D01*
X145069254Y-63805338D01*
X145066538Y-63777760D01*
X145066538Y-63319040D01*
X145069254Y-63291462D01*
X145075509Y-63270843D01*
X145085662Y-63251847D01*
X145099330Y-63235192D01*
X145115985Y-63221524D01*
X145134981Y-63211371D01*
X145155600Y-63205116D01*
X145183178Y-63202400D01*
X145691898Y-63202400D01*
X145719476Y-63205116D01*
G37*
G36*
X143127608Y-63205116D02*
G01*
X143148227Y-63211371D01*
X143167223Y-63221524D01*
X143183878Y-63235192D01*
X143197546Y-63251847D01*
X143207699Y-63270843D01*
X143213954Y-63291462D01*
X143216670Y-63319040D01*
X143216670Y-63777760D01*
X143213954Y-63805338D01*
X143207699Y-63825957D01*
X143197546Y-63844953D01*
X143183878Y-63861608D01*
X143167223Y-63875276D01*
X143148227Y-63885429D01*
X143127608Y-63891684D01*
X143100030Y-63894400D01*
X142591310Y-63894400D01*
X142563732Y-63891684D01*
X142543113Y-63885429D01*
X142524117Y-63875276D01*
X142507462Y-63861608D01*
X142493794Y-63844953D01*
X142483641Y-63825957D01*
X142477386Y-63805338D01*
X142474670Y-63777760D01*
X142474670Y-63319040D01*
X142477386Y-63291462D01*
X142483641Y-63270843D01*
X142493794Y-63251847D01*
X142507462Y-63235192D01*
X142524117Y-63221524D01*
X142543113Y-63211371D01*
X142563732Y-63205116D01*
X142591310Y-63202400D01*
X143100030Y-63202400D01*
X143127608Y-63205116D01*
G37*
G36*
X150903212Y-63205116D02*
G01*
X150923831Y-63211371D01*
X150942827Y-63221524D01*
X150959482Y-63235192D01*
X150973150Y-63251847D01*
X150983303Y-63270843D01*
X150989558Y-63291462D01*
X150992274Y-63319040D01*
X150992274Y-63777760D01*
X150989558Y-63805338D01*
X150983303Y-63825957D01*
X150973150Y-63844953D01*
X150959482Y-63861608D01*
X150942827Y-63875276D01*
X150923831Y-63885429D01*
X150903212Y-63891684D01*
X150875634Y-63894400D01*
X150366914Y-63894400D01*
X150339336Y-63891684D01*
X150318717Y-63885429D01*
X150299721Y-63875276D01*
X150283066Y-63861608D01*
X150269398Y-63844953D01*
X150259245Y-63825957D01*
X150252990Y-63805338D01*
X150250274Y-63777760D01*
X150250274Y-63319040D01*
X150252990Y-63291462D01*
X150259245Y-63270843D01*
X150269398Y-63251847D01*
X150283066Y-63235192D01*
X150299721Y-63221524D01*
X150318717Y-63211371D01*
X150339336Y-63205116D01*
X150366914Y-63202400D01*
X150875634Y-63202400D01*
X150903212Y-63205116D01*
G37*
G36*
X148311344Y-63205116D02*
G01*
X148331963Y-63211371D01*
X148350959Y-63221524D01*
X148367614Y-63235192D01*
X148381282Y-63251847D01*
X148391435Y-63270843D01*
X148397690Y-63291462D01*
X148400406Y-63319040D01*
X148400406Y-63777760D01*
X148397690Y-63805338D01*
X148391435Y-63825957D01*
X148381282Y-63844953D01*
X148367614Y-63861608D01*
X148350959Y-63875276D01*
X148331963Y-63885429D01*
X148311344Y-63891684D01*
X148283766Y-63894400D01*
X147775046Y-63894400D01*
X147747468Y-63891684D01*
X147726849Y-63885429D01*
X147707853Y-63875276D01*
X147691198Y-63861608D01*
X147677530Y-63844953D01*
X147667377Y-63825957D01*
X147661122Y-63805338D01*
X147658406Y-63777760D01*
X147658406Y-63319040D01*
X147661122Y-63291462D01*
X147667377Y-63270843D01*
X147677530Y-63251847D01*
X147691198Y-63235192D01*
X147707853Y-63221524D01*
X147726849Y-63211371D01*
X147747468Y-63205116D01*
X147775046Y-63202400D01*
X148283766Y-63202400D01*
X148311344Y-63205116D01*
G37*
G36*
X149607278Y-63205116D02*
G01*
X149627897Y-63211371D01*
X149646893Y-63221524D01*
X149663548Y-63235192D01*
X149677216Y-63251847D01*
X149687369Y-63270843D01*
X149693624Y-63291462D01*
X149696340Y-63319040D01*
X149696340Y-63777760D01*
X149693624Y-63805338D01*
X149687369Y-63825957D01*
X149677216Y-63844953D01*
X149663548Y-63861608D01*
X149646893Y-63875276D01*
X149627897Y-63885429D01*
X149607278Y-63891684D01*
X149579700Y-63894400D01*
X149070980Y-63894400D01*
X149043402Y-63891684D01*
X149022783Y-63885429D01*
X149003787Y-63875276D01*
X148987132Y-63861608D01*
X148973464Y-63844953D01*
X148963311Y-63825957D01*
X148957056Y-63805338D01*
X148954340Y-63777760D01*
X148954340Y-63319040D01*
X148957056Y-63291462D01*
X148963311Y-63270843D01*
X148973464Y-63251847D01*
X148987132Y-63235192D01*
X149003787Y-63221524D01*
X149022783Y-63211371D01*
X149043402Y-63205116D01*
X149070980Y-63202400D01*
X149579700Y-63202400D01*
X149607278Y-63205116D01*
G37*
G36*
X144423542Y-63205116D02*
G01*
X144444161Y-63211371D01*
X144463157Y-63221524D01*
X144479812Y-63235192D01*
X144493480Y-63251847D01*
X144503633Y-63270843D01*
X144509888Y-63291462D01*
X144512604Y-63319040D01*
X144512604Y-63777760D01*
X144509888Y-63805338D01*
X144503633Y-63825957D01*
X144493480Y-63844953D01*
X144479812Y-63861608D01*
X144463157Y-63875276D01*
X144444161Y-63885429D01*
X144423542Y-63891684D01*
X144395964Y-63894400D01*
X143887244Y-63894400D01*
X143859666Y-63891684D01*
X143839047Y-63885429D01*
X143820051Y-63875276D01*
X143803396Y-63861608D01*
X143789728Y-63844953D01*
X143779575Y-63825957D01*
X143773320Y-63805338D01*
X143770604Y-63777760D01*
X143770604Y-63319040D01*
X143773320Y-63291462D01*
X143779575Y-63270843D01*
X143789728Y-63251847D01*
X143803396Y-63235192D01*
X143820051Y-63221524D01*
X143839047Y-63211371D01*
X143859666Y-63205116D01*
X143887244Y-63202400D01*
X144395964Y-63202400D01*
X144423542Y-63205116D01*
G37*
G36*
X147015410Y-63205116D02*
G01*
X147036029Y-63211371D01*
X147055025Y-63221524D01*
X147071680Y-63235192D01*
X147085348Y-63251847D01*
X147095501Y-63270843D01*
X147101756Y-63291462D01*
X147104472Y-63319040D01*
X147104472Y-63777760D01*
X147101756Y-63805338D01*
X147095501Y-63825957D01*
X147085348Y-63844953D01*
X147071680Y-63861608D01*
X147055025Y-63875276D01*
X147036029Y-63885429D01*
X147015410Y-63891684D01*
X146987832Y-63894400D01*
X146479112Y-63894400D01*
X146451534Y-63891684D01*
X146430915Y-63885429D01*
X146411919Y-63875276D01*
X146395264Y-63861608D01*
X146381596Y-63844953D01*
X146371443Y-63825957D01*
X146365188Y-63805338D01*
X146362472Y-63777760D01*
X146362472Y-63319040D01*
X146365188Y-63291462D01*
X146371443Y-63270843D01*
X146381596Y-63251847D01*
X146395264Y-63235192D01*
X146411919Y-63221524D01*
X146430915Y-63211371D01*
X146451534Y-63205116D01*
X146479112Y-63202400D01*
X146987832Y-63202400D01*
X147015410Y-63205116D01*
G37*
G36*
X141812874Y-63200036D02*
G01*
X141833493Y-63206291D01*
X141852489Y-63216444D01*
X141869144Y-63230112D01*
X141882812Y-63246767D01*
X141892965Y-63265763D01*
X141899220Y-63286382D01*
X141901936Y-63313960D01*
X141901936Y-63772680D01*
X141899220Y-63800258D01*
X141892965Y-63820877D01*
X141882812Y-63839873D01*
X141869144Y-63856528D01*
X141852489Y-63870196D01*
X141833493Y-63880349D01*
X141812874Y-63886604D01*
X141785296Y-63889320D01*
X141276576Y-63889320D01*
X141248998Y-63886604D01*
X141228379Y-63880349D01*
X141209383Y-63870196D01*
X141192728Y-63856528D01*
X141179060Y-63839873D01*
X141168907Y-63820877D01*
X141162652Y-63800258D01*
X141159936Y-63772680D01*
X141159936Y-63313960D01*
X141162652Y-63286382D01*
X141168907Y-63265763D01*
X141179060Y-63246767D01*
X141192728Y-63230112D01*
X141209383Y-63216444D01*
X141228379Y-63206291D01*
X141248998Y-63200036D01*
X141276576Y-63197320D01*
X141785296Y-63197320D01*
X141812874Y-63200036D01*
G37*
G36*
X140516940Y-63200036D02*
G01*
X140537559Y-63206291D01*
X140556555Y-63216444D01*
X140573210Y-63230112D01*
X140586878Y-63246767D01*
X140597031Y-63265763D01*
X140603286Y-63286382D01*
X140606002Y-63313960D01*
X140606002Y-63772680D01*
X140603286Y-63800258D01*
X140597031Y-63820877D01*
X140586878Y-63839873D01*
X140573210Y-63856528D01*
X140556555Y-63870196D01*
X140537559Y-63880349D01*
X140516940Y-63886604D01*
X140489362Y-63889320D01*
X139980642Y-63889320D01*
X139953064Y-63886604D01*
X139932445Y-63880349D01*
X139913449Y-63870196D01*
X139896794Y-63856528D01*
X139883126Y-63839873D01*
X139872973Y-63820877D01*
X139866718Y-63800258D01*
X139864002Y-63772680D01*
X139864002Y-63313960D01*
X139866718Y-63286382D01*
X139872973Y-63265763D01*
X139883126Y-63246767D01*
X139896794Y-63230112D01*
X139913449Y-63216444D01*
X139932445Y-63206291D01*
X139953064Y-63200036D01*
X139980642Y-63197320D01*
X140489362Y-63197320D01*
X140516940Y-63200036D01*
G37*
G36*
X139221006Y-63200036D02*
G01*
X139241625Y-63206291D01*
X139260621Y-63216444D01*
X139277276Y-63230112D01*
X139290944Y-63246767D01*
X139301097Y-63265763D01*
X139307352Y-63286382D01*
X139310068Y-63313960D01*
X139310068Y-63772680D01*
X139307352Y-63800258D01*
X139301097Y-63820877D01*
X139290944Y-63839873D01*
X139277276Y-63856528D01*
X139260621Y-63870196D01*
X139241625Y-63880349D01*
X139221006Y-63886604D01*
X139193428Y-63889320D01*
X138684708Y-63889320D01*
X138657130Y-63886604D01*
X138636511Y-63880349D01*
X138617515Y-63870196D01*
X138600860Y-63856528D01*
X138587192Y-63839873D01*
X138577039Y-63820877D01*
X138570784Y-63800258D01*
X138568068Y-63772680D01*
X138568068Y-63313960D01*
X138570784Y-63286382D01*
X138577039Y-63265763D01*
X138587192Y-63246767D01*
X138600860Y-63230112D01*
X138617515Y-63216444D01*
X138636511Y-63206291D01*
X138657130Y-63200036D01*
X138684708Y-63197320D01*
X139193428Y-63197320D01*
X139221006Y-63200036D01*
G37*
G36*
X137925072Y-63200036D02*
G01*
X137945691Y-63206291D01*
X137964687Y-63216444D01*
X137981342Y-63230112D01*
X137995010Y-63246767D01*
X138005163Y-63265763D01*
X138011418Y-63286382D01*
X138014134Y-63313960D01*
X138014134Y-63772680D01*
X138011418Y-63800258D01*
X138005163Y-63820877D01*
X137995010Y-63839873D01*
X137981342Y-63856528D01*
X137964687Y-63870196D01*
X137945691Y-63880349D01*
X137925072Y-63886604D01*
X137897494Y-63889320D01*
X137388774Y-63889320D01*
X137361196Y-63886604D01*
X137340577Y-63880349D01*
X137321581Y-63870196D01*
X137304926Y-63856528D01*
X137291258Y-63839873D01*
X137281105Y-63820877D01*
X137274850Y-63800258D01*
X137272134Y-63772680D01*
X137272134Y-63313960D01*
X137274850Y-63286382D01*
X137281105Y-63265763D01*
X137291258Y-63246767D01*
X137304926Y-63230112D01*
X137321581Y-63216444D01*
X137340577Y-63206291D01*
X137361196Y-63200036D01*
X137388774Y-63197320D01*
X137897494Y-63197320D01*
X137925072Y-63200036D01*
G37*
G36*
X136629138Y-63200036D02*
G01*
X136649757Y-63206291D01*
X136668753Y-63216444D01*
X136685408Y-63230112D01*
X136699076Y-63246767D01*
X136709229Y-63265763D01*
X136715484Y-63286382D01*
X136718200Y-63313960D01*
X136718200Y-63772680D01*
X136715484Y-63800258D01*
X136709229Y-63820877D01*
X136699076Y-63839873D01*
X136685408Y-63856528D01*
X136668753Y-63870196D01*
X136649757Y-63880349D01*
X136629138Y-63886604D01*
X136601560Y-63889320D01*
X136092840Y-63889320D01*
X136065262Y-63886604D01*
X136044643Y-63880349D01*
X136025647Y-63870196D01*
X136008992Y-63856528D01*
X135995324Y-63839873D01*
X135985171Y-63820877D01*
X135978916Y-63800258D01*
X135976200Y-63772680D01*
X135976200Y-63313960D01*
X135978916Y-63286382D01*
X135985171Y-63265763D01*
X135995324Y-63246767D01*
X136008992Y-63230112D01*
X136025647Y-63216444D01*
X136044643Y-63206291D01*
X136065262Y-63200036D01*
X136092840Y-63197320D01*
X136601560Y-63197320D01*
X136629138Y-63200036D01*
G37*
G36*
X115368668Y-61998165D02*
G01*
X115407338Y-62009896D01*
X115442977Y-62028946D01*
X115474217Y-62054583D01*
X115499854Y-62085823D01*
X115518904Y-62121462D01*
X115530635Y-62160132D01*
X115535200Y-62206488D01*
X115535200Y-63282712D01*
X115530635Y-63329068D01*
X115518904Y-63367738D01*
X115499854Y-63403377D01*
X115474217Y-63434617D01*
X115442977Y-63460254D01*
X115407338Y-63479304D01*
X115368668Y-63491035D01*
X115322312Y-63495600D01*
X114671088Y-63495600D01*
X114624732Y-63491035D01*
X114586062Y-63479304D01*
X114550423Y-63460254D01*
X114519183Y-63434617D01*
X114493546Y-63403377D01*
X114474496Y-63367738D01*
X114462765Y-63329068D01*
X114458200Y-63282712D01*
X114458200Y-62206488D01*
X114462765Y-62160132D01*
X114474496Y-62121462D01*
X114493546Y-62085823D01*
X114519183Y-62054583D01*
X114550423Y-62028946D01*
X114586062Y-62009896D01*
X114624732Y-61998165D01*
X114671088Y-61993600D01*
X115322312Y-61993600D01*
X115368668Y-61998165D01*
G37*
G36*
X113493668Y-61998165D02*
G01*
X113532338Y-62009896D01*
X113567977Y-62028946D01*
X113599217Y-62054583D01*
X113624854Y-62085823D01*
X113643904Y-62121462D01*
X113655635Y-62160132D01*
X113660200Y-62206488D01*
X113660200Y-63282712D01*
X113655635Y-63329068D01*
X113643904Y-63367738D01*
X113624854Y-63403377D01*
X113599217Y-63434617D01*
X113567977Y-63460254D01*
X113532338Y-63479304D01*
X113493668Y-63491035D01*
X113447312Y-63495600D01*
X112796088Y-63495600D01*
X112749732Y-63491035D01*
X112711062Y-63479304D01*
X112675423Y-63460254D01*
X112644183Y-63434617D01*
X112618546Y-63403377D01*
X112599496Y-63367738D01*
X112587765Y-63329068D01*
X112583200Y-63282712D01*
X112583200Y-62206488D01*
X112587765Y-62160132D01*
X112599496Y-62121462D01*
X112618546Y-62085823D01*
X112644183Y-62054583D01*
X112675423Y-62028946D01*
X112711062Y-62009896D01*
X112749732Y-61998165D01*
X112796088Y-61993600D01*
X113447312Y-61993600D01*
X113493668Y-61998165D01*
G37*
G36*
X125704191Y-62248085D02*
G01*
X125738169Y-62258393D01*
X125769490Y-62275134D01*
X125796939Y-62297661D01*
X125819466Y-62325110D01*
X125836207Y-62356431D01*
X125846515Y-62390409D01*
X125850600Y-62431890D01*
X125850600Y-63108110D01*
X125846515Y-63149591D01*
X125836207Y-63183569D01*
X125819466Y-63214890D01*
X125796939Y-63242339D01*
X125769490Y-63264866D01*
X125738169Y-63281607D01*
X125704191Y-63291915D01*
X125662710Y-63296000D01*
X125061490Y-63296000D01*
X125020009Y-63291915D01*
X124986031Y-63281607D01*
X124954710Y-63264866D01*
X124927261Y-63242339D01*
X124904734Y-63214890D01*
X124887993Y-63183569D01*
X124877685Y-63149591D01*
X124873600Y-63108110D01*
X124873600Y-62431890D01*
X124877685Y-62390409D01*
X124887993Y-62356431D01*
X124904734Y-62325110D01*
X124927261Y-62297661D01*
X124954710Y-62275134D01*
X124986031Y-62258393D01*
X125020009Y-62248085D01*
X125061490Y-62244000D01*
X125662710Y-62244000D01*
X125704191Y-62248085D01*
G37*
G36*
X127279191Y-62248085D02*
G01*
X127313169Y-62258393D01*
X127344490Y-62275134D01*
X127371939Y-62297661D01*
X127394466Y-62325110D01*
X127411207Y-62356431D01*
X127421515Y-62390409D01*
X127425600Y-62431890D01*
X127425600Y-63108110D01*
X127421515Y-63149591D01*
X127411207Y-63183569D01*
X127394466Y-63214890D01*
X127371939Y-63242339D01*
X127344490Y-63264866D01*
X127313169Y-63281607D01*
X127279191Y-63291915D01*
X127237710Y-63296000D01*
X126636490Y-63296000D01*
X126595009Y-63291915D01*
X126561031Y-63281607D01*
X126529710Y-63264866D01*
X126502261Y-63242339D01*
X126479734Y-63214890D01*
X126462993Y-63183569D01*
X126452685Y-63149591D01*
X126448600Y-63108110D01*
X126448600Y-62431890D01*
X126452685Y-62390409D01*
X126462993Y-62356431D01*
X126479734Y-62325110D01*
X126502261Y-62297661D01*
X126529710Y-62275134D01*
X126561031Y-62258393D01*
X126595009Y-62248085D01*
X126636490Y-62244000D01*
X127237710Y-62244000D01*
X127279191Y-62248085D01*
G37*
G36*
X101531298Y-58115873D02*
G01*
X101902158Y-58269488D01*
X101995552Y-58308173D01*
X102413368Y-58587349D01*
X102768691Y-58942672D01*
X102964713Y-59236040D01*
X103047868Y-59360490D01*
X103240167Y-59824742D01*
X103338200Y-60317587D01*
X103338200Y-60820093D01*
X103240167Y-61312938D01*
X103153442Y-61522311D01*
X103047867Y-61777192D01*
X102768691Y-62195008D01*
X102413368Y-62550331D01*
X101995552Y-62829507D01*
X101995551Y-62829508D01*
X101995550Y-62829508D01*
X101531298Y-63021807D01*
X101038453Y-63119840D01*
X100535947Y-63119840D01*
X100043102Y-63021807D01*
X99578850Y-62829508D01*
X99578849Y-62829508D01*
X99578848Y-62829507D01*
X99161032Y-62550331D01*
X98805709Y-62195008D01*
X98526533Y-61777192D01*
X98420958Y-61522311D01*
X98334233Y-61312938D01*
X98236200Y-60820093D01*
X98236200Y-60317587D01*
X98334233Y-59824742D01*
X98526532Y-59360490D01*
X98609687Y-59236040D01*
X98805709Y-58942672D01*
X99161032Y-58587349D01*
X99578848Y-58308173D01*
X99672242Y-58269488D01*
X100043102Y-58115873D01*
X100535947Y-58017840D01*
X101038453Y-58017840D01*
X101531298Y-58115873D01*
G37*
G36*
X158081978Y-60846196D02*
G01*
X158102597Y-60852451D01*
X158121593Y-60862604D01*
X158138248Y-60876272D01*
X158151916Y-60892927D01*
X158162069Y-60911923D01*
X158168324Y-60932542D01*
X158171040Y-60960120D01*
X158171040Y-61418840D01*
X158168324Y-61446418D01*
X158162069Y-61467037D01*
X158151916Y-61486033D01*
X158138248Y-61502688D01*
X158121593Y-61516356D01*
X158102597Y-61526509D01*
X158081978Y-61532764D01*
X158054400Y-61535480D01*
X157545680Y-61535480D01*
X157518102Y-61532764D01*
X157497483Y-61526509D01*
X157478487Y-61516356D01*
X157461832Y-61502688D01*
X157448164Y-61486033D01*
X157438011Y-61467037D01*
X157431756Y-61446418D01*
X157429040Y-61418840D01*
X157429040Y-60960120D01*
X157431756Y-60932542D01*
X157438011Y-60911923D01*
X157448164Y-60892927D01*
X157461832Y-60876272D01*
X157478487Y-60862604D01*
X157497483Y-60852451D01*
X157518102Y-60846196D01*
X157545680Y-60843480D01*
X158054400Y-60843480D01*
X158081978Y-60846196D01*
G37*
G36*
X155490096Y-60846196D02*
G01*
X155510715Y-60852451D01*
X155529711Y-60862604D01*
X155546366Y-60876272D01*
X155560034Y-60892927D01*
X155570187Y-60911923D01*
X155576442Y-60932542D01*
X155579158Y-60960120D01*
X155579158Y-61418840D01*
X155576442Y-61446418D01*
X155570187Y-61467037D01*
X155560034Y-61486033D01*
X155546366Y-61502688D01*
X155529711Y-61516356D01*
X155510715Y-61526509D01*
X155490096Y-61532764D01*
X155462518Y-61535480D01*
X154953798Y-61535480D01*
X154926220Y-61532764D01*
X154905601Y-61526509D01*
X154886605Y-61516356D01*
X154869950Y-61502688D01*
X154856282Y-61486033D01*
X154846129Y-61467037D01*
X154839874Y-61446418D01*
X154837158Y-61418840D01*
X154837158Y-60960120D01*
X154839874Y-60932542D01*
X154846129Y-60911923D01*
X154856282Y-60892927D01*
X154869950Y-60876272D01*
X154886605Y-60862604D01*
X154905601Y-60852451D01*
X154926220Y-60846196D01*
X154953798Y-60843480D01*
X155462518Y-60843480D01*
X155490096Y-60846196D01*
G37*
G36*
X156786030Y-60846196D02*
G01*
X156806649Y-60852451D01*
X156825645Y-60862604D01*
X156842300Y-60876272D01*
X156855968Y-60892927D01*
X156866121Y-60911923D01*
X156872376Y-60932542D01*
X156875092Y-60960120D01*
X156875092Y-61418840D01*
X156872376Y-61446418D01*
X156866121Y-61467037D01*
X156855968Y-61486033D01*
X156842300Y-61502688D01*
X156825645Y-61516356D01*
X156806649Y-61526509D01*
X156786030Y-61532764D01*
X156758452Y-61535480D01*
X156249732Y-61535480D01*
X156222154Y-61532764D01*
X156201535Y-61526509D01*
X156182539Y-61516356D01*
X156165884Y-61502688D01*
X156152216Y-61486033D01*
X156142063Y-61467037D01*
X156135808Y-61446418D01*
X156133092Y-61418840D01*
X156133092Y-60960120D01*
X156135808Y-60932542D01*
X156142063Y-60911923D01*
X156152216Y-60892927D01*
X156165884Y-60876272D01*
X156182539Y-60862604D01*
X156201535Y-60852451D01*
X156222154Y-60846196D01*
X156249732Y-60843480D01*
X156758452Y-60843480D01*
X156786030Y-60846196D01*
G37*
G36*
X127262399Y-56820599D02*
G01*
X127262401Y-56820601D01*
X127263005Y-56826737D01*
X127263005Y-61364463D01*
X127262401Y-61370599D01*
X127262399Y-61370601D01*
X127256263Y-61371205D01*
X126668537Y-61371205D01*
X126662401Y-61370601D01*
X126662399Y-61370599D01*
X126661795Y-61364463D01*
X126661795Y-60696204D01*
X126659393Y-60671818D01*
X126652280Y-60648369D01*
X126640729Y-60626758D01*
X126625184Y-60607816D01*
X126606242Y-60592271D01*
X126584631Y-60580720D01*
X126561182Y-60573607D01*
X126536796Y-60571205D01*
X126118004Y-60571205D01*
X126093618Y-60573607D01*
X126070169Y-60580720D01*
X126048558Y-60592271D01*
X126029616Y-60607816D01*
X126014071Y-60626758D01*
X126002520Y-60648369D01*
X125995407Y-60671818D01*
X125993005Y-60696204D01*
X125993005Y-61364463D01*
X125992401Y-61370599D01*
X125992399Y-61370601D01*
X125986263Y-61371205D01*
X125398537Y-61371205D01*
X125392401Y-61370601D01*
X125392399Y-61370599D01*
X125391795Y-61364463D01*
X125391795Y-60696204D01*
X125389393Y-60671818D01*
X125382280Y-60648369D01*
X125370729Y-60626758D01*
X125355184Y-60607816D01*
X125336242Y-60592271D01*
X125314631Y-60580720D01*
X125291182Y-60573607D01*
X125266796Y-60571205D01*
X124848004Y-60571205D01*
X124823618Y-60573607D01*
X124800169Y-60580720D01*
X124778558Y-60592271D01*
X124759616Y-60607816D01*
X124744071Y-60626758D01*
X124732520Y-60648369D01*
X124725407Y-60671818D01*
X124723005Y-60696204D01*
X124723005Y-61364463D01*
X124722401Y-61370599D01*
X124722399Y-61370601D01*
X124716263Y-61371205D01*
X124128537Y-61371205D01*
X124122401Y-61370601D01*
X124122399Y-61370599D01*
X124121795Y-61364463D01*
X124121795Y-60696204D01*
X124119393Y-60671818D01*
X124112280Y-60648369D01*
X124100729Y-60626758D01*
X124085184Y-60607816D01*
X124066242Y-60592271D01*
X124044631Y-60580720D01*
X124021182Y-60573607D01*
X123996796Y-60571205D01*
X123578004Y-60571205D01*
X123553618Y-60573607D01*
X123530169Y-60580720D01*
X123508558Y-60592271D01*
X123489616Y-60607816D01*
X123474071Y-60626758D01*
X123462520Y-60648369D01*
X123455407Y-60671818D01*
X123453005Y-60696204D01*
X123453005Y-61364463D01*
X123452401Y-61370599D01*
X123452399Y-61370601D01*
X123446263Y-61371205D01*
X122858537Y-61371205D01*
X122852401Y-61370601D01*
X122852399Y-61370599D01*
X122851795Y-61364463D01*
X122851795Y-56826737D01*
X122852399Y-56820601D01*
X122852401Y-56820599D01*
X122858537Y-56819995D01*
X127256263Y-56819995D01*
X127262399Y-56820599D01*
G37*
G36*
X156786030Y-59876196D02*
G01*
X156806649Y-59882451D01*
X156825645Y-59892604D01*
X156842300Y-59906272D01*
X156855968Y-59922927D01*
X156866121Y-59941923D01*
X156872376Y-59962542D01*
X156875092Y-59990120D01*
X156875092Y-60448840D01*
X156872376Y-60476418D01*
X156866121Y-60497037D01*
X156855968Y-60516033D01*
X156842300Y-60532688D01*
X156825645Y-60546356D01*
X156806649Y-60556509D01*
X156786030Y-60562764D01*
X156758452Y-60565480D01*
X156249732Y-60565480D01*
X156222154Y-60562764D01*
X156201535Y-60556509D01*
X156182539Y-60546356D01*
X156165884Y-60532688D01*
X156152216Y-60516033D01*
X156142063Y-60497037D01*
X156135808Y-60476418D01*
X156133092Y-60448840D01*
X156133092Y-59990120D01*
X156135808Y-59962542D01*
X156142063Y-59941923D01*
X156152216Y-59922927D01*
X156165884Y-59906272D01*
X156182539Y-59892604D01*
X156201535Y-59882451D01*
X156222154Y-59876196D01*
X156249732Y-59873480D01*
X156758452Y-59873480D01*
X156786030Y-59876196D01*
G37*
G36*
X155490096Y-59876196D02*
G01*
X155510715Y-59882451D01*
X155529711Y-59892604D01*
X155546366Y-59906272D01*
X155560034Y-59922927D01*
X155570187Y-59941923D01*
X155576442Y-59962542D01*
X155579158Y-59990120D01*
X155579158Y-60448840D01*
X155576442Y-60476418D01*
X155570187Y-60497037D01*
X155560034Y-60516033D01*
X155546366Y-60532688D01*
X155529711Y-60546356D01*
X155510715Y-60556509D01*
X155490096Y-60562764D01*
X155462518Y-60565480D01*
X154953798Y-60565480D01*
X154926220Y-60562764D01*
X154905601Y-60556509D01*
X154886605Y-60546356D01*
X154869950Y-60532688D01*
X154856282Y-60516033D01*
X154846129Y-60497037D01*
X154839874Y-60476418D01*
X154837158Y-60448840D01*
X154837158Y-59990120D01*
X154839874Y-59962542D01*
X154846129Y-59941923D01*
X154856282Y-59922927D01*
X154869950Y-59906272D01*
X154886605Y-59892604D01*
X154905601Y-59882451D01*
X154926220Y-59876196D01*
X154953798Y-59873480D01*
X155462518Y-59873480D01*
X155490096Y-59876196D01*
G37*
G36*
X158081978Y-59876196D02*
G01*
X158102597Y-59882451D01*
X158121593Y-59892604D01*
X158138248Y-59906272D01*
X158151916Y-59922927D01*
X158162069Y-59941923D01*
X158168324Y-59962542D01*
X158171040Y-59990120D01*
X158171040Y-60448840D01*
X158168324Y-60476418D01*
X158162069Y-60497037D01*
X158151916Y-60516033D01*
X158138248Y-60532688D01*
X158121593Y-60546356D01*
X158102597Y-60556509D01*
X158081978Y-60562764D01*
X158054400Y-60565480D01*
X157545680Y-60565480D01*
X157518102Y-60562764D01*
X157497483Y-60556509D01*
X157478487Y-60546356D01*
X157461832Y-60532688D01*
X157448164Y-60516033D01*
X157438011Y-60497037D01*
X157431756Y-60476418D01*
X157429040Y-60448840D01*
X157429040Y-59990120D01*
X157431756Y-59962542D01*
X157438011Y-59941923D01*
X157448164Y-59922927D01*
X157461832Y-59906272D01*
X157478487Y-59892604D01*
X157497483Y-59882451D01*
X157518102Y-59876196D01*
X157545680Y-59873480D01*
X158054400Y-59873480D01*
X158081978Y-59876196D01*
G37*
G36*
X150289600Y-59516756D02*
G01*
X150310219Y-59523011D01*
X150329215Y-59533164D01*
X150345870Y-59546832D01*
X150359538Y-59563487D01*
X150369691Y-59582483D01*
X150375946Y-59603102D01*
X150378662Y-59630680D01*
X150378662Y-60089400D01*
X150375946Y-60116978D01*
X150369691Y-60137597D01*
X150359538Y-60156593D01*
X150345870Y-60173248D01*
X150329215Y-60186916D01*
X150310219Y-60197069D01*
X150289600Y-60203324D01*
X150262022Y-60206040D01*
X149753302Y-60206040D01*
X149725724Y-60203324D01*
X149705105Y-60197069D01*
X149686109Y-60186916D01*
X149669454Y-60173248D01*
X149655786Y-60156593D01*
X149645633Y-60137597D01*
X149639378Y-60116978D01*
X149636662Y-60089400D01*
X149636662Y-59630680D01*
X149639378Y-59603102D01*
X149645633Y-59582483D01*
X149655786Y-59563487D01*
X149669454Y-59546832D01*
X149686109Y-59533164D01*
X149705105Y-59523011D01*
X149725724Y-59516756D01*
X149753302Y-59514040D01*
X150262022Y-59514040D01*
X150289600Y-59516756D01*
G37*
G36*
X154177402Y-59516756D02*
G01*
X154198021Y-59523011D01*
X154217017Y-59533164D01*
X154233672Y-59546832D01*
X154247340Y-59563487D01*
X154257493Y-59582483D01*
X154263748Y-59603102D01*
X154266464Y-59630680D01*
X154266464Y-60089400D01*
X154263748Y-60116978D01*
X154257493Y-60137597D01*
X154247340Y-60156593D01*
X154233672Y-60173248D01*
X154217017Y-60186916D01*
X154198021Y-60197069D01*
X154177402Y-60203324D01*
X154149824Y-60206040D01*
X153641104Y-60206040D01*
X153613526Y-60203324D01*
X153592907Y-60197069D01*
X153573911Y-60186916D01*
X153557256Y-60173248D01*
X153543588Y-60156593D01*
X153533435Y-60137597D01*
X153527180Y-60116978D01*
X153524464Y-60089400D01*
X153524464Y-59630680D01*
X153527180Y-59603102D01*
X153533435Y-59582483D01*
X153543588Y-59563487D01*
X153557256Y-59546832D01*
X153573911Y-59533164D01*
X153592907Y-59523011D01*
X153613526Y-59516756D01*
X153641104Y-59514040D01*
X154149824Y-59514040D01*
X154177402Y-59516756D01*
G37*
G36*
X148993666Y-59516756D02*
G01*
X149014285Y-59523011D01*
X149033281Y-59533164D01*
X149049936Y-59546832D01*
X149063604Y-59563487D01*
X149073757Y-59582483D01*
X149080012Y-59603102D01*
X149082728Y-59630680D01*
X149082728Y-60089400D01*
X149080012Y-60116978D01*
X149073757Y-60137597D01*
X149063604Y-60156593D01*
X149049936Y-60173248D01*
X149033281Y-60186916D01*
X149014285Y-60197069D01*
X148993666Y-60203324D01*
X148966088Y-60206040D01*
X148457368Y-60206040D01*
X148429790Y-60203324D01*
X148409171Y-60197069D01*
X148390175Y-60186916D01*
X148373520Y-60173248D01*
X148359852Y-60156593D01*
X148349699Y-60137597D01*
X148343444Y-60116978D01*
X148340728Y-60089400D01*
X148340728Y-59630680D01*
X148343444Y-59603102D01*
X148349699Y-59582483D01*
X148359852Y-59563487D01*
X148373520Y-59546832D01*
X148390175Y-59533164D01*
X148409171Y-59523011D01*
X148429790Y-59516756D01*
X148457368Y-59514040D01*
X148966088Y-59514040D01*
X148993666Y-59516756D01*
G37*
G36*
X151585534Y-59516756D02*
G01*
X151606153Y-59523011D01*
X151625149Y-59533164D01*
X151641804Y-59546832D01*
X151655472Y-59563487D01*
X151665625Y-59582483D01*
X151671880Y-59603102D01*
X151674596Y-59630680D01*
X151674596Y-60089400D01*
X151671880Y-60116978D01*
X151665625Y-60137597D01*
X151655472Y-60156593D01*
X151641804Y-60173248D01*
X151625149Y-60186916D01*
X151606153Y-60197069D01*
X151585534Y-60203324D01*
X151557956Y-60206040D01*
X151049236Y-60206040D01*
X151021658Y-60203324D01*
X151001039Y-60197069D01*
X150982043Y-60186916D01*
X150965388Y-60173248D01*
X150951720Y-60156593D01*
X150941567Y-60137597D01*
X150935312Y-60116978D01*
X150932596Y-60089400D01*
X150932596Y-59630680D01*
X150935312Y-59603102D01*
X150941567Y-59582483D01*
X150951720Y-59563487D01*
X150965388Y-59546832D01*
X150982043Y-59533164D01*
X151001039Y-59523011D01*
X151021658Y-59516756D01*
X151049236Y-59514040D01*
X151557956Y-59514040D01*
X151585534Y-59516756D01*
G37*
G36*
X152881468Y-59516756D02*
G01*
X152902087Y-59523011D01*
X152921083Y-59533164D01*
X152937738Y-59546832D01*
X152951406Y-59563487D01*
X152961559Y-59582483D01*
X152967814Y-59603102D01*
X152970530Y-59630680D01*
X152970530Y-60089400D01*
X152967814Y-60116978D01*
X152961559Y-60137597D01*
X152951406Y-60156593D01*
X152937738Y-60173248D01*
X152921083Y-60186916D01*
X152902087Y-60197069D01*
X152881468Y-60203324D01*
X152853890Y-60206040D01*
X152345170Y-60206040D01*
X152317592Y-60203324D01*
X152296973Y-60197069D01*
X152277977Y-60186916D01*
X152261322Y-60173248D01*
X152247654Y-60156593D01*
X152237501Y-60137597D01*
X152231246Y-60116978D01*
X152228530Y-60089400D01*
X152228530Y-59630680D01*
X152231246Y-59603102D01*
X152237501Y-59582483D01*
X152247654Y-59563487D01*
X152261322Y-59546832D01*
X152277977Y-59533164D01*
X152296973Y-59523011D01*
X152317592Y-59516756D01*
X152345170Y-59514040D01*
X152853890Y-59514040D01*
X152881468Y-59516756D01*
G37*
G36*
X138358295Y-58518723D02*
G01*
X138365309Y-58520851D01*
X138379077Y-58528210D01*
X138401716Y-58537587D01*
X138425749Y-58542367D01*
X138450253Y-58542367D01*
X138474286Y-58537586D01*
X138496923Y-58528210D01*
X138510691Y-58520851D01*
X138517705Y-58518723D01*
X138531140Y-58517400D01*
X138844860Y-58517400D01*
X138858295Y-58518723D01*
X138865309Y-58520851D01*
X138879077Y-58528210D01*
X138901716Y-58537587D01*
X138925749Y-58542367D01*
X138950253Y-58542367D01*
X138974286Y-58537586D01*
X138996923Y-58528210D01*
X139010691Y-58520851D01*
X139017705Y-58518723D01*
X139031140Y-58517400D01*
X139344860Y-58517400D01*
X139358295Y-58518723D01*
X139365309Y-58520851D01*
X139379077Y-58528210D01*
X139401716Y-58537587D01*
X139425749Y-58542367D01*
X139450253Y-58542367D01*
X139474286Y-58537586D01*
X139496923Y-58528210D01*
X139510691Y-58520851D01*
X139517705Y-58518723D01*
X139531140Y-58517400D01*
X139844860Y-58517400D01*
X139858295Y-58518723D01*
X139865309Y-58520851D01*
X139879077Y-58528210D01*
X139901716Y-58537587D01*
X139925749Y-58542367D01*
X139950253Y-58542367D01*
X139974286Y-58537586D01*
X139996923Y-58528210D01*
X140010691Y-58520851D01*
X140017705Y-58518723D01*
X140031140Y-58517400D01*
X140344860Y-58517400D01*
X140358295Y-58518723D01*
X140365309Y-58520851D01*
X140379077Y-58528210D01*
X140401716Y-58537587D01*
X140425749Y-58542367D01*
X140450253Y-58542367D01*
X140474286Y-58537586D01*
X140496923Y-58528210D01*
X140510691Y-58520851D01*
X140517705Y-58518723D01*
X140531140Y-58517400D01*
X140844860Y-58517400D01*
X140858295Y-58518723D01*
X140865309Y-58520851D01*
X140879077Y-58528210D01*
X140901716Y-58537587D01*
X140925749Y-58542367D01*
X140950253Y-58542367D01*
X140974286Y-58537586D01*
X140996923Y-58528210D01*
X141010691Y-58520851D01*
X141017705Y-58518723D01*
X141031140Y-58517400D01*
X141344860Y-58517400D01*
X141358295Y-58518723D01*
X141365309Y-58520851D01*
X141379077Y-58528210D01*
X141401716Y-58537587D01*
X141425749Y-58542367D01*
X141450253Y-58542367D01*
X141474286Y-58537586D01*
X141496923Y-58528210D01*
X141510691Y-58520851D01*
X141517705Y-58518723D01*
X141531140Y-58517400D01*
X141844860Y-58517400D01*
X141858295Y-58518723D01*
X141865309Y-58520851D01*
X141879077Y-58528210D01*
X141901716Y-58537587D01*
X141925749Y-58542367D01*
X141950253Y-58542367D01*
X141974286Y-58537586D01*
X141996923Y-58528210D01*
X142010691Y-58520851D01*
X142017705Y-58518723D01*
X142031140Y-58517400D01*
X142344860Y-58517400D01*
X142358295Y-58518723D01*
X142365309Y-58520851D01*
X142379077Y-58528210D01*
X142401716Y-58537587D01*
X142425749Y-58542367D01*
X142450253Y-58542367D01*
X142474286Y-58537586D01*
X142496923Y-58528210D01*
X142510691Y-58520851D01*
X142517705Y-58518723D01*
X142531140Y-58517400D01*
X142844860Y-58517400D01*
X142858295Y-58518723D01*
X142865309Y-58520851D01*
X142879077Y-58528210D01*
X142901716Y-58537587D01*
X142925749Y-58542367D01*
X142950253Y-58542367D01*
X142974286Y-58537586D01*
X142996923Y-58528210D01*
X143010691Y-58520851D01*
X143017705Y-58518723D01*
X143031140Y-58517400D01*
X143344860Y-58517400D01*
X143358295Y-58518723D01*
X143365309Y-58520851D01*
X143379077Y-58528210D01*
X143401716Y-58537587D01*
X143425749Y-58542367D01*
X143450253Y-58542367D01*
X143474286Y-58537586D01*
X143496923Y-58528210D01*
X143510691Y-58520851D01*
X143517705Y-58518723D01*
X143531140Y-58517400D01*
X143844860Y-58517400D01*
X143858295Y-58518723D01*
X143865310Y-58520851D01*
X143871776Y-58524308D01*
X143877442Y-58528958D01*
X143882092Y-58534624D01*
X143885549Y-58541090D01*
X143887677Y-58548105D01*
X143889000Y-58561540D01*
X143889000Y-60050260D01*
X143887677Y-60063695D01*
X143885549Y-60070710D01*
X143882092Y-60077176D01*
X143877442Y-60082842D01*
X143871776Y-60087492D01*
X143865310Y-60090949D01*
X143858295Y-60093077D01*
X143844860Y-60094400D01*
X143531140Y-60094400D01*
X143517705Y-60093077D01*
X143510691Y-60090949D01*
X143496923Y-60083590D01*
X143474284Y-60074213D01*
X143450251Y-60069433D01*
X143425747Y-60069433D01*
X143401714Y-60074214D01*
X143379077Y-60083590D01*
X143365309Y-60090949D01*
X143358295Y-60093077D01*
X143344860Y-60094400D01*
X143031140Y-60094400D01*
X143017705Y-60093077D01*
X143010691Y-60090949D01*
X142996923Y-60083590D01*
X142974284Y-60074213D01*
X142950251Y-60069433D01*
X142925747Y-60069433D01*
X142901714Y-60074214D01*
X142879077Y-60083590D01*
X142865309Y-60090949D01*
X142858295Y-60093077D01*
X142844860Y-60094400D01*
X142531140Y-60094400D01*
X142517705Y-60093077D01*
X142510691Y-60090949D01*
X142496923Y-60083590D01*
X142474284Y-60074213D01*
X142450251Y-60069433D01*
X142425747Y-60069433D01*
X142401714Y-60074214D01*
X142379077Y-60083590D01*
X142365309Y-60090949D01*
X142358295Y-60093077D01*
X142344860Y-60094400D01*
X142031140Y-60094400D01*
X142017705Y-60093077D01*
X142010691Y-60090949D01*
X141996923Y-60083590D01*
X141974284Y-60074213D01*
X141950251Y-60069433D01*
X141925747Y-60069433D01*
X141901714Y-60074214D01*
X141879077Y-60083590D01*
X141865309Y-60090949D01*
X141858295Y-60093077D01*
X141844860Y-60094400D01*
X141531140Y-60094400D01*
X141517705Y-60093077D01*
X141510691Y-60090949D01*
X141496923Y-60083590D01*
X141474284Y-60074213D01*
X141450251Y-60069433D01*
X141425747Y-60069433D01*
X141401714Y-60074214D01*
X141379077Y-60083590D01*
X141365309Y-60090949D01*
X141358295Y-60093077D01*
X141344860Y-60094400D01*
X141031140Y-60094400D01*
X141017705Y-60093077D01*
X141010691Y-60090949D01*
X140996923Y-60083590D01*
X140974284Y-60074213D01*
X140950251Y-60069433D01*
X140925747Y-60069433D01*
X140901714Y-60074214D01*
X140879077Y-60083590D01*
X140865309Y-60090949D01*
X140858295Y-60093077D01*
X140844860Y-60094400D01*
X140531140Y-60094400D01*
X140517705Y-60093077D01*
X140510691Y-60090949D01*
X140496923Y-60083590D01*
X140474284Y-60074213D01*
X140450251Y-60069433D01*
X140425747Y-60069433D01*
X140401714Y-60074214D01*
X140379077Y-60083590D01*
X140365309Y-60090949D01*
X140358295Y-60093077D01*
X140344860Y-60094400D01*
X140031140Y-60094400D01*
X140017705Y-60093077D01*
X140010691Y-60090949D01*
X139996923Y-60083590D01*
X139974284Y-60074213D01*
X139950251Y-60069433D01*
X139925747Y-60069433D01*
X139901714Y-60074214D01*
X139879077Y-60083590D01*
X139865309Y-60090949D01*
X139858295Y-60093077D01*
X139844860Y-60094400D01*
X139531140Y-60094400D01*
X139517705Y-60093077D01*
X139510691Y-60090949D01*
X139496923Y-60083590D01*
X139474284Y-60074213D01*
X139450251Y-60069433D01*
X139425747Y-60069433D01*
X139401714Y-60074214D01*
X139379077Y-60083590D01*
X139365309Y-60090949D01*
X139358295Y-60093077D01*
X139344860Y-60094400D01*
X139031140Y-60094400D01*
X139017705Y-60093077D01*
X139010691Y-60090949D01*
X138996923Y-60083590D01*
X138974284Y-60074213D01*
X138950251Y-60069433D01*
X138925747Y-60069433D01*
X138901714Y-60074214D01*
X138879077Y-60083590D01*
X138865309Y-60090949D01*
X138858295Y-60093077D01*
X138844860Y-60094400D01*
X138531140Y-60094400D01*
X138517705Y-60093077D01*
X138510691Y-60090949D01*
X138496923Y-60083590D01*
X138474284Y-60074213D01*
X138450251Y-60069433D01*
X138425747Y-60069433D01*
X138401714Y-60074214D01*
X138379077Y-60083590D01*
X138365309Y-60090949D01*
X138358295Y-60093077D01*
X138344860Y-60094400D01*
X138031140Y-60094400D01*
X138017705Y-60093077D01*
X138010690Y-60090949D01*
X138004224Y-60087492D01*
X137998558Y-60082842D01*
X137993908Y-60077176D01*
X137990451Y-60070710D01*
X137988323Y-60063695D01*
X137987000Y-60050260D01*
X137987000Y-58561540D01*
X137988323Y-58548105D01*
X137990451Y-58541090D01*
X137993908Y-58534624D01*
X137998558Y-58528958D01*
X138004224Y-58524308D01*
X138010690Y-58520851D01*
X138017705Y-58518723D01*
X138031140Y-58517400D01*
X138344860Y-58517400D01*
X138358295Y-58518723D01*
G37*
G36*
X110471068Y-58061165D02*
G01*
X110509738Y-58072896D01*
X110545377Y-58091946D01*
X110576617Y-58117583D01*
X110602254Y-58148823D01*
X110621304Y-58184462D01*
X110633035Y-58223132D01*
X110637600Y-58269488D01*
X110637600Y-59345712D01*
X110633035Y-59392068D01*
X110621304Y-59430738D01*
X110602254Y-59466377D01*
X110576617Y-59497617D01*
X110545377Y-59523254D01*
X110509738Y-59542304D01*
X110471068Y-59554035D01*
X110424712Y-59558600D01*
X109773488Y-59558600D01*
X109727132Y-59554035D01*
X109688462Y-59542304D01*
X109652823Y-59523254D01*
X109621583Y-59497617D01*
X109595946Y-59466377D01*
X109576896Y-59430738D01*
X109565165Y-59392068D01*
X109560600Y-59345712D01*
X109560600Y-58269488D01*
X109565165Y-58223132D01*
X109576896Y-58184462D01*
X109595946Y-58148823D01*
X109621583Y-58117583D01*
X109652823Y-58091946D01*
X109688462Y-58072896D01*
X109727132Y-58061165D01*
X109773488Y-58056600D01*
X110424712Y-58056600D01*
X110471068Y-58061165D01*
G37*
G36*
X112346068Y-58061165D02*
G01*
X112384738Y-58072896D01*
X112420377Y-58091946D01*
X112451617Y-58117583D01*
X112477254Y-58148823D01*
X112496304Y-58184462D01*
X112508035Y-58223132D01*
X112512600Y-58269488D01*
X112512600Y-59345712D01*
X112508035Y-59392068D01*
X112496304Y-59430738D01*
X112477254Y-59466377D01*
X112451617Y-59497617D01*
X112420377Y-59523254D01*
X112384738Y-59542304D01*
X112346068Y-59554035D01*
X112299712Y-59558600D01*
X111648488Y-59558600D01*
X111602132Y-59554035D01*
X111563462Y-59542304D01*
X111527823Y-59523254D01*
X111496583Y-59497617D01*
X111470946Y-59466377D01*
X111451896Y-59430738D01*
X111440165Y-59392068D01*
X111435600Y-59345712D01*
X111435600Y-58269488D01*
X111440165Y-58223132D01*
X111451896Y-58184462D01*
X111470946Y-58148823D01*
X111496583Y-58117583D01*
X111527823Y-58091946D01*
X111563462Y-58072896D01*
X111602132Y-58061165D01*
X111648488Y-58056600D01*
X112299712Y-58056600D01*
X112346068Y-58061165D01*
G37*
G36*
X119947400Y-59540000D02*
G01*
X119245400Y-59540000D01*
X119245400Y-57438000D01*
X119947400Y-57438000D01*
X119947400Y-59540000D01*
G37*
G36*
X117407400Y-59540000D02*
G01*
X116705400Y-59540000D01*
X116705400Y-57438000D01*
X117407400Y-57438000D01*
X117407400Y-59540000D01*
G37*
G36*
X118677400Y-59540000D02*
G01*
X117975400Y-59540000D01*
X117975400Y-57438000D01*
X118677400Y-57438000D01*
X118677400Y-59540000D01*
G37*
G36*
X116137400Y-59540000D02*
G01*
X115435400Y-59540000D01*
X115435400Y-57438000D01*
X116137400Y-57438000D01*
X116137400Y-59540000D01*
G37*
G36*
X151585534Y-58546756D02*
G01*
X151606153Y-58553011D01*
X151625149Y-58563164D01*
X151641804Y-58576832D01*
X151655472Y-58593487D01*
X151665625Y-58612483D01*
X151671880Y-58633102D01*
X151674596Y-58660680D01*
X151674596Y-59119400D01*
X151671880Y-59146978D01*
X151665625Y-59167597D01*
X151655472Y-59186593D01*
X151641804Y-59203248D01*
X151625149Y-59216916D01*
X151606153Y-59227069D01*
X151585534Y-59233324D01*
X151557956Y-59236040D01*
X151049236Y-59236040D01*
X151021658Y-59233324D01*
X151001039Y-59227069D01*
X150982043Y-59216916D01*
X150965388Y-59203248D01*
X150951720Y-59186593D01*
X150941567Y-59167597D01*
X150935312Y-59146978D01*
X150932596Y-59119400D01*
X150932596Y-58660680D01*
X150935312Y-58633102D01*
X150941567Y-58612483D01*
X150951720Y-58593487D01*
X150965388Y-58576832D01*
X150982043Y-58563164D01*
X151001039Y-58553011D01*
X151021658Y-58546756D01*
X151049236Y-58544040D01*
X151557956Y-58544040D01*
X151585534Y-58546756D01*
G37*
G36*
X148993666Y-58546756D02*
G01*
X149014285Y-58553011D01*
X149033281Y-58563164D01*
X149049936Y-58576832D01*
X149063604Y-58593487D01*
X149073757Y-58612483D01*
X149080012Y-58633102D01*
X149082728Y-58660680D01*
X149082728Y-59119400D01*
X149080012Y-59146978D01*
X149073757Y-59167597D01*
X149063604Y-59186593D01*
X149049936Y-59203248D01*
X149033281Y-59216916D01*
X149014285Y-59227069D01*
X148993666Y-59233324D01*
X148966088Y-59236040D01*
X148457368Y-59236040D01*
X148429790Y-59233324D01*
X148409171Y-59227069D01*
X148390175Y-59216916D01*
X148373520Y-59203248D01*
X148359852Y-59186593D01*
X148349699Y-59167597D01*
X148343444Y-59146978D01*
X148340728Y-59119400D01*
X148340728Y-58660680D01*
X148343444Y-58633102D01*
X148349699Y-58612483D01*
X148359852Y-58593487D01*
X148373520Y-58576832D01*
X148390175Y-58563164D01*
X148409171Y-58553011D01*
X148429790Y-58546756D01*
X148457368Y-58544040D01*
X148966088Y-58544040D01*
X148993666Y-58546756D01*
G37*
G36*
X152881468Y-58546756D02*
G01*
X152902087Y-58553011D01*
X152921083Y-58563164D01*
X152937738Y-58576832D01*
X152951406Y-58593487D01*
X152961559Y-58612483D01*
X152967814Y-58633102D01*
X152970530Y-58660680D01*
X152970530Y-59119400D01*
X152967814Y-59146978D01*
X152961559Y-59167597D01*
X152951406Y-59186593D01*
X152937738Y-59203248D01*
X152921083Y-59216916D01*
X152902087Y-59227069D01*
X152881468Y-59233324D01*
X152853890Y-59236040D01*
X152345170Y-59236040D01*
X152317592Y-59233324D01*
X152296973Y-59227069D01*
X152277977Y-59216916D01*
X152261322Y-59203248D01*
X152247654Y-59186593D01*
X152237501Y-59167597D01*
X152231246Y-59146978D01*
X152228530Y-59119400D01*
X152228530Y-58660680D01*
X152231246Y-58633102D01*
X152237501Y-58612483D01*
X152247654Y-58593487D01*
X152261322Y-58576832D01*
X152277977Y-58563164D01*
X152296973Y-58553011D01*
X152317592Y-58546756D01*
X152345170Y-58544040D01*
X152853890Y-58544040D01*
X152881468Y-58546756D01*
G37*
G36*
X154177402Y-58546756D02*
G01*
X154198021Y-58553011D01*
X154217017Y-58563164D01*
X154233672Y-58576832D01*
X154247340Y-58593487D01*
X154257493Y-58612483D01*
X154263748Y-58633102D01*
X154266464Y-58660680D01*
X154266464Y-59119400D01*
X154263748Y-59146978D01*
X154257493Y-59167597D01*
X154247340Y-59186593D01*
X154233672Y-59203248D01*
X154217017Y-59216916D01*
X154198021Y-59227069D01*
X154177402Y-59233324D01*
X154149824Y-59236040D01*
X153641104Y-59236040D01*
X153613526Y-59233324D01*
X153592907Y-59227069D01*
X153573911Y-59216916D01*
X153557256Y-59203248D01*
X153543588Y-59186593D01*
X153533435Y-59167597D01*
X153527180Y-59146978D01*
X153524464Y-59119400D01*
X153524464Y-58660680D01*
X153527180Y-58633102D01*
X153533435Y-58612483D01*
X153543588Y-58593487D01*
X153557256Y-58576832D01*
X153573911Y-58563164D01*
X153592907Y-58553011D01*
X153613526Y-58546756D01*
X153641104Y-58544040D01*
X154149824Y-58544040D01*
X154177402Y-58546756D01*
G37*
G36*
X150289600Y-58546756D02*
G01*
X150310219Y-58553011D01*
X150329215Y-58563164D01*
X150345870Y-58576832D01*
X150359538Y-58593487D01*
X150369691Y-58612483D01*
X150375946Y-58633102D01*
X150378662Y-58660680D01*
X150378662Y-59119400D01*
X150375946Y-59146978D01*
X150369691Y-59167597D01*
X150359538Y-59186593D01*
X150345870Y-59203248D01*
X150329215Y-59216916D01*
X150310219Y-59227069D01*
X150289600Y-59233324D01*
X150262022Y-59236040D01*
X149753302Y-59236040D01*
X149725724Y-59233324D01*
X149705105Y-59227069D01*
X149686109Y-59216916D01*
X149669454Y-59203248D01*
X149655786Y-59186593D01*
X149645633Y-59167597D01*
X149639378Y-59146978D01*
X149636662Y-59119400D01*
X149636662Y-58660680D01*
X149639378Y-58633102D01*
X149645633Y-58612483D01*
X149655786Y-58593487D01*
X149669454Y-58576832D01*
X149686109Y-58563164D01*
X149705105Y-58553011D01*
X149725724Y-58546756D01*
X149753302Y-58544040D01*
X150262022Y-58544040D01*
X150289600Y-58546756D01*
G37*
G36*
X145858295Y-52193723D02*
G01*
X145865310Y-52195851D01*
X145871776Y-52199308D01*
X145877442Y-52203958D01*
X145882092Y-52209624D01*
X145885549Y-52216090D01*
X145887677Y-52223105D01*
X145889000Y-52236540D01*
X145889000Y-52550260D01*
X145887677Y-52563695D01*
X145885549Y-52570709D01*
X145878190Y-52584477D01*
X145868813Y-52607116D01*
X145864033Y-52631149D01*
X145864033Y-52655653D01*
X145868814Y-52679686D01*
X145878190Y-52702323D01*
X145885549Y-52716091D01*
X145887677Y-52723105D01*
X145889000Y-52736540D01*
X145889000Y-53050260D01*
X145887677Y-53063695D01*
X145885549Y-53070709D01*
X145878190Y-53084477D01*
X145868813Y-53107116D01*
X145864033Y-53131149D01*
X145864033Y-53155653D01*
X145868814Y-53179686D01*
X145878190Y-53202323D01*
X145885549Y-53216091D01*
X145887677Y-53223105D01*
X145889000Y-53236540D01*
X145889000Y-53550260D01*
X145887677Y-53563695D01*
X145885549Y-53570709D01*
X145878190Y-53584477D01*
X145868813Y-53607116D01*
X145864033Y-53631149D01*
X145864033Y-53655653D01*
X145868814Y-53679686D01*
X145878190Y-53702323D01*
X145885549Y-53716091D01*
X145887677Y-53723105D01*
X145889000Y-53736540D01*
X145889000Y-54050260D01*
X145887677Y-54063695D01*
X145885549Y-54070709D01*
X145878190Y-54084477D01*
X145868813Y-54107116D01*
X145864033Y-54131149D01*
X145864033Y-54155653D01*
X145868814Y-54179686D01*
X145878190Y-54202323D01*
X145885549Y-54216091D01*
X145887677Y-54223105D01*
X145889000Y-54236540D01*
X145889000Y-54550260D01*
X145887677Y-54563695D01*
X145885549Y-54570709D01*
X145878190Y-54584477D01*
X145868813Y-54607116D01*
X145864033Y-54631149D01*
X145864033Y-54655653D01*
X145868814Y-54679686D01*
X145878190Y-54702323D01*
X145885549Y-54716091D01*
X145887677Y-54723105D01*
X145889000Y-54736540D01*
X145889000Y-55050260D01*
X145887677Y-55063695D01*
X145885549Y-55070709D01*
X145878190Y-55084477D01*
X145868813Y-55107116D01*
X145864033Y-55131149D01*
X145864033Y-55155653D01*
X145868814Y-55179686D01*
X145878190Y-55202323D01*
X145885549Y-55216091D01*
X145887677Y-55223105D01*
X145889000Y-55236540D01*
X145889000Y-55550260D01*
X145887677Y-55563695D01*
X145885549Y-55570709D01*
X145878190Y-55584477D01*
X145868813Y-55607116D01*
X145864033Y-55631149D01*
X145864033Y-55655653D01*
X145868814Y-55679686D01*
X145878190Y-55702323D01*
X145885549Y-55716091D01*
X145887677Y-55723105D01*
X145889000Y-55736540D01*
X145889000Y-56050260D01*
X145887677Y-56063695D01*
X145885549Y-56070709D01*
X145878190Y-56084477D01*
X145868813Y-56107116D01*
X145864033Y-56131149D01*
X145864033Y-56155653D01*
X145868814Y-56179686D01*
X145878190Y-56202323D01*
X145885549Y-56216091D01*
X145887677Y-56223105D01*
X145889000Y-56236540D01*
X145889000Y-56550260D01*
X145887677Y-56563695D01*
X145885549Y-56570709D01*
X145878190Y-56584477D01*
X145868813Y-56607116D01*
X145864033Y-56631149D01*
X145864033Y-56655653D01*
X145868814Y-56679686D01*
X145878190Y-56702323D01*
X145885549Y-56716091D01*
X145887677Y-56723105D01*
X145889000Y-56736540D01*
X145889000Y-57050260D01*
X145887677Y-57063695D01*
X145885549Y-57070709D01*
X145878190Y-57084477D01*
X145868813Y-57107116D01*
X145864033Y-57131149D01*
X145864033Y-57155653D01*
X145868814Y-57179686D01*
X145878190Y-57202323D01*
X145885549Y-57216091D01*
X145887677Y-57223105D01*
X145889000Y-57236540D01*
X145889000Y-57550260D01*
X145887677Y-57563695D01*
X145885549Y-57570709D01*
X145878190Y-57584477D01*
X145868813Y-57607116D01*
X145864033Y-57631149D01*
X145864033Y-57655653D01*
X145868814Y-57679686D01*
X145878190Y-57702323D01*
X145885549Y-57716091D01*
X145887677Y-57723105D01*
X145889000Y-57736540D01*
X145889000Y-58050260D01*
X145887677Y-58063695D01*
X145885549Y-58070710D01*
X145882092Y-58077176D01*
X145877442Y-58082842D01*
X145871776Y-58087492D01*
X145865310Y-58090949D01*
X145858295Y-58093077D01*
X145844860Y-58094400D01*
X144356140Y-58094400D01*
X144342705Y-58093077D01*
X144335690Y-58090949D01*
X144329224Y-58087492D01*
X144323558Y-58082842D01*
X144318908Y-58077176D01*
X144315451Y-58070710D01*
X144313323Y-58063695D01*
X144312000Y-58050260D01*
X144312000Y-57736540D01*
X144313323Y-57723105D01*
X144315451Y-57716091D01*
X144322810Y-57702323D01*
X144332187Y-57679684D01*
X144336967Y-57655651D01*
X144336967Y-57631147D01*
X144332186Y-57607114D01*
X144322810Y-57584477D01*
X144315451Y-57570709D01*
X144313323Y-57563695D01*
X144312000Y-57550260D01*
X144312000Y-57236540D01*
X144313323Y-57223105D01*
X144315451Y-57216091D01*
X144322810Y-57202323D01*
X144332187Y-57179684D01*
X144336967Y-57155651D01*
X144336967Y-57131147D01*
X144332186Y-57107114D01*
X144322810Y-57084477D01*
X144315451Y-57070709D01*
X144313323Y-57063695D01*
X144312000Y-57050260D01*
X144312000Y-56736540D01*
X144313323Y-56723105D01*
X144315451Y-56716091D01*
X144322810Y-56702323D01*
X144332187Y-56679684D01*
X144336967Y-56655651D01*
X144336967Y-56631147D01*
X144332186Y-56607114D01*
X144322810Y-56584477D01*
X144315451Y-56570709D01*
X144313323Y-56563695D01*
X144312000Y-56550260D01*
X144312000Y-56236540D01*
X144313323Y-56223105D01*
X144315451Y-56216091D01*
X144322810Y-56202323D01*
X144332187Y-56179684D01*
X144336967Y-56155651D01*
X144336967Y-56131147D01*
X144332186Y-56107114D01*
X144322810Y-56084477D01*
X144315451Y-56070709D01*
X144313323Y-56063695D01*
X144312000Y-56050260D01*
X144312000Y-55736540D01*
X144313323Y-55723105D01*
X144315451Y-55716091D01*
X144322810Y-55702323D01*
X144332187Y-55679684D01*
X144336967Y-55655651D01*
X144336967Y-55631147D01*
X144332186Y-55607114D01*
X144322810Y-55584477D01*
X144315451Y-55570709D01*
X144313323Y-55563695D01*
X144312000Y-55550260D01*
X144312000Y-55236540D01*
X144313323Y-55223105D01*
X144315451Y-55216091D01*
X144322810Y-55202323D01*
X144332187Y-55179684D01*
X144336967Y-55155651D01*
X144336967Y-55131147D01*
X144332186Y-55107114D01*
X144322810Y-55084477D01*
X144315451Y-55070709D01*
X144313323Y-55063695D01*
X144312000Y-55050260D01*
X144312000Y-54736540D01*
X144313323Y-54723105D01*
X144315451Y-54716091D01*
X144322810Y-54702323D01*
X144332187Y-54679684D01*
X144336967Y-54655651D01*
X144336967Y-54631147D01*
X144332186Y-54607114D01*
X144322810Y-54584477D01*
X144315451Y-54570709D01*
X144313323Y-54563695D01*
X144312000Y-54550260D01*
X144312000Y-54236540D01*
X144313323Y-54223105D01*
X144315451Y-54216091D01*
X144322810Y-54202323D01*
X144332187Y-54179684D01*
X144336967Y-54155651D01*
X144336967Y-54131147D01*
X144332186Y-54107114D01*
X144322810Y-54084477D01*
X144315451Y-54070709D01*
X144313323Y-54063695D01*
X144312000Y-54050260D01*
X144312000Y-53736540D01*
X144313323Y-53723105D01*
X144315451Y-53716091D01*
X144322810Y-53702323D01*
X144332187Y-53679684D01*
X144336967Y-53655651D01*
X144336967Y-53631147D01*
X144332186Y-53607114D01*
X144322810Y-53584477D01*
X144315451Y-53570709D01*
X144313323Y-53563695D01*
X144312000Y-53550260D01*
X144312000Y-53236540D01*
X144313323Y-53223105D01*
X144315451Y-53216091D01*
X144322810Y-53202323D01*
X144332187Y-53179684D01*
X144336967Y-53155651D01*
X144336967Y-53131147D01*
X144332186Y-53107114D01*
X144322810Y-53084477D01*
X144315451Y-53070709D01*
X144313323Y-53063695D01*
X144312000Y-53050260D01*
X144312000Y-52736540D01*
X144313323Y-52723105D01*
X144315451Y-52716091D01*
X144322810Y-52702323D01*
X144332187Y-52679684D01*
X144336967Y-52655651D01*
X144336967Y-52631147D01*
X144332186Y-52607114D01*
X144322810Y-52584477D01*
X144315451Y-52570709D01*
X144313323Y-52563695D01*
X144312000Y-52550260D01*
X144312000Y-52236540D01*
X144313323Y-52223105D01*
X144315451Y-52216090D01*
X144318908Y-52209624D01*
X144323558Y-52203958D01*
X144329224Y-52199308D01*
X144335690Y-52195851D01*
X144342705Y-52193723D01*
X144356140Y-52192400D01*
X145844860Y-52192400D01*
X145858295Y-52193723D01*
G37*
G36*
X137533295Y-52193723D02*
G01*
X137540310Y-52195851D01*
X137546776Y-52199308D01*
X137552442Y-52203958D01*
X137557092Y-52209624D01*
X137560549Y-52216090D01*
X137562677Y-52223105D01*
X137564000Y-52236540D01*
X137564000Y-52550260D01*
X137562677Y-52563695D01*
X137560549Y-52570709D01*
X137553190Y-52584477D01*
X137543813Y-52607116D01*
X137539033Y-52631149D01*
X137539033Y-52655653D01*
X137543814Y-52679686D01*
X137553190Y-52702323D01*
X137560549Y-52716091D01*
X137562677Y-52723105D01*
X137564000Y-52736540D01*
X137564000Y-53050260D01*
X137562677Y-53063695D01*
X137560549Y-53070709D01*
X137553190Y-53084477D01*
X137543813Y-53107116D01*
X137539033Y-53131149D01*
X137539033Y-53155653D01*
X137543814Y-53179686D01*
X137553190Y-53202323D01*
X137560549Y-53216091D01*
X137562677Y-53223105D01*
X137564000Y-53236540D01*
X137564000Y-53550260D01*
X137562677Y-53563695D01*
X137560549Y-53570709D01*
X137553190Y-53584477D01*
X137543813Y-53607116D01*
X137539033Y-53631149D01*
X137539033Y-53655653D01*
X137543814Y-53679686D01*
X137553190Y-53702323D01*
X137560549Y-53716091D01*
X137562677Y-53723105D01*
X137564000Y-53736540D01*
X137564000Y-54050260D01*
X137562677Y-54063695D01*
X137560549Y-54070709D01*
X137553190Y-54084477D01*
X137543813Y-54107116D01*
X137539033Y-54131149D01*
X137539033Y-54155653D01*
X137543814Y-54179686D01*
X137553190Y-54202323D01*
X137560549Y-54216091D01*
X137562677Y-54223105D01*
X137564000Y-54236540D01*
X137564000Y-54550260D01*
X137562677Y-54563695D01*
X137560549Y-54570709D01*
X137553190Y-54584477D01*
X137543813Y-54607116D01*
X137539033Y-54631149D01*
X137539033Y-54655653D01*
X137543814Y-54679686D01*
X137553190Y-54702323D01*
X137560549Y-54716091D01*
X137562677Y-54723105D01*
X137564000Y-54736540D01*
X137564000Y-55050260D01*
X137562677Y-55063695D01*
X137560549Y-55070709D01*
X137553190Y-55084477D01*
X137543813Y-55107116D01*
X137539033Y-55131149D01*
X137539033Y-55155653D01*
X137543814Y-55179686D01*
X137553190Y-55202323D01*
X137560549Y-55216091D01*
X137562677Y-55223105D01*
X137564000Y-55236540D01*
X137564000Y-55550260D01*
X137562677Y-55563695D01*
X137560549Y-55570709D01*
X137553190Y-55584477D01*
X137543813Y-55607116D01*
X137539033Y-55631149D01*
X137539033Y-55655653D01*
X137543814Y-55679686D01*
X137553190Y-55702323D01*
X137560549Y-55716091D01*
X137562677Y-55723105D01*
X137564000Y-55736540D01*
X137564000Y-56050260D01*
X137562677Y-56063695D01*
X137560549Y-56070709D01*
X137553190Y-56084477D01*
X137543813Y-56107116D01*
X137539033Y-56131149D01*
X137539033Y-56155653D01*
X137543814Y-56179686D01*
X137553190Y-56202323D01*
X137560549Y-56216091D01*
X137562677Y-56223105D01*
X137564000Y-56236540D01*
X137564000Y-56550260D01*
X137562677Y-56563695D01*
X137560549Y-56570709D01*
X137553190Y-56584477D01*
X137543813Y-56607116D01*
X137539033Y-56631149D01*
X137539033Y-56655653D01*
X137543814Y-56679686D01*
X137553190Y-56702323D01*
X137560549Y-56716091D01*
X137562677Y-56723105D01*
X137564000Y-56736540D01*
X137564000Y-57050260D01*
X137562677Y-57063695D01*
X137560549Y-57070709D01*
X137553190Y-57084477D01*
X137543813Y-57107116D01*
X137539033Y-57131149D01*
X137539033Y-57155653D01*
X137543814Y-57179686D01*
X137553190Y-57202323D01*
X137560549Y-57216091D01*
X137562677Y-57223105D01*
X137564000Y-57236540D01*
X137564000Y-57550260D01*
X137562677Y-57563695D01*
X137560549Y-57570709D01*
X137553190Y-57584477D01*
X137543813Y-57607116D01*
X137539033Y-57631149D01*
X137539033Y-57655653D01*
X137543814Y-57679686D01*
X137553190Y-57702323D01*
X137560549Y-57716091D01*
X137562677Y-57723105D01*
X137564000Y-57736540D01*
X137564000Y-58050260D01*
X137562677Y-58063695D01*
X137560549Y-58070710D01*
X137557092Y-58077176D01*
X137552442Y-58082842D01*
X137546776Y-58087492D01*
X137540310Y-58090949D01*
X137533295Y-58093077D01*
X137519860Y-58094400D01*
X136031140Y-58094400D01*
X136017705Y-58093077D01*
X136010690Y-58090949D01*
X136004224Y-58087492D01*
X135998558Y-58082842D01*
X135993908Y-58077176D01*
X135990451Y-58070710D01*
X135988323Y-58063695D01*
X135987000Y-58050260D01*
X135987000Y-57736540D01*
X135988323Y-57723105D01*
X135990451Y-57716091D01*
X135997810Y-57702323D01*
X136007187Y-57679684D01*
X136011967Y-57655651D01*
X136011967Y-57631147D01*
X136007186Y-57607114D01*
X135997810Y-57584477D01*
X135990451Y-57570709D01*
X135988323Y-57563695D01*
X135987000Y-57550260D01*
X135987000Y-57236540D01*
X135988323Y-57223105D01*
X135990451Y-57216091D01*
X135997810Y-57202323D01*
X136007187Y-57179684D01*
X136011967Y-57155651D01*
X136011967Y-57131147D01*
X136007186Y-57107114D01*
X135997810Y-57084477D01*
X135990451Y-57070709D01*
X135988323Y-57063695D01*
X135987000Y-57050260D01*
X135987000Y-56736540D01*
X135988323Y-56723105D01*
X135990451Y-56716091D01*
X135997810Y-56702323D01*
X136007187Y-56679684D01*
X136011967Y-56655651D01*
X136011967Y-56631147D01*
X136007186Y-56607114D01*
X135997810Y-56584477D01*
X135990451Y-56570709D01*
X135988323Y-56563695D01*
X135987000Y-56550260D01*
X135987000Y-56236540D01*
X135988323Y-56223105D01*
X135990451Y-56216091D01*
X135997810Y-56202323D01*
X136007187Y-56179684D01*
X136011967Y-56155651D01*
X136011967Y-56131147D01*
X136007186Y-56107114D01*
X135997810Y-56084477D01*
X135990451Y-56070709D01*
X135988323Y-56063695D01*
X135987000Y-56050260D01*
X135987000Y-55736540D01*
X135988323Y-55723105D01*
X135990451Y-55716091D01*
X135997810Y-55702323D01*
X136007187Y-55679684D01*
X136011967Y-55655651D01*
X136011967Y-55631147D01*
X136007186Y-55607114D01*
X135997810Y-55584477D01*
X135990451Y-55570709D01*
X135988323Y-55563695D01*
X135987000Y-55550260D01*
X135987000Y-55236540D01*
X135988323Y-55223105D01*
X135990451Y-55216091D01*
X135997810Y-55202323D01*
X136007187Y-55179684D01*
X136011967Y-55155651D01*
X136011967Y-55131147D01*
X136007186Y-55107114D01*
X135997810Y-55084477D01*
X135990451Y-55070709D01*
X135988323Y-55063695D01*
X135987000Y-55050260D01*
X135987000Y-54736540D01*
X135988323Y-54723105D01*
X135990451Y-54716091D01*
X135997810Y-54702323D01*
X136007187Y-54679684D01*
X136011967Y-54655651D01*
X136011967Y-54631147D01*
X136007186Y-54607114D01*
X135997810Y-54584477D01*
X135990451Y-54570709D01*
X135988323Y-54563695D01*
X135987000Y-54550260D01*
X135987000Y-54236540D01*
X135988323Y-54223105D01*
X135990451Y-54216091D01*
X135997810Y-54202323D01*
X136007187Y-54179684D01*
X136011967Y-54155651D01*
X136011967Y-54131147D01*
X136007186Y-54107114D01*
X135997810Y-54084477D01*
X135990451Y-54070709D01*
X135988323Y-54063695D01*
X135987000Y-54050260D01*
X135987000Y-53736540D01*
X135988323Y-53723105D01*
X135990451Y-53716091D01*
X135997810Y-53702323D01*
X136007187Y-53679684D01*
X136011967Y-53655651D01*
X136011967Y-53631147D01*
X136007186Y-53607114D01*
X135997810Y-53584477D01*
X135990451Y-53570709D01*
X135988323Y-53563695D01*
X135987000Y-53550260D01*
X135987000Y-53236540D01*
X135988323Y-53223105D01*
X135990451Y-53216091D01*
X135997810Y-53202323D01*
X136007187Y-53179684D01*
X136011967Y-53155651D01*
X136011967Y-53131147D01*
X136007186Y-53107114D01*
X135997810Y-53084477D01*
X135990451Y-53070709D01*
X135988323Y-53063695D01*
X135987000Y-53050260D01*
X135987000Y-52736540D01*
X135988323Y-52723105D01*
X135990451Y-52716091D01*
X135997810Y-52702323D01*
X136007187Y-52679684D01*
X136011967Y-52655651D01*
X136011967Y-52631147D01*
X136007186Y-52607114D01*
X135997810Y-52584477D01*
X135990451Y-52570709D01*
X135988323Y-52563695D01*
X135987000Y-52550260D01*
X135987000Y-52236540D01*
X135988323Y-52223105D01*
X135990451Y-52216090D01*
X135993908Y-52209624D01*
X135998558Y-52203958D01*
X136004224Y-52199308D01*
X136010690Y-52195851D01*
X136017705Y-52193723D01*
X136031140Y-52192400D01*
X137519860Y-52192400D01*
X137533295Y-52193723D01*
G37*
G36*
X148212828Y-56364845D02*
G01*
X148251498Y-56376576D01*
X148287137Y-56395626D01*
X148318377Y-56421263D01*
X148344014Y-56452503D01*
X148363064Y-56488142D01*
X148374795Y-56526812D01*
X148379360Y-56573168D01*
X148379360Y-57224392D01*
X148374795Y-57270748D01*
X148363064Y-57309418D01*
X148344014Y-57345057D01*
X148318377Y-57376297D01*
X148287137Y-57401934D01*
X148251498Y-57420984D01*
X148212828Y-57432715D01*
X148166472Y-57437280D01*
X147090248Y-57437280D01*
X147043892Y-57432715D01*
X147005222Y-57420984D01*
X146969583Y-57401934D01*
X146938343Y-57376297D01*
X146912706Y-57345057D01*
X146893656Y-57309418D01*
X146881925Y-57270748D01*
X146877360Y-57224392D01*
X146877360Y-56573168D01*
X146881925Y-56526812D01*
X146893656Y-56488142D01*
X146912706Y-56452503D01*
X146938343Y-56421263D01*
X146969583Y-56395626D01*
X147005222Y-56376576D01*
X147043892Y-56364845D01*
X147090248Y-56360280D01*
X148166472Y-56360280D01*
X148212828Y-56364845D01*
G37*
G36*
X110445668Y-55546565D02*
G01*
X110484338Y-55558296D01*
X110519977Y-55577346D01*
X110551217Y-55602983D01*
X110576854Y-55634223D01*
X110595904Y-55669862D01*
X110607635Y-55708532D01*
X110612200Y-55754888D01*
X110612200Y-56831112D01*
X110607635Y-56877468D01*
X110595904Y-56916138D01*
X110576854Y-56951777D01*
X110551217Y-56983017D01*
X110519977Y-57008654D01*
X110484338Y-57027704D01*
X110445668Y-57039435D01*
X110399312Y-57044000D01*
X109748088Y-57044000D01*
X109701732Y-57039435D01*
X109663062Y-57027704D01*
X109627423Y-57008654D01*
X109596183Y-56983017D01*
X109570546Y-56951777D01*
X109551496Y-56916138D01*
X109539765Y-56877468D01*
X109535200Y-56831112D01*
X109535200Y-55754888D01*
X109539765Y-55708532D01*
X109551496Y-55669862D01*
X109570546Y-55634223D01*
X109596183Y-55602983D01*
X109627423Y-55577346D01*
X109663062Y-55558296D01*
X109701732Y-55546565D01*
X109748088Y-55542000D01*
X110399312Y-55542000D01*
X110445668Y-55546565D01*
G37*
G36*
X112320668Y-55546565D02*
G01*
X112359338Y-55558296D01*
X112394977Y-55577346D01*
X112426217Y-55602983D01*
X112451854Y-55634223D01*
X112470904Y-55669862D01*
X112482635Y-55708532D01*
X112487200Y-55754888D01*
X112487200Y-56831112D01*
X112482635Y-56877468D01*
X112470904Y-56916138D01*
X112451854Y-56951777D01*
X112426217Y-56983017D01*
X112394977Y-57008654D01*
X112359338Y-57027704D01*
X112320668Y-57039435D01*
X112274312Y-57044000D01*
X111623088Y-57044000D01*
X111576732Y-57039435D01*
X111538062Y-57027704D01*
X111502423Y-57008654D01*
X111471183Y-56983017D01*
X111445546Y-56951777D01*
X111426496Y-56916138D01*
X111414765Y-56877468D01*
X111410200Y-56831112D01*
X111410200Y-55754888D01*
X111414765Y-55708532D01*
X111426496Y-55669862D01*
X111445546Y-55634223D01*
X111471183Y-55602983D01*
X111502423Y-55577346D01*
X111538062Y-55558296D01*
X111576732Y-55546565D01*
X111623088Y-55542000D01*
X112274312Y-55542000D01*
X112320668Y-55546565D01*
G37*
G36*
X106035338Y-55825116D02*
G01*
X106055957Y-55831371D01*
X106074953Y-55841524D01*
X106091608Y-55855192D01*
X106105276Y-55871847D01*
X106115429Y-55890843D01*
X106121684Y-55911462D01*
X106124400Y-55939040D01*
X106124400Y-56397760D01*
X106121684Y-56425338D01*
X106115429Y-56445957D01*
X106105276Y-56464953D01*
X106091608Y-56481608D01*
X106074953Y-56495276D01*
X106055957Y-56505429D01*
X106035338Y-56511684D01*
X106007760Y-56514400D01*
X105499040Y-56514400D01*
X105471462Y-56511684D01*
X105450843Y-56505429D01*
X105431847Y-56495276D01*
X105415192Y-56481608D01*
X105401524Y-56464953D01*
X105391371Y-56445957D01*
X105385116Y-56425338D01*
X105382400Y-56397760D01*
X105382400Y-55939040D01*
X105385116Y-55911462D01*
X105391371Y-55890843D01*
X105401524Y-55871847D01*
X105415192Y-55855192D01*
X105431847Y-55841524D01*
X105450843Y-55831371D01*
X105471462Y-55825116D01*
X105499040Y-55822400D01*
X106007760Y-55822400D01*
X106035338Y-55825116D01*
G37*
G36*
X127263400Y-55621600D02*
G01*
X126661400Y-55621600D01*
X126661400Y-54669600D01*
X127263400Y-54669600D01*
X127263400Y-55621600D01*
G37*
G36*
X125993400Y-55621600D02*
G01*
X125391400Y-55621600D01*
X125391400Y-54669600D01*
X125993400Y-54669600D01*
X125993400Y-55621600D01*
G37*
G36*
X124723400Y-55621600D02*
G01*
X124121400Y-55621600D01*
X124121400Y-54669600D01*
X124723400Y-54669600D01*
X124723400Y-55621600D01*
G37*
G36*
X123453400Y-55621600D02*
G01*
X122851400Y-55621600D01*
X122851400Y-54669600D01*
X123453400Y-54669600D01*
X123453400Y-55621600D01*
G37*
G36*
X148212828Y-54489845D02*
G01*
X148251498Y-54501576D01*
X148287137Y-54520626D01*
X148318377Y-54546263D01*
X148344014Y-54577503D01*
X148363064Y-54613142D01*
X148374795Y-54651812D01*
X148379360Y-54698168D01*
X148379360Y-55349392D01*
X148374795Y-55395748D01*
X148363064Y-55434418D01*
X148344014Y-55470057D01*
X148318377Y-55501297D01*
X148287137Y-55526934D01*
X148251498Y-55545984D01*
X148212828Y-55557715D01*
X148166472Y-55562280D01*
X147090248Y-55562280D01*
X147043892Y-55557715D01*
X147005222Y-55545984D01*
X146969583Y-55526934D01*
X146938343Y-55501297D01*
X146912706Y-55470057D01*
X146893656Y-55434418D01*
X146881925Y-55395748D01*
X146877360Y-55349392D01*
X146877360Y-54698168D01*
X146881925Y-54651812D01*
X146893656Y-54613142D01*
X146912706Y-54577503D01*
X146938343Y-54546263D01*
X146969583Y-54520626D01*
X147005222Y-54501576D01*
X147043892Y-54489845D01*
X147090248Y-54485280D01*
X148166472Y-54485280D01*
X148212828Y-54489845D01*
G37*
G36*
X106035338Y-54855116D02*
G01*
X106055957Y-54861371D01*
X106074953Y-54871524D01*
X106091608Y-54885192D01*
X106105276Y-54901847D01*
X106115429Y-54920843D01*
X106121684Y-54941462D01*
X106124400Y-54969040D01*
X106124400Y-55427760D01*
X106121684Y-55455338D01*
X106115429Y-55475957D01*
X106105276Y-55494953D01*
X106091608Y-55511608D01*
X106074953Y-55525276D01*
X106055957Y-55535429D01*
X106035338Y-55541684D01*
X106007760Y-55544400D01*
X105499040Y-55544400D01*
X105471462Y-55541684D01*
X105450843Y-55535429D01*
X105431847Y-55525276D01*
X105415192Y-55511608D01*
X105401524Y-55494953D01*
X105391371Y-55475957D01*
X105385116Y-55455338D01*
X105382400Y-55427760D01*
X105382400Y-54969040D01*
X105385116Y-54941462D01*
X105391371Y-54920843D01*
X105401524Y-54901847D01*
X105415192Y-54885192D01*
X105431847Y-54871524D01*
X105450843Y-54861371D01*
X105471462Y-54855116D01*
X105499040Y-54852400D01*
X106007760Y-54852400D01*
X106035338Y-54855116D01*
G37*
G36*
X119947400Y-54640000D02*
G01*
X119245400Y-54640000D01*
X119245400Y-52538000D01*
X119947400Y-52538000D01*
X119947400Y-54640000D01*
G37*
G36*
X118677400Y-54640000D02*
G01*
X117975400Y-54640000D01*
X117975400Y-52538000D01*
X118677400Y-52538000D01*
X118677400Y-54640000D01*
G37*
G36*
X117407400Y-54640000D02*
G01*
X116705400Y-54640000D01*
X116705400Y-52538000D01*
X117407400Y-52538000D01*
X117407400Y-54640000D01*
G37*
G36*
X116137400Y-54640000D02*
G01*
X115435400Y-54640000D01*
X115435400Y-52538000D01*
X116137400Y-52538000D01*
X116137400Y-54640000D01*
G37*
G36*
X108028068Y-52828765D02*
G01*
X108066738Y-52840496D01*
X108102377Y-52859546D01*
X108133617Y-52885183D01*
X108159254Y-52916423D01*
X108178304Y-52952062D01*
X108190035Y-52990732D01*
X108194600Y-53037088D01*
X108194600Y-54113312D01*
X108190035Y-54159668D01*
X108178304Y-54198338D01*
X108159254Y-54233977D01*
X108133617Y-54265217D01*
X108102377Y-54290854D01*
X108066738Y-54309904D01*
X108028068Y-54321635D01*
X107981712Y-54326200D01*
X107330488Y-54326200D01*
X107284132Y-54321635D01*
X107245462Y-54309904D01*
X107209823Y-54290854D01*
X107178583Y-54265217D01*
X107152946Y-54233977D01*
X107133896Y-54198338D01*
X107122165Y-54159668D01*
X107117600Y-54113312D01*
X107117600Y-53037088D01*
X107122165Y-52990732D01*
X107133896Y-52952062D01*
X107152946Y-52916423D01*
X107178583Y-52885183D01*
X107209823Y-52859546D01*
X107245462Y-52840496D01*
X107284132Y-52828765D01*
X107330488Y-52824200D01*
X107981712Y-52824200D01*
X108028068Y-52828765D01*
G37*
G36*
X106153068Y-52828765D02*
G01*
X106191738Y-52840496D01*
X106227377Y-52859546D01*
X106258617Y-52885183D01*
X106284254Y-52916423D01*
X106303304Y-52952062D01*
X106315035Y-52990732D01*
X106319600Y-53037088D01*
X106319600Y-54113312D01*
X106315035Y-54159668D01*
X106303304Y-54198338D01*
X106284254Y-54233977D01*
X106258617Y-54265217D01*
X106227377Y-54290854D01*
X106191738Y-54309904D01*
X106153068Y-54321635D01*
X106106712Y-54326200D01*
X105455488Y-54326200D01*
X105409132Y-54321635D01*
X105370462Y-54309904D01*
X105334823Y-54290854D01*
X105303583Y-54265217D01*
X105277946Y-54233977D01*
X105258896Y-54198338D01*
X105247165Y-54159668D01*
X105242600Y-54113312D01*
X105242600Y-53037088D01*
X105247165Y-52990732D01*
X105258896Y-52952062D01*
X105277946Y-52916423D01*
X105303583Y-52885183D01*
X105334823Y-52859546D01*
X105370462Y-52840496D01*
X105409132Y-52828765D01*
X105455488Y-52824200D01*
X106106712Y-52824200D01*
X106153068Y-52828765D01*
G37*
G36*
X110445668Y-52803365D02*
G01*
X110484338Y-52815096D01*
X110519977Y-52834146D01*
X110551217Y-52859783D01*
X110576854Y-52891023D01*
X110595904Y-52926662D01*
X110607635Y-52965332D01*
X110612200Y-53011688D01*
X110612200Y-54087912D01*
X110607635Y-54134268D01*
X110595904Y-54172938D01*
X110576854Y-54208577D01*
X110551217Y-54239817D01*
X110519977Y-54265454D01*
X110484338Y-54284504D01*
X110445668Y-54296235D01*
X110399312Y-54300800D01*
X109748088Y-54300800D01*
X109701732Y-54296235D01*
X109663062Y-54284504D01*
X109627423Y-54265454D01*
X109596183Y-54239817D01*
X109570546Y-54208577D01*
X109551496Y-54172938D01*
X109539765Y-54134268D01*
X109535200Y-54087912D01*
X109535200Y-53011688D01*
X109539765Y-52965332D01*
X109551496Y-52926662D01*
X109570546Y-52891023D01*
X109596183Y-52859783D01*
X109627423Y-52834146D01*
X109663062Y-52815096D01*
X109701732Y-52803365D01*
X109748088Y-52798800D01*
X110399312Y-52798800D01*
X110445668Y-52803365D01*
G37*
G36*
X112320668Y-52803365D02*
G01*
X112359338Y-52815096D01*
X112394977Y-52834146D01*
X112426217Y-52859783D01*
X112451854Y-52891023D01*
X112470904Y-52926662D01*
X112482635Y-52965332D01*
X112487200Y-53011688D01*
X112487200Y-54087912D01*
X112482635Y-54134268D01*
X112470904Y-54172938D01*
X112451854Y-54208577D01*
X112426217Y-54239817D01*
X112394977Y-54265454D01*
X112359338Y-54284504D01*
X112320668Y-54296235D01*
X112274312Y-54300800D01*
X111623088Y-54300800D01*
X111576732Y-54296235D01*
X111538062Y-54284504D01*
X111502423Y-54265454D01*
X111471183Y-54239817D01*
X111445546Y-54208577D01*
X111426496Y-54172938D01*
X111414765Y-54134268D01*
X111410200Y-54087912D01*
X111410200Y-53011688D01*
X111414765Y-52965332D01*
X111426496Y-52926662D01*
X111445546Y-52891023D01*
X111471183Y-52859783D01*
X111502423Y-52834146D01*
X111538062Y-52815096D01*
X111576732Y-52803365D01*
X111623088Y-52798800D01*
X112274312Y-52798800D01*
X112320668Y-52803365D01*
G37*
G36*
X155074609Y-53653988D02*
G01*
X154383637Y-54233783D01*
X153675285Y-53389602D01*
X154366257Y-52809807D01*
X155074609Y-53653988D01*
G37*
G36*
X153366384Y-52084923D02*
G01*
X152139181Y-53114669D01*
X151623666Y-52500301D01*
X152850869Y-51470555D01*
X153366384Y-52084923D01*
G37*
G36*
X156759907Y-52239856D02*
G01*
X156068935Y-52819651D01*
X155360583Y-51975470D01*
X156051555Y-51395675D01*
X156759907Y-52239856D01*
G37*
G36*
X127278491Y-51386545D02*
G01*
X127312469Y-51396853D01*
X127343790Y-51413594D01*
X127371239Y-51436121D01*
X127393766Y-51463570D01*
X127410507Y-51494891D01*
X127420815Y-51528869D01*
X127424900Y-51570350D01*
X127424900Y-52171570D01*
X127420815Y-52213051D01*
X127410507Y-52247029D01*
X127393766Y-52278350D01*
X127371239Y-52305799D01*
X127343790Y-52328326D01*
X127312469Y-52345067D01*
X127278491Y-52355375D01*
X127237010Y-52359460D01*
X126560790Y-52359460D01*
X126519309Y-52355375D01*
X126485331Y-52345067D01*
X126454010Y-52328326D01*
X126426561Y-52305799D01*
X126404034Y-52278350D01*
X126387293Y-52247029D01*
X126376985Y-52213051D01*
X126372900Y-52171570D01*
X126372900Y-51570350D01*
X126376985Y-51528869D01*
X126387293Y-51494891D01*
X126404034Y-51463570D01*
X126426561Y-51436121D01*
X126454010Y-51413594D01*
X126485331Y-51396853D01*
X126519309Y-51386545D01*
X126560790Y-51382460D01*
X127237010Y-51382460D01*
X127278491Y-51386545D01*
G37*
G36*
X124729738Y-51405516D02*
G01*
X124750357Y-51411771D01*
X124769353Y-51421924D01*
X124786008Y-51435592D01*
X124799676Y-51452247D01*
X124809829Y-51471243D01*
X124816084Y-51491862D01*
X124818800Y-51519440D01*
X124818800Y-51978160D01*
X124816084Y-52005738D01*
X124809829Y-52026357D01*
X124799676Y-52045353D01*
X124786008Y-52062008D01*
X124769353Y-52075676D01*
X124750357Y-52085829D01*
X124729738Y-52092084D01*
X124702160Y-52094800D01*
X124193440Y-52094800D01*
X124165862Y-52092084D01*
X124145243Y-52085829D01*
X124126247Y-52075676D01*
X124109592Y-52062008D01*
X124095924Y-52045353D01*
X124085771Y-52026357D01*
X124079516Y-52005738D01*
X124076800Y-51978160D01*
X124076800Y-51519440D01*
X124079516Y-51491862D01*
X124085771Y-51471243D01*
X124095924Y-51452247D01*
X124109592Y-51435592D01*
X124126247Y-51421924D01*
X124145243Y-51411771D01*
X124165862Y-51405516D01*
X124193440Y-51402800D01*
X124702160Y-51402800D01*
X124729738Y-51405516D01*
G37*
G36*
X152402203Y-50935856D02*
G01*
X151175000Y-51965602D01*
X150659485Y-51351234D01*
X151886688Y-50321488D01*
X152402203Y-50935856D01*
G37*
G36*
X138358295Y-50193723D02*
G01*
X138365309Y-50195851D01*
X138379077Y-50203210D01*
X138401716Y-50212587D01*
X138425749Y-50217367D01*
X138450253Y-50217367D01*
X138474286Y-50212586D01*
X138496923Y-50203210D01*
X138510691Y-50195851D01*
X138517705Y-50193723D01*
X138531140Y-50192400D01*
X138844860Y-50192400D01*
X138858295Y-50193723D01*
X138865309Y-50195851D01*
X138879077Y-50203210D01*
X138901716Y-50212587D01*
X138925749Y-50217367D01*
X138950253Y-50217367D01*
X138974286Y-50212586D01*
X138996923Y-50203210D01*
X139010691Y-50195851D01*
X139017705Y-50193723D01*
X139031140Y-50192400D01*
X139344860Y-50192400D01*
X139358295Y-50193723D01*
X139365309Y-50195851D01*
X139379077Y-50203210D01*
X139401716Y-50212587D01*
X139425749Y-50217367D01*
X139450253Y-50217367D01*
X139474286Y-50212586D01*
X139496923Y-50203210D01*
X139510691Y-50195851D01*
X139517705Y-50193723D01*
X139531140Y-50192400D01*
X139844860Y-50192400D01*
X139858295Y-50193723D01*
X139865309Y-50195851D01*
X139879077Y-50203210D01*
X139901716Y-50212587D01*
X139925749Y-50217367D01*
X139950253Y-50217367D01*
X139974286Y-50212586D01*
X139996923Y-50203210D01*
X140010691Y-50195851D01*
X140017705Y-50193723D01*
X140031140Y-50192400D01*
X140344860Y-50192400D01*
X140358295Y-50193723D01*
X140365309Y-50195851D01*
X140379077Y-50203210D01*
X140401716Y-50212587D01*
X140425749Y-50217367D01*
X140450253Y-50217367D01*
X140474286Y-50212586D01*
X140496923Y-50203210D01*
X140510691Y-50195851D01*
X140517705Y-50193723D01*
X140531140Y-50192400D01*
X140844860Y-50192400D01*
X140858295Y-50193723D01*
X140865309Y-50195851D01*
X140879077Y-50203210D01*
X140901716Y-50212587D01*
X140925749Y-50217367D01*
X140950253Y-50217367D01*
X140974286Y-50212586D01*
X140996923Y-50203210D01*
X141010691Y-50195851D01*
X141017705Y-50193723D01*
X141031140Y-50192400D01*
X141344860Y-50192400D01*
X141358295Y-50193723D01*
X141365309Y-50195851D01*
X141379077Y-50203210D01*
X141401716Y-50212587D01*
X141425749Y-50217367D01*
X141450253Y-50217367D01*
X141474286Y-50212586D01*
X141496923Y-50203210D01*
X141510691Y-50195851D01*
X141517705Y-50193723D01*
X141531140Y-50192400D01*
X141844860Y-50192400D01*
X141858295Y-50193723D01*
X141865309Y-50195851D01*
X141879077Y-50203210D01*
X141901716Y-50212587D01*
X141925749Y-50217367D01*
X141950253Y-50217367D01*
X141974286Y-50212586D01*
X141996923Y-50203210D01*
X142010691Y-50195851D01*
X142017705Y-50193723D01*
X142031140Y-50192400D01*
X142344860Y-50192400D01*
X142358295Y-50193723D01*
X142365309Y-50195851D01*
X142379077Y-50203210D01*
X142401716Y-50212587D01*
X142425749Y-50217367D01*
X142450253Y-50217367D01*
X142474286Y-50212586D01*
X142496923Y-50203210D01*
X142510691Y-50195851D01*
X142517705Y-50193723D01*
X142531140Y-50192400D01*
X142844860Y-50192400D01*
X142858295Y-50193723D01*
X142865309Y-50195851D01*
X142879077Y-50203210D01*
X142901716Y-50212587D01*
X142925749Y-50217367D01*
X142950253Y-50217367D01*
X142974286Y-50212586D01*
X142996923Y-50203210D01*
X143010691Y-50195851D01*
X143017705Y-50193723D01*
X143031140Y-50192400D01*
X143344860Y-50192400D01*
X143358295Y-50193723D01*
X143365309Y-50195851D01*
X143379077Y-50203210D01*
X143401716Y-50212587D01*
X143425749Y-50217367D01*
X143450253Y-50217367D01*
X143474286Y-50212586D01*
X143496923Y-50203210D01*
X143510691Y-50195851D01*
X143517705Y-50193723D01*
X143531140Y-50192400D01*
X143844860Y-50192400D01*
X143858295Y-50193723D01*
X143865310Y-50195851D01*
X143871776Y-50199308D01*
X143877442Y-50203958D01*
X143882092Y-50209624D01*
X143885549Y-50216090D01*
X143887677Y-50223105D01*
X143889000Y-50236540D01*
X143889000Y-51725260D01*
X143887677Y-51738695D01*
X143885549Y-51745710D01*
X143882092Y-51752176D01*
X143877442Y-51757842D01*
X143871776Y-51762492D01*
X143865310Y-51765949D01*
X143858295Y-51768077D01*
X143844860Y-51769400D01*
X143531140Y-51769400D01*
X143517705Y-51768077D01*
X143510691Y-51765949D01*
X143496923Y-51758590D01*
X143474284Y-51749213D01*
X143450251Y-51744433D01*
X143425747Y-51744433D01*
X143401714Y-51749214D01*
X143379077Y-51758590D01*
X143365309Y-51765949D01*
X143358295Y-51768077D01*
X143344860Y-51769400D01*
X143031140Y-51769400D01*
X143017705Y-51768077D01*
X143010691Y-51765949D01*
X142996923Y-51758590D01*
X142974284Y-51749213D01*
X142950251Y-51744433D01*
X142925747Y-51744433D01*
X142901714Y-51749214D01*
X142879077Y-51758590D01*
X142865309Y-51765949D01*
X142858295Y-51768077D01*
X142844860Y-51769400D01*
X142531140Y-51769400D01*
X142517705Y-51768077D01*
X142510691Y-51765949D01*
X142496923Y-51758590D01*
X142474284Y-51749213D01*
X142450251Y-51744433D01*
X142425747Y-51744433D01*
X142401714Y-51749214D01*
X142379077Y-51758590D01*
X142365309Y-51765949D01*
X142358295Y-51768077D01*
X142344860Y-51769400D01*
X142031140Y-51769400D01*
X142017705Y-51768077D01*
X142010691Y-51765949D01*
X141996923Y-51758590D01*
X141974284Y-51749213D01*
X141950251Y-51744433D01*
X141925747Y-51744433D01*
X141901714Y-51749214D01*
X141879077Y-51758590D01*
X141865309Y-51765949D01*
X141858295Y-51768077D01*
X141844860Y-51769400D01*
X141531140Y-51769400D01*
X141517705Y-51768077D01*
X141510691Y-51765949D01*
X141496923Y-51758590D01*
X141474284Y-51749213D01*
X141450251Y-51744433D01*
X141425747Y-51744433D01*
X141401714Y-51749214D01*
X141379077Y-51758590D01*
X141365309Y-51765949D01*
X141358295Y-51768077D01*
X141344860Y-51769400D01*
X141031140Y-51769400D01*
X141017705Y-51768077D01*
X141010691Y-51765949D01*
X140996923Y-51758590D01*
X140974284Y-51749213D01*
X140950251Y-51744433D01*
X140925747Y-51744433D01*
X140901714Y-51749214D01*
X140879077Y-51758590D01*
X140865309Y-51765949D01*
X140858295Y-51768077D01*
X140844860Y-51769400D01*
X140531140Y-51769400D01*
X140517705Y-51768077D01*
X140510691Y-51765949D01*
X140496923Y-51758590D01*
X140474284Y-51749213D01*
X140450251Y-51744433D01*
X140425747Y-51744433D01*
X140401714Y-51749214D01*
X140379077Y-51758590D01*
X140365309Y-51765949D01*
X140358295Y-51768077D01*
X140344860Y-51769400D01*
X140031140Y-51769400D01*
X140017705Y-51768077D01*
X140010691Y-51765949D01*
X139996923Y-51758590D01*
X139974284Y-51749213D01*
X139950251Y-51744433D01*
X139925747Y-51744433D01*
X139901714Y-51749214D01*
X139879077Y-51758590D01*
X139865309Y-51765949D01*
X139858295Y-51768077D01*
X139844860Y-51769400D01*
X139531140Y-51769400D01*
X139517705Y-51768077D01*
X139510691Y-51765949D01*
X139496923Y-51758590D01*
X139474284Y-51749213D01*
X139450251Y-51744433D01*
X139425747Y-51744433D01*
X139401714Y-51749214D01*
X139379077Y-51758590D01*
X139365309Y-51765949D01*
X139358295Y-51768077D01*
X139344860Y-51769400D01*
X139031140Y-51769400D01*
X139017705Y-51768077D01*
X139010691Y-51765949D01*
X138996923Y-51758590D01*
X138974284Y-51749213D01*
X138950251Y-51744433D01*
X138925747Y-51744433D01*
X138901714Y-51749214D01*
X138879077Y-51758590D01*
X138865309Y-51765949D01*
X138858295Y-51768077D01*
X138844860Y-51769400D01*
X138531140Y-51769400D01*
X138517705Y-51768077D01*
X138510691Y-51765949D01*
X138496923Y-51758590D01*
X138474284Y-51749213D01*
X138450251Y-51744433D01*
X138425747Y-51744433D01*
X138401714Y-51749214D01*
X138379077Y-51758590D01*
X138365309Y-51765949D01*
X138358295Y-51768077D01*
X138344860Y-51769400D01*
X138031140Y-51769400D01*
X138017705Y-51768077D01*
X138010690Y-51765949D01*
X138004224Y-51762492D01*
X137998558Y-51757842D01*
X137993908Y-51752176D01*
X137990451Y-51745710D01*
X137988323Y-51738695D01*
X137987000Y-51725260D01*
X137987000Y-50236540D01*
X137988323Y-50223105D01*
X137990451Y-50216090D01*
X137993908Y-50209624D01*
X137998558Y-50203958D01*
X138004224Y-50199308D01*
X138010690Y-50195851D01*
X138017705Y-50193723D01*
X138031140Y-50192400D01*
X138344860Y-50192400D01*
X138358295Y-50193723D01*
G37*
G36*
X117486791Y-50728685D02*
G01*
X117520769Y-50738993D01*
X117552090Y-50755734D01*
X117579539Y-50778261D01*
X117602066Y-50805710D01*
X117618807Y-50837031D01*
X117629115Y-50871009D01*
X117633200Y-50912490D01*
X117633200Y-51513710D01*
X117629115Y-51555191D01*
X117618807Y-51589169D01*
X117602066Y-51620490D01*
X117579539Y-51647939D01*
X117552090Y-51670466D01*
X117520769Y-51687207D01*
X117486791Y-51697515D01*
X117445310Y-51701600D01*
X116769090Y-51701600D01*
X116727609Y-51697515D01*
X116693631Y-51687207D01*
X116662310Y-51670466D01*
X116634861Y-51647939D01*
X116612334Y-51620490D01*
X116595593Y-51589169D01*
X116585285Y-51555191D01*
X116581200Y-51513710D01*
X116581200Y-50912490D01*
X116585285Y-50871009D01*
X116595593Y-50837031D01*
X116612334Y-50805710D01*
X116634861Y-50778261D01*
X116662310Y-50755734D01*
X116693631Y-50738993D01*
X116727609Y-50728685D01*
X116769090Y-50724600D01*
X117445310Y-50724600D01*
X117486791Y-50728685D01*
G37*
G36*
X112320668Y-49983965D02*
G01*
X112359338Y-49995696D01*
X112394977Y-50014746D01*
X112426217Y-50040383D01*
X112451854Y-50071623D01*
X112470904Y-50107262D01*
X112482635Y-50145932D01*
X112487200Y-50192288D01*
X112487200Y-51268512D01*
X112482635Y-51314868D01*
X112470904Y-51353538D01*
X112451854Y-51389177D01*
X112426217Y-51420417D01*
X112394977Y-51446054D01*
X112359338Y-51465104D01*
X112320668Y-51476835D01*
X112274312Y-51481400D01*
X111623088Y-51481400D01*
X111576732Y-51476835D01*
X111538062Y-51465104D01*
X111502423Y-51446054D01*
X111471183Y-51420417D01*
X111445546Y-51389177D01*
X111426496Y-51353538D01*
X111414765Y-51314868D01*
X111410200Y-51268512D01*
X111410200Y-50192288D01*
X111414765Y-50145932D01*
X111426496Y-50107262D01*
X111445546Y-50071623D01*
X111471183Y-50040383D01*
X111502423Y-50014746D01*
X111538062Y-49995696D01*
X111576732Y-49983965D01*
X111623088Y-49979400D01*
X112274312Y-49979400D01*
X112320668Y-49983965D01*
G37*
G36*
X110445668Y-49983965D02*
G01*
X110484338Y-49995696D01*
X110519977Y-50014746D01*
X110551217Y-50040383D01*
X110576854Y-50071623D01*
X110595904Y-50107262D01*
X110607635Y-50145932D01*
X110612200Y-50192288D01*
X110612200Y-51268512D01*
X110607635Y-51314868D01*
X110595904Y-51353538D01*
X110576854Y-51389177D01*
X110551217Y-51420417D01*
X110519977Y-51446054D01*
X110484338Y-51465104D01*
X110445668Y-51476835D01*
X110399312Y-51481400D01*
X109748088Y-51481400D01*
X109701732Y-51476835D01*
X109663062Y-51465104D01*
X109627423Y-51446054D01*
X109596183Y-51420417D01*
X109570546Y-51389177D01*
X109551496Y-51353538D01*
X109539765Y-51314868D01*
X109535200Y-51268512D01*
X109535200Y-50192288D01*
X109539765Y-50145932D01*
X109551496Y-50107262D01*
X109570546Y-50071623D01*
X109596183Y-50040383D01*
X109627423Y-50014746D01*
X109663062Y-49995696D01*
X109701732Y-49983965D01*
X109748088Y-49979400D01*
X110399312Y-49979400D01*
X110445668Y-49983965D01*
G37*
G36*
X153609750Y-50292900D02*
G01*
X153660345Y-50302964D01*
X153698111Y-50318607D01*
X153751520Y-50340730D01*
X153751521Y-50340731D01*
X153833578Y-50395559D01*
X153903361Y-50465342D01*
X153903362Y-50465344D01*
X153958190Y-50547400D01*
X153995956Y-50638576D01*
X154015209Y-50735366D01*
X154015209Y-50834056D01*
X153995956Y-50930846D01*
X153958190Y-51022022D01*
X153935248Y-51056357D01*
X153903361Y-51104080D01*
X153833578Y-51173863D01*
X153792271Y-51201463D01*
X153751520Y-51228692D01*
X153698111Y-51250815D01*
X153660345Y-51266458D01*
X153611949Y-51276085D01*
X153563554Y-51285711D01*
X153464864Y-51285711D01*
X153416469Y-51276085D01*
X153368073Y-51266458D01*
X153330307Y-51250815D01*
X153276898Y-51228692D01*
X153236147Y-51201463D01*
X153194840Y-51173863D01*
X153125057Y-51104080D01*
X153093170Y-51056357D01*
X153070228Y-51022022D01*
X153032462Y-50930846D01*
X153013209Y-50834056D01*
X153013209Y-50735366D01*
X153032462Y-50638576D01*
X153070228Y-50547400D01*
X153125056Y-50465344D01*
X153125057Y-50465342D01*
X153194840Y-50395559D01*
X153276897Y-50340731D01*
X153276898Y-50340730D01*
X153330307Y-50318607D01*
X153368073Y-50302964D01*
X153418668Y-50292900D01*
X153464864Y-50283711D01*
X153563554Y-50283711D01*
X153609750Y-50292900D01*
G37*
G36*
X124729738Y-50435516D02*
G01*
X124750357Y-50441771D01*
X124769353Y-50451924D01*
X124786008Y-50465592D01*
X124799676Y-50482247D01*
X124809829Y-50501243D01*
X124816084Y-50521862D01*
X124818800Y-50549440D01*
X124818800Y-51008160D01*
X124816084Y-51035738D01*
X124809829Y-51056357D01*
X124799676Y-51075353D01*
X124786008Y-51092008D01*
X124769353Y-51105676D01*
X124750357Y-51115829D01*
X124729738Y-51122084D01*
X124702160Y-51124800D01*
X124193440Y-51124800D01*
X124165862Y-51122084D01*
X124145243Y-51115829D01*
X124126247Y-51105676D01*
X124109592Y-51092008D01*
X124095924Y-51075353D01*
X124085771Y-51056357D01*
X124079516Y-51035738D01*
X124076800Y-51008160D01*
X124076800Y-50549440D01*
X124079516Y-50521862D01*
X124085771Y-50501243D01*
X124095924Y-50482247D01*
X124109592Y-50465592D01*
X124126247Y-50451924D01*
X124145243Y-50441771D01*
X124165862Y-50435516D01*
X124193440Y-50432800D01*
X124702160Y-50432800D01*
X124729738Y-50435516D01*
G37*
G36*
X127278491Y-49811545D02*
G01*
X127312469Y-49821853D01*
X127343790Y-49838594D01*
X127371239Y-49861121D01*
X127393766Y-49888570D01*
X127410507Y-49919891D01*
X127420815Y-49953869D01*
X127424900Y-49995350D01*
X127424900Y-50596570D01*
X127420815Y-50638051D01*
X127410507Y-50672029D01*
X127393766Y-50703350D01*
X127371239Y-50730799D01*
X127343790Y-50753326D01*
X127312469Y-50770067D01*
X127278491Y-50780375D01*
X127237010Y-50784460D01*
X126560790Y-50784460D01*
X126519309Y-50780375D01*
X126485331Y-50770067D01*
X126454010Y-50753326D01*
X126426561Y-50730799D01*
X126404034Y-50703350D01*
X126387293Y-50672029D01*
X126376985Y-50638051D01*
X126372900Y-50596570D01*
X126372900Y-49995350D01*
X126376985Y-49953869D01*
X126387293Y-49919891D01*
X126404034Y-49888570D01*
X126426561Y-49861121D01*
X126454010Y-49838594D01*
X126485331Y-49821853D01*
X126519309Y-49811545D01*
X126560790Y-49807460D01*
X127237010Y-49807460D01*
X127278491Y-49811545D01*
G37*
G36*
X117486791Y-49153685D02*
G01*
X117520769Y-49163993D01*
X117552090Y-49180734D01*
X117579539Y-49203261D01*
X117602066Y-49230710D01*
X117618807Y-49262031D01*
X117629115Y-49296009D01*
X117633200Y-49337490D01*
X117633200Y-49938710D01*
X117629115Y-49980191D01*
X117618807Y-50014169D01*
X117602066Y-50045490D01*
X117579539Y-50072939D01*
X117552090Y-50095466D01*
X117520769Y-50112207D01*
X117486791Y-50122515D01*
X117445310Y-50126600D01*
X116769090Y-50126600D01*
X116727609Y-50122515D01*
X116693631Y-50112207D01*
X116662310Y-50095466D01*
X116634861Y-50072939D01*
X116612334Y-50045490D01*
X116595593Y-50014169D01*
X116585285Y-49980191D01*
X116581200Y-49938710D01*
X116581200Y-49337490D01*
X116585285Y-49296009D01*
X116595593Y-49262031D01*
X116612334Y-49230710D01*
X116634861Y-49203261D01*
X116662310Y-49180734D01*
X116693631Y-49163993D01*
X116727609Y-49153685D01*
X116769090Y-49149600D01*
X117445310Y-49149600D01*
X117486791Y-49153685D01*
G37*
G36*
X150473840Y-48637723D02*
G01*
X149246637Y-49667469D01*
X148731122Y-49053101D01*
X149958325Y-48023355D01*
X150473840Y-48637723D01*
G37*
G36*
X139700004Y-48200947D02*
G01*
X139736544Y-48212032D01*
X139770221Y-48230033D01*
X139799741Y-48254259D01*
X139823967Y-48283779D01*
X139841968Y-48317456D01*
X139853053Y-48353996D01*
X139857400Y-48398138D01*
X139857400Y-49347062D01*
X139853053Y-49391204D01*
X139841968Y-49427744D01*
X139823967Y-49461421D01*
X139799741Y-49490941D01*
X139770221Y-49515167D01*
X139736544Y-49533168D01*
X139700004Y-49544253D01*
X139655862Y-49548600D01*
X138206938Y-49548600D01*
X138162796Y-49544253D01*
X138126256Y-49533168D01*
X138092579Y-49515167D01*
X138063059Y-49490941D01*
X138038833Y-49461421D01*
X138020832Y-49427744D01*
X138009747Y-49391204D01*
X138005400Y-49347062D01*
X138005400Y-48398138D01*
X138009747Y-48353996D01*
X138020832Y-48317456D01*
X138038833Y-48283779D01*
X138063059Y-48254259D01*
X138092579Y-48230033D01*
X138126256Y-48212032D01*
X138162796Y-48200947D01*
X138206938Y-48196600D01*
X139655862Y-48196600D01*
X139700004Y-48200947D01*
G37*
G36*
X137116668Y-47564365D02*
G01*
X137155338Y-47576096D01*
X137190977Y-47595146D01*
X137222217Y-47620783D01*
X137247854Y-47652023D01*
X137266904Y-47687662D01*
X137278635Y-47726332D01*
X137283200Y-47772688D01*
X137283200Y-48848912D01*
X137278635Y-48895268D01*
X137266904Y-48933938D01*
X137247854Y-48969577D01*
X137222217Y-49000817D01*
X137190977Y-49026454D01*
X137155338Y-49045504D01*
X137116668Y-49057235D01*
X137070312Y-49061800D01*
X136419088Y-49061800D01*
X136372732Y-49057235D01*
X136334062Y-49045504D01*
X136298423Y-49026454D01*
X136267183Y-49000817D01*
X136241546Y-48969577D01*
X136222496Y-48933938D01*
X136210765Y-48895268D01*
X136206200Y-48848912D01*
X136206200Y-47772688D01*
X136210765Y-47726332D01*
X136222496Y-47687662D01*
X136241546Y-47652023D01*
X136267183Y-47620783D01*
X136298423Y-47595146D01*
X136334062Y-47576096D01*
X136372732Y-47564365D01*
X136419088Y-47559800D01*
X137070312Y-47559800D01*
X137116668Y-47564365D01*
G37*
G36*
X135241668Y-47564365D02*
G01*
X135280338Y-47576096D01*
X135315977Y-47595146D01*
X135347217Y-47620783D01*
X135372854Y-47652023D01*
X135391904Y-47687662D01*
X135403635Y-47726332D01*
X135408200Y-47772688D01*
X135408200Y-48848912D01*
X135403635Y-48895268D01*
X135391904Y-48933938D01*
X135372854Y-48969577D01*
X135347217Y-49000817D01*
X135315977Y-49026454D01*
X135280338Y-49045504D01*
X135241668Y-49057235D01*
X135195312Y-49061800D01*
X134544088Y-49061800D01*
X134497732Y-49057235D01*
X134459062Y-49045504D01*
X134423423Y-49026454D01*
X134392183Y-49000817D01*
X134366546Y-48969577D01*
X134347496Y-48933938D01*
X134335765Y-48895268D01*
X134331200Y-48848912D01*
X134331200Y-47772688D01*
X134335765Y-47726332D01*
X134347496Y-47687662D01*
X134366546Y-47652023D01*
X134392183Y-47620783D01*
X134423423Y-47595146D01*
X134459062Y-47576096D01*
X134497732Y-47564365D01*
X134544088Y-47559800D01*
X135195312Y-47559800D01*
X135241668Y-47564365D01*
G37*
G36*
X112346068Y-47062965D02*
G01*
X112384738Y-47074696D01*
X112420377Y-47093746D01*
X112451617Y-47119383D01*
X112477254Y-47150623D01*
X112496304Y-47186262D01*
X112508035Y-47224932D01*
X112512600Y-47271288D01*
X112512600Y-48347512D01*
X112508035Y-48393868D01*
X112496304Y-48432538D01*
X112477254Y-48468177D01*
X112451617Y-48499417D01*
X112420377Y-48525054D01*
X112384738Y-48544104D01*
X112346068Y-48555835D01*
X112299712Y-48560400D01*
X111648488Y-48560400D01*
X111602132Y-48555835D01*
X111563462Y-48544104D01*
X111527823Y-48525054D01*
X111496583Y-48499417D01*
X111470946Y-48468177D01*
X111451896Y-48432538D01*
X111440165Y-48393868D01*
X111435600Y-48347512D01*
X111435600Y-47271288D01*
X111440165Y-47224932D01*
X111451896Y-47186262D01*
X111470946Y-47150623D01*
X111496583Y-47119383D01*
X111527823Y-47093746D01*
X111563462Y-47074696D01*
X111602132Y-47062965D01*
X111648488Y-47058400D01*
X112299712Y-47058400D01*
X112346068Y-47062965D01*
G37*
G36*
X110471068Y-47062965D02*
G01*
X110509738Y-47074696D01*
X110545377Y-47093746D01*
X110576617Y-47119383D01*
X110602254Y-47150623D01*
X110621304Y-47186262D01*
X110633035Y-47224932D01*
X110637600Y-47271288D01*
X110637600Y-48347512D01*
X110633035Y-48393868D01*
X110621304Y-48432538D01*
X110602254Y-48468177D01*
X110576617Y-48499417D01*
X110545377Y-48525054D01*
X110509738Y-48544104D01*
X110471068Y-48555835D01*
X110424712Y-48560400D01*
X109773488Y-48560400D01*
X109727132Y-48555835D01*
X109688462Y-48544104D01*
X109652823Y-48525054D01*
X109621583Y-48499417D01*
X109595946Y-48468177D01*
X109576896Y-48432538D01*
X109565165Y-48393868D01*
X109560600Y-48347512D01*
X109560600Y-47271288D01*
X109565165Y-47224932D01*
X109576896Y-47186262D01*
X109595946Y-47150623D01*
X109621583Y-47119383D01*
X109652823Y-47093746D01*
X109688462Y-47074696D01*
X109727132Y-47062965D01*
X109773488Y-47058400D01*
X110424712Y-47058400D01*
X110471068Y-47062965D01*
G37*
G36*
X149509658Y-47488656D02*
G01*
X148282455Y-48518402D01*
X147766940Y-47904034D01*
X148994143Y-46874288D01*
X149509658Y-47488656D01*
G37*
G36*
X117500191Y-47236685D02*
G01*
X117534169Y-47246993D01*
X117565490Y-47263734D01*
X117592939Y-47286261D01*
X117615466Y-47313710D01*
X117632207Y-47345031D01*
X117642515Y-47379009D01*
X117646600Y-47420490D01*
X117646600Y-48096710D01*
X117642515Y-48138191D01*
X117632207Y-48172169D01*
X117615466Y-48203490D01*
X117592939Y-48230939D01*
X117565490Y-48253466D01*
X117534169Y-48270207D01*
X117500191Y-48280515D01*
X117458710Y-48284600D01*
X116857490Y-48284600D01*
X116816009Y-48280515D01*
X116782031Y-48270207D01*
X116750710Y-48253466D01*
X116723261Y-48230939D01*
X116700734Y-48203490D01*
X116683993Y-48172169D01*
X116673685Y-48138191D01*
X116669600Y-48096710D01*
X116669600Y-47420490D01*
X116673685Y-47379009D01*
X116683993Y-47345031D01*
X116700734Y-47313710D01*
X116723261Y-47286261D01*
X116750710Y-47263734D01*
X116782031Y-47246993D01*
X116816009Y-47236685D01*
X116857490Y-47232600D01*
X117458710Y-47232600D01*
X117500191Y-47236685D01*
G37*
G36*
X115925191Y-47236685D02*
G01*
X115959169Y-47246993D01*
X115990490Y-47263734D01*
X116017939Y-47286261D01*
X116040466Y-47313710D01*
X116057207Y-47345031D01*
X116067515Y-47379009D01*
X116071600Y-47420490D01*
X116071600Y-48096710D01*
X116067515Y-48138191D01*
X116057207Y-48172169D01*
X116040466Y-48203490D01*
X116017939Y-48230939D01*
X115990490Y-48253466D01*
X115959169Y-48270207D01*
X115925191Y-48280515D01*
X115883710Y-48284600D01*
X115282490Y-48284600D01*
X115241009Y-48280515D01*
X115207031Y-48270207D01*
X115175710Y-48253466D01*
X115148261Y-48230939D01*
X115125734Y-48203490D01*
X115108993Y-48172169D01*
X115098685Y-48138191D01*
X115094600Y-48096710D01*
X115094600Y-47420490D01*
X115098685Y-47379009D01*
X115108993Y-47345031D01*
X115125734Y-47313710D01*
X115148261Y-47286261D01*
X115175710Y-47263734D01*
X115207031Y-47246993D01*
X115241009Y-47236685D01*
X115282490Y-47232600D01*
X115883710Y-47232600D01*
X115925191Y-47236685D01*
G37*
G36*
X150398011Y-46463116D02*
G01*
X150446407Y-46472742D01*
X150484173Y-46488385D01*
X150537582Y-46510508D01*
X150537583Y-46510509D01*
X150619640Y-46565337D01*
X150689423Y-46635120D01*
X150712329Y-46669402D01*
X150744252Y-46717178D01*
X150782018Y-46808354D01*
X150799776Y-46897626D01*
X150801271Y-46905145D01*
X150801271Y-47003833D01*
X150787176Y-47074696D01*
X150782018Y-47100624D01*
X150744252Y-47191800D01*
X150744251Y-47191801D01*
X150689423Y-47273858D01*
X150619640Y-47343641D01*
X150578333Y-47371241D01*
X150537582Y-47398470D01*
X150484421Y-47420490D01*
X150446407Y-47436236D01*
X150398011Y-47445863D01*
X150349616Y-47455489D01*
X150250926Y-47455489D01*
X150202531Y-47445863D01*
X150154135Y-47436236D01*
X150116121Y-47420490D01*
X150062960Y-47398470D01*
X150022209Y-47371241D01*
X149980902Y-47343641D01*
X149911119Y-47273858D01*
X149856291Y-47191801D01*
X149856290Y-47191800D01*
X149818524Y-47100624D01*
X149813367Y-47074696D01*
X149799271Y-47003833D01*
X149799271Y-46905145D01*
X149800767Y-46897626D01*
X149818524Y-46808354D01*
X149856290Y-46717178D01*
X149888213Y-46669402D01*
X149911119Y-46635120D01*
X149980902Y-46565337D01*
X150062959Y-46510509D01*
X150062960Y-46510508D01*
X150116369Y-46488385D01*
X150154135Y-46472742D01*
X150202531Y-46463116D01*
X150250926Y-46453489D01*
X150349616Y-46453489D01*
X150398011Y-46463116D01*
G37*
G36*
X137116668Y-45405365D02*
G01*
X137155338Y-45417096D01*
X137190977Y-45436146D01*
X137222217Y-45461783D01*
X137247854Y-45493023D01*
X137266904Y-45528662D01*
X137278635Y-45567332D01*
X137283200Y-45613688D01*
X137283200Y-46689912D01*
X137278635Y-46736268D01*
X137266904Y-46774938D01*
X137247854Y-46810577D01*
X137222217Y-46841817D01*
X137190977Y-46867454D01*
X137155338Y-46886504D01*
X137116668Y-46898235D01*
X137070312Y-46902800D01*
X136419088Y-46902800D01*
X136372732Y-46898235D01*
X136334062Y-46886504D01*
X136298423Y-46867454D01*
X136267183Y-46841817D01*
X136241546Y-46810577D01*
X136222496Y-46774938D01*
X136210765Y-46736268D01*
X136206200Y-46689912D01*
X136206200Y-45613688D01*
X136210765Y-45567332D01*
X136222496Y-45528662D01*
X136241546Y-45493023D01*
X136267183Y-45461783D01*
X136298423Y-45436146D01*
X136334062Y-45417096D01*
X136372732Y-45405365D01*
X136419088Y-45400800D01*
X137070312Y-45400800D01*
X137116668Y-45405365D01*
G37*
G36*
X135241668Y-45405365D02*
G01*
X135280338Y-45417096D01*
X135315977Y-45436146D01*
X135347217Y-45461783D01*
X135372854Y-45493023D01*
X135391904Y-45528662D01*
X135403635Y-45567332D01*
X135408200Y-45613688D01*
X135408200Y-46689912D01*
X135403635Y-46736268D01*
X135391904Y-46774938D01*
X135372854Y-46810577D01*
X135347217Y-46841817D01*
X135315977Y-46867454D01*
X135280338Y-46886504D01*
X135241668Y-46898235D01*
X135195312Y-46902800D01*
X134544088Y-46902800D01*
X134497732Y-46898235D01*
X134459062Y-46886504D01*
X134423423Y-46867454D01*
X134392183Y-46841817D01*
X134366546Y-46810577D01*
X134347496Y-46774938D01*
X134335765Y-46736268D01*
X134331200Y-46689912D01*
X134331200Y-45613688D01*
X134335765Y-45567332D01*
X134347496Y-45528662D01*
X134366546Y-45493023D01*
X134392183Y-45461783D01*
X134423423Y-45436146D01*
X134459062Y-45417096D01*
X134497732Y-45405365D01*
X134544088Y-45400800D01*
X135195312Y-45400800D01*
X135241668Y-45405365D01*
G37*
G36*
X139700004Y-45400947D02*
G01*
X139736544Y-45412032D01*
X139770221Y-45430033D01*
X139799741Y-45454259D01*
X139823967Y-45483779D01*
X139841968Y-45517456D01*
X139853053Y-45553996D01*
X139857400Y-45598138D01*
X139857400Y-46547062D01*
X139853053Y-46591204D01*
X139841968Y-46627744D01*
X139823967Y-46661421D01*
X139799741Y-46690941D01*
X139770221Y-46715167D01*
X139736544Y-46733168D01*
X139700004Y-46744253D01*
X139655862Y-46748600D01*
X138206938Y-46748600D01*
X138162796Y-46744253D01*
X138126256Y-46733168D01*
X138092579Y-46715167D01*
X138063059Y-46690941D01*
X138038833Y-46661421D01*
X138020832Y-46627744D01*
X138009747Y-46591204D01*
X138005400Y-46547062D01*
X138005400Y-45598138D01*
X138009747Y-45553996D01*
X138020832Y-45517456D01*
X138038833Y-45483779D01*
X138063059Y-45454259D01*
X138092579Y-45430033D01*
X138126256Y-45412032D01*
X138162796Y-45400947D01*
X138206938Y-45396600D01*
X139655862Y-45396600D01*
X139700004Y-45400947D01*
G37*
G36*
X148453897Y-45763730D02*
G01*
X147762925Y-46343525D01*
X147054573Y-45499344D01*
X147745545Y-44919549D01*
X148453897Y-45763730D01*
G37*
G36*
X150139195Y-44349598D02*
G01*
X149448223Y-44929393D01*
X148739871Y-44085212D01*
X149430843Y-43505417D01*
X150139195Y-44349598D01*
G37*
G36*
X123039124Y-43288587D02*
G01*
X123075664Y-43299672D01*
X123109341Y-43317673D01*
X123138861Y-43341899D01*
X123163087Y-43371419D01*
X123181088Y-43405096D01*
X123192173Y-43441636D01*
X123196520Y-43485778D01*
X123196520Y-44434702D01*
X123192173Y-44478844D01*
X123181088Y-44515384D01*
X123163087Y-44549061D01*
X123138861Y-44578581D01*
X123109341Y-44602807D01*
X123075664Y-44620808D01*
X123039124Y-44631893D01*
X122994982Y-44636240D01*
X121546058Y-44636240D01*
X121501916Y-44631893D01*
X121465376Y-44620808D01*
X121431699Y-44602807D01*
X121402179Y-44578581D01*
X121377953Y-44549061D01*
X121359952Y-44515384D01*
X121348867Y-44478844D01*
X121344520Y-44434702D01*
X121344520Y-43485778D01*
X121348867Y-43441636D01*
X121359952Y-43405096D01*
X121377953Y-43371419D01*
X121402179Y-43341899D01*
X121431699Y-43317673D01*
X121465376Y-43299672D01*
X121501916Y-43288587D01*
X121546058Y-43284240D01*
X122994982Y-43284240D01*
X123039124Y-43288587D01*
G37*
G36*
X118833112Y-42741127D02*
G01*
X118982412Y-42770824D01*
X119146384Y-42838744D01*
X119293954Y-42937347D01*
X119419453Y-43062846D01*
X119518056Y-43210416D01*
X119585976Y-43374388D01*
X119620600Y-43548459D01*
X119620600Y-43725941D01*
X119585976Y-43900012D01*
X119518056Y-44063984D01*
X119419453Y-44211554D01*
X119293954Y-44337053D01*
X119146384Y-44435656D01*
X118982412Y-44503576D01*
X118833112Y-44533273D01*
X118808342Y-44538200D01*
X118630858Y-44538200D01*
X118606088Y-44533273D01*
X118456788Y-44503576D01*
X118292816Y-44435656D01*
X118145246Y-44337053D01*
X118019747Y-44211554D01*
X117921144Y-44063984D01*
X117853224Y-43900012D01*
X117818600Y-43725941D01*
X117818600Y-43548459D01*
X117853224Y-43374388D01*
X117921144Y-43210416D01*
X118019747Y-43062846D01*
X118145246Y-42937347D01*
X118292816Y-42838744D01*
X118456788Y-42770824D01*
X118606088Y-42741127D01*
X118630858Y-42736200D01*
X118808342Y-42736200D01*
X118833112Y-42741127D01*
G37*
G36*
X117080600Y-44538200D02*
G01*
X115278600Y-44538200D01*
X115278600Y-42736200D01*
X117080600Y-42736200D01*
X117080600Y-44538200D01*
G37*
G36*
X141769312Y-42309327D02*
G01*
X141918612Y-42339024D01*
X142082584Y-42406944D01*
X142230154Y-42505547D01*
X142355653Y-42631046D01*
X142454256Y-42778616D01*
X142522176Y-42942588D01*
X142556800Y-43116659D01*
X142556800Y-43294141D01*
X142522176Y-43468212D01*
X142454256Y-43632184D01*
X142355653Y-43779754D01*
X142230154Y-43905253D01*
X142082584Y-44003856D01*
X141918612Y-44071776D01*
X141769312Y-44101473D01*
X141744542Y-44106400D01*
X141567058Y-44106400D01*
X141542288Y-44101473D01*
X141392988Y-44071776D01*
X141229016Y-44003856D01*
X141081446Y-43905253D01*
X140955947Y-43779754D01*
X140857344Y-43632184D01*
X140789424Y-43468212D01*
X140754800Y-43294141D01*
X140754800Y-43116659D01*
X140789424Y-42942588D01*
X140857344Y-42778616D01*
X140955947Y-42631046D01*
X141081446Y-42505547D01*
X141229016Y-42406944D01*
X141392988Y-42339024D01*
X141542288Y-42309327D01*
X141567058Y-42304400D01*
X141744542Y-42304400D01*
X141769312Y-42309327D01*
G37*
G36*
X134936800Y-44106400D02*
G01*
X133134800Y-44106400D01*
X133134800Y-42304400D01*
X134936800Y-42304400D01*
X134936800Y-44106400D01*
G37*
G36*
X136689312Y-42309327D02*
G01*
X136838612Y-42339024D01*
X137002584Y-42406944D01*
X137150154Y-42505547D01*
X137275653Y-42631046D01*
X137374256Y-42778616D01*
X137442176Y-42942588D01*
X137476800Y-43116659D01*
X137476800Y-43294141D01*
X137442176Y-43468212D01*
X137374256Y-43632184D01*
X137275653Y-43779754D01*
X137150154Y-43905253D01*
X137002584Y-44003856D01*
X136838612Y-44071776D01*
X136689312Y-44101473D01*
X136664542Y-44106400D01*
X136487058Y-44106400D01*
X136462288Y-44101473D01*
X136312988Y-44071776D01*
X136149016Y-44003856D01*
X136001446Y-43905253D01*
X135875947Y-43779754D01*
X135777344Y-43632184D01*
X135709424Y-43468212D01*
X135674800Y-43294141D01*
X135674800Y-43116659D01*
X135709424Y-42942588D01*
X135777344Y-42778616D01*
X135875947Y-42631046D01*
X136001446Y-42505547D01*
X136149016Y-42406944D01*
X136312988Y-42339024D01*
X136462288Y-42309327D01*
X136487058Y-42304400D01*
X136664542Y-42304400D01*
X136689312Y-42309327D01*
G37*
G36*
X139229312Y-42309327D02*
G01*
X139378612Y-42339024D01*
X139542584Y-42406944D01*
X139690154Y-42505547D01*
X139815653Y-42631046D01*
X139914256Y-42778616D01*
X139982176Y-42942588D01*
X140016800Y-43116659D01*
X140016800Y-43294141D01*
X139982176Y-43468212D01*
X139914256Y-43632184D01*
X139815653Y-43779754D01*
X139690154Y-43905253D01*
X139542584Y-44003856D01*
X139378612Y-44071776D01*
X139229312Y-44101473D01*
X139204542Y-44106400D01*
X139027058Y-44106400D01*
X139002288Y-44101473D01*
X138852988Y-44071776D01*
X138689016Y-44003856D01*
X138541446Y-43905253D01*
X138415947Y-43779754D01*
X138317344Y-43632184D01*
X138249424Y-43468212D01*
X138214800Y-43294141D01*
X138214800Y-43116659D01*
X138249424Y-42942588D01*
X138317344Y-42778616D01*
X138415947Y-42631046D01*
X138541446Y-42505547D01*
X138689016Y-42406944D01*
X138852988Y-42339024D01*
X139002288Y-42309327D01*
X139027058Y-42304400D01*
X139204542Y-42304400D01*
X139229312Y-42309327D01*
G37*
G36*
X131038868Y-42542165D02*
G01*
X131077538Y-42553896D01*
X131113177Y-42572946D01*
X131144417Y-42598583D01*
X131170054Y-42629823D01*
X131189104Y-42665462D01*
X131200835Y-42704132D01*
X131205400Y-42750488D01*
X131205400Y-43401712D01*
X131200835Y-43448068D01*
X131189104Y-43486738D01*
X131170054Y-43522377D01*
X131144417Y-43553617D01*
X131113177Y-43579254D01*
X131077538Y-43598304D01*
X131038868Y-43610035D01*
X130992512Y-43614600D01*
X129916288Y-43614600D01*
X129869932Y-43610035D01*
X129831262Y-43598304D01*
X129795623Y-43579254D01*
X129764383Y-43553617D01*
X129738746Y-43522377D01*
X129719696Y-43486738D01*
X129707965Y-43448068D01*
X129703400Y-43401712D01*
X129703400Y-42750488D01*
X129707965Y-42704132D01*
X129719696Y-42665462D01*
X129738746Y-42629823D01*
X129764383Y-42598583D01*
X129795623Y-42572946D01*
X129831262Y-42553896D01*
X129869932Y-42542165D01*
X129916288Y-42537600D01*
X130992512Y-42537600D01*
X131038868Y-42542165D01*
G37*
G36*
X128477800Y-43439200D02*
G01*
X127315800Y-43439200D01*
X127315800Y-42687200D01*
X128477800Y-42687200D01*
X128477800Y-43439200D01*
G37*
G36*
X126277800Y-43439200D02*
G01*
X125115800Y-43439200D01*
X125115800Y-40787200D01*
X126277800Y-40787200D01*
X126277800Y-43439200D01*
G37*
G36*
X123039124Y-40488587D02*
G01*
X123075664Y-40499672D01*
X123109341Y-40517673D01*
X123138861Y-40541899D01*
X123163087Y-40571419D01*
X123181088Y-40605096D01*
X123192173Y-40641636D01*
X123196520Y-40685778D01*
X123196520Y-41634702D01*
X123192173Y-41678844D01*
X123181088Y-41715384D01*
X123163087Y-41749061D01*
X123138861Y-41778581D01*
X123109341Y-41802807D01*
X123075664Y-41820808D01*
X123039124Y-41831893D01*
X122994982Y-41836240D01*
X121546058Y-41836240D01*
X121501916Y-41831893D01*
X121465376Y-41820808D01*
X121431699Y-41802807D01*
X121402179Y-41778581D01*
X121377953Y-41749061D01*
X121359952Y-41715384D01*
X121348867Y-41678844D01*
X121344520Y-41634702D01*
X121344520Y-40685778D01*
X121348867Y-40641636D01*
X121359952Y-40605096D01*
X121377953Y-40571419D01*
X121402179Y-40541899D01*
X121431699Y-40517673D01*
X121465376Y-40499672D01*
X121501916Y-40488587D01*
X121546058Y-40484240D01*
X122994982Y-40484240D01*
X123039124Y-40488587D01*
G37*
G36*
X131038868Y-40667165D02*
G01*
X131077538Y-40678896D01*
X131113177Y-40697946D01*
X131144417Y-40723583D01*
X131170054Y-40754823D01*
X131189104Y-40790462D01*
X131200835Y-40829132D01*
X131205400Y-40875488D01*
X131205400Y-41526712D01*
X131200835Y-41573068D01*
X131189104Y-41611738D01*
X131170054Y-41647377D01*
X131144417Y-41678617D01*
X131113177Y-41704254D01*
X131077538Y-41723304D01*
X131038868Y-41735035D01*
X130992512Y-41739600D01*
X129916288Y-41739600D01*
X129869932Y-41735035D01*
X129831262Y-41723304D01*
X129795623Y-41704254D01*
X129764383Y-41678617D01*
X129738746Y-41647377D01*
X129719696Y-41611738D01*
X129707965Y-41573068D01*
X129703400Y-41526712D01*
X129703400Y-40875488D01*
X129707965Y-40829132D01*
X129719696Y-40790462D01*
X129738746Y-40754823D01*
X129764383Y-40723583D01*
X129795623Y-40697946D01*
X129831262Y-40678896D01*
X129869932Y-40667165D01*
X129916288Y-40662600D01*
X130992512Y-40662600D01*
X131038868Y-40667165D01*
G37*
G36*
X128477800Y-41539200D02*
G01*
X127315800Y-41539200D01*
X127315800Y-40787200D01*
X128477800Y-40787200D01*
X128477800Y-41539200D01*
G37*
M02*
