G04 #@! TF.GenerationSoftware,KiCad,Pcbnew,(5.1.5)-3*
G04 #@! TF.CreationDate,2021-12-20T00:15:42-08:00*
G04 #@! TF.ProjectId,watch_v1,77617463-685f-4763-912e-6b696361645f,rev?*
G04 #@! TF.SameCoordinates,Original*
G04 #@! TF.FileFunction,Soldermask,Bot*
G04 #@! TF.FilePolarity,Negative*
%FSLAX46Y46*%
G04 Gerber Fmt 4.6, Leading zero omitted, Abs format (unit mm)*
G04 Created by KiCad (PCBNEW (5.1.5)-3) date 2021-12-20 00:15:42*
%MOMM*%
%LPD*%
G04 APERTURE LIST*
%ADD10C,0.050000*%
%ADD11C,0.150000*%
G04 APERTURE END LIST*
D10*
X155752624Y-53294380D02*
G75*
G02X148089479Y-44241041I-27838224J-15793620D01*
G01*
X155752800Y-53294280D02*
X157038040Y-52242720D01*
X149407880Y-43159680D02*
X157038040Y-52242720D01*
X148089480Y-44241040D02*
X149407880Y-43159680D01*
D11*
G36*
X145537833Y-71149298D02*
G01*
X145665409Y-71202142D01*
X145780219Y-71278855D01*
X145877865Y-71376501D01*
X145954578Y-71491311D01*
X146007422Y-71618887D01*
X146034360Y-71754316D01*
X146034360Y-71892404D01*
X146007422Y-72027833D01*
X145954578Y-72155409D01*
X145877865Y-72270219D01*
X145780219Y-72367865D01*
X145665409Y-72444578D01*
X145663482Y-72445376D01*
X145641872Y-72456927D01*
X145622930Y-72472472D01*
X145607384Y-72491414D01*
X145595833Y-72513025D01*
X145588720Y-72536474D01*
X145586318Y-72560860D01*
X145588720Y-72585246D01*
X145595833Y-72608695D01*
X145607384Y-72630305D01*
X145622929Y-72649247D01*
X145641871Y-72664793D01*
X145663482Y-72676344D01*
X145665409Y-72677142D01*
X145780219Y-72753855D01*
X145877865Y-72851501D01*
X145954578Y-72966311D01*
X146007422Y-73093887D01*
X146034360Y-73229316D01*
X146034360Y-73367404D01*
X146007422Y-73502833D01*
X145954578Y-73630409D01*
X145877865Y-73745219D01*
X145780219Y-73842865D01*
X145665409Y-73919578D01*
X145663482Y-73920376D01*
X145641872Y-73931927D01*
X145622930Y-73947472D01*
X145607384Y-73966414D01*
X145595833Y-73988025D01*
X145588720Y-74011474D01*
X145586318Y-74035860D01*
X145588720Y-74060246D01*
X145595833Y-74083695D01*
X145607384Y-74105305D01*
X145622929Y-74124247D01*
X145641871Y-74139793D01*
X145663482Y-74151344D01*
X145665409Y-74152142D01*
X145780219Y-74228855D01*
X145877865Y-74326501D01*
X145954578Y-74441311D01*
X146007422Y-74568887D01*
X146034360Y-74704316D01*
X146034360Y-74842404D01*
X146007422Y-74977833D01*
X145954578Y-75105409D01*
X145877865Y-75220219D01*
X145780219Y-75317865D01*
X145665409Y-75394578D01*
X145663482Y-75395376D01*
X145641872Y-75406927D01*
X145622930Y-75422472D01*
X145607384Y-75441414D01*
X145595833Y-75463025D01*
X145588720Y-75486474D01*
X145586318Y-75510860D01*
X145588720Y-75535246D01*
X145595833Y-75558695D01*
X145607384Y-75580305D01*
X145622929Y-75599247D01*
X145641871Y-75614793D01*
X145663482Y-75626344D01*
X145665409Y-75627142D01*
X145780219Y-75703855D01*
X145877865Y-75801501D01*
X145954578Y-75916311D01*
X146007422Y-76043887D01*
X146034360Y-76179316D01*
X146034360Y-76317404D01*
X146007422Y-76452833D01*
X145954578Y-76580409D01*
X145877865Y-76695219D01*
X145780219Y-76792865D01*
X145665409Y-76869578D01*
X145663482Y-76870376D01*
X145641872Y-76881927D01*
X145622930Y-76897472D01*
X145607384Y-76916414D01*
X145595833Y-76938025D01*
X145588720Y-76961474D01*
X145586318Y-76985860D01*
X145588720Y-77010246D01*
X145595833Y-77033695D01*
X145607384Y-77055305D01*
X145622929Y-77074247D01*
X145641871Y-77089793D01*
X145663482Y-77101344D01*
X145665409Y-77102142D01*
X145780219Y-77178855D01*
X145877865Y-77276501D01*
X145954578Y-77391311D01*
X146007422Y-77518887D01*
X146034360Y-77654316D01*
X146034360Y-77792404D01*
X146007422Y-77927833D01*
X145954578Y-78055409D01*
X145877865Y-78170219D01*
X145780219Y-78267865D01*
X145665409Y-78344578D01*
X145663482Y-78345376D01*
X145641872Y-78356927D01*
X145622930Y-78372472D01*
X145607384Y-78391414D01*
X145595833Y-78413025D01*
X145588720Y-78436474D01*
X145586318Y-78460860D01*
X145588720Y-78485246D01*
X145595833Y-78508695D01*
X145607384Y-78530305D01*
X145622929Y-78549247D01*
X145641871Y-78564793D01*
X145663482Y-78576344D01*
X145665409Y-78577142D01*
X145780219Y-78653855D01*
X145877865Y-78751501D01*
X145954578Y-78866311D01*
X146007422Y-78993887D01*
X146034360Y-79129316D01*
X146034360Y-79267404D01*
X146007422Y-79402833D01*
X145954578Y-79530409D01*
X145877865Y-79645219D01*
X145780219Y-79742865D01*
X145665409Y-79819578D01*
X145663482Y-79820376D01*
X145641872Y-79831927D01*
X145622930Y-79847472D01*
X145607384Y-79866414D01*
X145595833Y-79888025D01*
X145588720Y-79911474D01*
X145586318Y-79935860D01*
X145588720Y-79960246D01*
X145595833Y-79983695D01*
X145607384Y-80005305D01*
X145622929Y-80024247D01*
X145641871Y-80039793D01*
X145663482Y-80051344D01*
X145665409Y-80052142D01*
X145780219Y-80128855D01*
X145877865Y-80226501D01*
X145954578Y-80341311D01*
X146007422Y-80468887D01*
X146034360Y-80604316D01*
X146034360Y-80742404D01*
X146007422Y-80877833D01*
X145954578Y-81005409D01*
X145877865Y-81120219D01*
X145780219Y-81217865D01*
X145665409Y-81294578D01*
X145663482Y-81295376D01*
X145641872Y-81306927D01*
X145622930Y-81322472D01*
X145607384Y-81341414D01*
X145595833Y-81363025D01*
X145588720Y-81386474D01*
X145586318Y-81410860D01*
X145588720Y-81435246D01*
X145595833Y-81458695D01*
X145607384Y-81480305D01*
X145622929Y-81499247D01*
X145641871Y-81514793D01*
X145663482Y-81526344D01*
X145665409Y-81527142D01*
X145780219Y-81603855D01*
X145877865Y-81701501D01*
X145954578Y-81816311D01*
X146007422Y-81943887D01*
X146034360Y-82079316D01*
X146034360Y-82217404D01*
X146007422Y-82352833D01*
X145954578Y-82480409D01*
X145877865Y-82595219D01*
X145780219Y-82692865D01*
X145665409Y-82769578D01*
X145663482Y-82770376D01*
X145641872Y-82781927D01*
X145622930Y-82797472D01*
X145607384Y-82816414D01*
X145595833Y-82838025D01*
X145588720Y-82861474D01*
X145586318Y-82885860D01*
X145588720Y-82910246D01*
X145595833Y-82933695D01*
X145607384Y-82955305D01*
X145622929Y-82974247D01*
X145641871Y-82989793D01*
X145663482Y-83001344D01*
X145665409Y-83002142D01*
X145780219Y-83078855D01*
X145877865Y-83176501D01*
X145954578Y-83291311D01*
X146007422Y-83418887D01*
X146034360Y-83554316D01*
X146034360Y-83692404D01*
X146007422Y-83827833D01*
X145954578Y-83955409D01*
X145877865Y-84070219D01*
X145780219Y-84167865D01*
X145665409Y-84244578D01*
X145663482Y-84245376D01*
X145641872Y-84256927D01*
X145622930Y-84272472D01*
X145607384Y-84291414D01*
X145595833Y-84313025D01*
X145588720Y-84336474D01*
X145586318Y-84360860D01*
X145588720Y-84385246D01*
X145595833Y-84408695D01*
X145607384Y-84430305D01*
X145622929Y-84449247D01*
X145641871Y-84464793D01*
X145663482Y-84476344D01*
X145665409Y-84477142D01*
X145780219Y-84553855D01*
X145877865Y-84651501D01*
X145954578Y-84766311D01*
X146007422Y-84893887D01*
X146034360Y-85029316D01*
X146034360Y-85167404D01*
X146007422Y-85302833D01*
X145954578Y-85430409D01*
X145877865Y-85545219D01*
X145780219Y-85642865D01*
X145665409Y-85719578D01*
X145663482Y-85720376D01*
X145641872Y-85731927D01*
X145622930Y-85747472D01*
X145607384Y-85766414D01*
X145595833Y-85788025D01*
X145588720Y-85811474D01*
X145586318Y-85835860D01*
X145588720Y-85860246D01*
X145595833Y-85883695D01*
X145607384Y-85905305D01*
X145622929Y-85924247D01*
X145641871Y-85939793D01*
X145663482Y-85951344D01*
X145665409Y-85952142D01*
X145780219Y-86028855D01*
X145877865Y-86126501D01*
X145954578Y-86241311D01*
X146007422Y-86368887D01*
X146034360Y-86504316D01*
X146034360Y-86642404D01*
X146007422Y-86777833D01*
X145954578Y-86905409D01*
X145877865Y-87020219D01*
X145780219Y-87117865D01*
X145665409Y-87194578D01*
X145537833Y-87247422D01*
X145402404Y-87274360D01*
X145264316Y-87274360D01*
X145128887Y-87247422D01*
X145001311Y-87194578D01*
X144886501Y-87117865D01*
X144788855Y-87020219D01*
X144712142Y-86905409D01*
X144659298Y-86777833D01*
X144632360Y-86642404D01*
X144632360Y-86504316D01*
X144659298Y-86368887D01*
X144712142Y-86241311D01*
X144788855Y-86126501D01*
X144886501Y-86028855D01*
X145001311Y-85952142D01*
X145003238Y-85951344D01*
X145024848Y-85939793D01*
X145043790Y-85924248D01*
X145059336Y-85905306D01*
X145070887Y-85883695D01*
X145078000Y-85860246D01*
X145080402Y-85835860D01*
X145078000Y-85811474D01*
X145070887Y-85788025D01*
X145059336Y-85766415D01*
X145043791Y-85747473D01*
X145024849Y-85731927D01*
X145003238Y-85720376D01*
X145001311Y-85719578D01*
X144886501Y-85642865D01*
X144788855Y-85545219D01*
X144712142Y-85430409D01*
X144659298Y-85302833D01*
X144632360Y-85167404D01*
X144632360Y-85029316D01*
X144659298Y-84893887D01*
X144712142Y-84766311D01*
X144788855Y-84651501D01*
X144886501Y-84553855D01*
X145001311Y-84477142D01*
X145003238Y-84476344D01*
X145024848Y-84464793D01*
X145043790Y-84449248D01*
X145059336Y-84430306D01*
X145070887Y-84408695D01*
X145078000Y-84385246D01*
X145080402Y-84360860D01*
X145078000Y-84336474D01*
X145070887Y-84313025D01*
X145059336Y-84291415D01*
X145043791Y-84272473D01*
X145024849Y-84256927D01*
X145003238Y-84245376D01*
X145001311Y-84244578D01*
X144886501Y-84167865D01*
X144788855Y-84070219D01*
X144712142Y-83955409D01*
X144659298Y-83827833D01*
X144632360Y-83692404D01*
X144632360Y-83554316D01*
X144659298Y-83418887D01*
X144712142Y-83291311D01*
X144788855Y-83176501D01*
X144886501Y-83078855D01*
X145001311Y-83002142D01*
X145003238Y-83001344D01*
X145024848Y-82989793D01*
X145043790Y-82974248D01*
X145059336Y-82955306D01*
X145070887Y-82933695D01*
X145078000Y-82910246D01*
X145080402Y-82885860D01*
X145078000Y-82861474D01*
X145070887Y-82838025D01*
X145059336Y-82816415D01*
X145043791Y-82797473D01*
X145024849Y-82781927D01*
X145003238Y-82770376D01*
X145001311Y-82769578D01*
X144886501Y-82692865D01*
X144788855Y-82595219D01*
X144712142Y-82480409D01*
X144659298Y-82352833D01*
X144632360Y-82217404D01*
X144632360Y-82079316D01*
X144659298Y-81943887D01*
X144712142Y-81816311D01*
X144788855Y-81701501D01*
X144886501Y-81603855D01*
X145001311Y-81527142D01*
X145003238Y-81526344D01*
X145024848Y-81514793D01*
X145043790Y-81499248D01*
X145059336Y-81480306D01*
X145070887Y-81458695D01*
X145078000Y-81435246D01*
X145080402Y-81410860D01*
X145078000Y-81386474D01*
X145070887Y-81363025D01*
X145059336Y-81341415D01*
X145043791Y-81322473D01*
X145024849Y-81306927D01*
X145003238Y-81295376D01*
X145001311Y-81294578D01*
X144886501Y-81217865D01*
X144788855Y-81120219D01*
X144712142Y-81005409D01*
X144659298Y-80877833D01*
X144632360Y-80742404D01*
X144632360Y-80604316D01*
X144659298Y-80468887D01*
X144712142Y-80341311D01*
X144788855Y-80226501D01*
X144886501Y-80128855D01*
X145001311Y-80052142D01*
X145003238Y-80051344D01*
X145024848Y-80039793D01*
X145043790Y-80024248D01*
X145059336Y-80005306D01*
X145070887Y-79983695D01*
X145078000Y-79960246D01*
X145080402Y-79935860D01*
X145078000Y-79911474D01*
X145070887Y-79888025D01*
X145059336Y-79866415D01*
X145043791Y-79847473D01*
X145024849Y-79831927D01*
X145003238Y-79820376D01*
X145001311Y-79819578D01*
X144886501Y-79742865D01*
X144788855Y-79645219D01*
X144712142Y-79530409D01*
X144659298Y-79402833D01*
X144632360Y-79267404D01*
X144632360Y-79129316D01*
X144659298Y-78993887D01*
X144712142Y-78866311D01*
X144788855Y-78751501D01*
X144886501Y-78653855D01*
X145001311Y-78577142D01*
X145003238Y-78576344D01*
X145024848Y-78564793D01*
X145043790Y-78549248D01*
X145059336Y-78530306D01*
X145070887Y-78508695D01*
X145078000Y-78485246D01*
X145080402Y-78460860D01*
X145078000Y-78436474D01*
X145070887Y-78413025D01*
X145059336Y-78391415D01*
X145043791Y-78372473D01*
X145024849Y-78356927D01*
X145003238Y-78345376D01*
X145001311Y-78344578D01*
X144886501Y-78267865D01*
X144788855Y-78170219D01*
X144712142Y-78055409D01*
X144659298Y-77927833D01*
X144632360Y-77792404D01*
X144632360Y-77654316D01*
X144659298Y-77518887D01*
X144712142Y-77391311D01*
X144788855Y-77276501D01*
X144886501Y-77178855D01*
X145001311Y-77102142D01*
X145003238Y-77101344D01*
X145024848Y-77089793D01*
X145043790Y-77074248D01*
X145059336Y-77055306D01*
X145070887Y-77033695D01*
X145078000Y-77010246D01*
X145080402Y-76985860D01*
X145078000Y-76961474D01*
X145070887Y-76938025D01*
X145059336Y-76916415D01*
X145043791Y-76897473D01*
X145024849Y-76881927D01*
X145003238Y-76870376D01*
X145001311Y-76869578D01*
X144886501Y-76792865D01*
X144788855Y-76695219D01*
X144712142Y-76580409D01*
X144659298Y-76452833D01*
X144632360Y-76317404D01*
X144632360Y-76179316D01*
X144659298Y-76043887D01*
X144712142Y-75916311D01*
X144788855Y-75801501D01*
X144886501Y-75703855D01*
X145001311Y-75627142D01*
X145003238Y-75626344D01*
X145024848Y-75614793D01*
X145043790Y-75599248D01*
X145059336Y-75580306D01*
X145070887Y-75558695D01*
X145078000Y-75535246D01*
X145080402Y-75510860D01*
X145078000Y-75486474D01*
X145070887Y-75463025D01*
X145059336Y-75441415D01*
X145043791Y-75422473D01*
X145024849Y-75406927D01*
X145003238Y-75395376D01*
X145001311Y-75394578D01*
X144886501Y-75317865D01*
X144788855Y-75220219D01*
X144712142Y-75105409D01*
X144659298Y-74977833D01*
X144632360Y-74842404D01*
X144632360Y-74704316D01*
X144659298Y-74568887D01*
X144712142Y-74441311D01*
X144788855Y-74326501D01*
X144886501Y-74228855D01*
X145001311Y-74152142D01*
X145003238Y-74151344D01*
X145024848Y-74139793D01*
X145043790Y-74124248D01*
X145059336Y-74105306D01*
X145070887Y-74083695D01*
X145078000Y-74060246D01*
X145080402Y-74035860D01*
X145078000Y-74011474D01*
X145070887Y-73988025D01*
X145059336Y-73966415D01*
X145043791Y-73947473D01*
X145024849Y-73931927D01*
X145003238Y-73920376D01*
X145001311Y-73919578D01*
X144886501Y-73842865D01*
X144788855Y-73745219D01*
X144712142Y-73630409D01*
X144659298Y-73502833D01*
X144632360Y-73367404D01*
X144632360Y-73229316D01*
X144659298Y-73093887D01*
X144712142Y-72966311D01*
X144788855Y-72851501D01*
X144886501Y-72753855D01*
X145001311Y-72677142D01*
X145003238Y-72676344D01*
X145024848Y-72664793D01*
X145043790Y-72649248D01*
X145059336Y-72630306D01*
X145070887Y-72608695D01*
X145078000Y-72585246D01*
X145080402Y-72560860D01*
X145078000Y-72536474D01*
X145070887Y-72513025D01*
X145059336Y-72491415D01*
X145043791Y-72472473D01*
X145024849Y-72456927D01*
X145003238Y-72445376D01*
X145001311Y-72444578D01*
X144886501Y-72367865D01*
X144788855Y-72270219D01*
X144712142Y-72155409D01*
X144659298Y-72027833D01*
X144632360Y-71892404D01*
X144632360Y-71754316D01*
X144659298Y-71618887D01*
X144712142Y-71491311D01*
X144788855Y-71376501D01*
X144886501Y-71278855D01*
X145001311Y-71202142D01*
X145128887Y-71149298D01*
X145264316Y-71122360D01*
X145402404Y-71122360D01*
X145537833Y-71149298D01*
G37*
G36*
X148037833Y-71149298D02*
G01*
X148165409Y-71202142D01*
X148280219Y-71278855D01*
X148377865Y-71376501D01*
X148454578Y-71491311D01*
X148507422Y-71618887D01*
X148534360Y-71754316D01*
X148534360Y-71892404D01*
X148507422Y-72027833D01*
X148454578Y-72155409D01*
X148377865Y-72270219D01*
X148280219Y-72367865D01*
X148165409Y-72444578D01*
X148163482Y-72445376D01*
X148141872Y-72456927D01*
X148122930Y-72472472D01*
X148107384Y-72491414D01*
X148095833Y-72513025D01*
X148088720Y-72536474D01*
X148086318Y-72560860D01*
X148088720Y-72585246D01*
X148095833Y-72608695D01*
X148107384Y-72630305D01*
X148122929Y-72649247D01*
X148141871Y-72664793D01*
X148163482Y-72676344D01*
X148165409Y-72677142D01*
X148280219Y-72753855D01*
X148377865Y-72851501D01*
X148454578Y-72966311D01*
X148507422Y-73093887D01*
X148534360Y-73229316D01*
X148534360Y-73367404D01*
X148507422Y-73502833D01*
X148454578Y-73630409D01*
X148377865Y-73745219D01*
X148280219Y-73842865D01*
X148165409Y-73919578D01*
X148163482Y-73920376D01*
X148141872Y-73931927D01*
X148122930Y-73947472D01*
X148107384Y-73966414D01*
X148095833Y-73988025D01*
X148088720Y-74011474D01*
X148086318Y-74035860D01*
X148088720Y-74060246D01*
X148095833Y-74083695D01*
X148107384Y-74105305D01*
X148122929Y-74124247D01*
X148141871Y-74139793D01*
X148163482Y-74151344D01*
X148165409Y-74152142D01*
X148280219Y-74228855D01*
X148377865Y-74326501D01*
X148454578Y-74441311D01*
X148507422Y-74568887D01*
X148534360Y-74704316D01*
X148534360Y-74842404D01*
X148507422Y-74977833D01*
X148454578Y-75105409D01*
X148377865Y-75220219D01*
X148280219Y-75317865D01*
X148165409Y-75394578D01*
X148163482Y-75395376D01*
X148141872Y-75406927D01*
X148122930Y-75422472D01*
X148107384Y-75441414D01*
X148095833Y-75463025D01*
X148088720Y-75486474D01*
X148086318Y-75510860D01*
X148088720Y-75535246D01*
X148095833Y-75558695D01*
X148107384Y-75580305D01*
X148122929Y-75599247D01*
X148141871Y-75614793D01*
X148163482Y-75626344D01*
X148165409Y-75627142D01*
X148280219Y-75703855D01*
X148377865Y-75801501D01*
X148454578Y-75916311D01*
X148507422Y-76043887D01*
X148534360Y-76179316D01*
X148534360Y-76317404D01*
X148507422Y-76452833D01*
X148454578Y-76580409D01*
X148377865Y-76695219D01*
X148280219Y-76792865D01*
X148165409Y-76869578D01*
X148163482Y-76870376D01*
X148141872Y-76881927D01*
X148122930Y-76897472D01*
X148107384Y-76916414D01*
X148095833Y-76938025D01*
X148088720Y-76961474D01*
X148086318Y-76985860D01*
X148088720Y-77010246D01*
X148095833Y-77033695D01*
X148107384Y-77055305D01*
X148122929Y-77074247D01*
X148141871Y-77089793D01*
X148163482Y-77101344D01*
X148165409Y-77102142D01*
X148280219Y-77178855D01*
X148377865Y-77276501D01*
X148454578Y-77391311D01*
X148507422Y-77518887D01*
X148534360Y-77654316D01*
X148534360Y-77792404D01*
X148507422Y-77927833D01*
X148454578Y-78055409D01*
X148377865Y-78170219D01*
X148280219Y-78267865D01*
X148165409Y-78344578D01*
X148163482Y-78345376D01*
X148141872Y-78356927D01*
X148122930Y-78372472D01*
X148107384Y-78391414D01*
X148095833Y-78413025D01*
X148088720Y-78436474D01*
X148086318Y-78460860D01*
X148088720Y-78485246D01*
X148095833Y-78508695D01*
X148107384Y-78530305D01*
X148122929Y-78549247D01*
X148141871Y-78564793D01*
X148163482Y-78576344D01*
X148165409Y-78577142D01*
X148280219Y-78653855D01*
X148377865Y-78751501D01*
X148454578Y-78866311D01*
X148507422Y-78993887D01*
X148534360Y-79129316D01*
X148534360Y-79267404D01*
X148507422Y-79402833D01*
X148454578Y-79530409D01*
X148377865Y-79645219D01*
X148280219Y-79742865D01*
X148165409Y-79819578D01*
X148163482Y-79820376D01*
X148141872Y-79831927D01*
X148122930Y-79847472D01*
X148107384Y-79866414D01*
X148095833Y-79888025D01*
X148088720Y-79911474D01*
X148086318Y-79935860D01*
X148088720Y-79960246D01*
X148095833Y-79983695D01*
X148107384Y-80005305D01*
X148122929Y-80024247D01*
X148141871Y-80039793D01*
X148163482Y-80051344D01*
X148165409Y-80052142D01*
X148280219Y-80128855D01*
X148377865Y-80226501D01*
X148454578Y-80341311D01*
X148507422Y-80468887D01*
X148534360Y-80604316D01*
X148534360Y-80742404D01*
X148507422Y-80877833D01*
X148454578Y-81005409D01*
X148377865Y-81120219D01*
X148280219Y-81217865D01*
X148165409Y-81294578D01*
X148163482Y-81295376D01*
X148141872Y-81306927D01*
X148122930Y-81322472D01*
X148107384Y-81341414D01*
X148095833Y-81363025D01*
X148088720Y-81386474D01*
X148086318Y-81410860D01*
X148088720Y-81435246D01*
X148095833Y-81458695D01*
X148107384Y-81480305D01*
X148122929Y-81499247D01*
X148141871Y-81514793D01*
X148163482Y-81526344D01*
X148165409Y-81527142D01*
X148280219Y-81603855D01*
X148377865Y-81701501D01*
X148454578Y-81816311D01*
X148507422Y-81943887D01*
X148534360Y-82079316D01*
X148534360Y-82217404D01*
X148507422Y-82352833D01*
X148454578Y-82480409D01*
X148377865Y-82595219D01*
X148280219Y-82692865D01*
X148165409Y-82769578D01*
X148163482Y-82770376D01*
X148141872Y-82781927D01*
X148122930Y-82797472D01*
X148107384Y-82816414D01*
X148095833Y-82838025D01*
X148088720Y-82861474D01*
X148086318Y-82885860D01*
X148088720Y-82910246D01*
X148095833Y-82933695D01*
X148107384Y-82955305D01*
X148122929Y-82974247D01*
X148141871Y-82989793D01*
X148163482Y-83001344D01*
X148165409Y-83002142D01*
X148280219Y-83078855D01*
X148377865Y-83176501D01*
X148454578Y-83291311D01*
X148507422Y-83418887D01*
X148534360Y-83554316D01*
X148534360Y-83692404D01*
X148507422Y-83827833D01*
X148454578Y-83955409D01*
X148377865Y-84070219D01*
X148280219Y-84167865D01*
X148165409Y-84244578D01*
X148163482Y-84245376D01*
X148141872Y-84256927D01*
X148122930Y-84272472D01*
X148107384Y-84291414D01*
X148095833Y-84313025D01*
X148088720Y-84336474D01*
X148086318Y-84360860D01*
X148088720Y-84385246D01*
X148095833Y-84408695D01*
X148107384Y-84430305D01*
X148122929Y-84449247D01*
X148141871Y-84464793D01*
X148163482Y-84476344D01*
X148165409Y-84477142D01*
X148280219Y-84553855D01*
X148377865Y-84651501D01*
X148454578Y-84766311D01*
X148507422Y-84893887D01*
X148534360Y-85029316D01*
X148534360Y-85167404D01*
X148507422Y-85302833D01*
X148454578Y-85430409D01*
X148377865Y-85545219D01*
X148280219Y-85642865D01*
X148279375Y-85643429D01*
X148260433Y-85658975D01*
X148244888Y-85677917D01*
X148233337Y-85699528D01*
X148226224Y-85722977D01*
X148223823Y-85747363D01*
X148226225Y-85771749D01*
X148233339Y-85795198D01*
X148244890Y-85816808D01*
X148260436Y-85835750D01*
X148279378Y-85851295D01*
X148300989Y-85862846D01*
X148324438Y-85869959D01*
X148348822Y-85872360D01*
X148534360Y-85872360D01*
X148534360Y-87274360D01*
X147132360Y-87274360D01*
X147132360Y-85872360D01*
X147317898Y-85872360D01*
X147342284Y-85869958D01*
X147365733Y-85862845D01*
X147387344Y-85851294D01*
X147406286Y-85835749D01*
X147421831Y-85816807D01*
X147433382Y-85795196D01*
X147440495Y-85771747D01*
X147442897Y-85747361D01*
X147440495Y-85722975D01*
X147433382Y-85699526D01*
X147421831Y-85677915D01*
X147406286Y-85658973D01*
X147387345Y-85643429D01*
X147386501Y-85642865D01*
X147288855Y-85545219D01*
X147212142Y-85430409D01*
X147159298Y-85302833D01*
X147132360Y-85167404D01*
X147132360Y-85029316D01*
X147159298Y-84893887D01*
X147212142Y-84766311D01*
X147288855Y-84651501D01*
X147386501Y-84553855D01*
X147501311Y-84477142D01*
X147503238Y-84476344D01*
X147524848Y-84464793D01*
X147543790Y-84449248D01*
X147559336Y-84430306D01*
X147570887Y-84408695D01*
X147578000Y-84385246D01*
X147580402Y-84360860D01*
X147578000Y-84336474D01*
X147570887Y-84313025D01*
X147559336Y-84291415D01*
X147543791Y-84272473D01*
X147524849Y-84256927D01*
X147503238Y-84245376D01*
X147501311Y-84244578D01*
X147386501Y-84167865D01*
X147288855Y-84070219D01*
X147212142Y-83955409D01*
X147159298Y-83827833D01*
X147132360Y-83692404D01*
X147132360Y-83554316D01*
X147159298Y-83418887D01*
X147212142Y-83291311D01*
X147288855Y-83176501D01*
X147386501Y-83078855D01*
X147501311Y-83002142D01*
X147503238Y-83001344D01*
X147524848Y-82989793D01*
X147543790Y-82974248D01*
X147559336Y-82955306D01*
X147570887Y-82933695D01*
X147578000Y-82910246D01*
X147580402Y-82885860D01*
X147578000Y-82861474D01*
X147570887Y-82838025D01*
X147559336Y-82816415D01*
X147543791Y-82797473D01*
X147524849Y-82781927D01*
X147503238Y-82770376D01*
X147501311Y-82769578D01*
X147386501Y-82692865D01*
X147288855Y-82595219D01*
X147212142Y-82480409D01*
X147159298Y-82352833D01*
X147132360Y-82217404D01*
X147132360Y-82079316D01*
X147159298Y-81943887D01*
X147212142Y-81816311D01*
X147288855Y-81701501D01*
X147386501Y-81603855D01*
X147501311Y-81527142D01*
X147503238Y-81526344D01*
X147524848Y-81514793D01*
X147543790Y-81499248D01*
X147559336Y-81480306D01*
X147570887Y-81458695D01*
X147578000Y-81435246D01*
X147580402Y-81410860D01*
X147578000Y-81386474D01*
X147570887Y-81363025D01*
X147559336Y-81341415D01*
X147543791Y-81322473D01*
X147524849Y-81306927D01*
X147503238Y-81295376D01*
X147501311Y-81294578D01*
X147386501Y-81217865D01*
X147288855Y-81120219D01*
X147212142Y-81005409D01*
X147159298Y-80877833D01*
X147132360Y-80742404D01*
X147132360Y-80604316D01*
X147159298Y-80468887D01*
X147212142Y-80341311D01*
X147288855Y-80226501D01*
X147386501Y-80128855D01*
X147501311Y-80052142D01*
X147503238Y-80051344D01*
X147524848Y-80039793D01*
X147543790Y-80024248D01*
X147559336Y-80005306D01*
X147570887Y-79983695D01*
X147578000Y-79960246D01*
X147580402Y-79935860D01*
X147578000Y-79911474D01*
X147570887Y-79888025D01*
X147559336Y-79866415D01*
X147543791Y-79847473D01*
X147524849Y-79831927D01*
X147503238Y-79820376D01*
X147501311Y-79819578D01*
X147386501Y-79742865D01*
X147288855Y-79645219D01*
X147212142Y-79530409D01*
X147159298Y-79402833D01*
X147132360Y-79267404D01*
X147132360Y-79129316D01*
X147159298Y-78993887D01*
X147212142Y-78866311D01*
X147288855Y-78751501D01*
X147386501Y-78653855D01*
X147501311Y-78577142D01*
X147503238Y-78576344D01*
X147524848Y-78564793D01*
X147543790Y-78549248D01*
X147559336Y-78530306D01*
X147570887Y-78508695D01*
X147578000Y-78485246D01*
X147580402Y-78460860D01*
X147578000Y-78436474D01*
X147570887Y-78413025D01*
X147559336Y-78391415D01*
X147543791Y-78372473D01*
X147524849Y-78356927D01*
X147503238Y-78345376D01*
X147501311Y-78344578D01*
X147386501Y-78267865D01*
X147288855Y-78170219D01*
X147212142Y-78055409D01*
X147159298Y-77927833D01*
X147132360Y-77792404D01*
X147132360Y-77654316D01*
X147159298Y-77518887D01*
X147212142Y-77391311D01*
X147288855Y-77276501D01*
X147386501Y-77178855D01*
X147501311Y-77102142D01*
X147503238Y-77101344D01*
X147524848Y-77089793D01*
X147543790Y-77074248D01*
X147559336Y-77055306D01*
X147570887Y-77033695D01*
X147578000Y-77010246D01*
X147580402Y-76985860D01*
X147578000Y-76961474D01*
X147570887Y-76938025D01*
X147559336Y-76916415D01*
X147543791Y-76897473D01*
X147524849Y-76881927D01*
X147503238Y-76870376D01*
X147501311Y-76869578D01*
X147386501Y-76792865D01*
X147288855Y-76695219D01*
X147212142Y-76580409D01*
X147159298Y-76452833D01*
X147132360Y-76317404D01*
X147132360Y-76179316D01*
X147159298Y-76043887D01*
X147212142Y-75916311D01*
X147288855Y-75801501D01*
X147386501Y-75703855D01*
X147501311Y-75627142D01*
X147503238Y-75626344D01*
X147524848Y-75614793D01*
X147543790Y-75599248D01*
X147559336Y-75580306D01*
X147570887Y-75558695D01*
X147578000Y-75535246D01*
X147580402Y-75510860D01*
X147578000Y-75486474D01*
X147570887Y-75463025D01*
X147559336Y-75441415D01*
X147543791Y-75422473D01*
X147524849Y-75406927D01*
X147503238Y-75395376D01*
X147501311Y-75394578D01*
X147386501Y-75317865D01*
X147288855Y-75220219D01*
X147212142Y-75105409D01*
X147159298Y-74977833D01*
X147132360Y-74842404D01*
X147132360Y-74704316D01*
X147159298Y-74568887D01*
X147212142Y-74441311D01*
X147288855Y-74326501D01*
X147386501Y-74228855D01*
X147501311Y-74152142D01*
X147503238Y-74151344D01*
X147524848Y-74139793D01*
X147543790Y-74124248D01*
X147559336Y-74105306D01*
X147570887Y-74083695D01*
X147578000Y-74060246D01*
X147580402Y-74035860D01*
X147578000Y-74011474D01*
X147570887Y-73988025D01*
X147559336Y-73966415D01*
X147543791Y-73947473D01*
X147524849Y-73931927D01*
X147503238Y-73920376D01*
X147501311Y-73919578D01*
X147386501Y-73842865D01*
X147288855Y-73745219D01*
X147212142Y-73630409D01*
X147159298Y-73502833D01*
X147132360Y-73367404D01*
X147132360Y-73229316D01*
X147159298Y-73093887D01*
X147212142Y-72966311D01*
X147288855Y-72851501D01*
X147386501Y-72753855D01*
X147501311Y-72677142D01*
X147503238Y-72676344D01*
X147524848Y-72664793D01*
X147543790Y-72649248D01*
X147559336Y-72630306D01*
X147570887Y-72608695D01*
X147578000Y-72585246D01*
X147580402Y-72560860D01*
X147578000Y-72536474D01*
X147570887Y-72513025D01*
X147559336Y-72491415D01*
X147543791Y-72472473D01*
X147524849Y-72456927D01*
X147503238Y-72445376D01*
X147501311Y-72444578D01*
X147386501Y-72367865D01*
X147288855Y-72270219D01*
X147212142Y-72155409D01*
X147159298Y-72027833D01*
X147132360Y-71892404D01*
X147132360Y-71754316D01*
X147159298Y-71618887D01*
X147212142Y-71491311D01*
X147288855Y-71376501D01*
X147386501Y-71278855D01*
X147501311Y-71202142D01*
X147628887Y-71149298D01*
X147764316Y-71122360D01*
X147902404Y-71122360D01*
X148037833Y-71149298D01*
G37*
G36*
X101531298Y-58115873D02*
G01*
X101995550Y-58308172D01*
X101995552Y-58308173D01*
X102413368Y-58587349D01*
X102768691Y-58942672D01*
X103047867Y-59360488D01*
X103047868Y-59360490D01*
X103240167Y-59824742D01*
X103338200Y-60317587D01*
X103338200Y-60820093D01*
X103240167Y-61312938D01*
X103047868Y-61777190D01*
X103047867Y-61777192D01*
X102768691Y-62195008D01*
X102413368Y-62550331D01*
X101995552Y-62829507D01*
X101995551Y-62829508D01*
X101995550Y-62829508D01*
X101531298Y-63021807D01*
X101038453Y-63119840D01*
X100535947Y-63119840D01*
X100043102Y-63021807D01*
X99578850Y-62829508D01*
X99578849Y-62829508D01*
X99578848Y-62829507D01*
X99161032Y-62550331D01*
X98805709Y-62195008D01*
X98526533Y-61777192D01*
X98526532Y-61777190D01*
X98334233Y-61312938D01*
X98236200Y-60820093D01*
X98236200Y-60317587D01*
X98334233Y-59824742D01*
X98526532Y-59360490D01*
X98526533Y-59360488D01*
X98805709Y-58942672D01*
X99161032Y-58587349D01*
X99578848Y-58308173D01*
X99578850Y-58308172D01*
X100043102Y-58115873D01*
X100535947Y-58017840D01*
X101038453Y-58017840D01*
X101531298Y-58115873D01*
G37*
G36*
X153611949Y-50293337D02*
G01*
X153660345Y-50302964D01*
X153698111Y-50318607D01*
X153751520Y-50340730D01*
X153751521Y-50340731D01*
X153833578Y-50395559D01*
X153903361Y-50465342D01*
X153903362Y-50465344D01*
X153958190Y-50547400D01*
X153995956Y-50638576D01*
X154015209Y-50735366D01*
X154015209Y-50834056D01*
X153995956Y-50930846D01*
X153958190Y-51022022D01*
X153958189Y-51022023D01*
X153903361Y-51104080D01*
X153833578Y-51173863D01*
X153792271Y-51201463D01*
X153751520Y-51228692D01*
X153698111Y-51250815D01*
X153660345Y-51266458D01*
X153611949Y-51276085D01*
X153563554Y-51285711D01*
X153464864Y-51285711D01*
X153416469Y-51276085D01*
X153368073Y-51266458D01*
X153330307Y-51250815D01*
X153276898Y-51228692D01*
X153236147Y-51201463D01*
X153194840Y-51173863D01*
X153125057Y-51104080D01*
X153070229Y-51022023D01*
X153070228Y-51022022D01*
X153032462Y-50930846D01*
X153013209Y-50834056D01*
X153013209Y-50735366D01*
X153032462Y-50638576D01*
X153070228Y-50547400D01*
X153125056Y-50465344D01*
X153125057Y-50465342D01*
X153194840Y-50395559D01*
X153276897Y-50340731D01*
X153276898Y-50340730D01*
X153330307Y-50318607D01*
X153368073Y-50302964D01*
X153416469Y-50293338D01*
X153464864Y-50283711D01*
X153563554Y-50283711D01*
X153611949Y-50293337D01*
G37*
G36*
X150398011Y-46463116D02*
G01*
X150446407Y-46472742D01*
X150484173Y-46488385D01*
X150537582Y-46510508D01*
X150537583Y-46510509D01*
X150619640Y-46565337D01*
X150689423Y-46635120D01*
X150689424Y-46635122D01*
X150744252Y-46717178D01*
X150782018Y-46808354D01*
X150801271Y-46905144D01*
X150801271Y-47003834D01*
X150782018Y-47100624D01*
X150744252Y-47191800D01*
X150744251Y-47191801D01*
X150689423Y-47273858D01*
X150619640Y-47343641D01*
X150578333Y-47371241D01*
X150537582Y-47398470D01*
X150484173Y-47420593D01*
X150446407Y-47436236D01*
X150398011Y-47445863D01*
X150349616Y-47455489D01*
X150250926Y-47455489D01*
X150202531Y-47445863D01*
X150154135Y-47436236D01*
X150116369Y-47420593D01*
X150062960Y-47398470D01*
X150022209Y-47371241D01*
X149980902Y-47343641D01*
X149911119Y-47273858D01*
X149856291Y-47191801D01*
X149856290Y-47191800D01*
X149818524Y-47100624D01*
X149799271Y-47003834D01*
X149799271Y-46905144D01*
X149818524Y-46808354D01*
X149856290Y-46717178D01*
X149911118Y-46635122D01*
X149911119Y-46635120D01*
X149980902Y-46565337D01*
X150062959Y-46510509D01*
X150062960Y-46510508D01*
X150116369Y-46488385D01*
X150154135Y-46472742D01*
X150202531Y-46463116D01*
X150250926Y-46453489D01*
X150349616Y-46453489D01*
X150398011Y-46463116D01*
G37*
G36*
X117080600Y-44538200D02*
G01*
X115278600Y-44538200D01*
X115278600Y-42736200D01*
X117080600Y-42736200D01*
X117080600Y-44538200D01*
G37*
G36*
X118833112Y-42741127D02*
G01*
X118982412Y-42770824D01*
X119146384Y-42838744D01*
X119293954Y-42937347D01*
X119419453Y-43062846D01*
X119518056Y-43210416D01*
X119585976Y-43374388D01*
X119620600Y-43548459D01*
X119620600Y-43725941D01*
X119585976Y-43900012D01*
X119518056Y-44063984D01*
X119419453Y-44211554D01*
X119293954Y-44337053D01*
X119146384Y-44435656D01*
X118982412Y-44503576D01*
X118833112Y-44533273D01*
X118808342Y-44538200D01*
X118630858Y-44538200D01*
X118606088Y-44533273D01*
X118456788Y-44503576D01*
X118292816Y-44435656D01*
X118145246Y-44337053D01*
X118019747Y-44211554D01*
X117921144Y-44063984D01*
X117853224Y-43900012D01*
X117818600Y-43725941D01*
X117818600Y-43548459D01*
X117853224Y-43374388D01*
X117921144Y-43210416D01*
X118019747Y-43062846D01*
X118145246Y-42937347D01*
X118292816Y-42838744D01*
X118456788Y-42770824D01*
X118606088Y-42741127D01*
X118630858Y-42736200D01*
X118808342Y-42736200D01*
X118833112Y-42741127D01*
G37*
G36*
X134936800Y-44106400D02*
G01*
X133134800Y-44106400D01*
X133134800Y-42304400D01*
X134936800Y-42304400D01*
X134936800Y-44106400D01*
G37*
G36*
X136689312Y-42309327D02*
G01*
X136838612Y-42339024D01*
X137002584Y-42406944D01*
X137150154Y-42505547D01*
X137275653Y-42631046D01*
X137374256Y-42778616D01*
X137442176Y-42942588D01*
X137476800Y-43116659D01*
X137476800Y-43294141D01*
X137442176Y-43468212D01*
X137374256Y-43632184D01*
X137275653Y-43779754D01*
X137150154Y-43905253D01*
X137002584Y-44003856D01*
X136838612Y-44071776D01*
X136689312Y-44101473D01*
X136664542Y-44106400D01*
X136487058Y-44106400D01*
X136462288Y-44101473D01*
X136312988Y-44071776D01*
X136149016Y-44003856D01*
X136001446Y-43905253D01*
X135875947Y-43779754D01*
X135777344Y-43632184D01*
X135709424Y-43468212D01*
X135674800Y-43294141D01*
X135674800Y-43116659D01*
X135709424Y-42942588D01*
X135777344Y-42778616D01*
X135875947Y-42631046D01*
X136001446Y-42505547D01*
X136149016Y-42406944D01*
X136312988Y-42339024D01*
X136462288Y-42309327D01*
X136487058Y-42304400D01*
X136664542Y-42304400D01*
X136689312Y-42309327D01*
G37*
G36*
X139229312Y-42309327D02*
G01*
X139378612Y-42339024D01*
X139542584Y-42406944D01*
X139690154Y-42505547D01*
X139815653Y-42631046D01*
X139914256Y-42778616D01*
X139982176Y-42942588D01*
X140016800Y-43116659D01*
X140016800Y-43294141D01*
X139982176Y-43468212D01*
X139914256Y-43632184D01*
X139815653Y-43779754D01*
X139690154Y-43905253D01*
X139542584Y-44003856D01*
X139378612Y-44071776D01*
X139229312Y-44101473D01*
X139204542Y-44106400D01*
X139027058Y-44106400D01*
X139002288Y-44101473D01*
X138852988Y-44071776D01*
X138689016Y-44003856D01*
X138541446Y-43905253D01*
X138415947Y-43779754D01*
X138317344Y-43632184D01*
X138249424Y-43468212D01*
X138214800Y-43294141D01*
X138214800Y-43116659D01*
X138249424Y-42942588D01*
X138317344Y-42778616D01*
X138415947Y-42631046D01*
X138541446Y-42505547D01*
X138689016Y-42406944D01*
X138852988Y-42339024D01*
X139002288Y-42309327D01*
X139027058Y-42304400D01*
X139204542Y-42304400D01*
X139229312Y-42309327D01*
G37*
G36*
X141769312Y-42309327D02*
G01*
X141918612Y-42339024D01*
X142082584Y-42406944D01*
X142230154Y-42505547D01*
X142355653Y-42631046D01*
X142454256Y-42778616D01*
X142522176Y-42942588D01*
X142556800Y-43116659D01*
X142556800Y-43294141D01*
X142522176Y-43468212D01*
X142454256Y-43632184D01*
X142355653Y-43779754D01*
X142230154Y-43905253D01*
X142082584Y-44003856D01*
X141918612Y-44071776D01*
X141769312Y-44101473D01*
X141744542Y-44106400D01*
X141567058Y-44106400D01*
X141542288Y-44101473D01*
X141392988Y-44071776D01*
X141229016Y-44003856D01*
X141081446Y-43905253D01*
X140955947Y-43779754D01*
X140857344Y-43632184D01*
X140789424Y-43468212D01*
X140754800Y-43294141D01*
X140754800Y-43116659D01*
X140789424Y-42942588D01*
X140857344Y-42778616D01*
X140955947Y-42631046D01*
X141081446Y-42505547D01*
X141229016Y-42406944D01*
X141392988Y-42339024D01*
X141542288Y-42309327D01*
X141567058Y-42304400D01*
X141744542Y-42304400D01*
X141769312Y-42309327D01*
G37*
M02*
